<?xml version="1.0" encoding="utf-8"?>
<!-- Generator: Adobe Illustrator 25.4.1, SVG Export Plug-In . SVG Version: 6.00 Build 0)  -->
<svg version="1.1" id="Capa_1" xmlns="http://www.w3.org/2000/svg" xmlns:xlink="http://www.w3.org/1999/xlink" x="0px" y="0px"
	 viewBox="0 0 300 300" style="enable-background:new 0 0 300 300;" xml:space="preserve">
<style type="text/css">
	.st0{fill:#F85B74;}
	.st1{fill:none;stroke:#FFFFFF;stroke-width:0.5;stroke-miterlimit:10;}
	.st2{fill:#181449;}
	.st3{fill:#FFFFFF;}
	.st4{fill:#6E92DC;}
	.st5{font-family:'Quicksand-SemiBold';}
	.st6{font-size:6.2956px;}
	.st7{fill:none;stroke:#FFFFFF;stroke-width:0.32;stroke-miterlimit:10;}
	.st8{fill:none;stroke:#FFFFFF;stroke-width:0.48;stroke-linecap:round;stroke-linejoin:round;stroke-miterlimit:10;}
	.st9{fill:#FF6867;}
	.st10{fill:none;stroke:#FFFFFF;stroke-width:0.2335;stroke-linecap:round;stroke-linejoin:round;stroke-miterlimit:10;}
	.st11{fill:#3239AA;}
	.st12{font-family:'Quicksand-Medium';}
	.st13{font-size:8.5741px;}
	.st14{font-size:5.4944px;}
	.st15{fill:#FFA09C;}
	.st16{fill:none;stroke:#FFFFFF;stroke-width:0.5674;stroke-linecap:round;stroke-linejoin:round;stroke-miterlimit:10;}
	.st17{fill:none;stroke:#3239AA;stroke-width:0.4356;stroke-miterlimit:10;}
	.st18{fill:none;stroke:#3239AA;stroke-width:0.4787;stroke-miterlimit:10;}
	.st19{fill:#3540C4;}
	.st20{fill:none;stroke:#FFA09C;stroke-width:0.5307;stroke-miterlimit:10;}
	.st21{fill:none;stroke:#FFFFFF;stroke-width:0.9736;stroke-linecap:round;stroke-linejoin:round;stroke-miterlimit:10;}
	.st22{font-size:7.7916px;}
	.st23{fill:none;stroke:#FFA09C;stroke-width:0.4498;stroke-miterlimit:10;}
	.st24{fill:none;stroke:#FFA09C;stroke-width:0.6936;stroke-linecap:round;stroke-linejoin:round;stroke-miterlimit:10;}
	.st25{fill:#FF9292;}
	.st26{fill:none;stroke:#6E92DC;stroke-width:0.25;stroke-miterlimit:10;}
	.st27{fill:none;stroke:#181449;stroke-width:0.1904;stroke-linecap:round;stroke-linejoin:round;stroke-miterlimit:10;}
	.st28{fill:none;stroke:#181449;stroke-width:0.25;stroke-linecap:round;stroke-linejoin:round;stroke-miterlimit:10;}
</style>
<g>
	<g>
		<g>
			<polygon class="st0" points="278.7,283.6 21.7,283.6 53.7,253.6 248.6,253.6 			"/>
			<g>
				<path class="st0" d="M292.3,282.6h-14.9c-0.2,0-0.3-0.1-0.3-0.3c0-0.2,0.1-0.3,0.3-0.3h14.9c0.2,0,0.3,0.1,0.3,0.3
					C292.6,282.5,292.5,282.6,292.3,282.6z"/>
				<path class="st0" d="M289.9,280.1h-14.9c-0.2,0-0.3-0.1-0.3-0.3c0-0.2,0.1-0.3,0.3-0.3h14.9c0.2,0,0.3,0.1,0.3,0.3
					C290.2,280,290,280.1,289.9,280.1z"/>
				<path class="st0" d="M287.4,277.7h-14.9c-0.2,0-0.3-0.1-0.3-0.3c0-0.2,0.1-0.3,0.3-0.3h14.9c0.2,0,0.3,0.1,0.3,0.3
					C287.7,277.5,287.6,277.7,287.4,277.7z"/>
				<path class="st0" d="M284.9,275.2H270c-0.2,0-0.3-0.1-0.3-0.3c0-0.2,0.1-0.3,0.3-0.3h14.9c0.2,0,0.3,0.1,0.3,0.3
					C285.2,275.1,285.1,275.2,284.9,275.2z"/>
				<path class="st0" d="M282.5,272.7h-14.9c-0.2,0-0.3-0.1-0.3-0.3c0-0.2,0.1-0.3,0.3-0.3h14.9c0.2,0,0.3,0.1,0.3,0.3
					C282.8,272.6,282.6,272.7,282.5,272.7z"/>
				<path class="st0" d="M280,270.3h-14.9c-0.2,0-0.3-0.1-0.3-0.3s0.1-0.3,0.3-0.3H280c0.2,0,0.3,0.1,0.3,0.3S280.2,270.3,280,270.3
					z"/>
				<path class="st0" d="M277.5,267.8h-14.9c-0.2,0-0.3-0.1-0.3-0.3c0-0.2,0.1-0.3,0.3-0.3h14.9c0.2,0,0.3,0.1,0.3,0.3
					C277.8,267.7,277.7,267.8,277.5,267.8z"/>
				<path class="st0" d="M275.1,265.4h-14.9c-0.2,0-0.3-0.1-0.3-0.3c0-0.2,0.1-0.3,0.3-0.3h14.9c0.2,0,0.3,0.1,0.3,0.3
					C275.4,265.2,275.2,265.4,275.1,265.4z"/>
				<path class="st0" d="M272.6,262.9h-14.9c-0.2,0-0.3-0.1-0.3-0.3c0-0.2,0.1-0.3,0.3-0.3h14.9c0.2,0,0.3,0.1,0.3,0.3
					C272.9,262.8,272.8,262.9,272.6,262.9z"/>
				<path class="st0" d="M270.1,260.4h-14.9c-0.2,0-0.3-0.1-0.3-0.3c0-0.2,0.1-0.3,0.3-0.3h14.9c0.2,0,0.3,0.1,0.3,0.3
					C270.4,260.3,270.3,260.4,270.1,260.4z"/>
				<path class="st0" d="M267.7,258h-14.9c-0.2,0-0.3-0.1-0.3-0.3c0-0.2,0.1-0.3,0.3-0.3h14.9c0.2,0,0.3,0.1,0.3,0.3
					C268,257.8,267.8,258,267.7,258z"/>
				<path class="st0" d="M265.2,255.5h-14.9c-0.2,0-0.3-0.1-0.3-0.3c0-0.2,0.1-0.3,0.3-0.3h14.9c0.2,0,0.3,0.1,0.3,0.3
					C265.5,255.4,265.4,255.5,265.2,255.5z"/>
			</g>
			<g>
				<path class="st0" d="M25.1,281.9H10.2c-0.2,0-0.3-0.1-0.3-0.3c0-0.2,0.1-0.3,0.3-0.3h14.9c0.2,0,0.3,0.1,0.3,0.3
					C25.4,281.8,25.3,281.9,25.1,281.9z"/>
				<path class="st0" d="M27.7,279.4h-15c-0.2,0-0.3-0.1-0.3-0.3s0.1-0.3,0.3-0.3h15c0.2,0,0.3,0.1,0.3,0.3S27.8,279.4,27.7,279.4z"
					/>
				<path class="st0" d="M30.2,277H15.1c-0.2,0-0.3-0.1-0.3-0.3s0.1-0.3,0.3-0.3h15.1c0.2,0,0.3,0.1,0.3,0.3S30.4,277,30.2,277z"/>
				<path class="st0" d="M32.7,274.5H17.6c-0.2,0-0.3-0.1-0.3-0.3c0-0.2,0.1-0.3,0.3-0.3h15.1c0.2,0,0.3,0.1,0.3,0.3
					C33,274.4,32.9,274.5,32.7,274.5z"/>
				<path class="st0" d="M35.3,272H20.1c-0.2,0-0.3-0.1-0.3-0.3c0-0.2,0.1-0.3,0.3-0.3h15.2c0.2,0,0.3,0.1,0.3,0.3
					C35.6,271.9,35.5,272,35.3,272z"/>
				<path class="st0" d="M37.8,269.6H22.5c-0.2,0-0.3-0.1-0.3-0.3c0-0.2,0.1-0.3,0.3-0.3h15.3c0.2,0,0.3,0.1,0.3,0.3
					C38.1,269.4,38,269.6,37.8,269.6z"/>
				<path class="st0" d="M40.4,267.1H25c-0.2,0-0.3-0.1-0.3-0.3c0-0.2,0.1-0.3,0.3-0.3h15.4c0.2,0,0.3,0.1,0.3,0.3
					C40.7,267,40.5,267.1,40.4,267.1z"/>
				<path class="st0" d="M42.9,264.6H27.5c-0.2,0-0.3-0.1-0.3-0.3c0-0.2,0.1-0.3,0.3-0.3h15.5c0.2,0,0.3,0.1,0.3,0.3
					C43.2,264.5,43.1,264.6,42.9,264.6z"/>
				<path class="st0" d="M45.5,262.2H29.9c-0.2,0-0.3-0.1-0.3-0.3s0.1-0.3,0.3-0.3h15.5c0.2,0,0.3,0.1,0.3,0.3
					S45.6,262.2,45.5,262.2z"/>
				<path class="st0" d="M48,259.7H32.4c-0.2,0-0.3-0.1-0.3-0.3c0-0.2,0.1-0.3,0.3-0.3H48c0.2,0,0.3,0.1,0.3,0.3
					C48.3,259.6,48.2,259.7,48,259.7z"/>
				<path class="st0" d="M50.5,257.2H34.8c-0.2,0-0.3-0.1-0.3-0.3c0-0.2,0.1-0.3,0.3-0.3h15.7c0.2,0,0.3,0.1,0.3,0.3
					C50.8,257.1,50.7,257.2,50.5,257.2z"/>
				<path class="st0" d="M53.1,254.8H37.3c-0.2,0-0.3-0.1-0.3-0.3s0.1-0.3,0.3-0.3h15.8c0.2,0,0.3,0.1,0.3,0.3
					S53.2,254.8,53.1,254.8z"/>
			</g>
		</g>
	</g>
	<g>
		<g>
			<line class="st1" x1="240.7" y1="253.6" x2="268.8" y2="283.6"/>
			<line class="st1" x1="234.5" y1="253.6" x2="262.3" y2="283.6"/>
		</g>
		<g>
			<line class="st1" x1="61.8" y1="253.6" x2="33.7" y2="283.6"/>
			<line class="st1" x1="68" y1="253.6" x2="40.2" y2="283.6"/>
		</g>
	</g>
</g>
<g>
	<path class="st2" d="M259.9,224.8H37c-6.8,0-12.3-5.5-12.3-12.3V53.2C24.7,46.5,30.2,41,37,41h222.9c6.8,0,12.3,5.5,12.3,12.3
		v159.3C272.1,219.3,266.6,224.8,259.9,224.8z"/>
	<rect x="45.2" y="52.9" class="st3" width="210.9" height="159.9"/>
	<g>
		<rect x="77.3" y="75.6" class="st4" width="29.6" height="29"/>
		<g>
			<g>
				<text transform="matrix(1 0 0 1 80.6763 84.3676)" class="st3 st5 st6">1</text>
			</g>
		</g>
		<g>
			<g>
				<path class="st3" d="M102.4,84.2H87.4c-0.7,0-1.3-0.6-1.3-1.3v-1.8c0-0.7,0.6-1.3,1.3-1.3h15.1c0.7,0,1.3,0.6,1.3,1.3v1.8
					C103.7,83.7,103.1,84.2,102.4,84.2z"/>
				<path class="st3" d="M102.9,87.6H86.9c-0.4,0-0.8-0.3-0.8-0.8l0,0c0-0.4,0.3-0.8,0.8-0.8h16.1c0.4,0,0.8,0.3,0.8,0.8l0,0
					C103.7,87.2,103.4,87.6,102.9,87.6z"/>
			</g>
			<g>
				
					<rect x="98.7" y="96.1" transform="matrix(0.9999 -1.410511e-02 1.410511e-02 0.9999 -1.377 1.4329)" class="st7" width="4.4" height="4.4"/>
				<polyline class="st8" points="99.7,97.5 100.9,99.1 103.7,95.1 				"/>
			</g>
		</g>
	</g>
	<g>
		<g>
			<g>
				<rect x="226.1" y="131.6" class="st9" width="30" height="26.4"/>
				<g>
					<g>
						<path class="st3" d="M253.8,138.4h-14.5c-0.6,0-1.1-0.5-1.1-1.1v-1.1c0-0.6,0.5-1.1,1.1-1.1h14.5c0.6,0,1.1,0.5,1.1,1.1v1.1
							C254.9,137.9,254.4,138.4,253.8,138.4z"/>
						<path class="st3" d="M254.3,140.9h-15.5c-0.3,0-0.6-0.3-0.6-0.6v0c0-0.3,0.3-0.6,0.6-0.6h15.5c0.3,0,0.6,0.3,0.6,0.6l0,0
							C254.9,140.7,254.6,140.9,254.3,140.9z"/>
					</g>
				</g>
			</g>
		</g>
		<g>
			<g>
				<text transform="matrix(1 0 0 1 228.623 138.5097)" class="st3 st5 st6">20</text>
			</g>
		</g>
		<g>
			<path class="st3" d="M234.7,152.7c-1.8,0-3.2-1.4-3.2-3.2c0-1.8,1.4-3.2,3.2-3.2c1.8,0,3.2,1.4,3.2,3.2
				C237.9,151.3,236.5,152.7,234.7,152.7z M234.7,146.4c-1.7,0-3.1,1.4-3.1,3.1c0,1.7,1.4,3.1,3.1,3.1c1.7,0,3.1-1.4,3.1-3.1
				C237.8,147.8,236.4,146.4,234.7,146.4z"/>
			<path class="st3" d="M236.3,150.1h-1.6c-0.1,0-0.1-0.1-0.1-0.1v-1.6c0-0.1,0.1-0.1,0.1-0.1c0.1,0,0.1,0.1,0.1,0.1v1.5h1.5
				c0.1,0,0.1,0.1,0.1,0.1C236.4,150,236.4,150.1,236.3,150.1z"/>
			<path class="st3" d="M233.3,145.9l-1.9,1.4c-0.4-0.5-0.3-1.3,0.3-1.7C232.2,145.3,232.9,145.4,233.3,145.9z"/>
			<path class="st3" d="M237.8,147.3l-2-1.3c0.4-0.5,1.1-0.7,1.6-0.3C238.1,146,238.2,146.8,237.8,147.3z"/>
		</g>
		<line class="st10" x1="242.8" y1="145.9" x2="242.8" y2="153.1"/>
		<path class="st1" d="M252.3,148.5c0-1.4-1.2-2.6-2.6-2.6c-1.4,0-2.6,1.2-2.6,2.6c0,0.4,0.1,0.8,0.3,1.1l0,0l0.1,0.3
			c0,0,0,0.1,0.1,0.1l1.6,2.4c0.2,0.3,0.7,0.3,1,0l1.6-2.3c0.1-0.1,0.1-0.2,0.2-0.3l0.1-0.1l0,0
			C252.2,149.3,252.3,148.9,252.3,148.5z M249.9,149.6c-0.6,0-1.1-0.5-1.1-1.1c0-0.6,0.5-1.1,1.1-1.1c0.6,0,1.1,0.5,1.1,1.1
			C251,149.1,250.5,149.6,249.9,149.6z"/>
	</g>
	<circle class="st1" cx="36.7" cy="132.9" r="6.3"/>
	<circle class="st1" cx="262.4" cy="132.9" r="1.6"/>
	<g>
		<rect x="44.5" y="52.9" class="st11" width="211.5" height="22.7"/>
		<g>
			<text transform="matrix(1 0 0 1 53.8887 67.4218)" class="st3 st12 st13">Month</text>
			<g>
				<path class="st4" d="M164.1,67.7h-24.5c-0.7,0-1.3-0.6-1.3-1.3V62c0-0.7,0.6-1.3,1.3-1.3h24.5c0.7,0,1.3,0.6,1.3,1.3v4.3
					C165.4,67.1,164.8,67.7,164.1,67.7z"/>
				<g>
					<text transform="matrix(1 0 0 1 141.9717 66.0585)" class="st3 st12 st14">Week</text>
					<path class="st3" d="M159.5,63.7h2.5c0.1,0,0.2,0.1,0.1,0.2l-1.2,1.6c-0.1,0.1-0.2,0.1-0.3,0l-1.3-1.6
						C159.2,63.8,159.3,63.7,159.5,63.7z"/>
				</g>
			</g>
			<g>
				<path class="st15" d="M134.5,67.7H110c-0.7,0-1.3-0.6-1.3-1.3V62c0-0.7,0.6-1.3,1.3-1.3h24.5c0.7,0,1.3,0.6,1.3,1.3v4.3
					C135.8,67.1,135.2,67.7,134.5,67.7z"/>
				<g>
					<text transform="matrix(1 0 0 1 112.3818 66.0585)" class="st3 st12 st14">Day</text>
					<path class="st3" d="M129.9,63.7h2.5c0.1,0,0.2,0.1,0.1,0.2l-1.2,1.6c-0.1,0.1-0.2,0.1-0.3,0l-1.3-1.6
						C129.7,63.8,129.7,63.7,129.9,63.7z"/>
				</g>
			</g>
			<g>
				<path class="st9" d="M193.7,67.7h-24.5c-0.7,0-1.3-0.6-1.3-1.3V62c0-0.7,0.6-1.3,1.3-1.3h24.5c0.7,0,1.3,0.6,1.3,1.3v4.3
					C195,67.1,194.4,67.7,193.7,67.7z"/>
				<g>
					<text transform="matrix(1 0 0 1 171.5605 66.0585)" class="st3 st12 st14">Month</text>
					<path class="st3" d="M189,63.7h2.5c0.1,0,0.2,0.1,0.1,0.2l-1.2,1.6c-0.1,0.1-0.2,0.1-0.3,0l-1.3-1.6
						C188.8,63.8,188.9,63.7,189,63.7z"/>
				</g>
			</g>
			<g>
				<g>
					<path class="st16" d="M232.3,64.6c0,1.2-1,2.3-2.3,2.3c-1.2,0-2.3-1-2.3-2.3c0-1.2,1-2.3,2.3-2.3
						C231.2,62.3,232.3,63.3,232.3,64.6z"/>
					<line class="st16" x1="231.8" y1="65.9" x2="233.7" y2="67.5"/>
				</g>
				<g>
					<line class="st16" x1="244.8" y1="61.4" x2="244.8" y2="67.5"/>
					<line class="st16" x1="247.9" y1="64.5" x2="241.8" y2="64.5"/>
				</g>
			</g>
		</g>
	</g>
	<g>
		<line class="st17" x1="45.2" y1="104.5" x2="256.1" y2="104.5"/>
		<line class="st17" x1="45.2" y1="131.5" x2="256.1" y2="131.5"/>
		<line class="st17" x1="45.2" y1="158" x2="256.1" y2="158"/>
		<line class="st17" x1="45.2" y1="183.8" x2="256.1" y2="183.8"/>
		<line class="st18" x1="77.1" y1="75.4" x2="77.1" y2="212.8"/>
		<line class="st18" x1="106.9" y1="75.4" x2="106.9" y2="212.8"/>
		<line class="st18" x1="136.7" y1="75.4" x2="136.7" y2="212.8"/>
		<line class="st18" x1="166.5" y1="75.4" x2="166.5" y2="212.8"/>
		<line class="st18" x1="196.2" y1="75.4" x2="196.2" y2="212.8"/>
		<line class="st18" x1="226" y1="75.4" x2="226" y2="212.8"/>
	</g>
	<g>
		<g>
			<g>
				<text transform="matrix(1 0 0 1 110.2656 84.3676)" class="st11 st5 st6">2</text>
			</g>
		</g>
		<g>
			<g>
				<text transform="matrix(1 0 0 1 139.8555 84.3676)" class="st11 st5 st6">3</text>
			</g>
		</g>
		<g>
			<g>
				<text transform="matrix(1 0 0 1 169.4443 84.3676)" class="st11 st5 st6">4</text>
			</g>
		</g>
		<g>
			<g>
				<text transform="matrix(1 0 0 1 199.0342 84.3676)" class="st11 st5 st6">5</text>
			</g>
		</g>
		<g>
			<g>
				<text transform="matrix(1 0 0 1 228.623 84.3676)" class="st11 st5 st6">6</text>
			</g>
		</g>
		<g>
			<g>
				<text transform="matrix(1 0 0 1 80.6763 111.4389)" class="st11 st5 st6">8</text>
			</g>
		</g>
		<g>
			<g>
				<text transform="matrix(1 0 0 1 110.2656 111.4389)" class="st11 st5 st6">9</text>
			</g>
		</g>
		<g>
			<g>
				<text transform="matrix(1 0 0 1 139.8555 111.4389)" class="st11 st5 st6">10</text>
			</g>
		</g>
		<g>
			<g>
				<text transform="matrix(1 0 0 1 169.4443 111.4389)" class="st11 st5 st6">11</text>
			</g>
		</g>
		<g>
			<g>
				<text transform="matrix(1 0 0 1 199.0342 111.4389)" class="st11 st5 st6">12</text>
			</g>
		</g>
		<g>
			<g>
				<text transform="matrix(1 0 0 1 228.623 111.4389)" class="st11 st5 st6">13</text>
			</g>
		</g>
		<g>
			<g>
				<text transform="matrix(1 0 0 1 80.6763 138.5097)" class="st11 st5 st6">15</text>
			</g>
		</g>
		<g>
			<g>
				<text transform="matrix(1 0 0 1 110.2656 138.5097)" class="st11 st5 st6">16</text>
			</g>
		</g>
		<g>
			<g>
				<text transform="matrix(1 0 0 1 139.8555 138.5097)" class="st11 st5 st6">17</text>
			</g>
		</g>
		<g>
			<g>
				<text transform="matrix(1 0 0 1 169.4443 138.5097)" class="st11 st5 st6">18</text>
			</g>
		</g>
		<g>
			<g>
				<text transform="matrix(1 0 0 1 199.0342 138.5097)" class="st11 st5 st6">19</text>
			</g>
		</g>
		<g>
			<g>
				<text transform="matrix(1 0 0 1 80.6763 165.581)" class="st11 st5 st6">22</text>
			</g>
		</g>
		<g>
			<g>
				<text transform="matrix(1 0 0 1 110.2656 165.581)" class="st11 st5 st6">23</text>
			</g>
		</g>
		<g>
			<g>
				<text transform="matrix(1 0 0 1 139.8555 165.581)" class="st11 st5 st6">24</text>
			</g>
		</g>
		<g>
			<g>
				<text transform="matrix(1 0 0 1 169.4443 165.581)" class="st11 st5 st6">25</text>
			</g>
		</g>
		<g>
			<g>
				<text transform="matrix(1 0 0 1 199.0342 165.581)" class="st11 st5 st6">26</text>
			</g>
		</g>
		<g>
			<g>
				<text transform="matrix(1 0 0 1 228.623 165.581)" class="st11 st5 st6">27</text>
			</g>
		</g>
		<g>
			<g>
				<text transform="matrix(1 0 0 1 80.6763 192.6523)" class="st11 st5 st6">29</text>
			</g>
		</g>
		<g>
			<g>
				<text transform="matrix(1 0 0 1 49.1982 111.4389)" class="st11 st5 st6">7</text>
			</g>
		</g>
		<g>
			<g>
				<text transform="matrix(1 0 0 1 49.1982 138.5097)" class="st11 st5 st6">14</text>
			</g>
		</g>
		<g>
			<g>
				<text transform="matrix(1 0 0 1 49.1982 165.581)" class="st11 st5 st6">21</text>
			</g>
		</g>
		<g>
			<g>
				<text transform="matrix(1 0 0 1 49.1982 192.6523)" class="st11 st5 st6">28</text>
			</g>
		</g>
		<g>
			<g>
				<text transform="matrix(1 0 0 1 110.2656 192.6523)" class="st11 st5 st6">30</text>
			</g>
		</g>
		<g>
			<g>
				<text transform="matrix(1 0 0 1 139.8555 192.6523)" class="st11 st5 st6">31</text>
			</g>
		</g>
	</g>
	<g>
		<path class="st15" d="M146.8,203.2H89.9c-2.1,0-3.9-1.7-3.9-3.9l0,0c0-2.1,1.7-3.9,3.9-3.9h56.8c2.1,0,3.9,1.7,3.9,3.9l0,0
			C150.6,201.4,148.9,203.2,146.8,203.2z"/>
		<path class="st4" d="M239.4,96.8h-56.8c-2.1,0-3.9-1.7-3.9-3.9l0,0c0-2.1,1.7-3.9,3.9-3.9h56.8c2.1,0,3.9,1.7,3.9,3.9l0,0
			C243.2,95.1,241.5,96.8,239.4,96.8z"/>
	</g>
	<g>
		<g>
			<path class="st19" d="M104,159h55.7c1.9,0,3.5-1.6,3.5-3.5v-68c0-1.9-1.6-3.5-3.5-3.5H104c-1.9,0-3.5,1.6-3.5,3.5v68
				C100.5,157.4,102,159,104,159z"/>
			<polygon class="st19" points="163.3,104.7 172.9,110.9 163.3,117.3 			"/>
		</g>
		<path class="st20" d="M120,124.1c0-2.7-2.2-5-5-5c-2.7,0-5,2.2-5,5c0,0.8,0.2,1.5,0.5,2.1l0,0l0.3,0.5c0,0.1,0.1,0.1,0.1,0.2
			l3,4.6c0.4,0.6,1.4,0.6,1.8,0l3.1-4.4c0.1-0.2,0.3-0.4,0.4-0.6l0.1-0.2l0,0C119.8,125.8,120,125,120,124.1z M115.3,126.3
			c-1.2,0-2.2-1-2.2-2.2c0-1.2,1-2.2,2.2-2.2c1.2,0,2.2,1,2.2,2.2C117.4,125.4,116.4,126.3,115.3,126.3z"/>
		<g>
			<path class="st15" d="M148.3,147.4h-29.9c-2.4,0-4.3-1.9-4.3-4.3l0,0c0-2.4,1.9-4.3,4.3-4.3h29.9c2.4,0,4.3,1.9,4.3,4.3l0,0
				C152.6,145.5,150.7,147.4,148.3,147.4z"/>
			<polyline class="st21" points="129.8,143.3 132.2,145.5 136.9,140.7 			"/>
		</g>
		<text transform="matrix(1 0 0 1 107.5771 97.0644)" class="st3 st5 st22">11</text>
		<g>
			<g>
				
					<ellipse transform="matrix(0.923 -0.3849 0.3849 0.923 -33.4462 52.7509)" class="st23" cx="115.1" cy="109.9" rx="5.9" ry="5.9"/>
				<polyline class="st24" points="115.1,107.8 115.1,110.7 118,110.7 				"/>
				<path class="st15" d="M112.4,103.3l-3.6,2.6c-0.7-1-0.5-2.4,0.5-3.1C110.3,102.1,111.7,102.3,112.4,103.3z"/>
				<path class="st15" d="M120.8,105.9l-3.6-2.5c0.7-1,2.1-1.3,3.1-0.6C121.3,103.5,121.5,104.8,120.8,105.9z"/>
			</g>
			<path class="st3" d="M155.3,108.6h-29.4c-0.4,0-0.7-0.3-0.7-0.7v-1.8c0-0.4,0.3-0.7,0.7-0.7h29.4c0.4,0,0.7,0.3,0.7,0.7v1.8
				C156,108.3,155.7,108.6,155.3,108.6z"/>
			<path class="st3" d="M155.3,114.6h-29.4c-0.4,0-0.7-0.3-0.7-0.7v-1.8c0-0.4,0.3-0.7,0.7-0.7h29.4c0.4,0,0.7,0.3,0.7,0.7v1.8
				C156,114.3,155.7,114.6,155.3,114.6z"/>
			<path class="st3" d="M155.3,124.4h-29.4c-0.4,0-0.7-0.3-0.7-0.7v-1.8c0-0.4,0.3-0.7,0.7-0.7h29.4c0.4,0,0.7,0.3,0.7,0.7v1.8
				C156,124.1,155.7,124.4,155.3,124.4z"/>
			<path class="st3" d="M155.3,130.3h-29.4c-0.4,0-0.7-0.3-0.7-0.7v-1.8c0-0.4,0.3-0.7,0.7-0.7h29.4c0.4,0,0.7,0.3,0.7,0.7v1.8
				C156,130,155.7,130.3,155.3,130.3z"/>
		</g>
	</g>
</g>
<g>
	<g>
		<g>
			<polygon class="st25" points="192.5,131.7 183.8,140.3 162.8,115.1 166.3,112.2 			"/>
			<path class="st25" d="M153.9,105.8L153.9,105.8c-0.1,0-0.1,0-0.1,0c-0.2-0.2-0.3-0.4-0.4-0.6
				C153.6,105.5,153.7,105.7,153.9,105.8z"/>
			<path class="st25" d="M166.3,112.2l-3.5,2.9c0,0-0.4-0.3-1-0.9c0,0,0,0,0,0c-2-1.9-6.6-6.4-8.1-8.4c0-0.1,0-0.1,0-0.1l0.1,0
				c-0.1-0.2-0.3-0.3-0.5-0.5c0,0,0,0,0,0c-2-2.2-5.1-6.1-4.5-6.7c0.7-0.8,5.2,3.2,6.9,4.8c0,0.1,0,0.1,0,0.2c0,0,0,0,0,0
				c0,0,0.1,0,0.2-0.1c-0.1-0.1-0.1-0.1-0.2-0.2c0-0.1,0.2-0.2,0.4-0.3c0.4-0.2,0.9-0.4,1.4-0.4c0.4,0,0.8,0.2,1.1,0.1
				c0.4-0.1,0.7-0.4,1.2-0.4c0.4,0,0.7,0.2,1.1,0.2c0.4,0,0.9-0.2,1.3-0.1c0.2,0,0.4,0.1,0.6,0.2c0.5,0.3,0.9,0.7,1,1.2
				C165.3,106.6,166.3,112.2,166.3,112.2z"/>
			<path class="st25" d="M156.1,103.5c-0.1,0-0.1,0-0.2,0.1c0,0,0,0,0,0c0-0.1-0.1-0.2,0-0.2C155.9,103.4,156,103.5,156.1,103.5z"/>
			<path class="st25" d="M161.9,114.2c-1.6-0.5-8.1-4.8-8.4-5.5c-0.3-0.7,0.2-2.4,0.3-2.8C155.2,107.9,159.8,112.3,161.9,114.2z"/>
		</g>
		<g>
			<g>
				<path class="st2" d="M153.8,105.8l2,2.3c0.7,0.7,1.4,1.5,2.1,2.2l0,0c0,0,0,0.1,0,0.1c0,0-0.1,0-0.1,0c0,0,0,0,0,0
					c-0.8-0.7-1.4-1.5-2.1-2.2L153.8,105.8C153.7,105.8,153.7,105.8,153.8,105.8C153.7,105.8,153.8,105.8,153.8,105.8z"/>
			</g>
			<path class="st25" d="M156.1,103.5c-0.1,0-0.1,0-0.2,0.1c0,0,0,0,0,0c0-0.1-0.1-0.2,0-0.2C155.9,103.4,156,103.5,156.1,103.5z"/>
			<g>
				<path class="st2" d="M155.9,103.3l1.5,1.3c0,0,0,0.1,0,0.1c0,0-0.1,0-0.1,0c0,0,0,0,0,0L155.9,103.3
					C155.8,103.4,155.8,103.3,155.9,103.3C155.8,103.3,155.8,103.3,155.9,103.3z"/>
			</g>
			<g>
				<path class="st2" d="M159,102.7l0.9,0.8c0,0,0,0.1,0,0.1c0,0-0.1,0-0.1,0c0,0,0,0,0,0L159,102.7
					C158.9,102.7,158.9,102.7,159,102.7C159,102.7,159,102.7,159,102.7z"/>
			</g>
			<g>
				<path class="st2" d="M161.4,102.5l0.8,0.8c0,0,0,0.1,0,0.1c0,0-0.1,0-0.1,0c0,0,0,0,0,0L161.4,102.5
					C161.4,102.5,161.4,102.5,161.4,102.5C161.4,102.5,161.4,102.5,161.4,102.5z"/>
			</g>
		</g>
	</g>
	<g>
		<g>
			<path class="st19" d="M172.5,278c-0.1,0.4-0.2,0.7-0.2,0.9c-0.1,0.3-2.1,0.4-4.8,0.4c-0.1,0-0.1,0-0.2,0
				c-2.5-0.1-5.5-0.3-8.5-0.6c-0.1,0-0.1,0-0.2,0c-5.4-0.7-10.5-1.8-10.8-3.3c0,0,0-0.1,0-0.1v-0.1c0.3-2.5,4.7-4.1,9-5
				c0.1,0,0.1,0,0.2,0c3-0.7,5.9-1,7.2-1.1c0.1,0,0.1,0,0.2,0h0c0.3,0,0.5,0,0.5,0l7,0.7c0.1,0.2,0.3,0.3,0.4,0.5
				c0,0,0.1,0.1,0.1,0.1c0.4,0.8,0.6,1.9,0.7,3v0.1C173.1,275.1,172.8,276.9,172.5,278z"/>
			<path class="st3" d="M158.9,277.8c0,0.3,0,0.5-0.1,0.8c-0.1,0-0.1,0-0.2,0c0-0.3,0-0.5,0.1-0.8c0.1-3.7-1.4-6.9-1.9-7.7
				c0.1,0,0.1,0,0.2,0C157.5,271,159,274.1,158.9,277.8z"/>
			<path class="st3" d="M173,273.3L173,273.3c-0.2,0.1-3.5,1.8-5.1,4.8c-0.2,0.3-0.3,0.7-0.5,1.1c-0.1,0-0.1,0-0.2,0
				c0.1-0.4,0.3-0.7,0.4-1.1c1.6-3.1,5.1-4.9,5.2-5c0,0,0,0,0.1,0c0,0,0,0,0,0C173.1,273.3,173,273.3,173,273.3z"/>
			<path class="st15" d="M165.3,264l-0.5,4.8c0,0,4.3,2.8,7,0.7l0.5-4.8L165.3,264z"/>
			<path class="st3" d="M168.5,271.3c-0.4,0-0.7,0-1.1-0.1c-2.1-0.3-3.2-2.3-3.2-2.3c0,0,0-0.1,0-0.1c0,0,0.1,0,0.1,0
				c0,0,1.1,1.9,3.1,2.2c2,0.3,4.1-0.3,4.8-1c0,0,0.1,0,0.1,0c0,0,0,0.1,0,0.1C171.7,270.8,170.1,271.3,168.5,271.3z"/>
		</g>
		<g>
			<path class="st2" d="M208.9,267.2h-11.2c0,0-0.6-26.8-1.9-34.7c-0.5-3.3-1.7-8.9-2.9-14.3c-1.2-5.4-2.4-10.6-3-13.1
				c-5.6,10.8-11,21.8-11.2,24.8c-0.5,6.4-5.6,36.4-5.6,36.4h-10c0,0,0.6-28.1,1.1-37.5s7.6-49.8,7.6-49.8l12,0.8l0.2,0l9.4,0.6
				l3.2-0.1l0.2,0l7.1-0.3l0.2,0l6.8-0.3c0,0-0.1,6.8-0.1,15.6v0.2c-0.1,14-0.1,33.1,0.3,38.1C211.8,241.9,208.9,267.2,208.9,267.2z
				"/>
			<g>
				<path class="st4" d="M178.9,229.2C178.9,229.2,178.9,229.2,178.9,229.2C178.9,229.2,178.8,229.1,178.9,229.2
					c1-4.7,6-14.4,9.3-20.8c0.5-1,0.9-1.8,1.3-2.6c2.9-5.6,8.2-13.9,8.2-14c0,0,0.1,0,0.1,0c0,0,0,0.1,0,0.1
					c-0.1,0.1-5.4,8.5-8.2,14c-0.4,0.8-0.8,1.6-1.3,2.6C185,214.9,180,224.5,178.9,229.2C179,229.2,179,229.2,178.9,229.2z"/>
				<path class="st4" d="M195.3,179.4h-12.7c0,0-0.1,0-0.1,0.1c0,0,0,0.1,0,0.3c0,0.2-0.1,0.5-0.1,0.8c-0.3,2.7-1,9.3-1,10.5
					c0,1.5,6.5,5.7,6.8,5.9c0,0,0,0,0,0h0c0,0,4.3-2.2,5.7-5.3c1-2.3,1.3-7.8,1.4-10.5c0-0.2,0-0.5,0-0.7
					C195.4,179.9,195.4,179.5,195.3,179.4C195.4,179.4,195.3,179.4,195.3,179.4z M195.2,181.2c-0.1,2.8-0.4,8.2-1.4,10.5
					c-1.3,2.9-5.2,5-5.6,5.2c-0.5-0.4-6.7-4.3-6.7-5.7c0-1.2,0.7-7.8,1-10.5c0-0.4,0.1-0.6,0.1-0.8c0-0.1,0-0.2,0-0.2h12.6
					c0,0.1,0,0.5,0,0.9C195.2,180.7,195.2,180.9,195.2,181.2z"/>
				<path class="st4" d="M209.8,196.1c-0.5-0.3-6.7-4.3-6.7-5.7c0-1.1,0.6-7.4,0.9-10.2l-0.2,0c-0.3,2.8-0.9,9.1-0.9,10.2
					c0,1.5,6.5,5.7,6.8,5.9c0,0,0,0,0,0c0,0,0,0,0,0c0,0,0.4-0.2,0.9-0.5v-0.2C210.3,195.8,209.9,196,209.8,196.1z"/>
			</g>
		</g>
		<g>
			<g>
				<g>
					<path class="st19" d="M207.8,279c0,0.1,0,0.2-0.1,0.4c-0.1,0.4-0.1,0.8-0.3,1.1c-0.1,0.2-0.2,0.3-0.4,0.5
						c-0.4,0.4-1,0.5-1.6,0.6c-1.5,0.1-3.3,0.1-4.6-0.5c0,0-0.1,0-0.1,0c-0.8-0.4-1.7-0.7-2.6-1.2c-0.8-0.4-1.7-0.9-2.5-1.5
						c-1.4-0.9-2.8-1.9-4.1-2.9l0,0l0,0c0,0,0,0-0.1,0c-0.2-0.2-0.5-0.3-0.7-0.5c-0.3-0.2-0.6-0.5-0.9-0.8c-0.3-0.4-0.3-0.9-0.2-1.4
						c0.2-0.8,0.8-1.5,1.3-1.9c1-0.8,2.2-1.2,3.4-1.4c1.3-0.2,2.7-0.3,4.1-0.2h0c0.1,0,0.3,0,0.4,0c0.3,0,0.6,0,0.8,0.1
						c0.3,0,0.6,0.1,0.8,0.1c2.1,0.3,4.1,0.8,6.2,0.9c0.1,0,0.2,0,0.4,0.1c0.3,0.1,0.3,0.5,0.4,0.8c0,0.1,0,0.1,0,0.1
						c0,0.3,0,0.5,0,0.8c0.1,1.5,0.3,2.9,0.3,4.4C207.9,277.2,207.9,278.1,207.8,279z"/>
					<path class="st3" d="M199,269C199,269.1,199,269.1,199,269c-2,0.6-5,2-6.9,5.4c-0.2,0.3-0.3,0.6-0.5,1l-0.1,0l0,0l0,0l-0.1,0
						c0,0,0,0,0,0c0.2-0.3,0.3-0.7,0.5-1c1.8-3.2,4.6-4.7,6.5-5.3h0C198.7,269,198.9,269,199,269z"/>
					<path class="st3" d="M207.8,275.3c-0.4-0.2-0.8-0.2-1.3-0.1c-2.1,0.3-4.1,3.2-5.1,4.8c-0.3,0.6-0.5,0.9-0.6,1c0,0,0,0,0,0
						l-0.1,0l-0.1,0c0-0.1,0.2-0.4,0.5-1c1-1.6,3-4.5,5.2-4.9c0.4-0.1,0.9,0,1.3,0.1C207.7,275.2,207.8,275.3,207.8,275.3z"/>
				</g>
				<path class="st15" d="M199.8,267.2v3.4c0,0,2.3,2,4.8,1.5c2.5-0.4,2.9-1.2,2.9-1.2l0-3.8H199.8z"/>
			</g>
			<path class="st3" d="M199.8,270.7c0.4,0.6,1,1,1.6,1.4c0.6,0.4,1.3,0.6,2,0.7c0.7,0.1,1.4,0.1,2.1-0.1c0.4-0.1,0.7-0.2,1-0.3
				c0.3-0.1,0.7-0.3,1-0.4c0,0,0,0,0,0c0,0,0,0,0,0c-0.3,0.2-0.6,0.3-1,0.5c-0.3,0.1-0.7,0.3-1,0.3c-0.7,0.2-1.4,0.2-2.2,0.1
				C202,272.7,200.6,271.8,199.8,270.7C199.8,270.7,199.8,270.7,199.8,270.7C199.8,270.6,199.8,270.6,199.8,270.7z"/>
		</g>
		<path class="st3" d="M207.7,279.3c-0.1,0.4-0.1,0.8-0.3,1.1c-0.1,0.2-0.2,0.3-0.4,0.5c-0.4,0.4-1,0.5-1.6,0.6
			c-1.5,0.1-3.3,0.1-4.6-0.5c0,0,0,0,0,0l-0.1,0c-0.8-0.4-1.7-0.7-2.6-1.2c-0.8-0.4-1.7-0.9-2.5-1.5c-1.4-0.9-2.8-1.9-4.1-2.9l0,0
			l0,0l-0.1,0c0,0,0,0,0,0c-0.2-0.2-0.5-0.3-0.7-0.5c-0.3-0.2-0.6-0.5-0.9-0.8c-0.3-0.4-0.3-0.9-0.2-1.4c0.2,0.2,1.1,0.8,2.3,1.7
			c0,0,0.1,0.1,0.1,0.1c2.6,1.9,6.6,4.7,9.1,5.5c0.1,0,0.1,0,0.2,0.1c0.2,0.1,0.4,0.1,0.6,0.1C205,280.5,207.2,279.6,207.7,279.3z"
			/>
		<path class="st3" d="M172.5,278c-0.1,0.4-0.2,0.7-0.2,0.9c-0.1,0.3-2.1,0.4-4.8,0.4c-0.1,0-0.1,0-0.2,0c-2.5-0.1-5.5-0.3-8.5-0.6
			c-0.1,0-0.1,0-0.2,0c-5.4-0.7-10.5-1.8-10.8-3.3c0.3,0.1,5.1,1.8,10.9,2.5c0.1,0,0.1,0,0.2,0c0.7,0.1,1.5,0.1,2.2,0.2
			c2.5,0.1,4.8,0.2,6.6,0.2h0.2C170.2,278.1,171.8,278.1,172.5,278z"/>
		<path class="st26" d="M175.3,179.6c0,0-6.5,35.8-8,48.5c-1.4,12.7-1.3,38.3-1.3,38.3"/>
		<path class="st26" d="M193.1,199.7c0,0,4.8,24.9,5.9,36.8c1.1,11.9,0.8,30.8,0.8,30.8"/>
	</g>
	<g>
		<path class="st15" d="M200.8,102.5c-4.8,3.4-16,0.7-18.1-2.2c-0.7-0.9-0.2-3.2,0.7-5.9c0-0.1,0.1-0.2,0.1-0.3
			c0.9-2.6,2.2-5.6,3.4-8c0.2-0.4,0.4-0.8,0.6-1.2c1.2-2.3,2.1-4,2.1-4c5.5-4.7,14.6-1,16.3,1.6C208.9,87.3,205.7,99.1,200.8,102.5z
			"/>
		<g>
			<polygon class="st15" points="189.6,100.5 189.1,108.6 201.3,107.9 201.3,99.8 			"/>
			<path class="st15" d="M186.6,86.8c0,0-4,3.5-3.8,4.2c0.3,0.7,1.1,1.9,1.1,1.9L186.6,86.8z"/>
			<path class="st2" d="M189,86.7c0,0.2-0.1,0.3-0.2,0.4c-0.1,0.1-0.3,0.2-0.4,0.2c-0.1,0-0.2-0.2-0.3-0.3c-0.2-0.2-0.4-0.5-0.6-0.7
				c-0.1-0.1-0.4-0.2-0.5-0.3c0.2-0.4,0.4-0.8,0.6-1.2c0.4,0,0.8,0.2,1.1,0.5C188.9,85.7,189,86.2,189,86.7z"/>
			<g>
				<path class="st2" d="M187,88.7c-0.1,0.3-0.4,0.5-0.6,0.4c-0.2-0.1-0.3-0.4-0.1-0.7c0.1-0.3,0.4-0.5,0.6-0.4
					C187.1,88.1,187.1,88.4,187,88.7z"/>
				<path class="st2" d="M184.9,94.3c0,0.1,0,0.2-0.1,0.2c-0.1,0-0.7,0.1-1.4-0.1c0-0.1,0.1-0.2,0.1-0.3c0.7,0.1,1.3,0.1,1.3,0.1
					C184.9,94.2,184.9,94.2,184.9,94.3z"/>
			</g>
			<g>
				<g>
					<path class="st2" d="M192,74.7c-0.3,0.2-0.5,0.4-0.7,0.7c-1,1.1-1.9,2.4-2.2,3.9c-0.3,1.5,0.1,3,0.5,4.4
						c0.4,1.5,0.6,2.9,0.8,4.4c0.3,2.1,0.5,4.2,1.2,6.3c1,3.1-2,7-1.1,7.8s3.9,2.3,7,2c1.6-0.1,3.2,0,4.7-0.8c2.5-1.4,4-4.5,5.2-7
						c1.8-3.7,4.5-9.8,1.9-13.7c-0.6-0.9-1.6-1.6-2.6-2c-3-1.2-6.5-0.9-9.2-2.8c-1-0.6-1.7-1.5-2.5-2.4c-0.7-0.8-1.6-1.5-2.6-0.9
						C192.2,74.6,192.1,74.6,192,74.7z"/>
					<path class="st2" d="M190.2,86.3c0,0-1.6,5-1.7,6.7c-0.1,1.7,2.6-2.5,5-2.5c2.4,0,2-1.7,2-1.7l-1.6-2.1L190.2,86.3z"/>
					<path class="st2" d="M193.5,97l-4.1-0.2c0,0-0.2,5,1.1,5.4C191.7,102.6,193.5,97,193.5,97z"/>
				</g>
				<g>
					<path class="st15" d="M188.5,94.2c0-0.2,0.3-0.8,0.5-1c0.4-0.7,0.8-1.3,1.4-1.9c1.2-1.2,4-1.2,4.8,0.5c0.3,0.6,0.2,1.3,0,1.9
						c-0.4,1.1-1.2,2-2.1,2.7c-0.7,0.6-1.9,1.7-3,1.1C188.9,97,188.5,94.2,188.5,94.2z"/>
					<g>
						<path class="st27" d="M190.5,92.7c0,0,1.6-2,3.1-0.6c1.5,1.4-2.3,5.8-3.7,3.9"/>
						<path class="st27" d="M191.4,91.9c0,0-1.1,2.5-0.9,4.5"/>
					</g>
				</g>
			</g>
		</g>
		<path class="st15" d="M178.8,98.2"/>
		<g>
			<path class="st0" d="M189.1,108.6c0,0-9.8-0.8-11.9,2.5c-2.1,3.2-0.6,15.1,0,23.1c0.6,8-5.1,39.5-5.3,44.8c0,0,27.8,4.5,39.1,0.8
				c0,0,1.6-28.3,2.6-35.7s2.3-25.9,1-28.9c-1.3-3.1-13.2-6.9-13.2-6.9L189.1,108.6z"/>
			<g>
				<g>
					<polygon class="st0" points="201.3,106.2 201.3,108.4 201,108.4 200.8,108.4 199.9,108.4 199.8,108.4 198.9,108.4 198.7,108.4 
						197.9,108.4 197.7,108.4 196.8,108.5 196.7,108.5 195.8,108.5 195.6,108.5 194.7,108.5 194.6,108.5 193.7,108.5 193.5,108.5 
						192.6,108.5 192.5,108.5 191.6,108.6 191.4,108.6 190.5,108.6 190.4,108.6 189.5,108.6 189.3,108.6 189.1,108.6 189.2,106.2 
											"/>
					<g>
						<path class="st2" d="M189.6,106.2L189.6,106.2l-0.1,2.4c0,0,0,0.1-0.1,0.1c0,0,0,0,0,0c0,0-0.1,0-0.1-0.1c0,0,0,0,0,0l0.1-2.4
							H189.6z"/>
						<path class="st2" d="M190.7,106.2L190.7,106.2l-0.1,2.4v0c0,0,0,0.1-0.1,0.1c0,0,0,0,0,0c0,0-0.1,0-0.1-0.1v0l0.1-2.4H190.7z"
							/>
						<path class="st2" d="M191.7,106.2L191.7,106.2l-0.1,2.4v0c0,0,0,0.1-0.1,0.1c0,0,0,0,0,0c0,0-0.1,0-0.1-0.1v0l0.1-2.4H191.7z"
							/>
						<path class="st2" d="M192.7,106.2C192.7,106.2,192.7,106.2,192.7,106.2l-0.1,2.4v0c0,0,0,0.1-0.1,0.1c0,0,0,0,0,0
							c0,0-0.1,0-0.1-0.1v0l0.1-2.4H192.7z"/>
						<path class="st2" d="M193.8,106.2C193.8,106.2,193.8,106.2,193.8,106.2l-0.1,2.3v0c0,0,0,0.1-0.1,0.1c0,0,0,0,0,0
							c0,0-0.1,0-0.1-0.1v0l0.1-2.3H193.8z"/>
						<path class="st2" d="M194.8,106.2L194.8,106.2l-0.1,2.3v0c0,0,0,0.1-0.1,0.1c0,0,0,0,0,0c0,0-0.1,0-0.1-0.1v0l0.1-2.3H194.8z"
							/>
						<path class="st2" d="M195.8,106.2L195.8,106.2l-0.1,2.3v0c0,0,0,0.1-0.1,0.1c0,0,0,0,0,0c0,0-0.1,0-0.1-0.1v0l0.1-2.3H195.8z"
							/>
						<path class="st2" d="M196.9,106.2L196.9,106.2l-0.1,2.3v0c0,0,0,0.1-0.1,0.1c0,0,0,0,0,0c0,0-0.1,0-0.1-0.1v0l0.1-2.3H196.9z"
							/>
						<path class="st2" d="M197.9,106.2L197.9,106.2l0,2.2v0c0,0,0,0.1-0.1,0.1c0,0-0.1,0-0.1-0.1v0l0-2.2H197.9z"/>
						<path class="st2" d="M198.9,106.2C198.9,106.2,198.9,106.2,198.9,106.2l0,2.2v0c0,0,0,0.1-0.1,0.1c0,0-0.1,0-0.1-0.1v0l0-2.2
							H198.9z"/>
						<path class="st2" d="M200,106.2L200,106.2l0,2.2v0c0,0,0,0.1-0.1,0.1c0,0-0.1,0-0.1-0.1v0l0-2.2H200z"/>
						<path class="st2" d="M201,106.2v2.2c0,0,0,0.1-0.1,0.1c0,0-0.1,0-0.1-0.1v-2.2H201z"/>
					</g>
				</g>
				<path class="st28" d="M189.1,108.6c0,0,9.9,0.2,12.2-0.3"/>
			</g>
			<g>
				<g>
					<polygon class="st15" points="151.3,125.8 168,105.6 173.2,107.5 161.5,134.2 					"/>
					<g>
						<g>
							<path class="st19" d="M179,104.1l-2.7-6.6c-0.2-0.5,0-1.1,0.5-1.3l12.8-5.3c0.5-0.2,1.1,0,1.3,0.5l2.7,6.6
								c0.2,0.5,0,1.1-0.5,1.3l-12.8,5.3C179.8,104.8,179.2,104.5,179,104.1z"/>
							<path class="st2" d="M190.1,95.2l-0.9-2.2c-0.1-0.3,0-0.7,0.3-0.8l0,0c0.3-0.1,0.7,0,0.8,0.3l0.9,2.2c0.1,0.3,0,0.7-0.3,0.8
								l0,0C190.6,95.7,190.3,95.6,190.1,95.2z"/>
							<path class="st11" d="M185.5,99.9c-1,0.4-2.1-0.1-2.5-1c-0.4-1,0.1-2.1,1-2.5c1-0.4,2.1,0.1,2.5,1
								C187,98.4,186.5,99.5,185.5,99.9z"/>
						</g>
						<g>
							<path class="st15" d="M181.3,94.3c0,0-3.3,7.2-4.5,9.9c-1.1,2.6-4.1,3.7-4.1,3.7l-4.6-2.3c0,0,4.2-9,5.4-9.7
								c0.8-0.5,1.5-0.8,2.5-1.1c0.1,0,0.1,0,0.2,0c0.4-0.1,1-0.2,1.6-0.2c0.3,0,0.6-0.1,0.9-0.1c0.1,0,0.1,0,0.2,0
								C180.4,94.3,181.3,94.3,181.3,94.3z"/>
							<path class="st15" d="M180.3,96.5l-7.9,9.1c0,0-0.7,1.9,0.8,2c1.5,0.1,6.2-3.6,5.9-3.4c-0.3,0.2,2.5-4.6,4.3-6
								c1.8-1.4,4.7-3.4,3.7-4.3C186,93,180.3,96.5,180.3,96.5"/>
							<path class="st15" d="M174.1,107.3c0,0,4.5,0,6-0.7c1.5-0.7,4.3-3.3,3.5-3.7c-0.8-0.4-5.6,1.6-5.6,1.6l-3.9,2.6"/>
							<path class="st2" d="M178.8,94.4c-0.7,0.9-1.4,2.1-1.4,2.1c0,0,0,0-0.1,0c0,0,0,0,0,0c0,0,0-0.1,0-0.1c0,0,0.6-1.1,1.3-2
								C178.7,94.4,178.8,94.4,178.8,94.4z"/>
							<path class="st2" d="M176.1,94.7c-0.5,0.8-1,1.5-1,1.5c0,0,0,0-0.1,0c0,0,0,0,0,0c0,0,0-0.1,0-0.1c0,0,0.4-0.7,0.9-1.4
								C176,94.8,176.1,94.8,176.1,94.7z"/>
						</g>
					</g>
				</g>
				<g>
					<path class="st15" d="M160.8,120.4c0,0-11,3.3-10.6,8.4s11.4,5.4,11.4,5.4L160.8,120.4z"/>
					<path class="st28" d="M160.8,120.4c0,0-3.1,0.9-5.3,3.7"/>
				</g>
				<path class="st0" d="M178.8,109.8c0,0-16.4,8.4-18,10.6l0.8,13.8l15.6-0.7L178.8,109.8z"/>
				<g>
					<path class="st28" d="M177.7,125c0,0-0.6,6.7-0.5,10.8"/>
					<line class="st28" x1="175.6" y1="127.3" x2="177.2" y2="134"/>
					<path class="st28" d="M172.1,176.7c0,0,27.4,4.5,39,0.4"/>
				</g>
				<path class="st28" d="M178.8,109.8c0,0-2.5,5.4-2.7,12.2"/>
			</g>
		</g>
	</g>
	<path class="st3" d="M147.9,275.3l0-0.1L147.9,275.3C147.9,275.3,147.9,275.3,147.9,275.3z"/>
</g>
</svg>
