<svg id="Capa_1" data-name="Capa 1" xmlns="http://www.w3.org/2000/svg" xmlns:xlink="http://www.w3.org/1999/xlink" viewBox="0 0 285.07 250.97"><defs><style>.cls-1{fill:#cc7995;}.cls-13,.cls-16,.cls-19,.cls-2{fill:#fff;}.cls-3{fill:#3540c4;}.cls-4{fill:#ffead7;}.cls-5{fill:#ffa09c;}.cls-6{fill:#f85b74;}.cls-7{font-size:8.05px;}.cls-17,.cls-26,.cls-7{fill:#3239aa;}.cls-13,.cls-7{font-family:Quicksand-Medium, Quicksand Medium;font-weight:500;}.cls-8{letter-spacing:0.01em;}.cls-9{letter-spacing:0em;}.cls-10,.cls-11,.cls-15,.cls-18,.cls-20,.cls-21,.cls-22,.cls-25,.cls-27,.cls-29,.cls-30,.cls-35,.cls-36{fill:none;}.cls-10,.cls-11,.cls-15,.cls-18,.cls-27{stroke:#3239aa;}.cls-10,.cls-11,.cls-15,.cls-21,.cls-22,.cls-25,.cls-27,.cls-29,.cls-35,.cls-36{stroke-linecap:round;stroke-linejoin:round;}.cls-10{stroke-width:0.75px;}.cls-11{stroke-width:0.65px;}.cls-12{fill:#6e92dc;}.cls-13{font-size:5.86px;}.cls-14{letter-spacing:-0.03em;}.cls-15{stroke-width:0.63px;}.cls-16,.cls-17{font-size:6.71px;}.cls-16,.cls-17,.cls-19{font-family:Quicksand-SemiBold, Quicksand SemiBold;font-weight:600;}.cls-18,.cls-20,.cls-30{stroke-miterlimit:10;}.cls-18{stroke-width:0.49px;}.cls-19{font-size:7.83px;}.cls-20,.cls-21,.cls-22{stroke:#ffa09c;}.cls-20{stroke-width:0.42px;}.cls-21{stroke-width:0.65px;}.cls-22{stroke-width:1.17px;}.cls-23{fill:#5b8ad9;}.cls-24{fill:#ff9494;}.cls-25,.cls-36{stroke:#ff6867;}.cls-25,.cls-29{stroke-width:0.55px;}.cls-27,.cls-30,.cls-36{stroke-width:0.27px;}.cls-28{fill:#181449;}.cls-29{stroke:#6e92dc;}.cls-30{stroke:#fffcfc;}.cls-31{fill:url(#linear-gradient);}.cls-32{opacity:0.76;}.cls-33{fill:url(#linear-gradient-2);}.cls-34{opacity:0.65;fill:url(#linear-gradient-3);}.cls-35{stroke:#181449;stroke-width:0.44px;}</style><linearGradient id="linear-gradient" x1="128.4" y1="87.69" x2="135.33" y2="75.32" gradientUnits="userSpaceOnUse"><stop offset="0" stop-color="#ffa09c"/><stop offset="1" stop-color="#ff6867"/></linearGradient><linearGradient id="linear-gradient-2" x1="144.19" y1="63.08" x2="146.81" y2="74.52" xlink:href="#linear-gradient"/><linearGradient id="linear-gradient-3" x1="132.84" y1="76.71" x2="141.37" y2="76.71" gradientTransform="translate(-6.21 8.17) rotate(-5)" xlink:href="#linear-gradient"/></defs><polygon class="cls-1" points="271.06 250.97 11.86 250.97 44.15 220.67 240.71 220.67 271.06 250.97"/><path class="cls-1" d="M292.23,275.92h-15a.3.3,0,0,1-.3-.3.29.29,0,0,1,.3-.3h15a.29.29,0,0,1,.3.3A.3.3,0,0,1,292.23,275.92Z" transform="translate(-7.47 -25.97)"/><path class="cls-1" d="M289.75,273.43h-15a.3.3,0,0,1-.3-.3.31.31,0,0,1,.3-.3h15a.31.31,0,0,1,.3.3A.3.3,0,0,1,289.75,273.43Z" transform="translate(-7.47 -25.97)"/><path class="cls-1" d="M287.26,271h-15a.3.3,0,0,1-.3-.3.29.29,0,0,1,.3-.3h15a.29.29,0,0,1,.3.3A.3.3,0,0,1,287.26,271Z" transform="translate(-7.47 -25.97)"/><path class="cls-1" d="M284.78,268.46h-15a.3.3,0,0,1-.3-.3.31.31,0,0,1,.3-.3h15a.3.3,0,0,1,.3.3A.29.29,0,0,1,284.78,268.46Z" transform="translate(-7.47 -25.97)"/><path class="cls-1" d="M282.29,266h-15a.3.3,0,0,1-.3-.3.29.29,0,0,1,.3-.3h15a.29.29,0,0,1,.3.3A.3.3,0,0,1,282.29,266Z" transform="translate(-7.47 -25.97)"/><path class="cls-1" d="M279.81,263.49h-15a.3.3,0,0,1-.3-.3.31.31,0,0,1,.3-.3h15a.3.3,0,0,1,.3.3A.29.29,0,0,1,279.81,263.49Z" transform="translate(-7.47 -25.97)"/><path class="cls-1" d="M277.33,261h-15a.3.3,0,0,1-.3-.3.29.29,0,0,1,.3-.3h15a.3.3,0,0,1,.3.3A.31.31,0,0,1,277.33,261Z" transform="translate(-7.47 -25.97)"/><path class="cls-1" d="M274.84,258.52h-15a.3.3,0,0,1-.3-.3.31.31,0,0,1,.3-.3h15a.3.3,0,0,1,.3.3A.29.29,0,0,1,274.84,258.52Z" transform="translate(-7.47 -25.97)"/><path class="cls-1" d="M272.36,256h-15a.3.3,0,0,1-.3-.3.29.29,0,0,1,.3-.3h15a.3.3,0,0,1,.3.3A.31.31,0,0,1,272.36,256Z" transform="translate(-7.47 -25.97)"/><path class="cls-1" d="M269.87,253.55h-15a.3.3,0,0,1-.3-.3.31.31,0,0,1,.3-.3h15a.3.3,0,0,1,.3.3A.29.29,0,0,1,269.87,253.55Z" transform="translate(-7.47 -25.97)"/><path class="cls-1" d="M267.39,251.07h-15a.3.3,0,0,1-.3-.3.29.29,0,0,1,.3-.3h15a.3.3,0,0,1,.3.3A.31.31,0,0,1,267.39,251.07Z" transform="translate(-7.47 -25.97)"/><path class="cls-1" d="M264.9,248.58h-15a.3.3,0,0,1-.3-.3.31.31,0,0,1,.3-.3h15a.3.3,0,0,1,.3.3A.29.29,0,0,1,264.9,248.58Z" transform="translate(-7.47 -25.97)"/><path class="cls-1" d="M22.8,275.19h-15a.3.3,0,0,1,0-.6h15a.3.3,0,1,1,0,.6Z" transform="translate(-7.47 -25.97)"/><path class="cls-1" d="M25.37,272.71H10.25a.3.3,0,0,1-.3-.3.29.29,0,0,1,.3-.3H25.37a.3.3,0,0,1,.3.3A.31.31,0,0,1,25.37,272.71Z" transform="translate(-7.47 -25.97)"/><path class="cls-1" d="M27.93,270.22H12.74a.3.3,0,0,1,0-.6H27.93a.3.3,0,1,1,0,.6Z" transform="translate(-7.47 -25.97)"/><path class="cls-1" d="M30.49,267.74H15.22a.3.3,0,0,1-.3-.3.29.29,0,0,1,.3-.3H30.49a.29.29,0,0,1,.3.3A.3.3,0,0,1,30.49,267.74Z" transform="translate(-7.47 -25.97)"/><path class="cls-1" d="M33.05,265.25H17.7a.3.3,0,0,1,0-.6H33.05a.3.3,0,0,1,0,.6Z" transform="translate(-7.47 -25.97)"/><path class="cls-1" d="M35.62,262.77H20.19a.3.3,0,0,1-.3-.3.29.29,0,0,1,.3-.3H35.62a.3.3,0,0,1,.3.3A.31.31,0,0,1,35.62,262.77Z" transform="translate(-7.47 -25.97)"/><path class="cls-1" d="M38.18,260.28H22.67a.3.3,0,0,1-.3-.3.31.31,0,0,1,.3-.3H38.18a.3.3,0,0,1,.3.3A.29.29,0,0,1,38.18,260.28Z" transform="translate(-7.47 -25.97)"/><path class="cls-1" d="M40.74,257.8H25.16a.3.3,0,0,1-.3-.3.29.29,0,0,1,.3-.3H40.74a.29.29,0,0,1,.3.3A.3.3,0,0,1,40.74,257.8Z" transform="translate(-7.47 -25.97)"/><path class="cls-1" d="M43.31,255.31H27.64a.3.3,0,0,1-.3-.3.31.31,0,0,1,.3-.3H43.31a.31.31,0,0,1,.3.3A.3.3,0,0,1,43.31,255.31Z" transform="translate(-7.47 -25.97)"/><path class="cls-1" d="M45.87,252.83H30.13a.3.3,0,0,1-.3-.3.29.29,0,0,1,.3-.3H45.87a.3.3,0,0,1,.3.3A.31.31,0,0,1,45.87,252.83Z" transform="translate(-7.47 -25.97)"/><path class="cls-1" d="M48.43,250.34H32.61a.3.3,0,0,1-.3-.3.31.31,0,0,1,.3-.3H48.43a.3.3,0,0,1,.3.3A.29.29,0,0,1,48.43,250.34Z" transform="translate(-7.47 -25.97)"/><path class="cls-1" d="M51,247.86H35.1a.3.3,0,0,1-.3-.3.29.29,0,0,1,.3-.3H51a.29.29,0,0,1,.3.3A.3.3,0,0,1,51,247.86Z" transform="translate(-7.47 -25.97)"/><path class="cls-2" d="M62,246.63c-9.36,9.95-22.51,24-28.17,30.31h-.19C39.81,270,55,253.87,61.77,246.63Z" transform="translate(-7.47 -25.97)"/><path class="cls-2" d="M78.17,246.63c-7.45,9.85-18,23.81-22.69,30.31H55.3c5.21-7.16,17.34-23.24,22.69-30.31Z" transform="translate(-7.47 -25.97)"/><path class="cls-2" d="M94.31,246.63c-5.61,9.76-13.54,23.63-17.26,30.31h-.17c4.11-7.39,13.29-23.41,17.25-30.31Z" transform="translate(-7.47 -25.97)"/><path class="cls-2" d="M110.37,246.63c-3.81,9.68-9.23,23.46-11.87,30.31h-.16c2.93-7.61,9.22-23.59,11.87-30.31Z" transform="translate(-7.47 -25.97)"/><path class="cls-2" d="M126.37,246.63c-1.4,6.48-4.84,22.46-6.51,30.31h-.17c1.68-7.82,5.12-23.76,6.53-30.31Z" transform="translate(-7.47 -25.97)"/><path class="cls-2" d="M142.31,246.63c-.25,6.37-.88,22.28-1.23,30.31h-.15c.35-8,1-24,1.23-30.31Z" transform="translate(-7.47 -25.97)"/><path class="cls-2" d="M162.21,276.94h-.15c-1.07-8.24-3.2-24.17-4-30.31h.15C159,252.83,161.15,268.71,162.21,276.94Z" transform="translate(-7.47 -25.97)"/><path class="cls-2" d="M183.23,276.94h-.16c-2.24-7.44-6.36-21-9.23-30.31H174C175.93,252.93,180.74,268.65,183.23,276.94Z" transform="translate(-7.47 -25.97)"/><path class="cls-2" d="M204.13,276.94H204c-4.06-8.63-11.65-24.57-14.39-30.31h.17C193.34,254.17,200.33,268.83,204.13,276.94Z" transform="translate(-7.47 -25.97)"/><path class="cls-2" d="M224.93,276.94h-.17c-5.65-8.83-15.93-24.77-19.49-30.31h.18C212.63,257.78,220.43,269.89,224.93,276.94Z" transform="translate(-7.47 -25.97)"/><path class="cls-2" d="M245.63,276.94h-.19c-7.29-9-20.24-25-24.55-30.31h.19C234.25,262.88,241.57,271.91,245.63,276.94Z" transform="translate(-7.47 -25.97)"/><polygon class="cls-2" points="258.75 250.97 258.54 250.97 228.97 220.67 229.18 220.67 258.75 250.97"/><path class="cls-2" d="M280.52,33.87v162.7a7.79,7.79,0,0,1-7.62,7.91H35.4a7.79,7.79,0,0,1-7.62-7.91V33.87A7.79,7.79,0,0,1,35.4,26H272.9A7.79,7.79,0,0,1,280.52,33.87Z" transform="translate(-7.47 -25.97)"/><path class="cls-3" d="M280.52,34V50.13H27.78V34A7.87,7.87,0,0,1,35.4,26H272.9A7.87,7.87,0,0,1,280.52,34Z" transform="translate(-7.47 -25.97)"/><circle class="cls-4" cx="233.27" cy="12.08" r="3.36"/><circle class="cls-5" cx="244.01" cy="12.08" r="3.36"/><circle class="cls-6" cx="254.75" cy="12.08" r="3.36"/><text class="cls-7" transform="translate(134.82 36.27)"><tspan class="cls-8">M</tspan><tspan x="6.52" y="0">o</tspan><tspan class="cls-9" x="10.95" y="0">n</tspan><tspan x="15.38" y="0">th</tspan></text><polyline class="cls-10" points="163.8 32.22 166.48 34.23 163.8 36.24"/><polyline class="cls-10" points="129.57 32.22 126.88 34.23 129.57 36.24"/><path class="cls-11" d="M245.52,58.75A2.76,2.76,0,1,1,242.76,56,2.76,2.76,0,0,1,245.52,58.75Z" transform="translate(-7.47 -25.97)"/><line class="cls-11" x1="237.48" y1="34.47" x2="239.79" y2="36.41"/><rect class="cls-12" x="31.45" y="29.61" width="28.92" height="7.38" rx="1.29"/><text class="cls-13" transform="translate(35.42 35.26)"><tspan class="cls-14">W</tspan><tspan x="4.76" y="0">eek</tspan></text><path class="cls-2" d="M61.52,58.68H64.2a.16.16,0,0,1,.13.26L63.09,60.7a.18.18,0,0,1-.27,0L61.39,59A.17.17,0,0,1,61.52,58.68Z" transform="translate(-7.47 -25.97)"/><line class="cls-10" x1="254.5" y1="31.45" x2="261.7" y2="31.45"/><line class="cls-10" x1="254.5" y1="33.22" x2="261.7" y2="33.22"/><line class="cls-10" x1="254.5" y1="35.16" x2="261.7" y2="35.16"/><path class="cls-15" d="M35,92.75" transform="translate(-7.47 -25.97)"/><text class="cls-16" transform="translate(170.89 51.01)">4</text><path class="cls-2" d="M183.11,88.55a2,2,0,1,1-2-2A2,2,0,0,1,183.11,88.55Z" transform="translate(-7.47 -25.97)"/><text class="cls-17" transform="translate(170.89 51.01)">4</text><rect class="cls-6" x="60.37" y="69.45" width="35.3" height="27"/><path class="cls-2" d="M77.22,115.75a2,2,0,1,1-2-2A2,2,0,0,1,77.22,115.75Z" transform="translate(-7.47 -25.97)"/><rect class="cls-5" x="73.28" y="74.73" width="17.77" height="3.48" rx="1.09"/><rect class="cls-5" x="73.28" y="79.66" width="17.77" height="1.24" rx="0.62"/><rect class="cls-5" x="73.28" y="85.93" width="17.77" height="1.24" rx="0.62"/><path class="cls-5" d="M97.89,116H81.36a.61.61,0,0,1-.61-.62h0a.61.61,0,0,1,.61-.61H97.89a.61.61,0,0,1,.62.61h0A.62.62,0,0,1,97.89,116Z" transform="translate(-7.47 -25.97)"/><path class="cls-5" d="M97.89,118.35H81.36a.61.61,0,0,1-.61-.62h0a.61.61,0,0,1,.61-.62H97.89a.62.62,0,0,1,.62.62h0A.62.62,0,0,1,97.89,118.35Z" transform="translate(-7.47 -25.97)"/><text class="cls-17" transform="translate(63.96 51.01)">1</text><text class="cls-17" transform="translate(135.24 51.01)">3</text><text class="cls-17" transform="translate(206.53 51.01)">5</text><text class="cls-17" transform="translate(242.18 51.01)">6</text><text class="cls-16" transform="translate(63.96 78.43)">8</text><text class="cls-17" transform="translate(99.6 78.43)">9</text><text class="cls-17" transform="translate(135.24 78.43)">10</text><text class="cls-17" transform="translate(170.89 78.43)">11</text><text class="cls-17" transform="translate(206.53 78.43)">12</text><text class="cls-17" transform="translate(242.18 78.43)">13</text><text class="cls-17" transform="translate(63.96 105.85)">15</text><text class="cls-17" transform="translate(99.6 105.85)">16</text><text class="cls-17" transform="translate(135.24 105.85)">17</text><text class="cls-17" transform="translate(170.89 105.85)">18</text><text class="cls-17" transform="translate(206.53 105.85)">19</text><text class="cls-17" transform="translate(242.18 105.85)">20</text><text class="cls-17" transform="translate(63.96 133.27)">22</text><text class="cls-17" transform="translate(99.6 133.27)">23</text><text class="cls-17" transform="translate(135.24 133.27)">24</text><text class="cls-17" transform="translate(170.89 133.27)">25</text><text class="cls-17" transform="translate(206.53 133.27)">26</text><text class="cls-17" transform="translate(242.18 133.27)">27</text><text class="cls-17" transform="translate(63.96 160.69)">29</text><text class="cls-17" transform="translate(25.34 78.43)">7</text><text class="cls-17" transform="translate(25.34 105.85)">14</text><text class="cls-17" transform="translate(25.34 133.27)">21</text><text class="cls-17" transform="translate(25.34 160.69)">28</text><text class="cls-17" transform="translate(99.6 160.69)">30</text><text class="cls-17" transform="translate(135.24 160.69)">31</text><path class="cls-12" d="M112.84,74.8A3.89,3.89,0,1,1,109,70.92,3.89,3.89,0,0,1,112.84,74.8Z" transform="translate(-7.47 -25.97)"/><text class="cls-16" transform="translate(99.6 51.01)">2</text><line class="cls-18" x1="20.31" y1="42.44" x2="273.05" y2="42.44"/><line class="cls-18" x1="20.31" y1="69.45" x2="273.05" y2="69.45"/><line class="cls-18" x1="20.31" y1="96.45" x2="273.05" y2="96.45"/><line class="cls-18" x1="20.31" y1="123.46" x2="273.05" y2="123.46"/><line class="cls-18" x1="20.31" y1="150.46" x2="273.05" y2="150.46"/><line class="cls-18" x1="60.37" y1="42.44" x2="60.37" y2="178.51"/><line class="cls-18" x1="95.67" y1="42.44" x2="95.67" y2="178.51"/><line class="cls-18" x1="130.97" y1="42.44" x2="130.97" y2="178.51"/><line class="cls-18" x1="166.28" y1="42.44" x2="166.28" y2="178.51"/><line class="cls-18" x1="201.58" y1="42.44" x2="201.58" y2="178.51"/><line class="cls-18" x1="236.88" y1="42.44" x2="236.88" y2="178.51"/><rect class="cls-3" x="158.67" y="47.46" width="63.07" height="75.4" rx="3.32"/><polygon class="cls-3" points="158.67 68.27 149 76.53 158.67 85.16 158.67 68.27"/><text class="cls-19" transform="translate(166.35 61.05)">10</text><rect class="cls-5" x="175.51" y="78.28" width="39.63" height="7.77" rx="2.42"/><rect class="cls-5" x="175.51" y="89.29" width="39.63" height="2.76" rx="1.38"/><circle class="cls-20" cx="184.05" cy="64.38" r="5.9"/><polyline class="cls-21" points="184.05 62.21 184.05 65.2 187.01 65.2"/><path class="cls-5" d="M188.89,83.67l-3.57,2.61a2.21,2.21,0,1,1,3.57-2.61Z" transform="translate(-7.47 -25.97)"/><path class="cls-5" d="M197.33,86.25l-3.65-2.5a2.21,2.21,0,1,1,3.65,2.5Z" transform="translate(-7.47 -25.97)"/><rect class="cls-2" x="194.19" y="59.85" width="19.76" height="3.2" rx="0.52"/><rect class="cls-2" x="194.19" y="65.84" width="19.76" height="3.2" rx="0.52"/><circle class="cls-2" cx="192.66" cy="131.99" r="5.01" transform="translate(23.99 274.99) rotate(-80.76)"/><polyline class="cls-22" points="182.4 104.81 185.19 108.11 189.95 100.51"/><circle class="cls-2" cx="210.5" cy="131.99" r="5.01" transform="translate(-39.14 161.54) rotate(-45)"/><line class="cls-22" x1="200.64" y1="103.32" x2="205.73" y2="108.72"/><line class="cls-22" x1="205.88" y1="103.47" x2="200.49" y2="108.57"/><rect class="cls-5" x="170.89" y="137.47" width="90.77" height="8.91" rx="4.46"/><path class="cls-6" d="M124.43,200H77.58a4.46,4.46,0,0,1-4.46-4.45h0a4.46,4.46,0,0,1,4.46-4.46h46.85a4.46,4.46,0,0,1,4.46,4.46h0A4.46,4.46,0,0,1,124.43,200Z" transform="translate(-7.47 -25.97)"/><path class="cls-23" d="M145.09,104.38V95.73l10.15.17s.73,18.32-1.89,24.94-9.13,5-9.94,2.5S145.09,104.38,145.09,104.38Z" transform="translate(-7.47 -25.97)"/><polygon class="cls-24" points="139.19 63.12 139.67 69.78 146.57 69.93 144.26 62.37 139.19 63.12"/><path class="cls-24" d="M146.66,89.09l5.07-.75s1.43-6.06-.5-9.62a52.48,52.48,0,0,0-5.19-7.4l-6.87,7Z" transform="translate(-7.47 -25.97)"/><path class="cls-25" d="M146.91,81.75a5.72,5.72,0,0,1,2.88,2.53" transform="translate(-7.47 -25.97)"/><path class="cls-26" d="M139.27,67.22h8a.64.64,0,0,1,.64.64V81.63a.65.65,0,0,1-.65.65h-8a.64.64,0,0,1-.64-.64V67.86A.64.64,0,0,1,139.27,67.22Z" transform="translate(-23.99 72.84) rotate(-36.12)"/><rect class="cls-2" x="139.06" y="68.22" width="7.62" height="11.99" rx="0.52" transform="translate(-23.75 72.51) rotate(-36.12)"/><path class="cls-12" d="M147.47,79.57a.56.56,0,0,1-.12.79.57.57,0,1,1-.67-.92A.56.56,0,0,1,147.47,79.57Z" transform="translate(-7.47 -25.97)"/><path class="cls-24" d="M146.66,89.09s-8.16-6.55-8.61-7.87,3.31-1,4.56.07,2.3,2.18,3.37,3.11S146.66,89.09,146.66,89.09Z" transform="translate(-7.47 -25.97)"/><line class="cls-27" x1="137.62" y1="72.9" x2="147.87" y2="72.9"/><path class="cls-28" d="M144.53,60a17.82,17.82,0,0,1,.38,7.13,5.11,5.11,0,0,1-.52,2,1.82,1.82,0,0,1-1.71,1,2.42,2.42,0,0,1-1-.48,10.65,10.65,0,0,1-4.3-6.8c-.35-2-.28-6.53,2.13-7.45S144,58.15,144.53,60Z" transform="translate(-7.47 -25.97)"/><path class="cls-12" d="M125.72,86.78s-11.24,5.44-7.49,21.37,7.5,26.69,7.5,26.69l21.37,1.37s4.09-21.12.55-27.49-11.18-17.61-11.18-17.61Z" transform="translate(-7.47 -25.97)"/><path class="cls-28" d="M125.73,134.84s-8.75,16.76-7.42,27.63,9.86,38.67,9.86,38.67-3.75,22.87-2.63,33.93,4.5,17.81,4.5,17.81l9-.93s7.12-40.5,7.69-53.25.37-62.49.37-62.49Z" transform="translate(-7.47 -25.97)"/><path class="cls-12" d="M119.76,169.63c2,6.82,4,13.62,5.91,20.47.94,3.42,1.92,6.82,2.74,10.31a5.14,5.14,0,0,1,.12.78l-.11.66-.2,1.32-.4,2.62c-.25,1.76-.5,3.51-.72,5.27-.45,3.52-.84,7-1.11,10.57a76.12,76.12,0,0,0-.24,10.56c.15,1.72.45,3.48.73,5.23s.6,3.48.93,5.22.69,3.47,1.13,5.18a22,22,0,0,0,1.71,4.94v0a.23.23,0,0,1-.09.32.24.24,0,0,1-.32-.09c-1.81-3.19-2.52-6.73-3.32-10.19-.37-1.74-.69-3.49-1-5.24s-.62-3.5-.76-5.32a77.79,77.79,0,0,1,.33-10.7c.3-3.55.72-7.08,1.2-10.6.23-1.77.49-3.52.76-5.28l.42-2.63.22-1.32.1-.65c0-.18,0-.29-.1-.53-.78-3.43-1.74-6.86-2.65-10.28l-5.57-20.55a.16.16,0,0,1,.1-.19A.15.15,0,0,1,119.76,169.63Z" transform="translate(-7.47 -25.97)"/><path class="cls-29" d="M132.86,135.3s-6,16.16-5.6,22.41,8.53,35.5,8.19,39.49-2.1,54.13-1.85,55.31" transform="translate(-7.47 -25.97)"/><path class="cls-29" d="M128.23,150.49s10-5.47,12.06-14.72" transform="translate(-7.47 -25.97)"/><path class="cls-28" d="M119.62,169.68s-8.26,19-11,24-19.75,23.73-25,43L94.86,243l32.4-44.82Z" transform="translate(-7.47 -25.97)"/><line class="cls-29" x1="81.91" y1="214.02" x2="116.01" y2="157.4"/><path class="cls-26" d="M130,256.92s-2.28,2.43-2.78,4.21-.31,6.28.91,7.5,9.46-.65,13.12-.47,16.68-1.78,17.62-3.56a3.39,3.39,0,0,0-2.44-4.78c-2.25-.28-16.59-3.56-16.59-3.56Z" transform="translate(-7.47 -25.97)"/><path class="cls-30" d="M129,258.09s6,5,6.42,10.51" transform="translate(-7.47 -25.97)"/><path class="cls-30" d="M150,258.52s-1.91,4.68-1.21,9" transform="translate(-7.47 -25.97)"/><path class="cls-5" d="M131,252.79l-1,4.13s6,.65,9.84-.66l-1.6-4.23Z" transform="translate(-7.47 -25.97)"/><path class="cls-26" d="M82.46,240.55s-3.27.66-4.72,1.82-3.9,4.93-3.61,6.63,8.08,5,11,7.24,14.62,8.24,16.42,7.34a3.39,3.39,0,0,0,.79-5.31c-1.67-1.53-11.44-12.54-11.44-12.54Z" transform="translate(-7.47 -25.97)"/><path class="cls-30" d="M81,240.93s2,7.54-.89,12.28" transform="translate(-7.47 -25.97)"/><path class="cls-30" d="M97.77,253.44s-4.28,2.7-6.21,6.62" transform="translate(-7.47 -25.97)"/><path class="cls-5" d="M85.63,237.74l-3.17,2.81s4.5,4,8.39,5.18L92,241.36Z" transform="translate(-7.47 -25.97)"/><path class="cls-5" d="M136.2,85.42a58.19,58.19,0,0,0,.54,7.5A1.33,1.33,0,0,1,135,94.39c-2.93-.9-8.17-3.13-10.92-8.09l4-9.71.09-.19,8,3.88S136.14,82.54,136.2,85.42Z" transform="translate(-7.47 -25.97)"/><path class="cls-31" d="M136.23,80.28s-.09,2.26,0,5.14c-3.81-.88-7.06-6.76-8.09-8.83l.09-.19Z" transform="translate(-7.47 -25.97)"/><path class="cls-5" d="M144.86,71.39c0,1,.09,2,.13,3.06,0,.1,0,.21,0,.33a20.41,20.41,0,0,1-.22,3.82,3.4,3.4,0,0,1-.74,1.79c-1.72,1.8-6.22.38-8.21-.23a22,22,0,0,1-8.06-4.3c-6.08-5.36-7.19-17.62,1.37-20.63,4.47-1.56,10.12-1.17,12.7,2.21C145,61.65,144.66,66.3,144.86,71.39Z" transform="translate(-7.47 -25.97)"/><path class="cls-5" d="M144.44,65s3.07,4.82,3.2,5.89-2.79,2.34-2.79,2.34Z" transform="translate(-7.47 -25.97)"/><g class="cls-32"><path class="cls-33" d="M144.44,65s3.07,4.82,3.2,5.89-2.79,2.34-2.79,2.34Z" transform="translate(-7.47 -25.97)"/></g><path class="cls-28" d="M142.07,67.08a.67.67,0,1,1-.8-.65A.74.74,0,0,1,142.07,67.08Z" transform="translate(-7.47 -25.97)"/><path class="cls-28" d="M138.07,65.58a2,2,0,0,1,.38-1.41,2.72,2.72,0,0,1,1.19-.9,2.85,2.85,0,0,1,1.44-.11,2.33,2.33,0,0,1,1.23.64.26.26,0,0,1,0,.36l-.06,0h0a9.94,9.94,0,0,1-1.1.41l-.87.3a13.29,13.29,0,0,0-1.75.82l-.06,0a.26.26,0,0,1-.34-.1A.16.16,0,0,1,138.07,65.58Z" transform="translate(-7.47 -25.97)"/><path class="cls-34" d="M141.24,71.81a4.27,4.27,0,1,1-5-3.35A4.26,4.26,0,0,1,141.24,71.81Z" transform="translate(-7.47 -25.97)"/><path class="cls-28" d="M145,74.45c0,.1,0,.21,0,.33a1.81,1.81,0,0,1-.45.14,4,4,0,0,1-2.65-.74.17.17,0,0,1,0-.21.16.16,0,0,1,.21,0S143.8,75.14,145,74.45Z" transform="translate(-7.47 -25.97)"/><path class="cls-5" d="M130.68,68.06s-2.44-6.83-5.52-3.75.62,10,5,8.15Z" transform="translate(-7.47 -25.97)"/><path class="cls-35" d="M129.1,66.68A5.18,5.18,0,0,0,128,65.4a1.26,1.26,0,0,0-1.8.09,2.38,2.38,0,0,0-.47,1.33,4.8,4.8,0,0,0,.55,2.81A2.78,2.78,0,0,0,129.16,71" transform="translate(-7.47 -25.97)"/><path class="cls-35" d="M127.34,65.09s1.54,3.77,1.55,5.94" transform="translate(-7.47 -25.97)"/><path class="cls-5" d="M136.47,90.74S143.86,101.47,143,103,124.1,86.3,124.1,86.3Z" transform="translate(-7.47 -25.97)"/><path class="cls-28" d="M127.06,51.71a9.25,9.25,0,0,0-7.17,3.51c-.69.9-1.22,1.93-1.94,2.81a16.13,16.13,0,0,1-4.29,3.35,16.57,16.57,0,0,0-4.32,3.33A5.59,5.59,0,0,0,108,69.79c.53,1.72,2.2,3.13,2.06,4.93-.11,1.47-1.37,2.54-2.49,3.49-2.52,2.12-5,4.93-4.78,8.22a6.18,6.18,0,0,0,4.41,5.45c1.08.29,2.22.28,3.26.67,1.64.62,2.78,2.13,4.33,2.94a5.78,5.78,0,0,0,5.68-.25c1.59-1,2.84-2.88,4.73-2.89a6.63,6.63,0,0,1,2.09.49,4.28,4.28,0,0,0,3.72-.17,3.84,3.84,0,0,0,1.21-3.79c-.23-1.38-.85-2.67-1.14-4a4.17,4.17,0,0,1,.86-3.92,10.17,10.17,0,0,1,2-1.16,6.07,6.07,0,0,0,2.84-6.6,10.19,10.19,0,0,1-.7-2.88c.07-1.57,1.42-2.72,2.43-3.93a11.22,11.22,0,0,0,2.55-8,5.87,5.87,0,0,0-1.37-3.59,6.38,6.38,0,0,0-2.59-1.51A29.55,29.55,0,0,0,127.06,51.71Z" transform="translate(-7.47 -25.97)"/><path class="cls-12" d="M129.23,91a7,7,0,0,0-6.52-.67c-3.82,1.54-9,5.48-5.25,15.19,5.64,14.43,29.08,28.31,32.83,28.5s19.12-20.5,19.12-20.5l-4.5-6.69-15.82,11.81S139,97.66,129.23,91Z" transform="translate(-7.47 -25.97)"/><path class="cls-26" d="M133.47,95.78q3.67,5.88,7.54,11.64c1.29,1.91,2.61,3.81,4,5.67a41.56,41.56,0,0,0,4.38,5.26h0l-.51,0,15.77-11.56a.24.24,0,0,1,.34,0,.23.23,0,0,1-.05.33L149.34,119h0a.39.39,0,0,1-.51,0h0a41.33,41.33,0,0,1-4.43-5.44q-2-2.83-3.91-5.75-3.81-5.8-7.4-11.75a.23.23,0,0,1,.08-.31A.22.22,0,0,1,133.47,95.78Z" transform="translate(-7.47 -25.97)"/><path class="cls-26" d="M120.7,110.55c2.1,2.4,4.32,4.69,6.56,7s4.57,4.44,7,6.52a72.44,72.44,0,0,0,7.56,5.79,28.64,28.64,0,0,0,8.52,4.09.11.11,0,0,1,.09.14.13.13,0,0,1-.13.1,23.81,23.81,0,0,1-8.88-3.7c-1.39-.83-2.67-1.8-4-2.75s-2.51-2-3.71-3.08q-3.61-3.18-6.91-6.68t-6.3-7.24a.12.12,0,0,1,0-.17A.12.12,0,0,1,120.7,110.55Z" transform="translate(-7.47 -25.97)"/><path class="cls-27" d="M122,114.65a30.09,30.09,0,0,0,4.29,2.28" transform="translate(-7.47 -25.97)"/><path class="cls-27" d="M142.86,131s6-2.79,11.94,0" transform="translate(-7.47 -25.97)"/><line class="cls-27" x1="155.38" y1="82.56" x2="160.57" y2="89.38"/><path class="cls-5" d="M177.87,104q-.09-.3-.15-.6a2,2,0,0,0-.21-.81,3.33,3.33,0,0,0-.77-.62l-.37-.59c-.11-.56.13-1.07-.32-1.62a2.36,2.36,0,0,0-.83-.67.56.56,0,0,1,0-.13c.25-1,4-6.75,2.39-7.63s-7,7.38-9.26,9.25-2.7,7.34-2.7,7.34l3.76,5.6s8.27-5.41,8.9-7.31A3.34,3.34,0,0,0,177.87,104Z" transform="translate(-7.47 -25.97)"/><line class="cls-36" x1="167.78" y1="73.14" x2="166.57" y2="74.81"/><line class="cls-36" x1="169.09" y1="75.84" x2="168.07" y2="77.09"/><line class="cls-36" x1="170.4" y1="78.03" x2="169.44" y2="79.5"/></svg>