<?xml version="1.0" encoding="utf-8"?>
<!-- Generator: Adobe Illustrator 21.0.2, SVG Export Plug-In . SVG Version: 6.00 Build 0)  -->
<svg version="1.1" id="Capa_1" xmlns="http://www.w3.org/2000/svg" xmlns:xlink="http://www.w3.org/1999/xlink" x="0px" y="0px"
	 viewBox="0 0 119 105" style="enable-background:new 0 0 119 105;" xml:space="preserve">
<style type="text/css">
	.st0{fill:#FFFFFF;}
	.st1{fill:#32BA46;}
</style>
<g>
	<g>
		<path class="st0" d="M59.4,9C35,9,15.2,28.8,15.2,53.2c0,9.4,2.9,18.4,8.5,26l-3.5,18.2l17.2-5.9c6.7,3.9,14.3,5.9,22.1,5.9
			c24.4,0,44.2-19.8,44.2-44.2C103.6,28.8,83.8,9,59.4,9z M59.4,90.9c-7,0-13.9-2-19.9-5.7l-1.3-0.8l-9.4,3.2l1.9-10l-0.9-1.2
			c-5.2-6.7-8-14.7-8-23.1c0-20.8,16.9-37.6,37.6-37.6c20.8,0,37.6,16.9,37.6,37.6C97.1,74,80.2,90.9,59.4,90.9z"/>
		<path class="st1" d="M59.4,15.6c-20.7,0-37.6,16.9-37.6,37.6c0,8.4,2.8,16.4,8,23.1l0.9,1.2l-1.9,10l9.4-3.2l1.3,0.8
			c6,3.8,12.9,5.7,19.9,5.7c20.8,0,37.6-16.9,37.6-37.6C97.1,32.5,80.2,15.6,59.4,15.6z M81.4,70.6c-1.1,1.1-4.3,4.5-9.2,4.5
			c-4.9,0-16.5-4-22.6-10.1c-6.2-6.2-11.7-12.4-13-18.1c-1.3-5.7-1.1-8.3,0.5-10.6c0,0,2.6-4.5,4.7-4.8c2.1-0.3,4.8-0.3,5.6,1.1
			c0.7,1.4,4,9.4,4,9.4s0.6,1.4-0.3,2.7C50.2,46,48.3,48,48.3,48s-1.1,1.4,0,2.8c1.1,1.5,2.8,4.2,6.2,7.6c3.5,3.5,10.1,5.9,10.1,5.9
			s0.9,0.1,1.6-0.5c0.6-0.6,3.9-4.7,3.9-4.7s1.1-1.4,2.8-0.6c1.7,0.8,9.3,4.6,9.3,4.6s0.9,0.3,0.9,1.7
			C83.1,66.2,82.5,69.5,81.4,70.6z"/>
	</g>
	<path class="st0" d="M83.1,64.9c0,1.3-0.5,4.6-1.7,5.7c-1.1,1.1-4.3,4.5-9.2,4.5c-4.9,0-16.5-4-22.6-10.1
		c-6.2-6.2-11.7-12.4-13-18.1c-1.3-5.7-1.1-8.3,0.5-10.6c0,0,2.6-4.5,4.7-4.8c2.1-0.3,4.8-0.3,5.6,1.1c0.7,1.4,4,9.4,4,9.4
		s0.6,1.4-0.3,2.7C50.2,46,48.3,48,48.3,48s-1.1,1.4,0,2.8c1.1,1.5,2.8,4.2,6.2,7.6c3.5,3.5,10.1,5.9,10.1,5.9s0.9,0.1,1.6-0.5
		c0.6-0.6,3.9-4.7,3.9-4.7s1.1-1.4,2.8-0.6c1.7,0.8,9.3,4.6,9.3,4.6S83.1,63.6,83.1,64.9z"/>
</g>
</svg>
