<?xml version="1.0" encoding="utf-8"?>
<!-- Generator: Adobe Illustrator 21.0.2, SVG Export Plug-In . SVG Version: 6.00 Build 0)  -->
<svg version="1.1" id="Capa_1" xmlns="http://www.w3.org/2000/svg" xmlns:xlink="http://www.w3.org/1999/xlink" x="0px" y="0px"
	 viewBox="0 0 230 220" style="enable-background:new 0 0 230 220;" xml:space="preserve">
<style type="text/css">
	.st0{fill:#7C7C7C;}
</style>
<path class="st0" d="M117.1,166.1c-12,0-23.1-3.6-32.4-9.7l-22.6,7.2l7.3-21.8c-7.1-9.6-11.2-21.5-11.2-34.3c0-1.9,0.1-3.7,0.4-5.6
	c2.8-29.7,28-52.9,58.5-52.9c31,0,56.5,23.8,58.8,53.9c0.1,1.6,0.1,3.1,0.1,4.5C176.1,139.8,149.6,166.1,117.1,166.1L117.1,166.1z
	 M149.3,121.6c-1.8-0.8-10.2-5-11.7-5.6c-1.7-0.5-2.8-0.8-3.9,1c-1.1,1.7-4.4,5.5-5.4,6.6c-1.1,1.2-2,1.3-3.7,0.5
	c-1.8-0.8-7.3-2.6-13.9-8.5c-5.1-4.5-8.6-10-9.6-11.7c-1-1.8-0.1-2.6,0.7-3.6c0.8-0.7,1.8-1.9,2.6-3c0.2-0.2,0.5-0.5,0.6-0.7
	c0.5-0.7,0.7-1.3,1.1-2c0.6-1.2,0.4-2.2-0.1-3c-0.4-0.8-3.8-9.3-5.3-12.7c-1.4-3.5-2.9-2.9-3.8-2.9c-1.1,0-2.2-0.1-3.3-0.1
	c-1.2,0-3,0.4-4.5,2.2c-1.7,1.7-6.1,5.7-6.1,14.2c0,1.9,0.4,3.9,1,5.7c1.7,6.1,5.5,11,6.1,11.8c0.8,1.2,11.8,18.9,29.3,25.7
	c17.6,6.8,17.6,4.5,20.7,4.3c3.1-0.2,10.2-4.1,11.6-8.1c1.4-3.9,1.4-7.4,1-8.1C152.1,122.9,150.9,122.4,149.3,121.6L149.3,121.6z
	 M187.2,105.8c-1-37.7-31.9-67.8-70.1-67.8c-37.7,0-68.4,29.4-70,66.5c-0.1,1-0.1,2-0.1,3c0,13.2,3.7,25.5,10,36l-12.7,37.3
	l38.9-12.3c10,5.5,21.6,8.6,33.8,8.6c38.7,0,70.2-31.1,70.2-69.6C187.3,106.9,187.2,106.4,187.2,105.8L187.2,105.8z"/>
</svg>
