<?xml version="1.0" encoding="utf-8"?>
<!-- Generator: Adobe Illustrator 21.0.2, SVG Export Plug-In . SVG Version: 6.00 Build 0)  -->
<svg version="1.1" id="Capa_1" xmlns="http://www.w3.org/2000/svg" xmlns:xlink="http://www.w3.org/1999/xlink" x="0px" y="0px"
	 viewBox="0 0 294.3 96.3" style="enable-background:new 0 0 294.3 96.3;" xml:space="preserve">
<style type="text/css">
	.st0{fill:#00FFFF;}
	.st1{fill:#FFFFFF;}
</style>
<title>Recurso 1</title>
<g id="Capa_2">
	<g id="Capa_1-2">
		<path class="st0" d="M214.5,25.3c-4.2-8.3-12.7-13.4-22-13.3c-6,0.1-11.8,1.8-16.9,4.8c-5.1-3-11-4.6-16.9-4.8
			c-9.3-0.1-17.8,5.1-22,13.3c-5.6,10.7-4.1,25,3.8,36.4c10.7,15.4,28.5,22.3,30.5,23l4.6,1.7l4.6-1.7c2-0.7,19.8-7.6,30.5-23
			C218.6,50.3,220.1,36,214.5,25.3z M199.6,54c-8.6,12.3-24.1,18-24.1,18s-15.5-5.7-24.1-18c-11.5-16.5-1.2-40.9,24.1-21
			C200.8,13.1,211.1,37.5,199.6,54z"/>
		<path class="st1" d="M133.2,43.7v24.9h-15.5V42.7c0-5.6-1.6-9.1-4.7-10.6c-3.3-1.5-6.8-1.3-10.3,0.8c-3.1,1.8-4.9,3.9-5.3,6.1
			c-0.1,0.4-0.1,0.8-0.1,1.2l0,0v28.4H81.5V20.1h15.8V25c6.3-3.6,10.2-5.6,11.7-5.9c7.7-1.5,13.8,0.5,18.3,6
			C131.2,29.8,133.2,36,133.2,43.7z"/>
		<path class="st1" d="M294.3,19.3L275.4,68h-15.8l-6.2-22.5L247.4,68h-15.8l-18.8-48.7h15.4l7.1,20.6c1.4,4.1,2.6,8.2,3.7,12.1
			c1.6-6.4,4.3-17,8.1-31.7l0.3-1h12.5l0.2,0.9c3.7,14.3,6.4,24.8,8.1,31.8c1-3.9,2.3-7.9,3.7-12.1l7.1-20.6H294.3z"/>
		<path class="st1" d="M81.5,19.3L62.7,68H46.9l-6.2-22.6L34.6,68H18.8L0,19.3h15.4l7.1,20.6c1.4,4.1,2.6,8.2,3.7,12.1
			c1.6-6.4,4.3-17,8.1-31.7l0.3-1H47l0.2,0.9c3.7,14.2,6.4,24.8,8.1,31.8c1-3.9,2.3-7.9,3.7-12.1l7.1-20.6H81.5z"/>
	</g>
</g>
</svg>
