<?xml version="1.0" encoding="utf-8"?>
<!-- Generator: Adobe Illustrator 21.0.2, SVG Export Plug-In . SVG Version: 6.00 Build 0)  -->
<svg version="1.1" id="Capa_1" xmlns="http://www.w3.org/2000/svg" xmlns:xlink="http://www.w3.org/1999/xlink" x="0px" y="0px"
	 viewBox="0 0 500 500" style="enable-background:new 0 0 500 500;" xml:space="preserve">
<style type="text/css">
	.st0{fill:#FFFFFF;}
	.st1{fill:#25D366;}
</style>
<g>
	<g>
		<path class="st0" d="M255.7,10C126.2,10,21,115.2,21,244.7c0,49.9,15.4,97.7,45.1,138.1l-18.6,96.7l91.3-31.3
			c35.6,20.7,75.9,31.3,117.4,31.3c129.6,0,234.7-105.2,234.7-234.7C490.5,115.2,385.3,10,255.7,10z M255.7,445
			c-37.2,0-73.8-10.6-105.7-30.3l-6.9-4.2l-49.9,17l10.1-53.1l-4.8-6.4C70.9,332.4,56,289.9,56,245.3
			c0-110.5,89.8-199.7,199.7-199.7c110.5,0,199.7,89.8,199.7,199.7C456,355.2,366.2,445,255.7,445z"/>
		<path class="st1" d="M255.7,45.1C145.8,45.1,56,134.9,56,244.8c0,44.6,14.9,87.1,42.5,122.7l4.8,6.4L93.2,427l49.9-17l6.9,4.2
			c31.9,20.2,68.5,30.3,105.7,30.3c110.5,0,199.7-89.8,199.7-199.7C456,134.8,366.2,45.1,255.7,45.1z M372.6,337.1
			c-5.8,5.8-22.8,23.9-48.9,23.9c-26,0-87.6-21.2-120-53.6c-32.9-32.9-62.1-65.9-69-96.1c-6.9-30.3-5.8-44.1,2.7-56.3
			c0,0,13.8-23.9,25-25.5c11.2-1.6,25.5-1.6,29.7,5.8c3.7,7.4,21.2,49.9,21.2,49.9s3.2,7.4-1.6,14.3c-4.8,6.9-14.9,17.5-14.9,17.5
			s-5.8,7.4,0,14.9c5.8,8,14.9,22.3,32.9,40.4c18.6,18.6,53.6,31.3,53.6,31.3s4.8,0.5,8.5-2.7c3.2-3.2,20.7-25,20.7-25
			s5.8-7.4,14.9-3.2c9,4.2,49.4,24.4,49.4,24.4s4.8,1.6,4.8,9C381.6,313.8,378.4,331.3,372.6,337.1z"/>
	</g>
	<path class="st0" d="M381.6,306.9c0,6.9-2.7,24.4-9,30.3c-5.8,5.8-22.8,23.9-48.9,23.9c-26,0-87.6-21.2-120-53.6
		c-32.9-32.9-62.1-65.9-69-96.1c-6.9-30.3-5.8-44.1,2.7-56.3c0,0,13.8-23.9,25-25.5c11.2-1.6,25.5-1.6,29.7,5.8
		c3.7,7.4,21.2,49.9,21.2,49.9s3.2,7.4-1.6,14.3c-4.8,6.9-14.9,17.5-14.9,17.5s-5.8,7.4,0,14.9c5.8,8,14.9,22.3,32.9,40.4
		c18.6,18.6,53.6,31.3,53.6,31.3s4.8,0.5,8.5-2.7c3.2-3.2,20.7-25,20.7-25s5.8-7.4,14.9-3.2c9,4.2,49.4,24.4,49.4,24.4
		S381.6,300,381.6,306.9z"/>
</g>
</svg>
