<?xml version="1.0" encoding="utf-8"?>
<!-- Generator: Adobe Illustrator 16.0.3, SVG Export Plug-In . SVG Version: 6.00 Build 0)  -->
<!DOCTYPE svg PUBLIC "-//W3C//DTD SVG 1.1//EN" "http://www.w3.org/Graphics/SVG/1.1/DTD/svg11.dtd">
<svg version="1.1" id="Capa_1" xmlns="http://www.w3.org/2000/svg" xmlns:xlink="http://www.w3.org/1999/xlink" x="0px" y="0px"
	 width="256px" height="209px" viewBox="0 0 256 209" enable-background="new 0 0 256 209" xml:space="preserve">
<g>
	<path fill="#9B5C8F" d="M27.42,5.683h200.606C240.723,5.683,251,15.96,251,28.655v76.576c0,12.695-10.277,22.973-22.974,22.973
		h-71.939l9.873,24.182l-43.425-24.182H27.521c-12.695,0-22.972-10.277-22.972-22.973V28.655C4.447,16.062,14.724,5.683,27.42,5.683
		L27.42,5.683z"/>
	<path fill="#FFFFFF" d="M18.582,26.622c1.403-1.903,3.507-2.906,6.312-3.106c5.109-0.4,8.015,2.004,8.716,7.213
		c3.106,20.938,6.512,38.671,10.119,53.199l21.94-41.777c2.003-3.807,4.508-5.811,7.514-6.011c4.408-0.3,7.113,2.504,8.215,8.416
		c2.504,13.324,5.71,24.645,9.518,34.263c2.604-25.446,7.012-43.78,13.224-55.102c1.502-2.805,3.707-4.208,6.612-4.408
		c2.304-0.2,4.408,0.501,6.312,2.004c1.904,1.502,2.906,3.406,3.106,5.71c0.1,1.803-0.2,3.306-1.002,4.809
		c-3.907,7.213-7.113,19.335-9.718,36.167c-2.504,16.331-3.406,29.053-2.805,38.169c0.2,2.505-0.2,4.71-1.202,6.613
		c-1.202,2.204-3.005,3.405-5.31,3.606c-2.605,0.2-5.31-1.002-7.915-3.707c-9.316-9.517-16.73-23.743-22.14-42.679
		C63.564,82.824,58.755,92.442,55.65,98.854c-5.911,11.32-10.92,17.132-15.127,17.432c-2.706,0.2-5.01-2.104-7.013-6.913
		c-5.11-13.124-10.619-38.47-16.53-76.04C16.578,30.729,17.179,28.425,18.582,26.622z M233.877,42.351
		c-3.606-6.312-8.916-10.119-16.029-11.622c-1.903-0.4-3.707-0.601-5.41-0.601c-9.618,0-17.432,5.009-23.543,15.027
		c-5.209,8.516-7.814,17.934-7.814,28.252c0,7.714,1.604,14.327,4.81,19.836c3.606,6.312,8.916,10.118,16.029,11.621
		c1.903,0.4,3.706,0.601,5.409,0.601c9.718,0,17.532-5.009,23.543-15.027c5.211-8.615,7.814-18.033,7.814-28.352
		C238.786,54.272,237.083,47.761,233.877,42.351z M221.254,70.102c-1.402,6.612-3.907,11.521-7.613,14.827
		c-2.906,2.605-5.61,3.707-8.115,3.206c-2.405-0.501-4.408-2.605-5.912-6.513c-1.201-3.105-1.803-6.211-1.803-9.117
		c0-2.504,0.201-5.009,0.701-7.313c0.902-4.107,2.605-8.115,5.311-11.922c3.306-4.909,6.812-6.913,10.419-6.211
		c2.404,0.501,4.408,2.605,5.911,6.512c1.202,3.105,1.803,6.211,1.803,9.116C221.955,65.293,221.755,67.797,221.254,70.102z
		 M171.162,42.351c-3.607-6.312-9.017-10.119-16.029-11.622c-1.904-0.4-3.707-0.601-5.41-0.601c-9.618,0-17.433,5.009-23.543,15.027
		c-5.21,8.516-7.814,17.934-7.814,28.252c0,7.714,1.603,14.327,4.809,19.836c3.606,6.312,8.917,10.118,16.03,11.621
		c1.902,0.4,3.706,0.601,5.409,0.601c9.718,0,17.532-5.009,23.543-15.027c5.211-8.615,7.814-18.033,7.814-28.352
		C175.971,54.272,174.368,47.761,171.162,42.351z M158.439,70.102c-1.403,6.612-3.907,11.521-7.615,14.827
		c-2.905,2.605-5.61,3.707-8.114,3.206c-2.404-0.501-4.408-2.605-5.911-6.513c-1.202-3.105-1.803-6.211-1.803-9.117
		c0-2.504,0.2-5.009,0.701-7.313c0.901-4.107,2.604-8.115,5.31-11.922c3.306-4.909,6.813-6.913,10.419-6.211
		c2.405,0.501,4.408,2.605,5.911,6.512c1.202,3.105,1.804,6.211,1.804,9.116C159.24,65.293,158.939,67.797,158.439,70.102
		L158.439,70.102L158.439,70.102z"/>
</g>
<path d="M8.127,166.398c-3.634,3.58-5.424,8.136-5.424,13.668c0,5.913,1.79,10.74,5.37,14.374c3.58,3.634,8.245,5.479,14.049,5.479
	c1.681,0,3.58-0.271,5.641-0.867v-8.787c-1.898,0.542-3.525,0.813-4.936,0.813c-2.875,0-5.153-0.977-6.889-2.875
	c-1.736-1.953-2.604-4.557-2.604-7.865c0-3.092,0.868-5.641,2.549-7.594c1.735-2.007,3.851-2.983,6.455-2.983
	c1.682,0,3.471,0.271,5.424,0.814v-8.787c-1.79-0.488-3.797-0.705-5.912-0.705C16.317,161.028,11.761,162.818,8.127,166.398
	 M45.77,161.028c-4.99,0-8.896,1.682-11.716,4.99s-4.176,7.974-4.176,13.94c0,6.454,1.41,11.39,4.176,14.808
	c2.766,3.417,6.834,5.152,12.15,5.152c5.153,0,9.112-1.735,11.879-5.152c2.766-3.418,4.176-8.245,4.176-14.429
	s-1.411-10.956-4.23-14.319C55.154,162.71,51.086,161.028,45.77,161.028 M50.055,189.233c-0.977,1.519-2.441,2.278-4.285,2.278
	c-1.735,0-3.037-0.76-3.959-2.278s-1.356-4.556-1.356-9.167c0-7.105,1.79-10.631,5.424-10.631c3.797,0,5.75,3.58,5.75,10.794
	C51.574,184.678,51.032,187.715,50.055,189.233 M89.054,162.06l-1.952,8.298c-0.488,2.116-0.976,4.285-1.41,6.509l-1.085,5.75
	c-1.031-5.75-2.44-12.584-4.231-20.557H67.792l-4.719,36.938h9.438l2.549-25.439l6.455,25.439h6.726l6.184-25.385l2.658,25.385
	h9.871l-4.99-36.938H89.054z M134.237,162.06l-1.953,8.298c-0.488,2.116-0.977,4.285-1.41,6.509l-1.085,5.75
	c-1.03-5.75-2.441-12.584-4.231-20.557h-12.584l-4.719,36.938h9.438l2.549-25.439l6.455,25.439h6.726l6.129-25.385l2.658,25.385
	h9.871l-4.99-36.938H134.237z M164.937,184.406h8.842v-7.648h-8.842v-6.779h10.197v-7.865h-20.178v36.938h20.232v-7.865h-10.252
	V184.406z M203.284,178.548c1.031-1.682,1.573-3.417,1.573-5.207c0-3.471-1.356-6.237-4.067-8.244
	c-2.713-2.007-6.455-3.037-11.119-3.037h-11.607v36.938h9.979v-16.814h0.163l8.082,16.814h10.522l-7.974-16.652
	C200.735,181.478,202.254,180.229,203.284,178.548 M187.989,177.951v-8.787c2.387,0.055,4.068,0.435,5.099,1.193
	c1.03,0.76,1.519,1.953,1.519,3.688C194.606,176.596,192.382,177.897,187.989,177.951 M210.716,166.398
	c-3.635,3.58-5.424,8.136-5.424,13.668c0,5.913,1.789,10.74,5.369,14.374s8.245,5.479,14.049,5.479c1.682,0,3.58-0.271,5.641-0.867
	v-8.787c-1.898,0.542-3.525,0.813-4.936,0.813c-2.875,0-5.152-0.977-6.889-2.875c-1.736-1.953-2.604-4.557-2.604-7.865
	c0-3.092,0.867-5.641,2.549-7.594c1.736-2.007,3.852-2.983,6.455-2.983c1.682,0,3.471,0.271,5.424,0.814v-8.787
	c-1.79-0.488-3.797-0.705-5.912-0.705C218.96,161.028,214.35,162.818,210.716,166.398 M243.097,191.078v-6.727h8.842v-7.647h-8.842
	v-6.78h10.252v-7.864h-20.178v36.938h20.232v-7.865h-10.307V191.078z"/>
</svg>
