<?xml version="1.0" encoding="utf-8"?>
<!-- Generator: Adobe Illustrator 16.0.3, SVG Export Plug-In . SVG Version: 6.00 Build 0)  -->
<!DOCTYPE svg PUBLIC "-//W3C//DTD SVG 1.1//EN" "http://www.w3.org/Graphics/SVG/1.1/DTD/svg11.dtd">
<svg version="1.1" id="Layer_1" xmlns="http://www.w3.org/2000/svg" xmlns:xlink="http://www.w3.org/1999/xlink" x="0px" y="0px"
	 width="252px" height="180px" viewBox="0 0 252 180" enable-background="new 0 0 252 180" xml:space="preserve">
<g>
	<path fill="#11557F" d="M114.269,131.652h-10.378v1.102c3.246,0,3.768,0.695,3.768,4.813v7.421c0,4.116-0.521,4.87-3.768,4.87
		c-2.492-0.348-4.174-1.682-6.493-4.232l-2.667-2.898c3.595-0.639,5.508-2.899,5.508-5.451c0-3.188-2.725-5.623-7.827-5.623H82.208
		v1.102c3.246,0,3.768,0.695,3.768,4.813v7.421c0,4.116-0.521,4.87-3.768,4.87v1.101h11.537v-1.101c-3.247,0-3.769-0.754-3.769-4.87
		V142.9h0.985l6.436,8.058h16.871c8.291,0,11.885-4.405,11.885-9.682C126.153,136.001,122.56,131.652,114.269,131.652z
		 M89.977,141.103v-7.71h2.377c2.608,0,3.769,1.797,3.769,3.883c0,2.03-1.16,3.827-3.769,3.827H89.977z M114.442,149.161h-0.406
		c-2.087,0-2.377-0.521-2.377-3.188v-12.58c0,0,2.551,0,2.783,0c6.029,0,7.131,4.405,7.131,7.826
		C121.573,144.755,120.472,149.161,114.442,149.161z"/>
	<path fill="#11557F" d="M49.916,143.248l4-11.828c1.16-3.42,0.639-4.405-3.072-4.405v-1.16h10.9v1.16
		c-3.652,0-4.522,0.869-5.972,5.102l-6.61,19.828h-0.753l-5.914-18.147l-6.029,18.147h-0.754l-6.435-19.828
		c-1.392-4.232-2.319-5.102-5.682-5.102v-1.16h12.871v1.16c-3.421,0-4.349,0.812-3.131,4.405l3.884,11.828l5.856-17.394h1.102
		L49.916,143.248z"/>
	<path fill="#11557F" d="M69.627,151.712c-6.377,0-11.595-4.695-11.595-10.436c0-5.682,5.218-10.378,11.595-10.378
		c6.377,0,11.596,4.696,11.596,10.378C81.223,147.017,76.004,151.712,69.627,151.712z M69.627,132.696
		c-5.333,0-7.189,4.812-7.189,8.58c0,3.827,1.855,8.581,7.189,8.581c5.392,0,7.247-4.754,7.247-8.581
		C76.874,137.508,75.019,132.696,69.627,132.696z"/>
	<path fill="#322928" d="M140.473,149.799v1.159h-13.276v-1.159c3.885,0,4.58-0.985,4.58-6.783v-9.275
		c0-5.799-0.695-6.726-4.58-6.726v-1.16h12.001c5.972,0,9.276,3.073,9.276,7.19c0,4-3.305,7.131-9.276,7.131h-3.305v2.84
		C135.893,148.813,136.588,149.799,140.473,149.799z M139.197,127.941h-3.305v10.088h3.305c3.247,0,4.754-2.261,4.754-4.984
		C143.951,130.262,142.444,127.941,139.197,127.941z"/>
	<path fill="#322928" d="M188.302,145.509l-0.289,1.044c-0.521,1.913-1.16,2.608-5.276,2.608h-0.812
		c-3.015,0-3.536-0.695-3.536-4.812v-2.667c4.521,0,4.87,0.405,4.87,3.421h1.102v-8.639h-1.102c0,3.015-0.349,3.42-4.87,3.42v-6.492
		h3.188c4.116,0,4.754,0.695,5.275,2.608l0.29,1.101h0.928l-0.405-5.449h-17.046v1.102c3.247,0,3.769,0.695,3.769,4.813v7.421
		c0,3.766-0.443,4.714-3.003,4.85c-2.433-0.372-4.104-1.699-6.389-4.212l-2.667-2.898c3.595-0.639,5.509-2.899,5.509-5.451
		c0-3.188-2.725-5.623-7.827-5.623h-10.204v1.102c3.247,0,3.769,0.695,3.769,4.813v7.421c0,4.116-0.521,4.87-3.769,4.87v1.101
		h11.537v-1.101c-3.246,0-3.768-0.754-3.768-4.87V142.9h0.985l6.435,8.058h23.828l0.348-5.449H188.302z M157.576,141.103v-7.71
		h2.377c2.608,0,3.769,1.797,3.769,3.883c0,2.03-1.16,3.827-3.769,3.827H157.576z"/>
	<path fill="#322928" d="M200.071,151.712c-2.319,0-4.349-1.217-5.218-1.971c-0.29,0.29-0.812,1.159-0.928,1.971h-1.102v-8h1.159
		c0.464,3.826,3.131,6.087,6.552,6.087c1.854,0,3.362-1.043,3.362-2.782c0-1.508-1.334-2.667-3.71-3.769l-3.305-1.565
		c-2.319-1.103-4.059-3.015-4.059-5.565c0-2.783,2.608-5.16,6.204-5.16c1.913,0,3.535,0.695,4.521,1.508
		c0.29-0.232,0.579-0.871,0.754-1.566h1.102v6.842h-1.218c-0.406-2.726-1.913-4.986-4.985-4.986c-1.624,0-3.132,0.928-3.132,2.377
		c0,1.508,1.218,2.318,4.001,3.595l3.188,1.565c2.783,1.333,3.885,3.479,3.885,5.218
		C207.145,149.161,203.955,151.712,200.071,151.712z"/>
	<path fill="#322928" d="M217.928,151.712c-2.319,0-4.35-1.217-5.219-1.971c-0.29,0.29-0.812,1.159-0.927,1.971h-1.103v-8h1.16
		c0.464,3.826,3.13,6.087,6.551,6.087c1.855,0,3.363-1.043,3.363-2.782c0-1.508-1.334-2.667-3.711-3.769l-3.305-1.565
		c-2.319-1.103-4.059-3.015-4.059-5.565c0-2.783,2.609-5.16,6.204-5.16c1.913,0,3.536,0.695,4.522,1.508
		c0.289-0.232,0.579-0.871,0.753-1.566h1.102v6.842h-1.218c-0.405-2.726-1.913-4.986-4.985-4.986c-1.623,0-3.131,0.928-3.131,2.377
		c0,1.508,1.217,2.318,4.001,3.595l3.188,1.565c2.783,1.333,3.885,3.479,3.885,5.218C225,149.161,221.812,151.712,217.928,151.712z"
		/>
	<g>
		<path fill="#322928" d="M86.642,70.609c0,14.826,8.616,27.639,21.111,33.711L89.885,55.365
			C87.807,60.023,86.642,65.179,86.642,70.609z"/>
		<path fill="#322928" d="M149.385,68.719c0-4.629-1.663-7.835-3.089-10.33c-1.898-3.085-3.679-5.699-3.679-8.784
			c0-3.443,2.611-6.648,6.29-6.648c0.166,0,0.323,0.021,0.485,0.03c-6.664-6.106-15.542-9.833-25.294-9.833
			c-13.086,0-24.598,6.714-31.296,16.883c0.88,0.027,1.708,0.045,2.411,0.045c3.917,0,9.982-0.476,9.982-0.476
			c2.019-0.119,2.257,2.847,0.24,3.085c0,0-2.03,0.239-4.287,0.357l13.64,40.573l8.198-24.584l-5.836-15.989
			c-2.017-0.119-3.928-0.357-3.928-0.357c-2.018-0.118-1.782-3.204,0.237-3.085c0,0,6.185,0.476,9.866,0.476
			c3.917,0,9.982-0.476,9.982-0.476c2.021-0.119,2.258,2.847,0.24,3.085c0,0-2.033,0.239-4.287,0.357l13.536,40.265l3.736-12.484
			C148.152,75.646,149.385,71.926,149.385,68.719z"/>
		<path fill="#322928" d="M124.756,73.886l-11.239,32.657c3.355,0.986,6.904,1.525,10.581,1.525c4.361,0,8.545-0.754,12.438-2.123
			c-0.101-0.16-0.191-0.33-0.267-0.516L124.756,73.886z"/>
		<path fill="#322928" d="M156.966,52.639c0.161,1.193,0.252,2.473,0.252,3.852c0,3.8-0.71,8.073-2.848,13.416l-11.441,33.08
			c11.136-6.494,18.626-18.559,18.626-32.377C161.555,64.097,159.892,57.974,156.966,52.639z"/>
		<path fill="#322928" d="M124.099,26.947c-24.076,0-43.663,19.587-43.663,43.662c0,24.079,19.587,43.665,43.663,43.665
			c24.074,0,43.665-19.586,43.665-43.665C167.764,46.534,148.173,26.947,124.099,26.947z M124.099,112.271
			c-22.971,0-41.661-18.689-41.661-41.663c0-22.971,18.69-41.66,41.661-41.66c22.971,0,41.659,18.689,41.659,41.66
			C165.758,93.582,147.069,112.271,124.099,112.271z"/>
	</g>
</g>
<g>
</g>
<g>
</g>
<g>
</g>
<g>
</g>
<g>
</g>
<g>
</g>
</svg>
