<?xml version="1.0" encoding="utf-8"?>
<!-- Generator: Adobe Illustrator 21.0.2, SVG Export Plug-In . SVG Version: 6.00 Build 0)  -->
<svg version="1.1" id="Capa_1" xmlns="http://www.w3.org/2000/svg" xmlns:xlink="http://www.w3.org/1999/xlink" x="0px" y="0px"
	 viewBox="0 0 476 402" style="enable-background:new 0 0 476 402;" xml:space="preserve">
<path d="M442.8,142.6c-5.5-7-13.9-10.9-22.8-10.9H339L295.2,31.2c-2.7-6.2-10-9.1-16.2-6.4c-6.2,2.7-9.1,10-6.4,16.2l39.6,90.6
	H165.8L205.4,41c2.7-6.2-0.1-13.5-6.4-16.2c-6.2-2.7-13.5,0.1-16.2,6.4L139,131.6H58.1c-9,0-17.3,4-22.8,10.9
	c-5.4,6.8-7.5,15.6-5.5,24.1l43.2,188.7c3,13.2,14.7,22.4,28.3,22.4h275.5c13.7,0,25.3-9.2,28.3-22.4l43.2-188.7
	C450.2,158.2,448.2,149.4,442.8,142.6L442.8,142.6z M376.7,353.1H101.3c-2.1,0-3.9-1.4-4.4-3.3L53.7,161.2c-0.3-1.5,0.2-2.6,0.8-3.3
	c0.5-0.6,1.6-1.7,3.6-1.7h70.1l-3.2,7.4c-2.7,6.2,0.1,13.5,6.4,16.2c1.6,0.7,3.3,1,4.9,1c4.7,0,9.3-2.8,11.3-7.4l7.5-17.2h167.9
	l7.5,17.2c2,4.6,6.5,7.4,11.3,7.4c1.6,0,3.3-0.3,4.9-1c6.2-2.7,9.1-10,6.4-16.2l-3.2-7.4h70.1c2,0,3.1,1.1,3.6,1.7
	c0.5,0.7,1.1,1.8,0.8,3.3l-43.2,188.7C380.7,351.7,378.8,353.1,376.7,353.1L376.7,353.1z"/>
<path d="M165.2,209.6c-6.8,0-12.3,5.5-12.3,12.3v90.2c0,6.8,5.5,12.3,12.3,12.3c6.8,0,12.3-5.5,12.3-12.3v-90.2
	C177.5,215.1,172,209.6,165.2,209.6z"/>
<path d="M239,209.6c-6.8,0-12.3,5.5-12.3,12.3v90.2c0,6.8,5.5,12.3,12.3,12.3c6.8,0,12.3-5.5,12.3-12.3v-90.2
	C251.3,215.1,245.8,209.6,239,209.6z"/>
<path d="M312.8,209.6c-6.8,0-12.3,5.5-12.3,12.3v90.2c0,6.8,5.5,12.3,12.3,12.3s12.3-5.5,12.3-12.3v-90.2
	C325.1,215.1,319.6,209.6,312.8,209.6z"/>
</svg>
