<?xml version="1.0" encoding="utf-8"?>
<!-- Generator: Adobe Illustrator 21.0.2, SVG Export Plug-In . SVG Version: 6.00 Build 0)  -->
<svg version="1.1" id="Capa_1" xmlns="http://www.w3.org/2000/svg" xmlns:xlink="http://www.w3.org/1999/xlink" x="0px" y="0px"
	 viewBox="0 0 230 220" style="enable-background:new 0 0 230 220;" xml:space="preserve">
<style type="text/css">
	.st0{fill:#7C7C7C;}
</style>
<g>
	<g>
		<path class="st0" d="M144.9,180H84.4c-22,0-39.9-17.9-39.9-39.9V79.6c0-22,17.9-39.9,39.9-39.9h60.4c22,0,39.9,17.9,39.9,39.9V140
			C184.8,162.1,166.9,180,144.9,180z M84.4,51.7c-15.4,0-27.9,12.5-27.9,27.9V140c0,15.4,12.5,27.9,27.9,27.9h60.4
			c15.4,0,27.9-12.5,27.9-27.9V79.6c0-15.4-12.5-27.9-27.9-27.9C144.8,51.7,84.4,51.7,84.4,51.7z"/>
	</g>
	<g>
		<path class="st0" d="M114.6,145.8c-19.8,0-35.9-16.1-35.9-35.9S94.8,74,114.6,74s35.9,16.1,35.9,35.9
			C150.6,129.7,134.5,145.8,114.6,145.8z M114.6,85.9c-13.2,0-23.9,10.7-23.9,23.9s10.7,23.9,23.9,23.9s23.9-10.7,23.9-23.9
			C138.5,96.7,127.8,85.9,114.6,85.9z"/>
	</g>
	<g>
		<circle class="st0" cx="152.1" cy="71.9" r="8.6"/>
	</g>
</g>
</svg>
