<?xml version="1.0" encoding="utf-8"?>
<!-- Generator: Adobe Illustrator 21.0.2, SVG Export Plug-In . SVG Version: 6.00 Build 0)  -->
<svg version="1.1" id="Capa_1" xmlns="http://www.w3.org/2000/svg" xmlns:xlink="http://www.w3.org/1999/xlink" x="0px" y="0px"
	 viewBox="0 0 500 268.4" style="enable-background:new 0 0 500 268.4;" xml:space="preserve">
<style type="text/css">
	.st0{clip-path:url(#SVGID_2_);fill:#606060;}
	.st1{clip-path:url(#SVGID_2_);fill:#F7B838;}
	.st2{clip-path:url(#SVGID_2_);fill:#3B8C97;}
	.st3{clip-path:url(#SVGID_2_);fill:#EC4847;}
</style>
<g>
	<defs>
		<rect id="SVGID_1_" x="13.5" width="474.6" height="267"/>
	</defs>
	<clipPath id="SVGID_2_">
		<use xlink:href="#SVGID_1_"  style="overflow:visible;"/>
	</clipPath>
	<path class="st0" d="M177.9,225.4c0.3,0,0.6,0.1,0.8,0.3c0.2,0.2,0.3,0.5,0.3,0.9v1.6c0,0.3-0.1,0.6-0.3,0.8
		c-0.2,0.2-0.5,0.3-0.8,0.3h-26.3c-0.7,0-1.1-0.4-1.1-1.1v-43.9c0-0.3,0.1-0.6,0.3-0.8c0.2-0.2,0.5-0.3,0.8-0.3h1.6
		c0.3,0,0.6,0.1,0.8,0.3c0.2,0.2,0.3,0.5,0.3,0.8v41.1H177.9z"/>
	<path class="st0" d="M220.1,223.1l-0.1-2.4c-0.8,1.4-1.8,2.7-2.9,3.9c-1.1,1.1-2.4,2.1-3.8,2.9c-1.4,0.8-2.9,1.4-4.4,1.9
		c-1.6,0.4-3.2,0.7-4.9,0.7c-1.8,0-3.6-0.2-5.2-0.7c-1.7-0.5-3.3-1.2-4.7-2.1c-1.5-0.9-2.8-2-4-3.2c-1.2-1.2-2.3-2.6-3.1-4.1
		c-0.9-1.5-1.5-3.1-2-4.9c-0.5-1.7-0.7-3.5-0.7-5.4c0-1.9,0.2-3.7,0.7-5.4c0.5-1.7,1.1-3.3,2-4.9c0.9-1.5,1.9-2.9,3.1-4.1
		c1.2-1.2,2.5-2.3,4-3.2c1.5-0.9,3-1.6,4.7-2.1c1.7-0.5,3.4-0.7,5.2-0.7c1.7,0,3.3,0.2,4.8,0.7c1.6,0.4,3.1,1.1,4.5,1.9
		c1.4,0.8,2.7,1.8,3.8,3c1.2,1.2,2.1,2.5,3,3.9v-2.3V191c0-0.7,0.3-1,0.9-1h1.6c0.7,0,1,0.3,1,1v37.3c0,0.4-0.1,0.6-0.3,0.8
		c-0.2,0.2-0.5,0.2-0.8,0.2h-1.2c-0.8,0-1.2-0.4-1.2-1.1V223.1z M220.3,209.7c0-2.3-0.4-4.4-1.3-6.4c-0.9-2-2.1-3.8-3.6-5.4
		c-1.5-1.5-3.2-2.8-5.2-3.7s-4-1.4-6.2-1.4h-0.1c-2.2,0-4.2,0.5-6.1,1.4c-1.9,0.9-3.6,2.1-5.1,3.7c-1.5,1.5-2.6,3.3-3.5,5.3
		c-0.9,2-1.3,4.2-1.3,6.4c0,2.3,0.4,4.4,1.3,6.5c0.8,2.1,2,3.9,3.4,5.4c1.4,1.6,3.1,2.8,5.1,3.7c1.9,0.9,4,1.4,6.2,1.4
		c2.2,0,4.4-0.4,6.4-1.3c2-0.9,3.7-2.1,5.2-3.7c1.5-1.5,2.7-3.3,3.5-5.4C219.8,214.1,220.3,212,220.3,209.7"/>
	<path class="st0" d="M244.7,227.8c0,0.2,0,0.3,0,0.5v0.4v0.3c0,0.2-0.1,0.3-0.2,0.4c-0.1,0.1-0.3,0.2-0.5,0.3
		c-0.2,0.1-0.4,0.1-0.6,0.1c-0.2,0-0.4,0-0.5,0c-1.1,0-2.1-0.1-3.1-0.4c-1-0.3-1.8-0.7-2.6-1.3c-0.7-0.6-1.3-1.4-1.8-2.4
		c-0.4-1-0.6-2.2-0.6-3.6v-28.7h-5.2c-0.3,0-0.6-0.1-0.8-0.2c-0.2-0.1-0.2-0.4-0.2-0.7v-1.5c0-0.4,0.1-0.6,0.2-0.7
		c0.2-0.1,0.4-0.2,0.8-0.2h5.2v-9.8c0-0.2,0.1-0.4,0.2-0.5c0.1-0.1,0.2-0.1,0.3-0.2c0,0,0,0,0.2-0.1c0.2-0.1,0.3-0.1,0.6-0.2
		c0.2-0.1,0.4-0.2,0.7-0.2c0.2-0.1,0.4-0.1,0.5-0.1c0.4,0,0.7,0.1,0.8,0.3c0.1,0.2,0.2,0.5,0.2,0.8v10h6.8c0.7,0,1,0.3,1,1v1.2
		c0,0.7-0.3,1.1-1,1.1h-6.8v26.2c0,0.9,0,1.8,0.1,2.6c0.1,0.8,0.2,1.5,0.4,2.1c0.2,0.6,0.5,1.1,1,1.5c0.4,0.4,1,0.5,1.7,0.5h0.7
		c0.6,0,1.1,0,1.4,0.1c0.3,0.1,0.6,0.2,0.8,0.3c0.2,0.1,0.3,0.3,0.3,0.5C244.6,227.4,244.7,227.6,244.7,227.8L244.7,227.8z"/>
	<path class="st0" d="M285,223.1l-0.1-2.4c-0.8,1.4-1.8,2.7-2.9,3.9c-1.1,1.1-2.4,2.1-3.8,2.9c-1.4,0.8-2.9,1.4-4.4,1.9
		c-1.6,0.4-3.2,0.7-4.9,0.7c-1.8,0-3.6-0.2-5.2-0.7c-1.7-0.5-3.3-1.2-4.7-2.1c-1.5-0.9-2.8-2-4-3.2c-1.2-1.2-2.3-2.6-3.1-4.1
		c-0.9-1.5-1.5-3.1-2-4.9c-0.5-1.7-0.7-3.5-0.7-5.4c0-1.9,0.2-3.7,0.7-5.4c0.5-1.7,1.1-3.3,2-4.9c0.9-1.5,1.9-2.9,3.1-4.1
		c1.2-1.2,2.5-2.3,4-3.2c1.5-0.9,3-1.6,4.7-2.1c1.7-0.5,3.4-0.7,5.2-0.7c1.7,0,3.3,0.2,4.8,0.7c1.6,0.4,3.1,1.1,4.5,1.9
		c1.4,0.8,2.7,1.8,3.8,3c1.2,1.2,2.1,2.5,3,3.9v-2.3V191c0-0.7,0.3-1,0.9-1h1.6c0.7,0,1,0.3,1,1v37.3c0,0.4-0.1,0.6-0.3,0.8
		c-0.2,0.2-0.5,0.2-0.8,0.2h-1.2c-0.8,0-1.2-0.4-1.2-1.1V223.1z M285.2,209.7c0-2.3-0.4-4.4-1.3-6.4c-0.9-2-2.1-3.8-3.6-5.4
		c-1.5-1.5-3.2-2.8-5.2-3.7s-4-1.4-6.2-1.4h-0.1c-2.2,0-4.2,0.5-6.1,1.4c-1.9,0.9-3.6,2.1-5.1,3.7c-1.5,1.5-2.6,3.3-3.5,5.3
		c-0.9,2-1.3,4.2-1.3,6.4c0,2.3,0.4,4.4,1.3,6.5c0.8,2.1,2,3.9,3.4,5.4c1.4,1.6,3.1,2.8,5.1,3.7c1.9,0.9,4,1.4,6.2,1.4
		c2.2,0,4.4-0.4,6.4-1.3c2-0.9,3.7-2.1,5.2-3.7c1.5-1.5,2.7-3.3,3.5-5.4C284.7,214.1,285.2,212,285.2,209.7"/>
	<path class="st0" d="M312.3,193.1c-1.4,0-2.7,0.2-4,0.7c-1.3,0.5-2.4,1.2-3.4,2.1c-1,0.9-1.8,2-2.5,3.3c-0.6,1.3-1,2.7-1.1,4.2
		v15.8c0,0.1,0,0.1,0,0.2c0,0.1,0,0.1,0,0.2v8.7c0,0.7-0.3,1-0.9,1h-1.6c-0.7,0-1-0.3-1-1v-37.2c0-0.4,0.1-0.6,0.3-0.8
		c0.2-0.2,0.5-0.3,0.8-0.3h1.2c0.4,0,0.6,0.1,0.8,0.3c0.2,0.2,0.3,0.5,0.3,0.8l0,4.7c0.7-1,1.4-1.9,2.2-2.7c0.8-0.8,1.6-1.5,2.6-2
		c0.9-0.6,1.9-1,3-1.3c1.1-0.3,2.2-0.4,3.5-0.4c3,0,5.6,0.7,7.7,2.2c2.1,1.5,3.8,3.5,5,6.1c0.6-1.4,1.3-2.6,2.2-3.6
		c0.9-1,1.9-1.9,3-2.6c1.1-0.7,2.3-1.2,3.6-1.5c1.3-0.3,2.6-0.5,4-0.5c1.9,0,3.7,0.3,5.3,1c1.6,0.7,3,1.6,4.3,2.7
		c1.2,1.2,2.2,2.5,3,4.1c0.8,1.6,1.3,3.3,1.5,5.1c0.1,0.7,0.2,1.4,0.2,2.1c0,0.7,0,1.4,0,2.2v21.2c0,0.5-0.1,0.8-0.3,1.1
		c-0.2,0.2-0.5,0.3-0.9,0.3h-1.1c-0.5,0-0.8-0.1-0.9-0.3c-0.2-0.2-0.2-0.5-0.2-1v-23.3c-0.1-1.4-0.3-2.9-0.8-4.3
		c-0.5-1.4-1.2-2.6-2.1-3.7c-0.9-1.1-2.1-1.9-3.4-2.6c-1.3-0.7-2.9-1-4.6-1c-1.4,0-2.7,0.2-3.9,0.7c-1.2,0.5-2.3,1.1-3.2,1.9
		c-0.9,0.8-1.7,1.8-2.3,2.9c-0.6,1.1-1,2.3-1.2,3.6c-0.2,1.4-0.4,2.9-0.4,4.5v21.3c0,0.5-0.1,0.8-0.3,1c-0.2,0.2-0.5,0.3-0.9,0.3
		h-1.1c-0.5,0-0.8-0.1-0.9-0.3c-0.2-0.2-0.2-0.5-0.2-1v-21.3c0-0.7,0-1.3,0-2c0-0.7-0.1-1.4-0.2-2.1c-0.2-1.3-0.6-2.5-1.1-3.6
		c-0.6-1.1-1.3-2.1-2.3-3c-0.9-0.9-2-1.5-3.2-2C315.1,193.4,313.8,193.1,312.3,193.1"/>
	<path class="st1" d="M267.9,33.6c-3.7,13.7-9.4,34.3-10.2,37.8c-3.7,13.7-7.2,27.1-9.5,39.2h-0.6c-1.9-11.9-4.9-24.7-8.8-39.8
		c-1-4.8-11.5-44.5-12.5-49.3h-34.2l35.6,117.2h38.6l22.9-71.1L267.9,33.6z"/>
	<path class="st2" d="M292.7,56.7l11.3-35.2h-33c0,0.1,0,0.2-0.1,0.3L292.7,56.7z"/>
	<path class="st2" d="M375.5,110.5c-2.6,3.9-6.8,6.7-13.7,6.7c-15.1,0-20-15.2-20-37c0-21.5,4.9-37.1,20-37.1
		c12.6,0,15.5,7.9,17.2,16.8h31.7c-0.9-18-12.8-40.5-48.4-40.5c-37.1,0-54,27.4-54,60.9c0,32.9,13.2,60.6,52.8,60.6
		c12.1,0,21.7-2.6,29.2-7L375.5,110.5z"/>
	<path class="st3" d="M379.4,99.9C379.4,99.9,379.4,99.9,379.4,99.9l17.9,28.9c7.9-7.4,12.3-17.5,13.9-28.9H379.4z"/>
	<polygon class="st1" points="100.2,103.9 90.4,138.8 122.1,138.8 	"/>
	<path class="st3" d="M166.7,21.6h-43.5l-19.8,70.7L125,127l3-12h32.9l6.5,23.7H201L166.7,21.6z M133,89.9
		c4.4-16.7,8.4-33.7,10.8-46.6h0.5c2.4,12.1,6.5,29,11.3,46.6H133z"/>
</g>
</svg>
