<?xml version="1.0" encoding="utf-8"?>
<!-- Generator: Adobe Illustrator 21.0.2, SVG Export Plug-In . SVG Version: 6.00 Build 0)  -->
<svg version="1.1" id="Capa_1" xmlns="http://www.w3.org/2000/svg" xmlns:xlink="http://www.w3.org/1999/xlink" x="0px" y="0px"
	 viewBox="0 0 865 220" style="enable-background:new 0 0 865 220;" xml:space="preserve">
<style type="text/css">
	.st0{fill:#F7B838;}
	.st1{fill:#3B8C97;}
	.st2{fill:#EC4847;}
	.st3{fill:#606060;}
</style>
<path class="st0" d="M279.2,46.9c-5.3,19.5-13.4,48.8-14.5,53.7c-5.3,19.4-10.2,38.5-13.4,55.8h-0.8c-2.7-16.9-7-35.1-12.5-56.6
	c-1.4-6.8-16.4-63.3-17.8-70h-48.6l50.6,166.6H277l32.5-101.1L279.2,46.9z"/>
<path class="st1" d="M314.6,79.7l16.1-50h-46.9c0,0.1-0.1,0.3-0.1,0.4L314.6,79.7z"/>
<path class="st1" d="M432.2,156.2c-3.7,5.5-9.6,9.5-19.5,9.5c-21.5,0-28.5-21.5-28.5-52.5c0-30.6,6.9-52.7,28.4-52.7
	c17.9,0,22.1,11.2,24.5,23.9h45.1c-1.3-25.6-18.2-57.6-68.8-57.6c-52.7,0-76.7,38.9-76.7,86.6c0,46.8,18.8,86.1,75.1,86.1
	c17.1,0,30.8-3.6,41.5-9.9L432.2,156.2z"/>
<path class="st2" d="M437.8,141v0.1l25.5,40.9c11.2-10.5,17.5-24.9,19.7-41.1h-45.2V141z"/>
<polygon class="st0" points="40.9,146.8 27,196.4 72,196.4 "/>
<path class="st2" d="M135.4,29.8H73.6L45.5,130.3l30.7,49.3l4.2-17h46.7l9.3,33.7h47.7L135.4,29.8z M87.6,126.8
	c6.2-23.8,11.9-47.9,15.3-66.3h0.7c3.5,17.2,9.3,41.2,16,66.3H87.6z"/>
<path class="st3" d="M552,178.7c0.6,0,1,0.2,1.4,0.5c0.3,0.3,0.5,0.8,0.5,1.5v2.7c0,0.6-0.2,1-0.5,1.4c-0.3,0.4-0.8,0.5-1.4,0.5
	h-44.8c-1.2,0-1.9-0.6-1.9-1.9v-74.7c0-0.6,0.2-1,0.5-1.4c0.3-0.4,0.8-0.5,1.4-0.5h2.7c0.6,0,1,0.2,1.4,0.5c0.3,0.3,0.5,0.8,0.5,1.4
	v70H552z"/>
<path class="st3" d="M623.9,174.7l-0.2-4c-1.4,2.4-3,4.6-5,6.6c-1.9,2-4.1,3.6-6.4,5c-2.3,1.4-4.9,2.4-7.5,3.2
	c-2.7,0.7-5.5,1.1-8.3,1.1c-3.1,0-6.1-0.4-8.9-1.2c-2.9-0.8-5.5-2-8.1-3.5c-2.5-1.5-4.8-3.4-6.9-5.5c-2.1-2.1-3.8-4.5-5.3-7
	c-1.5-2.6-2.6-5.3-3.4-8.3c-0.8-2.9-1.2-6-1.2-9.2c0-3.2,0.4-6.2,1.2-9.2c0.8-2.9,2-5.7,3.4-8.3c1.5-2.6,3.3-4.9,5.3-7
	c2.1-2.1,4.3-3.9,6.8-5.5c2.5-1.5,5.2-2.7,8.1-3.5c2.9-0.8,5.8-1.2,8.9-1.2c2.8,0,5.6,0.4,8.3,1.1c2.7,0.7,5.2,1.8,7.6,3.2
	c2.4,1.4,4.5,3.1,6.5,5c2,2,3.7,4.2,5.1,6.6v-3.9v-9.1c0-1.1,0.5-1.7,1.6-1.7h2.7c1.2,0,1.7,0.6,1.7,1.7v63.5c0,0.6-0.2,1-0.6,1.3
	c-0.4,0.3-0.8,0.4-1.3,0.4h-2.1c-1.3,0-2-0.6-2-1.9V174.7z M624.2,151.9c0-3.8-0.8-7.5-2.3-11c-1.5-3.5-3.5-6.5-6.1-9.1
	c-2.5-2.6-5.5-4.7-8.8-6.3c-3.4-1.5-6.9-2.3-10.6-2.4h-0.2c-3.7,0-7.2,0.8-10.5,2.3c-3.3,1.5-6.2,3.6-8.7,6.3
	c-2.5,2.6-4.5,5.7-6,9.1c-1.5,3.5-2.2,7.1-2.2,10.9c0,3.8,0.7,7.5,2.1,11c1.4,3.5,3.4,6.6,5.8,9.2c2.5,2.7,5.4,4.8,8.7,6.3
	c3.3,1.6,6.8,2.3,10.6,2.3c3.8,0,7.4-0.8,10.8-2.3c3.4-1.5,6.4-3.6,8.9-6.2c2.5-2.6,4.6-5.7,6-9.2
	C623.5,159.5,624.2,155.8,624.2,151.9"/>
<path class="st3" d="M665.8,182.8c0,0.3,0.1,0.6,0.1,0.8v0.6v0.5c0,0.3-0.1,0.6-0.4,0.8c-0.2,0.2-0.5,0.3-0.9,0.4
	c-0.3,0.1-0.7,0.2-1.1,0.2c-0.4,0-0.6,0-0.8,0c-1.9,0-3.6-0.2-5.3-0.7c-1.7-0.5-3.1-1.2-4.4-2.3c-1.3-1.1-2.3-2.4-3-4.1
	c-0.7-1.7-1.1-3.7-1.1-6.1V124H640c-0.6,0-1-0.1-1.3-0.4c-0.3-0.2-0.4-0.7-0.4-1.3v-2.5c0-0.6,0.1-1,0.4-1.2
	c0.3-0.2,0.7-0.3,1.3-0.3h8.9v-16.6c0-0.4,0.1-0.6,0.4-0.8c0.1-0.1,0.3-0.2,0.5-0.3c0,0,0.1-0.1,0.4-0.2c0.3-0.1,0.6-0.3,1-0.4
	c0.4-0.1,0.8-0.3,1.1-0.4c0.4-0.1,0.7-0.2,0.9-0.2c0.7,0,1.1,0.2,1.4,0.5c0.2,0.4,0.3,0.8,0.3,1.4v17h11.5c1.1,0,1.7,0.6,1.7,1.7
	v2.1c0,1.2-0.6,1.9-1.7,1.9h-11.5v44.7c0,1.6,0.1,3,0.2,4.4c0.1,1.4,0.4,2.6,0.7,3.6c0.4,1,0.9,1.9,1.6,2.5c0.7,0.6,1.7,0.9,2.9,0.9
	h1.2c1,0,1.8,0.1,2.4,0.2c0.6,0.1,1,0.3,1.3,0.5c0.3,0.2,0.5,0.5,0.5,0.9c0.1,0.4,0.1,0.8,0.1,1.2V182.8z"/>
<path class="st3" d="M734.4,174.7l-0.2-4c-1.4,2.4-3,4.6-5,6.6c-1.9,2-4.1,3.6-6.4,5c-2.3,1.4-4.9,2.4-7.5,3.2
	c-2.7,0.7-5.5,1.1-8.3,1.1c-3.1,0-6.1-0.4-8.9-1.2c-2.9-0.8-5.5-2-8.1-3.5c-2.5-1.5-4.8-3.4-6.9-5.5c-2.1-2.1-3.8-4.5-5.3-7
	c-1.5-2.6-2.6-5.3-3.4-8.3c-0.8-2.9-1.2-6-1.2-9.2c0-3.2,0.4-6.2,1.2-9.2c0.8-2.9,2-5.7,3.4-8.3c1.5-2.6,3.3-4.9,5.3-7
	c2.1-2.1,4.3-3.9,6.8-5.5c2.5-1.5,5.2-2.7,8.1-3.5c2.9-0.8,5.8-1.2,8.9-1.2c2.8,0,5.6,0.4,8.3,1.1c2.7,0.7,5.2,1.8,7.6,3.2
	c2.4,1.4,4.5,3.1,6.5,5c2,2,3.7,4.2,5.1,6.6v-3.9v-9.1c0-1.1,0.5-1.7,1.6-1.7h2.7c1.2,0,1.7,0.6,1.7,1.7v63.5c0,0.6-0.2,1-0.6,1.3
	c-0.4,0.3-0.8,0.4-1.3,0.4h-2.1c-1.3,0-2-0.6-2-1.9V174.7z M734.8,151.9c0-3.8-0.8-7.5-2.3-11c-1.5-3.5-3.5-6.5-6.1-9.1
	c-2.5-2.6-5.5-4.7-8.8-6.3c-3.4-1.5-6.9-2.3-10.6-2.4h-0.2c-3.7,0-7.2,0.8-10.5,2.3c-3.3,1.5-6.2,3.6-8.7,6.3
	c-2.5,2.6-4.5,5.7-6,9.1c-1.5,3.5-2.2,7.1-2.2,10.9c0,3.8,0.7,7.5,2.1,11c1.4,3.5,3.4,6.6,5.8,9.2c2.5,2.7,5.4,4.8,8.7,6.3
	c3.3,1.6,6.8,2.3,10.6,2.3c3.8,0,7.4-0.8,10.8-2.3c3.4-1.5,6.4-3.6,8.9-6.2c2.5-2.6,4.6-5.7,6-9.2
	C734,159.5,734.8,155.8,734.8,151.9"/>
<path class="st3" d="M781,123.7c-2.4,0-4.6,0.4-6.8,1.3c-2.2,0.8-4.2,2-5.9,3.6c-1.7,1.6-3.1,3.4-4.2,5.6c-1.1,2.2-1.7,4.6-1.9,7.2
	v27c0,0.1,0,0.2,0,0.3c0,0.1,0,0.2,0,0.3v14.7c0,1.1-0.5,1.7-1.6,1.7h-2.7c-1.1,0-1.7-0.6-1.7-1.7v-63.4c0-0.6,0.2-1,0.6-1.3
	c0.4-0.3,0.9-0.4,1.4-0.4h2.1c0.6,0,1.1,0.2,1.4,0.6c0.3,0.4,0.5,0.8,0.5,1.4l0,8c1.2-1.7,2.5-3.2,3.8-4.5c1.3-1.3,2.8-2.5,4.3-3.4
	c1.6-1,3.2-1.7,5-2.2c1.8-0.5,3.8-0.7,5.9-0.7c5.1,0,9.5,1.3,13.2,3.8c3.6,2.5,6.5,5.9,8.5,10.3c1-2.4,2.2-4.4,3.7-6.2
	c1.5-1.8,3.2-3.2,5.1-4.4c1.9-1.2,3.9-2,6.1-2.6c2.2-0.6,4.5-0.9,6.8-0.9c3.3,0,6.3,0.6,9.1,1.7c2.8,1.1,5.2,2.7,7.2,4.7
	c2.1,2,3.8,4.3,5.1,7c1.3,2.7,2.2,5.6,2.6,8.7c0.2,1.2,0.3,2.4,0.3,3.6c0,1.2,0.1,2.5,0.1,3.7v36c0,0.8-0.2,1.4-0.6,1.8
	c-0.4,0.4-0.9,0.6-1.5,0.6H845c-0.8,0-1.3-0.2-1.6-0.5c-0.3-0.4-0.4-0.9-0.4-1.7v-39.7c-0.1-2.5-0.6-4.9-1.4-7.3
	c-0.9-2.4-2.1-4.5-3.7-6.3c-1.6-1.8-3.5-3.3-5.8-4.4c-2.3-1.1-4.9-1.7-7.8-1.7c-2.4,0-4.6,0.4-6.6,1.2c-2,0.8-3.9,1.8-5.5,3.2
	c-1.6,1.4-2.9,3-4,4.9c-1.1,1.9-1.8,3.9-2.1,6.2c-0.4,2.4-0.6,5-0.6,7.7V183c0,0.8-0.2,1.4-0.6,1.7c-0.4,0.4-0.9,0.6-1.5,0.6h-2
	c-0.8,0-1.3-0.2-1.6-0.5c-0.3-0.4-0.4-0.9-0.4-1.7v-36.3c0-1.1,0-2.3-0.1-3.5c-0.1-1.2-0.2-2.4-0.3-3.5c-0.3-2.2-1-4.2-2-6.2
	c-1-1.9-2.3-3.6-3.9-5.1c-1.6-1.5-3.4-2.6-5.5-3.5C785.8,124.1,783.5,123.7,781,123.7"/>
</svg>
