<?xml version="1.0" encoding="utf-8"?>
<!-- Generator: Adobe Illustrator 21.0.2, SVG Export Plug-In . SVG Version: 6.00 Build 0)  -->
<svg version="1.1" id="Capa_1" xmlns="http://www.w3.org/2000/svg" xmlns:xlink="http://www.w3.org/1999/xlink" x="0px" y="0px"
	 viewBox="0 0 256 114.9" style="enable-background:new 0 0 256 114.9;" xml:space="preserve">
<style type="text/css">
	.st0{fill:#C4302B;}
	.st1{fill:#F7B838;}
	.st2{fill:#3B8C97;}
	.st3{fill:#EC4847;}
</style>
<path class="st0" d="M-86-251.6h-136c-6.6,0-12-5.4-12-12v-59c0-6.6,5.4-12,12-12h136c6.6,0,12,5.4,12,12v59
	C-74-257-79.4-251.6-86-251.6z"/>
<g>
	<path class="st1" d="M57.5,101.7L15.7,18.1c-0.6-1.2,0.3-2.6,1.6-2.6h83.6c1.3,0,2.2,1.4,1.6,2.6l-41.8,83.6
		C60,103,58.1,103,57.5,101.7z"/>
	<polygon class="st2" points="195.4,103.8 150.7,14.4 240.1,14.4 	"/>
	<polygon class="st3" points="126.7,14.4 171.3,103.8 82,103.8 	"/>
</g>
</svg>
