<?xml version="1.0" encoding="utf-8"?>
<!-- Generator: Adobe Illustrator 21.0.2, SVG Export Plug-In . SVG Version: 6.00 Build 0)  -->
<svg version="1.1" id="Capa_1" xmlns="http://www.w3.org/2000/svg" xmlns:xlink="http://www.w3.org/1999/xlink" x="0px" y="0px"
	 viewBox="0 0 512 513" style="enable-background:new 0 0 512 513;" xml:space="preserve">
<style type="text/css">
	.st0{fill:#F7B837;}
</style>
<g id="Shopping_Bag-Hands-Bag-Purchase-Buy">
	<path class="st0" d="M344,96h-32V72c0-30.9-25.1-56-56-56s-56,25.1-56,56v24h-32c-4.4,0-8,3.6-8,8v176c0,13.2,10.8,24,24,24h104
		v-16H184c-4.4,0-8-3.6-8-8v-8h112v-16H176V112h24v24h16v-24h80v24h16v-24h24v24h16v-32C352,99.6,348.4,96,344,96z M296,96h-80V72
		c0-22.1,17.9-40,40-40s40,17.9,40,40V96z"/>
	<path class="st0" d="M456,152H312c-4.4,0-8,3.6-8,8v120c0,13.2,10.8,24,24,24h112c13.2,0,24-10.8,24-24V160
		C464,155.6,460.4,152,456,152z M448,280c0,4.4-3.6,8-8,8H328c-4.4,0-8-3.6-8-8v-8h128V280z M448,256H320v-88h128V256z"/>
	<path class="st0" d="M384,240c22.1,0,40-17.9,40-40v-16h-16v16c0,13.3-10.7,24-24,24s-24-10.7-24-24v-16h-16v16
		C344,222.1,361.9,240,384,240z"/>
	<path class="st0" d="M498.7,356.4c-7.4-15.4-25.4-22.6-41.4-16.5l-71.4,26c-3.1-12.2-13-21.5-25.4-23.7l-96.5-17
		c-20.7-3.7-42.1-1.8-61.9,5.4l-12.4,4.6c-11.7,4.3-22.7,10.1-32.8,17.4l-1.8-4.9c-1.5-4.2-6.1-6.3-10.2-4.8l0,0l-90.2,32.8
		c-4.2,1.5-6.3,6.1-4.8,10.2l0,0l-37.6,13.7l5.5,15l37.6-13.7L88,490.6l15-5.5l-35.3-97.2l75.2-27.4l41,112.8l-19.2,7l5.5,15
		l26.7-9.8c4.2-1.5,6.3-6.1,4.8-10.2l0,0l-2.7-7.5l18.4-6.7c11.6-4.2,23.9-6,36.2-5.1l38,2.6c14.5,1,29.1-1,42.8-6l146.2-53.2
		c16.6-6,25.2-24.4,19.1-41C499.3,357.8,499,357.1,498.7,356.4L498.7,356.4z M484,376.3c-1.8,3.9-5,6.8-9,8.3l-146.2,53.2
		c-11.6,4.2-23.9,6-36.2,5.1l-38-2.6c-14.5-1-29.1,1-42.8,6l-18.4,6.7l-30.8-84.7c9.8-7.7,20.8-13.8,32.6-18l12.4-4.5
		c17.2-6.2,35.7-7.9,53.6-4.7l96.5,17c8.7,1.4,14.6,9.6,13.2,18.4s-9.6,14.6-18.4,13.2c-0.1,0-0.3,0-0.4-0.1l-86.7-15.3l-2.8,15.8
		l86.7,15.3c15.9,2.8,31.4-6.7,36-22.2l77.4-28.2c8.1-3.2,17.3,0.3,21.3,8C485.9,367.2,485.9,372,484,376.3z"/>
</g>
</svg>
