<?xml version="1.0" encoding="utf-8"?>
<!-- Generator: Adobe Illustrator 21.0.2, SVG Export Plug-In . SVG Version: 6.00 Build 0)  -->
<svg version="1.1" id="Capa_1" xmlns="http://www.w3.org/2000/svg" xmlns:xlink="http://www.w3.org/1999/xlink" x="0px" y="0px"
	 viewBox="0 0 512 513" style="enable-background:new 0 0 512 513;" xml:space="preserve">
<style type="text/css">
	.st0{fill:#C4302B;}
	.st1{fill:#FFFFFF;}
	.st2{fill:#32BA46;}
</style>
<path class="st0" d="M-86,146.5h-136c-6.6,0-12-5.4-12-12v-59c0-6.6,5.4-12,12-12h136c6.6,0,12,5.4,12,12v59
	C-74,141.1-79.4,146.5-86,146.5z"/>
<g>
	<g>
		<path class="st1" d="M265,18.6c-120.9,0-219,98.1-219,219c0,46.6,14.4,91.2,42.1,128.8l-17.3,90.2l85.2-29.2
			c33.2,19.3,70.8,29.2,109.5,29.2c120.9,0,219-98.1,219-219C484,116.7,385.9,18.6,265,18.6z M265,424.4c-34.7,0-68.9-9.9-98.6-28.2
			l-6.4-4L113.4,408l9.4-49.5l-4.5-5.9c-25.8-33.2-39.6-72.8-39.6-114.4C78.7,135,162.5,51.8,265,51.8
			c103.1,0,186.3,83.7,186.3,186.3C451.8,340.6,368.1,424.4,265,424.4z"/>
		<path class="st2" d="M265,45C159,45,72.5,131.6,72.5,237.6c0,43,14.3,84,41,118.3l4.6,6.1l-9.7,51.2l48.1-16.4l6.7,4.1
			c30.7,19.5,66.1,29.2,101.9,29.2c106.5,0,192.6-86.5,192.6-192.6C458.1,131.6,371.5,45,265,45z M377.7,326.7
			c-5.6,5.6-22,23-47.1,23c-25.1,0-84.5-20.5-115.7-51.7c-31.8-31.8-59.9-63.5-66.6-92.7c-6.7-29.2-5.6-42.5,2.6-54.3
			c0,0,13.3-23,24.1-24.6c10.8-1.5,24.6-1.5,28.7,5.6c3.6,7.2,20.5,48.1,20.5,48.1s3.1,7.2-1.5,13.8c-4.6,6.7-14.3,16.9-14.3,16.9
			s-5.6,7.2,0,14.3c5.6,7.7,14.3,21.5,31.8,38.9c17.9,17.9,51.7,30.2,51.7,30.2s4.6,0.5,8.2-2.6c3.1-3.1,20-24.1,20-24.1
			s5.6-7.2,14.3-3.1c8.7,4.1,47.6,23.6,47.6,23.6s4.6,1.5,4.6,8.7C386.4,304.2,383.3,321.1,377.7,326.7z"/>
	</g>
	<path class="st1" d="M328.4,351.1c-25.5,0-84.5-20.5-115.5-51.5c-30.1-30.1-58.9-62.1-65.7-92.1c-6.6-29-5.8-43.3,3.1-56.3
		c2.6-4.5,14.8-24.3,26.8-26c3.9-0.6,7.6-0.8,11.1-0.8c11.1,0,18.4,2.9,21.7,8.8l0.1,0.1l0.1,0.1c3.5,7,19.3,45.3,20,46.9
		c1.5,3.5,2.8,11.3-2,18.1c-4.3,6.2-12.7,15.1-14.1,16.7c-0.6,0.9-2.6,4.2,0.1,7.6l0.1,0.1c0.9,1.3,2,2.7,3.1,4.4
		c5.3,7.6,13.4,19,27.1,32.7c14.9,14.9,42.6,25.9,47.5,27.8c0.8,0,2.3-0.2,3.6-1.2c2.3-2.4,12.7-15.1,18.8-22.7
		c0.5-0.6,5-6.1,12.6-6.1c2.4,0,4.9,0.6,7.3,1.7c8.4,3.9,44.6,22.1,46.2,22.8l0.2,0.1c2.6,1.5,7,5.9,7,13.3c0,4.5-1.8,24.2-10,31.8
		l-0.5,0.5C370.7,334.3,353.9,351.1,328.4,351.1z"/>
	<path class="st1" d="M382.4,295.6c0,6.4-2.5,22.8-8.4,28.2c-5.4,5.4-21.3,22.3-45.6,22.3c-24.3,0-81.7-19.8-112-50
		c-30.7-30.7-58-61.4-64.4-89.7c-6.4-28.2-5.4-41.1,2.5-52.5c0,0,12.9-22.3,23.3-23.8c10.4-1.5,23.8-1.5,27.7,5.4
		c3.5,6.9,19.8,46.6,19.8,46.6s3,6.9-1.5,13.4c-4.5,6.4-13.9,16.3-13.9,16.3s-5.4,6.9,0,13.9c5.4,7.4,13.9,20.8,30.7,37.7
		c17.3,17.3,50,29.2,50,29.2s4.5,0.5,7.9-2.5c3-3,19.3-23.3,19.3-23.3s5.4-6.9,13.9-3c8.4,4,46.1,22.8,46.1,22.8
		S382.4,289.1,382.4,295.6z"/>
</g>
</svg>
