<svg xmlns="http://www.w3.org/2000/svg" viewBox="0 0 119.5 243.48"><defs><style>.cls-1{isolation:isolate;}.cls-2{fill:#ff1e00;}.cls-3{fill:#64b0e2;}.cls-4{fill:#3f65a9;}.cls-5{fill:#fff;}.cls-6{fill:#d1572b;}.cls-7{fill:#eab63a;}.cls-8{fill:#1f2953;}.cls-9{fill:#416e9f;}.cls-10{fill:#e29c53;}.cls-11{fill:#7b534d;opacity:0.2;mix-blend-mode:multiply;}</style></defs><title>cohete</title><g class="cls-1"><g id="Layer_1" data-name="Layer 1"><polygon class="cls-2" points="81.84 200.85 71.45 243.48 48 243.48 38.8 201.15 81.84 200.85"/><g id="_Group_" data-name="&lt;Group&gt;"><path class="cls-3" d="M162.32,225.82c.25.53.47,1,.71,1.53s.5,1,.76,1.48l.76,1.5a11.09,11.09,0,0,1-3.76,1.9c-.38-.74-.55-1.57-.87-2.34s-.66-1.49-1-2.28Z" transform="translate(-81.95 -27.98)"/><path class="cls-3" d="M158.15,227.93c.95,1.43,1.21,3.1,1.87,4.6a13.94,13.94,0,0,1-3.84,1.41c-.15-1.71-1.05-3.12-1.62-4.73Z" transform="translate(-81.95 -27.98)"/><path class="cls-3" d="M153.92,229.38c.27,1.68,1.11,3.15,1.39,4.87l-4.25.95c-.07-1.78-1.05-3.23-1.53-4.87Z" transform="translate(-81.95 -27.98)"/><path class="cls-3" d="M148.74,230.42c.33,1.72,1.19,3.25,1.31,5a16.18,16.18,0,0,1-4.53.88c-.11-1-.15-1.86-.31-2.73s-.62-1.62-.79-2.54Z" transform="translate(-81.95 -27.98)"/><path class="cls-3" d="M141.73,231.24c.58,0,1.16.07,1.79.12.34,1.64,1,3.23,1.06,5a44.28,44.28,0,0,1-5.76,0c0-1.78.73-3.34,1-5C140.52,231.31,141.12,231.24,141.73,231.24Z" transform="translate(-81.95 -27.98)"/><path class="cls-3" d="M138.92,231a5.5,5.5,0,0,1-.1.59c-.12.38-.26.75-.39,1.12a6.67,6.67,0,0,0-.47,2.72c0,.29,0,.57,0,.92-1.6-.17-3.08-.51-4.6-.82.1-1.82,1-3.36,1.3-5.12Z" transform="translate(-81.95 -27.98)"/><path class="cls-3" d="M133.81,230.33a3.28,3.28,0,0,1-.1.51,6.59,6.59,0,0,1-.3.73,10,10,0,0,0-1.07,3.63l-4.18-.93a1.79,1.79,0,0,1,0-.46c.11-.43.24-.86.38-1.29s.38-1.05.54-1.58.29-1,.42-1.52c.07,0,.12,0,.17,0Z" transform="translate(-81.95 -27.98)"/><path class="cls-3" d="M125.24,227.93l3.58,1.27c-.52,1.6-1.48,3-1.6,4.7a14.87,14.87,0,0,1-3.77-1.29A20.22,20.22,0,0,1,125.24,227.93Z" transform="translate(-81.95 -27.98)"/><path class="cls-3" d="M121.08,225.82l3.39,1.79c-.34.79-.7,1.52-1,2.27s-.53,1.55-.8,2.32a11.42,11.42,0,0,1-3.82-1.81,21.17,21.17,0,0,1,1.11-2.24C120.32,227.4,120.68,226.64,121.08,225.82Z" transform="translate(-81.95 -27.98)"/><path class="cls-4" d="M153.12,204.1l.13.07a.71.71,0,0,1,.12.2c2.62,6.83,5.57,13.51,8.49,20.21a2,2,0,0,1,.07.27,3,3,0,0,1-.44.28,38.86,38.86,0,0,1-10.22,3.39c-3,.58-5.93,1.14-8.89,1.73a3.52,3.52,0,0,1-1.41,0l-9-1.74a39,39,0,0,1-9.92-3.28l-.59-.32a1.46,1.46,0,0,1,0-.31c2.93-6.72,5.89-13.43,8.52-20.28a1.22,1.22,0,0,1,.16-.18c1,.41,2,.9,3,1.22s2.11.48,3.24.73c0,.29,0,.57,0,.85.07,2.26-.19,4.5-.25,6.75,0,1.93,0,3.86,0,5.79,0,.9.06,1.8.06,2.7a6.51,6.51,0,0,0,.81,3.2,3.33,3.33,0,0,0,1.07,1.26c.22.14.42.32.63.47a4.26,4.26,0,0,0,2.82.88,5.15,5.15,0,0,0,1.87-.28,5.43,5.43,0,0,0,3.53-4.95,90.8,90.8,0,0,0,.11-9.76c-.14-2-.27-4-.23-6,0-.26,0-.53,0-.85l.77-.2c1-.23,2-.43,2.93-.71a11.68,11.68,0,0,0,1.67-.72Z" transform="translate(-81.95 -27.98)"/><path class="cls-5" d="M100.22,158.63a4,4,0,0,1,1.85,3.72,11.09,11.09,0,0,1-1.06,4A78,78,0,0,1,96.18,175c-.6.9-1.31,1.72-2,2.57a6,6,0,0,1-.56.57,2,2,0,0,1-2.67.2c0-.2.08-.35.13-.5a136,136,0,0,1,5-12.78c1-2.17,2.22-4.21,3.42-6.27a2.72,2.72,0,0,1,.24-.34A2,2,0,0,1,100.22,158.63Z" transform="translate(-81.95 -27.98)"/><path class="cls-5" d="M118.33,157.48a4.31,4.31,0,0,1,2.87,2.85,10.53,10.53,0,0,1,.61,3c.1,2.09.17,4.17.22,6.26,0,1.17,0,2.33,0,3.49,0,.22,0,.43,0,.64a2.56,2.56,0,0,1-1.42,2.31c-.38.23-.78.41-1.18.61-1-1.87-4.16-16.92-4.21-20.12C116.26,156.87,117.3,157.16,118.33,157.48Z" transform="translate(-81.95 -27.98)"/><path class="cls-5" d="M165.15,157.46l3.11-.9c0,3.22-3.18,18.21-4.19,20.07a4.39,4.39,0,0,1-2.1-1.32,2.32,2.32,0,0,1-.42-.93,4.25,4.25,0,0,1-.11-1,87.68,87.68,0,0,1,.08-8.88c.06-.95.19-1.9.33-2.84a7.62,7.62,0,0,1,.36-1.3A4.35,4.35,0,0,1,165.15,157.46Z" transform="translate(-81.95 -27.98)"/><path class="cls-5" d="M183.58,158.47a2.64,2.64,0,0,1,.35.4,68.14,68.14,0,0,1,4.59,9c1.28,3.19,2.58,6.37,3.67,9.64.1.29.18.59.26.88a2,2,0,0,1-2.73-.28,20.58,20.58,0,0,1-2-2.43,37,37,0,0,1-2-3.21c-1-1.7-1.89-3.43-2.81-5.16a13.17,13.17,0,0,1-1.38-4,8.81,8.81,0,0,1-.13-1.34,4,4,0,0,1,1.92-3.37A1.3,1.3,0,0,1,183.58,158.47Z" transform="translate(-81.95 -27.98)"/><path class="cls-6" d="M143.72,168.06a3.59,3.59,0,0,1,1.2,2.1,15.24,15.24,0,0,1,.31,2.51c.1,3.18.15,6.36.24,9.53.05,1.77.17,3.55.23,5.32.1,3.17.05,6.35-.1,9.52s-.28,6.62-.36,9.92c-.1,3.81-.12,7.63-.19,11.44,0,1.48-.09,3-.15,4.44a10.38,10.38,0,0,1-.09,1.11,2.08,2.08,0,0,1-.91,1.51,5,5,0,0,1-2.23,1,6,6,0,0,1-2.08-.91,2.26,2.26,0,0,1-1-1.79c-.05-.69-.09-1.37-.11-2.06-.06-2-.12-4-.16-6,0-1.19,0-2.39,0-3.58,0-1.93,0-3.86-.1-5.79-.09-2.86-.16-5.72-.32-8.57s-.24-5.56-.18-8.34c0-2,.16-3.91.24-5.87,0-.42,0-.85,0-1.27.07-3.17.13-6.35.22-9.53a14.59,14.59,0,0,1,.19-2,4.59,4.59,0,0,1,3.37-3.88A6.06,6.06,0,0,1,143.72,168.06Z" transform="translate(-81.95 -27.98)"/><path class="cls-4" d="M166.39,142.16l3.91-1.54c-.22,2.9-.55,5.62-.92,8.36a13.76,13.76,0,0,1-2.92,1.29C166.44,147.5,166.41,144.85,166.39,142.16Z" transform="translate(-81.95 -27.98)"/><path class="cls-4" d="M165.13,142.59s0,0,0,.06c0,2.46.32,4.92.18,7.38,0,.18,0,.36-.08.57a21.85,21.85,0,0,1-4.25,1.05c.07-2.69.14-5.38.21-8.05.06,0,.1-.09.15-.1l3.69-.94Z" transform="translate(-81.95 -27.98)"/><path class="cls-4" d="M156.05,144.41a24.52,24.52,0,0,1,4-.63c-.18,2.73-.37,5.46-.55,8.26a27.85,27.85,0,0,1-3.72.75C155.9,150,156,147.18,156.05,144.41Z" transform="translate(-81.95 -27.98)"/><path class="cls-4" d="M155,144.54c0,.22,0,.45,0,.68-.14,1.68-.27,3.37-.42,5.06-.08.89-.17,1.79-.26,2.78a35,35,0,0,1-3.93.59,82.51,82.51,0,0,0-.11-8.63A27.37,27.37,0,0,1,155,144.54Z" transform="translate(-81.95 -27.98)"/><path class="cls-4" d="M149.26,145a6,6,0,0,1,0,.72c-.13,2.2-.28,4.38-.42,6.57,0,.5-.07,1-.1,1.48a5.52,5.52,0,0,1-2.33.42l-.06-.05s0,0,0-.07l-.51-8.46a1.45,1.45,0,0,1,.06-.33c.22,0,.42-.07.63-.08Z" transform="translate(-81.95 -27.98)"/><path class="cls-4" d="M141.71,145.41c1.07,0,2.15,0,3.23-.06a71.32,71.32,0,0,1-.51,9,11.29,11.29,0,0,1-5.39,0,53.58,53.58,0,0,1-.62-9.05C139.55,145.37,140.63,145.41,141.71,145.41Z" transform="translate(-81.95 -27.98)"/><path class="cls-4" d="M137.51,145.27a1.62,1.62,0,0,1,.06.89c-.09,1.37-.21,2.74-.29,4.12-.07,1.13-.1,2.27-.15,3.41,0,.15,0,.31,0,.52a11,11,0,0,1-2.44-.29c-.15-3-.51-5.9-.52-8.9Z" transform="translate(-81.95 -27.98)"/><path class="cls-4" d="M133.08,144.9a80.89,80.89,0,0,0-.12,8.65A14.52,14.52,0,0,1,129,153c-.2-2.8-.66-5.59-.67-8.5Z" transform="translate(-81.95 -27.98)"/><path class="cls-4" d="M123.31,143.78a22.87,22.87,0,0,1,4.06.64,9.73,9.73,0,0,1,0,2c0,.72,0,1.43,0,2.15s.06,1.37.09,2.06.09,1.37.13,2.13a24.21,24.21,0,0,1-3.79-.75C123.68,149.27,123.5,146.55,123.31,143.78Z" transform="translate(-81.95 -27.98)"/><path class="cls-4" d="M120.25,143.07l2,.46c.07,2.72,0,5.41.28,8.09a17.61,17.61,0,0,1-4.38-1c-.26-2.69.14-5.34.11-8.09C119,142.65,119.59,142.91,120.25,143.07Z" transform="translate(-81.95 -27.98)"/><path class="cls-4" d="M117,142.13c0,.2,0,.38,0,.56L117,150s0,.09-.08.13a7.46,7.46,0,0,1-2.78-1.1,63.67,63.67,0,0,1-.88-8.35Z" transform="translate(-81.95 -27.98)"/><path class="cls-7" d="M170.41,101.24a2.64,2.64,0,0,1,.3-.07,21.13,21.13,0,0,1,.31,4.31l-.72,1.09a9.14,9.14,0,0,0-1.25,3,26.28,26.28,0,0,0-.74,5.58c0,1.93-.08,3.86-.07,5.79a16.39,16.39,0,0,0,.2,2.53,4.67,4.67,0,0,0,2.15,3.37c.13.09.25.2.42.33.07.89,0,1.81-.06,2.76a3.4,3.4,0,0,1-.62,0,10.08,10.08,0,0,1-2.74-.77A4.33,4.33,0,0,1,165,126a10.25,10.25,0,0,1-.2-2.92c.13-1.56.28-3.11.41-4.67a53.26,53.26,0,0,0-.06-5.79c0-1.35-.09-2.7-.06-4a14.89,14.89,0,0,1,.34-2.67,5.1,5.1,0,0,1,2.57-3.47C168.77,102,169.6,101.63,170.41,101.24Z" transform="translate(-81.95 -27.98)"/><path class="cls-7" d="M155.59,110.83a4.18,4.18,0,0,1,1.3,1.86,16.22,16.22,0,0,1,.05,11.2,5,5,0,0,1-1.1,1.74c-.62.46-1.2,1-1.85,1.37a19,19,0,0,1-6.38,2.76c-1.21.25-2.42.56-3.62.88a8.37,8.37,0,0,1-4.47,0c-1.48-.39-3-.72-4.47-1.1a18.7,18.7,0,0,1-6.7-3.35,5.75,5.75,0,0,1-2-2.76,16.5,16.5,0,0,1,.13-10.53,4.58,4.58,0,0,1,.45-1,3.72,3.72,0,0,1,2.08-1.76,9.33,9.33,0,0,1,2.07-.5c2.4-.23,4.8-.41,7.2-.59,1-.07,2-.11,3-.16.24,0,.48,0,.72,0,2.85.18,5.71.34,8.56.55a28.46,28.46,0,0,1,2.9.4A4.5,4.5,0,0,1,155.59,110.83Zm-2.52,2.53a6,6,0,0,0-2.76-1.66,13.3,13.3,0,0,0-1.86-.37,39,39,0,0,0-6.11-.16l-1,0c-1.77,0-3.55,0-5.31,0a10.15,10.15,0,0,0-3.05.5,6,6,0,0,0-4.28,4.77,18.08,18.08,0,0,0-.23,4.59,4.31,4.31,0,0,0,1.43,3,21.42,21.42,0,0,0,2,1.63,12.51,12.51,0,0,0,5.93,2.3l3.56.38a1.85,1.85,0,0,0,.47,0l3.63-.4a14,14,0,0,0,7.79-3.79,4.55,4.55,0,0,0,1.54-3.21,19.08,19.08,0,0,0-.25-4.59A5.68,5.68,0,0,0,153.07,113.36Z" transform="translate(-81.95 -27.98)"/><path class="cls-4" d="M170.78,107.4c0-.1.16-.17.26-.28.27,1.19.29,15.87,0,17.57a2.38,2.38,0,0,1-1.16-1.43,6.79,6.79,0,0,1-.27-1.4c-.18-3-.28-6.07-.16-9.11a14,14,0,0,1,.68-3.9A13.24,13.24,0,0,1,170.78,107.4Z" transform="translate(-81.95 -27.98)"/><path class="cls-8" d="M145.32,29.8a17.87,17.87,0,0,1,4.07,4A86.05,86.05,0,0,1,156,44a108.34,108.34,0,0,1,6.42,14.34q2.93,8,5.26,16.25A151.86,151.86,0,0,1,173,103.33a185,185,0,0,1,.51,19.13c-.14,6.2-.45,12.39-1,18.56,0,.23,0,.47-.06.78.42.31.86.65,1.32.95a22.87,22.87,0,0,1,5.05,4.67c1.82,2.21,3.5,4.52,5.2,6.82,1.13,1.54,2,3.25,3,4.88a71.85,71.85,0,0,1,5.62,12.34,135.11,135.11,0,0,1,5.91,21.26c.52,2.73,1.09,5.45,1.52,8.2a108.37,108.37,0,0,1,1.43,19.46c0,1.8-.15,3.6-.29,5.4a22.29,22.29,0,0,1-1.22,5.81,12.71,12.71,0,0,1-4.74,6.21,5.46,5.46,0,0,1-1,.56,4.15,4.15,0,0,1-4.67-.66,7.59,7.59,0,0,1-2.18-3q-.68-1.65-1.23-3.36c-.87-2.75-1.67-5.52-2.58-8.26-.59-1.76-1.27-3.49-2-5.18a21.41,21.41,0,0,0-4.43-6.44,18.36,18.36,0,0,0-5.68-3.87,39.37,39.37,0,0,0-8.9-2.61c-.72-.14-1.46-.23-2.19-.36l-3.66-.71c-.73-.14-1.46-.26-2.28-.4.05.21.07.33.11.44q3.92,8.25,7.81,16.51a92.8,92.8,0,0,0,4.64,8.69,4.57,4.57,0,0,1,.44.92,1.37,1.37,0,0,1-.69,1.62,43.87,43.87,0,0,1-5.32,2.64,38.55,38.55,0,0,1-6.89,2.17c-1.45.3-2.9.63-4.36.89-.91.16-1.83.24-2.75.31a4.09,4.09,0,0,0-1.54.37,2.72,2.72,0,0,1-.75.23,18.45,18.45,0,0,1-6.79,0c-.28-.05-.55-.19-.83-.27a6,6,0,0,0-1.3-.3,21,21,0,0,1-3.77-.51l-3-.63a38.78,38.78,0,0,1-7.65-2.39,47.22,47.22,0,0,1-5-2.52,1.33,1.33,0,0,1-.69-1.61,3.14,3.14,0,0,1,.36-.79,113.19,113.19,0,0,0,5.82-11.2c2.19-4.71,4.45-9.38,6.68-14.06.06-.12.1-.24.23-.51-.83.13-1.51.23-2.18.35-1.48.27-3,.6-4.45.83a47,47,0,0,0-9,2.28,20.18,20.18,0,0,0-4.86,2.51,20.79,20.79,0,0,0-5.56,6.14,31.9,31.9,0,0,0-2.63,5.77c-1.15,3.17-2.08,6.4-3.07,9.61-.38,1.27-.85,2.51-1.35,3.73a7.88,7.88,0,0,1-1.77,2.62,4.33,4.33,0,0,1-5.79.57,12.42,12.42,0,0,1-4.75-5.81,23.17,23.17,0,0,1-1.47-6.72,96.2,96.2,0,0,1,.25-17.14c.41-4.2,1.07-8.35,1.85-12.49a162.07,162.07,0,0,1,4.16-17.38c.27-.86.53-1.72.83-2.56q1.44-4.05,2.93-8.07A71.09,71.09,0,0,1,97.08,158a58.74,58.74,0,0,1,4.66-6.9c1.21-1.58,2.41-3.17,3.71-4.66a19,19,0,0,1,3.89-3.49c.55-.36,1.08-.75,1.67-1.16,0-.26,0-.52-.05-.78-.55-5.48-.85-11-1-16.49-.13-4.66-.18-9.32,0-14a149.82,149.82,0,0,1,4.23-30.16c1.62-6.51,3.59-12.9,5.79-19.24a126.31,126.31,0,0,1,4.91-12.23,81.75,81.75,0,0,1,8.43-14.17c.44-.59.87-1.2,1.33-1.78a16.27,16.27,0,0,1,4-3.53,11.38,11.38,0,0,0,1.2-.9,2.6,2.6,0,0,1,1.59-.57,3.22,3.22,0,0,1,2.72,1A8.14,8.14,0,0,0,145.32,29.8Zm2.24,5.42a16.68,16.68,0,0,0-3.76-3.74,6.34,6.34,0,0,1-.86-.69,1.75,1.75,0,0,0-2.38,0,9.66,9.66,0,0,1-1.05.84A15.28,15.28,0,0,0,136.09,35q-1.91,2.55-3.72,5.15A73.43,73.43,0,0,0,126,51.55a3.71,3.71,0,0,0-.14.53,4.12,4.12,0,0,0,.54.25,33.54,33.54,0,0,0,5.31,1.33c1.81.23,3.62.5,5.43.75a7.45,7.45,0,0,0,.95.07,16.63,16.63,0,0,1,3.07.29,2.76,2.76,0,0,0,1,0c2.21-.41,4.49-.29,6.69-.8a2.42,2.42,0,0,1,.47,0,31.38,31.38,0,0,0,7.31-1.46l1.1-.41c-.11-.28-.16-.45-.24-.62a78.7,78.7,0,0,0-4.36-8.28C151.38,40.43,149.49,37.81,147.56,35.22ZM158.23,53.3a1.19,1.19,0,0,0-.29.06,25.76,25.76,0,0,1-4,1.5,19.6,19.6,0,0,1-4.74.92c-.61,0-1.21.15-1.81.2-.79.08-1.58.15-2.37.17-1.32,0-2.65,0-4,0a46.11,46.11,0,0,1-8.22-.55,26.43,26.43,0,0,1-7.26-2.22,1.72,1.72,0,0,0-.28-.08,7.23,7.23,0,0,0-1,2.5,16,16,0,0,0,3,1.12c1.2.3,2.41.6,3.63.82a63.37,63.37,0,0,0,6.28.93c.9.06,1.79.18,2.69.23a26,26,0,0,0,2.93.05c1.58-.09,3.16-.26,4.74-.41.27,0,.53-.06.79-.1l5.78-1a20.22,20.22,0,0,0,4.54-1.4c.16-.07.31-.17.51-.28A20.23,20.23,0,0,0,158.23,53.3Zm1.6,3.89a4.41,4.41,0,0,0-.22-.43l-.47.2a13.34,13.34,0,0,1-1.42.7,31.51,31.51,0,0,1-7.13,1.88c-2,.24-3.94.52-5.92.65-1.79.12-3.59.06-5.39.08l-.23,0-1.58-.14a45.58,45.58,0,0,1-8.3-1.33,20.38,20.38,0,0,1-4.9-1.83c-.13-.07-.29-.1-.49-.18-.13.33-.25.62-.36.91-.46,1.27-.92,2.54-1.37,3.81-2.22,6.35-4.37,12.72-6,19.26a132.19,132.19,0,0,0-3.25,18.52c0,.29,0,.57-.07.87.3.12.55.21.79.32.77.35,1.55.68,2.29,1.08a6.22,6.22,0,0,1,3.1,4,12.76,12.76,0,0,1,.43,3.06c0,1.35,0,2.7,0,4.05,0,1.78,0,3.55.1,5.32.08,1.51.3,3,.48,4.5a11.66,11.66,0,0,1-.05,3.49,6,6,0,0,1-2.16,3.85,6.42,6.42,0,0,1-2.15,1.16,10.53,10.53,0,0,1-3,.61,20.76,20.76,0,0,0,.15,2.63c.45.16.84.32,1.25.43A46.61,46.61,0,0,0,119.2,136c.67.11,1.34.29,2,.46a63.46,63.46,0,0,0,8.28,1.85c.26,0,.52.1.78.14a46.43,46.43,0,0,0,5.77.6c1.71.05,3.43.24,5.15.36a7,7,0,0,0,1,0l5.55-.39c.89-.07,1.8-.09,2.69-.2q2.64-.36,5.26-.8c.75-.12,1.51-.29,2.25-.47,2.24-.54,4.46-1.14,6.71-1.64,1.79-.39,3.55-.88,5.29-1.42.25-.08.49-.19.78-.3,0-.86.08-1.7.12-2.54a1,1,0,0,0-.27-.08,9.21,9.21,0,0,1-3.23-.77,5.74,5.74,0,0,1-3.63-4,9.83,9.83,0,0,1-.31-3.54c.07-.79.19-1.58.28-2.37a44,44,0,0,0,.38-5.62c0-2,0-4.08,0-6.12a13.61,13.61,0,0,1,.44-3.53,6.31,6.31,0,0,1,3.21-4.15c.77-.41,1.58-.73,2.38-1.09l.58-.25c0-.25,0-.46,0-.66-.26-2.11-.5-4.21-.78-6.31a123.64,123.64,0,0,0-3.39-15.84C164.62,70.49,162.25,63.83,159.83,57.19Zm10.88,44a2.64,2.64,0,0,0-.3.07c-.81.39-1.64.74-2.42,1.18a5.1,5.1,0,0,0-2.57,3.47,14.89,14.89,0,0,0-.34,2.67c0,1.34,0,2.69.06,4a53.26,53.26,0,0,1,.06,5.79c-.13,1.56-.28,3.11-.41,4.67A10.25,10.25,0,0,0,165,126a4.33,4.33,0,0,0,2.6,3.19,10.08,10.08,0,0,0,2.74.77,3.4,3.4,0,0,0,.62,0c0-.95.13-1.87.06-2.76-.17-.13-.29-.24-.42-.33a4.67,4.67,0,0,1-2.15-3.37,16.39,16.39,0,0,1-.2-2.53c0-1.93,0-3.86.07-5.79a26.28,26.28,0,0,1,.74-5.58,9.14,9.14,0,0,1,1.25-3l.72-1.09A21.13,21.13,0,0,0,170.71,101.17Zm.33,6c-.1.11-.22.18-.26.28a13.24,13.24,0,0,0-.63,1.45,14,14,0,0,0-.68,3.9c-.12,3,0,6.08.16,9.11a6.79,6.79,0,0,0,.27,1.4,2.38,2.38,0,0,0,1.16,1.43C171.33,123,171.31,108.31,171,107.12Zm-.47,28.25a2.64,2.64,0,0,0-.37.1,44.4,44.4,0,0,1-6.31,1.87c-.59.13-1.18.3-1.76.46a64.56,64.56,0,0,1-8.12,1.88l-.47.09a52.76,52.76,0,0,1-11.29.92c-.45,0-.9,0-1.35,0a47.77,47.77,0,0,1-7.37-.36c-2-.23-3.92-.61-5.87-1-.81-.14-1.61-.33-2.4-.54-1.92-.49-3.83-1.06-5.76-1.5a53.85,53.85,0,0,1-6.24-1.85,3,3,0,0,0-.51-.1c.09,1.42.17,2.76.26,4.1.58.21,1.1.39,1.62.59a32.67,32.67,0,0,0,6.19,1.71c2.94.5,5.91,1,8.89,1.17s5.92.4,8.88.45A131.74,131.74,0,0,0,160,142.22a47.67,47.67,0,0,0,6.83-1.46c1.21-.36,2.39-.82,3.54-1.23A22.93,22.93,0,0,0,170.57,135.37Zm7.61,14.81a31.22,31.22,0,0,0-5.42-6c-.15-.13-.32-.24-.57-.43-.16,1.17-.29,2.24-.44,3.31s-.29,2.09-.45,3.14-.35,2.15-.53,3.21-.36,2.15-.54,3.22-.37,2.08-.56,3.12-.4,2.14-.61,3.2-.45,2.13-.69,3.19-.47,2.06-.71,3.09-.57,2.09-.77,3.12a5.74,5.74,0,0,1,.54.46c.53.59,1.07,1.18,1.58,1.78a42.64,42.64,0,0,1,3.45,4.15c.2.31.43.6.66.89A36.58,36.58,0,0,1,176,183.8q2.16,3.7,4.23,7.45a99.15,99.15,0,0,1,6.36,13.32,123.81,123.81,0,0,1,4,11.89,84,84,0,0,1,2.81,14.48,30.29,30.29,0,0,1,.2,5.55,2.71,2.71,0,0,0,0,.52,7.93,7.93,0,0,0,.77-.38,10.63,10.63,0,0,0,4.37-5.19,17.2,17.2,0,0,0,1.08-4.95,70.67,70.67,0,0,0,.16-8.73A125.22,125.22,0,0,0,198.16,201c-.58-3.15-1.34-6.26-2-9.39-.85-4-2-7.91-3.21-11.8a4.58,4.58,0,0,0-.25-.56l-.65.23a3,3,0,0,1-2.66-.34,5.26,5.26,0,0,1-.86-.7,21,21,0,0,1-3-3.6c-1.61-2.46-3-5-4.37-7.65a15.43,15.43,0,0,1-.9-2.28,9.57,9.57,0,0,1-.51-3.05,4.75,4.75,0,0,1,.71-2.57,6.34,6.34,0,0,1,1.84-2,4.9,4.9,0,0,0,.46-.41c-.19-.31-.34-.61-.54-.88C180.87,154,179.54,152.1,178.18,150.18Zm5.75,8.69a2.64,2.64,0,0,0-.35-.4,1.3,1.3,0,0,0-.33.14,4,4,0,0,0-1.92,3.37,8.81,8.81,0,0,0,.13,1.34,13.17,13.17,0,0,0,1.38,4c.92,1.73,1.84,3.46,2.81,5.16a37,37,0,0,0,2,3.21,20.58,20.58,0,0,0,2,2.43,2,2,0,0,0,2.73.28c-.08-.29-.16-.59-.26-.88-1.09-3.27-2.39-6.45-3.67-9.64A68.14,68.14,0,0,0,183.93,158.87ZM170.3,140.62l-3.91,1.54c0,2.69.05,5.34.07,8.11a13.76,13.76,0,0,0,2.92-1.29C169.75,146.24,170.08,143.52,170.3,140.62Zm-5.13,2s0,0,0-.06l-.06,0-3.69.94s-.09.06-.15.1c-.07,2.67-.14,5.36-.21,8.05a21.85,21.85,0,0,0,4.25-1.05c0-.21.07-.39.08-.57C165.49,147.57,165.21,145.11,165.17,142.65Zm3.75,9.71a5.12,5.12,0,0,0,.12-1.67c-.57.27-1.09.53-1.62.76a50.94,50.94,0,0,1-10,3c-2.9.63-5.83,1.09-8.76,1.55a33.54,33.54,0,0,1-6.33.37h-1.11c-1.43,0-2.87,0-4.29-.11-1.24-.1-2.46-.35-3.69-.53a101.25,101.25,0,0,1-11.45-2.28,31.69,31.69,0,0,1-7-2.54,3.82,3.82,0,0,0-.36-.13,27.83,27.83,0,0,0,.66,5l1,.31c.91.27,1.84.49,2.75.79a5,5,0,0,1,3.09,2.89,8.31,8.31,0,0,1,.47,1.35,17.31,17.31,0,0,1,.39,2,59,59,0,0,1,.55,9.1,18.65,18.65,0,0,1-.24,2.37,2.55,2.55,0,0,1-1,1.73c-.48.36-1,.67-1.52,1a2.9,2.9,0,0,0-.89.58c.07.27.14.55.23.82a51.33,51.33,0,0,0,2.17,6c1.07,2.33,2,4.72,3.1,7s2.37,4.79,3.57,7.18c.33.66.7,1.31,1,2a2.64,2.64,0,0,0,1,1.12,11.85,11.85,0,0,0,5.77,1.84c0-.25,0-.43,0-.61,0-1.91,0-3.82-.15-5.72a93.05,93.05,0,0,1,.14-11c.09-1.75.3-3.49.38-5.23.13-3,.21-6,.31-9a11.72,11.72,0,0,1,.44-3.06,4.91,4.91,0,0,1,2.13-2.77c.46-.31.94-.59,1.4-.87l1,0c.48.29.82.5,1.17.69A5.19,5.19,0,0,1,146,170a10.45,10.45,0,0,1,.18,1.25c0,.71.07,1.43.1,2.14.11,2.86.18,5.72.33,8.58.1,2.14.33,4.27.42,6.42s.15,4.6.13,6.9c0,2.54-.15,5.08-.22,7.62a1.88,1.88,0,0,0,.1,1c.61-.09,1.21-.17,1.8-.28a10.47,10.47,0,0,0,4.07-1.71,1.86,1.86,0,0,0,.68-.76c.37-.76.77-1.5,1.15-2.26,1.78-3.58,3.63-7.12,5.16-10.82.06-.14.13-.29.2-.43a63.51,63.51,0,0,0,3.48-9c.07-.27.14-.55.22-.84-.38-.21-.7-.38-1-.57l-1.15-.7a2.93,2.93,0,0,1-1.33-2.09,16.69,16.69,0,0,1-.2-2.13,58.74,58.74,0,0,1,.49-8.79,20.22,20.22,0,0,1,.35-2,11,11,0,0,1,.53-1.66,5.06,5.06,0,0,1,3.19-3c.9-.3,1.83-.53,2.75-.79l1-.3c.08-.57.17-1.11.24-1.66S168.87,152.94,168.92,152.36Zm-8.82-8.58a24.52,24.52,0,0,0-4,.63c-.07,2.77-.15,5.54-.22,8.38a27.85,27.85,0,0,0,3.72-.75C159.73,149.24,159.92,146.51,160.1,143.78Zm-42-37.8a5.3,5.3,0,0,0-2.59-3.55c-.81-.45-1.66-.82-2.5-1.21a1.42,1.42,0,0,0-.36,0c-.09,1.47-.17,2.89-.26,4.26a10.24,10.24,0,0,1,2,3.87,23.26,23.26,0,0,1,.75,4.7c.06,2.54.09,5.08.11,7.62a8.72,8.72,0,0,1-.37,2.59,4.57,4.57,0,0,1-1.65,2.37c-.26.18-.51.37-.79.58,0,.9.07,1.8.12,2.81a9.38,9.38,0,0,0,3.8-1,4,4,0,0,0,2.09-2.76,10.87,10.87,0,0,0,.26-2.12,23.88,23.88,0,0,0-.18-2.93,44.38,44.38,0,0,1-.22-7.38c.08-1.53.11-3.07.13-4.6A12.89,12.89,0,0,0,118.05,106Zm37,39.24c0-.23,0-.46,0-.68a27.37,27.37,0,0,0-4.69.48,82.51,82.51,0,0,1,.11,8.63,35,35,0,0,0,3.93-.59c.09-1,.18-1.89.26-2.78C154.79,148.59,154.92,146.9,155.06,145.22Zm13.2,11.34-3.11.9a4.35,4.35,0,0,0-2.94,2.88,7.62,7.62,0,0,0-.36,1.3c-.14.94-.27,1.89-.33,2.84a87.68,87.68,0,0,0-.08,8.88,4.25,4.25,0,0,0,.11,1,2.32,2.32,0,0,0,.42.93,4.39,4.39,0,0,0,2.1,1.32C165.08,174.77,168.22,159.78,168.26,156.56Zm-55.37-48.71a7.08,7.08,0,0,0-.53-.95,5.18,5.18,0,0,0-.1.53c-.14,5.74-.14,11.47,0,17.35a2.73,2.73,0,0,0,1.33-1.87,18.58,18.58,0,0,0,.27-2.35c.07-2.09.1-4.18.14-6.27a19,19,0,0,0-.42-4.18A19.74,19.74,0,0,0,112.89,107.85Zm36.39,37.89a6,6,0,0,0,0-.72l-2.75.2c-.21,0-.41.05-.63.08a1.45,1.45,0,0,0-.06.33l.51,8.46s0,0,0,.07l.06.05a5.52,5.52,0,0,0,2.33-.42c0-.48.07-1,.1-1.48C149,150.12,149.15,147.94,149.28,145.74Zm-4.34-.39c-1.08,0-2.16.06-3.23.06s-2.16,0-3.29-.06a53.58,53.58,0,0,0,.62,9.05,11.29,11.29,0,0,0,5.39,0A71.32,71.32,0,0,0,144.94,145.35Zm23,30.08c-.44-.48-.92-.93-1.39-1.39,0,0-.1.06-.11.1-.11.35-.23.71-.31,1.07a36.23,36.23,0,0,1-2,6.19c-.76,1.9-1.47,3.81-2.19,5.72a2.44,2.44,0,0,0-.1.36,17,17,0,0,1,1.52,1.09,31.44,31.44,0,0,1,4.39,4.69c.95,1.23,1.81,2.54,2.71,3.82a9.12,9.12,0,0,0,1.57,1.88,2.65,2.65,0,0,0,.42.33l-.29.47-.34-.22a10.4,10.4,0,0,1-2-1.85c-1.42-1.67-2.83-3.35-4.29-5a25.07,25.07,0,0,0-3.72-3.56c-.16-.12-.34-.21-.54-.33a4.26,4.26,0,0,0-.24.48c-.66,1.44-1.29,2.9-2,4.34-1,2.18-2.09,4.34-3.14,6.51a9.34,9.34,0,0,0-.66,1.76c.78.06,1.51.1,2.24.19,1.24.15,2.46.35,3.7.5a42.76,42.76,0,0,1,10.37,2.61,19.18,19.18,0,0,1,7.64,5.39,30.19,30.19,0,0,1,4.89,7.86,85.78,85.78,0,0,1,3.24,9.2c.58,1.9,1.18,3.8,1.77,5.69.08.26.21.51.31.76,0-.52-.05-1-.11-1.53l.76-.17c.09.65.16,1.31.24,2,.05.47,0,.95.05,1.41a3.2,3.2,0,0,0,2.14,1.39c.07-.42.16-.8.19-1.19a6.74,6.74,0,0,0,0-1.19,87.73,87.73,0,0,0-1.55-11.17c-.71-3.31-1.65-6.57-2.6-9.83s-2.21-6.4-3.45-9.56a72.81,72.81,0,0,0-4.1-8.77c-.81-1.46-1.61-2.92-2.45-4.36a90.68,90.68,0,0,0-6.52-10.33c-.88-1.13-1.69-2.31-2.56-3.44C169,176.66,168.48,176,167.93,175.43Zm-30.36-29.27a1.62,1.62,0,0,0-.06-.89l-3.38-.25c0,3,.37,5.91.52,8.9a11,11,0,0,0,2.44.29c0-.21,0-.37,0-.52.05-1.14.08-2.28.15-3.41C137.36,148.9,137.48,147.53,137.57,146.16ZM133,153.55a80.89,80.89,0,0,1,.12-8.65l-4.73-.4c0,2.91.47,5.7.67,8.5A14.52,14.52,0,0,0,133,153.55Zm-5.59-9.13a22.87,22.87,0,0,0-4.06-.64c.19,2.77.37,5.49.55,8.25a24.21,24.21,0,0,0,3.79.75c0-.76-.09-1.45-.13-2.13s-.07-1.37-.09-2.06,0-1.43,0-2.15A9.73,9.73,0,0,0,127.37,144.42Zm-5.16-.89-2-.46c-.66-.16-1.29-.42-2-.57,0,2.75-.37,5.4-.11,8.09a17.61,17.61,0,0,0,4.38,1C122.17,148.94,122.28,146.25,122.21,143.53Zm22.71,26.63a3.59,3.59,0,0,0-1.2-2.1,6.06,6.06,0,0,0-2-1.19,4.59,4.59,0,0,0-3.37,3.88,14.59,14.59,0,0,0-.19,2c-.09,3.18-.15,6.36-.22,9.53,0,.42,0,.85,0,1.27-.08,2-.21,3.91-.24,5.87-.06,2.78,0,5.56.18,8.34s.23,5.71.32,8.57c.06,1.93.08,3.86.1,5.79,0,1.19,0,2.39,0,3.58,0,2,.1,4,.16,6,0,.69.06,1.37.11,2.06a2.26,2.26,0,0,0,1,1.79,6,6,0,0,0,2.08.91,5,5,0,0,0,2.23-1,2.08,2.08,0,0,0,.91-1.51,10.38,10.38,0,0,0,.09-1.11c.06-1.48.13-3,.15-4.44.07-3.81.09-7.63.19-11.44q.12-5,.36-9.92c.15-3.17.2-6.35.1-9.52-.06-1.77-.18-3.55-.23-5.32-.09-3.17-.14-6.35-.24-9.53A15.24,15.24,0,0,0,144.92,170.16ZM117,142.69c0-.18,0-.36,0-.56l-3.76-1.47a63.67,63.67,0,0,0,.88,8.35,7.46,7.46,0,0,0,2.78,1.1s.08-.09.08-.13Zm-5.66,2a1.37,1.37,0,0,0-.21-.84,2.12,2.12,0,0,0-.42.25c-1.18,1.17-2.43,2.29-3.52,3.55s-2,2.69-3,4.07-2,2.91-3,4.37a2,2,0,0,0-.42.84,1.55,1.55,0,0,0,.25.21,6.4,6.4,0,0,1,1.63,1.61,4.94,4.94,0,0,1,1.09,3.25,11.42,11.42,0,0,1-.19,1.65,14.31,14.31,0,0,1-1.55,4.24c-.84,1.53-1.71,3.05-2.56,4.57a28.41,28.41,0,0,1-3.4,4.88,15.72,15.72,0,0,1-1.26,1.32,3.19,3.19,0,0,1-3.59.75,4.22,4.22,0,0,0-.45-.14c-.1.31-.19.53-.26.75-1.28,4.1-2.44,8.23-3.34,12.43-.57,2.72-1.22,5.42-1.76,8.15-.69,3.51-1.08,7.06-1.47,10.62a85.89,85.89,0,0,0-.38,14.52,18,18,0,0,0,1.3,6.1,10.56,10.56,0,0,0,4.17,4.77,1.62,1.62,0,0,0,.93.33,5.22,5.22,0,0,1-.1-.74c0-1-.07-2.07,0-3.09.21-2.3.44-4.59.77-6.87a89.73,89.73,0,0,1,2-9,117.64,117.64,0,0,1,6-17,99.45,99.45,0,0,1,4.54-8.91c1.5-2.74,3-5.47,4.67-8.12,1.14-1.84,2.51-3.54,3.78-5.3a13.36,13.36,0,0,1,.94-1.17l4-4.52-.22-.92c-.51-2.19-1.07-4.38-1.54-6.58C113.35,158.09,112.21,151.41,111.35,144.68Zm9.85,15.65a4.31,4.31,0,0,0-2.87-2.85c-1-.32-2.07-.61-3.19-.93,0,3.2,3.2,18.25,4.21,20.12.4-.2.8-.38,1.18-.61a2.56,2.56,0,0,0,1.42-2.31c0-.21,0-.42,0-.64,0-1.16.07-2.32,0-3.49,0-2.09-.12-4.17-.22-6.26A10.53,10.53,0,0,0,121.2,160.33Zm32.05,43.84-.13-.07-.81.38a11.68,11.68,0,0,1-1.67.72c-1,.28-1.95.48-2.93.71l-.77.2c0,.32,0,.59,0,.85,0,2,.09,4,.23,6a90.8,90.8,0,0,1-.11,9.76,5.43,5.43,0,0,1-3.53,4.95,5.15,5.15,0,0,1-1.87.28,4.26,4.26,0,0,1-2.82-.88c-.21-.15-.41-.33-.63-.47a3.33,3.33,0,0,1-1.07-1.26,6.51,6.51,0,0,1-.81-3.2c0-.9-.05-1.8-.06-2.7,0-1.93-.07-3.86,0-5.79.06-2.25.32-4.49.25-6.75,0-.28,0-.56,0-.85-1.13-.25-2.21-.41-3.24-.73s-2-.81-3-1.22a1.22,1.22,0,0,0-.16.18c-2.63,6.85-5.59,13.56-8.52,20.28a1.46,1.46,0,0,0,0,.31l.59.32A39,39,0,0,0,132,228.5l9,1.74a3.52,3.52,0,0,0,1.41,0c3-.59,5.93-1.15,8.89-1.73a38.86,38.86,0,0,0,10.22-3.39,3,3,0,0,0,.44-.28,2,2,0,0,0-.07-.27c-2.92-6.7-5.87-13.38-8.49-20.21A.71.71,0,0,0,153.25,204.17Zm-36.31-30.25a1.77,1.77,0,0,0-.36.27,61.11,61.11,0,0,0-4.55,5.6c-1,1.48-2.13,2.85-3.07,4.34-1.68,2.7-3.28,5.44-4.85,8.2-1.26,2.21-2.52,4.42-3.59,6.72a114.83,114.83,0,0,0-6.7,18.15,88.16,88.16,0,0,0-2.89,14.55c-.13,1.31-.22,2.63-.3,4a2.61,2.61,0,0,0,.27,1.44,3.1,3.1,0,0,0,2-1.38,1.37,1.37,0,0,0,0-.3,23.63,23.63,0,0,1,.54-4.89c.25-1.24.53-2.48.81-3.72l.77.21c-.28,1.27-.55,2.54-.82,3.8-.18.86-.28,1.73-.41,2.59a4.14,4.14,0,0,0,0,.61v0h0v0c.17-.4.38-.8.52-1.22.41-1.28.82-2.57,1.2-3.86a97.58,97.58,0,0,1,3.31-9.77,31.65,31.65,0,0,1,4.62-7.93,19.51,19.51,0,0,1,8.34-6.14,41.09,41.09,0,0,1,8.56-2.33c2-.3,4-.56,6-.83.36-.05.74,0,1.11-.06l.62,0c-.27-.66-.46-1.27-.74-1.83-1.77-3.61-3.55-7.22-5.12-10.92a2.55,2.55,0,0,0-.23-.34c-.17.11-.31.18-.43.27a30.93,30.93,0,0,0-4.59,4.49c-1.38,1.53-2.67,3.15-4,4.69a10.08,10.08,0,0,1-1.33,1.19l-.34-.43a4.86,4.86,0,0,0,.6-.6q.51-.61,1-1.26a47.49,47.49,0,0,1,5.19-6.71,16.49,16.49,0,0,1,3.38-2.86s0-.09.1-.17a3.09,3.09,0,0,0-.1-.34c-.64-1.71-1.26-3.43-2-5.12a39.38,39.38,0,0,1-2.27-7C117.15,174.64,117.05,174.34,116.94,173.92Zm-14.87-11.57a4,4,0,0,0-1.85-3.72,2,2,0,0,0-.44-.2,2.72,2.72,0,0,0-.24.34c-1.2,2.06-2.43,4.1-3.42,6.27a136,136,0,0,0-5,12.78c0,.15-.08.3-.13.5a2,2,0,0,0,2.67-.2,6,6,0,0,0,.56-.57c.67-.85,1.38-1.67,2-2.57a78,78,0,0,0,4.83-8.66A11.09,11.09,0,0,0,102.07,162.35Zm61,65c-.24-.49-.46-1-.71-1.53l-3.42,1.79c.36.79.72,1.52,1,2.28s.49,1.6.87,2.34a11.09,11.09,0,0,0,3.76-1.9l-.76-1.5C163.53,228.34,163.27,227.85,163,227.35Zm-3,5.18c-.66-1.5-.92-3.17-1.87-4.6l-3.59,1.28c.57,1.61,1.47,3,1.62,4.73A13.94,13.94,0,0,0,160,232.53Zm-4.71,1.72c-.28-1.72-1.12-3.19-1.39-4.87l-4.39,1c.48,1.64,1.46,3.09,1.53,4.87Zm-5.26,1.14c-.12-1.72-1-3.25-1.31-5l-4.32.58c.17.92.64,1.69.79,2.54s.2,1.77.31,2.73A16.18,16.18,0,0,0,150.05,235.39Zm-6.53-4c-.63-.05-1.21-.13-1.79-.12s-1.21.07-1.89.12c-.29,1.69-1,3.25-1,5a44.28,44.28,0,0,0,5.76,0C144.56,234.59,143.86,233,143.52,231.36Zm-4.7.23a5.5,5.5,0,0,0,.1-.59l-4.28-.59c-.33,1.76-1.2,3.3-1.3,5.12,1.52.31,3,.65,4.6.82,0-.35,0-.63,0-.92a6.67,6.67,0,0,1,.47-2.72C138.56,232.34,138.7,232,138.82,231.59Zm-5.11-.75a3.28,3.28,0,0,0,.1-.51l-4.15-.94s-.1,0-.17,0c-.13.51-.26,1-.42,1.52s-.36,1.05-.54,1.58-.27.86-.38,1.29a1.79,1.79,0,0,0,0,.46l4.18.93a10,10,0,0,1,1.07-3.63A6.59,6.59,0,0,0,133.71,230.84Zm-4.89-1.64-3.58-1.27a20.22,20.22,0,0,0-1.79,4.68,14.87,14.87,0,0,0,3.77,1.29C127.34,232.22,128.3,230.8,128.82,229.2Zm-4.35-1.59-3.39-1.79c-.4.82-.76,1.58-1.12,2.33a21.17,21.17,0,0,0-1.11,2.24,11.42,11.42,0,0,0,3.82,1.81c.27-.77.5-1.55.8-2.32S124.13,228.4,124.47,227.61Z" transform="translate(-81.95 -27.98)"/><path class="cls-5" d="M143.8,31.48a16.68,16.68,0,0,1,3.76,3.74c1.93,2.59,3.82,5.21,5.5,8a78.7,78.7,0,0,1,4.36,8.28c.08.17.13.34.24.62l-1.1.41A31.38,31.38,0,0,1,149.25,54a2.42,2.42,0,0,0-.47,0c-2.2.51-4.48.39-6.69.8a2.76,2.76,0,0,1-1,0,16.63,16.63,0,0,0-3.07-.29,7.45,7.45,0,0,1-.95-.07c-1.81-.25-3.62-.52-5.43-.75a33.54,33.54,0,0,1-5.31-1.33,4.12,4.12,0,0,1-.54-.25,3.71,3.71,0,0,1,.14-.53,73.43,73.43,0,0,1,6.39-11.42q1.81-2.6,3.72-5.15a15.28,15.28,0,0,1,3.42-3.39,9.66,9.66,0,0,0,1.05-.84,1.75,1.75,0,0,1,2.38,0A6.34,6.34,0,0,0,143.8,31.48Z" transform="translate(-81.95 -27.98)"/><path class="cls-7" d="M157.94,53.36a1.19,1.19,0,0,1,.29-.06,20.23,20.23,0,0,1,1,2.43c-.2.11-.35.21-.51.28a20.22,20.22,0,0,1-4.54,1.4l-5.78,1c-.26,0-.52.08-.79.1-1.58.15-3.16.32-4.74.41a26,26,0,0,1-2.93-.05c-.9,0-1.79-.17-2.69-.23a63.37,63.37,0,0,1-6.28-.93c-1.22-.22-2.43-.52-3.63-.82a16,16,0,0,1-3-1.12,7.23,7.23,0,0,1,1-2.5,1.72,1.72,0,0,1,.28.08,26.43,26.43,0,0,0,7.26,2.22,46.11,46.11,0,0,0,8.22.55c1.32,0,2.65,0,4,0,.79,0,1.58-.09,2.37-.17.6,0,1.2-.15,1.81-.2a19.6,19.6,0,0,0,4.74-.92A25.76,25.76,0,0,0,157.94,53.36Z" transform="translate(-81.95 -27.98)"/><path class="cls-3" d="M159.61,56.76a4.41,4.41,0,0,1,.22.43c2.42,6.64,4.79,13.3,6.65,20.13a123.64,123.64,0,0,1,3.39,15.84c.28,2.1.52,4.2.78,6.31,0,.2,0,.41,0,.66l-.58.25c-.8.36-1.61.68-2.38,1.09a6.31,6.31,0,0,0-3.21,4.15,13.61,13.61,0,0,0-.44,3.53c0,2,0,4.08,0,6.12a44,44,0,0,1-.38,5.62c-.09.79-.21,1.58-.28,2.37a9.83,9.83,0,0,0,.31,3.54,5.74,5.74,0,0,0,3.63,4,9.21,9.21,0,0,0,3.23.77,1,1,0,0,1,.27.08c0,.84-.08,1.68-.12,2.54-.29.11-.53.22-.78.3-1.74.54-3.5,1-5.29,1.42-2.25.5-4.47,1.1-6.71,1.64-.74.18-1.5.35-2.25.47q-2.62.44-5.26.8c-.89.11-1.8.13-2.69.2l-5.55.39a7,7,0,0,1-1,0c-1.72-.12-3.44-.31-5.15-.36a46.43,46.43,0,0,1-5.77-.6c-.26,0-.52-.11-.78-.14a63.46,63.46,0,0,1-8.28-1.85c-.67-.17-1.34-.35-2-.46a46.61,46.61,0,0,1-5.23-1.34c-.41-.11-.8-.27-1.25-.43a20.76,20.76,0,0,1-.15-2.63,10.53,10.53,0,0,0,3-.61,6.42,6.42,0,0,0,2.15-1.16,6,6,0,0,0,2.16-3.85,11.66,11.66,0,0,0,.05-3.49c-.18-1.5-.4-3-.48-4.5-.1-1.77-.09-3.54-.1-5.32,0-1.35,0-2.7,0-4.05a12.76,12.76,0,0,0-.43-3.06,6.22,6.22,0,0,0-3.1-4c-.74-.4-1.52-.73-2.29-1.08-.24-.11-.49-.2-.79-.32,0-.3,0-.58.07-.87a132.19,132.19,0,0,1,3.25-18.52c1.63-6.54,3.78-12.91,6-19.26.45-1.27.91-2.54,1.37-3.81.11-.29.23-.58.36-.91.2.08.36.11.49.18a20.38,20.38,0,0,0,4.9,1.83,45.58,45.58,0,0,0,8.3,1.33l1.58.14.23,0c1.8,0,3.6,0,5.39-.08,2-.13,4-.41,5.92-.65a31.51,31.51,0,0,0,7.13-1.88,13.34,13.34,0,0,0,1.42-.7Zm-2.05,12.88a11.89,11.89,0,0,0-2.42-2.73,31.57,31.57,0,0,0-6.6-4.08,12.21,12.21,0,0,0-6.19-1.08,5.15,5.15,0,0,1-1.11,0,13,13,0,0,0-7.14,1.44,41.67,41.67,0,0,0-4.95,3A11.26,11.26,0,0,0,127,68.13a22.29,22.29,0,0,0-4.81,10.41A22,22,0,0,0,122,83a18.8,18.8,0,0,0,1.08,6.08,17.16,17.16,0,0,0,5.58,7.86,18.35,18.35,0,0,0,10,4c.89.08,1.8,0,2.69,0h.87c.43,0,.85.06,1.27.06a18.88,18.88,0,0,0,4.55-.67,17.64,17.64,0,0,0,12.62-12.09,22.09,22.09,0,0,0,.78-7.71A21.41,21.41,0,0,0,157.56,69.64Zm.08,42.6a5.33,5.33,0,0,0-3.84-3.69,14.17,14.17,0,0,0-2.33-.48,34.93,34.93,0,0,0-7.37-.16,25.14,25.14,0,0,1-4.83,0,34.27,34.27,0,0,0-7.37.17,13.9,13.9,0,0,0-2.63.59,5.32,5.32,0,0,0-3.41,3.32,9.43,9.43,0,0,0-.29.9,34.44,34.44,0,0,0-1,5.86,14.2,14.2,0,0,0,.64,5.57,6.94,6.94,0,0,0,.64,1.35,7,7,0,0,0,1.65,1.71,25.13,25.13,0,0,0,3.67,2.35,21.93,21.93,0,0,0,8.82,2.39,36.48,36.48,0,0,0,4.05,0,4.92,4.92,0,0,0,.94-.1c1.25-.26,2.49-.53,3.73-.81a12.27,12.27,0,0,0,3-1.17c.58-.31,1.17-.62,1.74-.94a18,18,0,0,0,3.39-2.46,5.28,5.28,0,0,0,1.37-2.13,14.55,14.55,0,0,0,.72-4A26.74,26.74,0,0,0,157.64,112.24Z" transform="translate(-81.95 -27.98)"/><path class="cls-8" d="M155.14,66.91a11.89,11.89,0,0,1,2.42,2.73,21.41,21.41,0,0,1,3.85,10.87,22.09,22.09,0,0,1-.78,7.71A17.64,17.64,0,0,1,148,100.31a18.88,18.88,0,0,1-4.55.67c-.42,0-.84,0-1.27-.06h-.87c-.89,0-1.8.06-2.69,0a18.35,18.35,0,0,1-10-4,17.16,17.16,0,0,1-5.58-7.86A18.8,18.8,0,0,1,122,83a22,22,0,0,1,.23-4.44A22.29,22.29,0,0,1,127,68.13a11.26,11.26,0,0,1,2.11-1.91,41.67,41.67,0,0,1,4.95-3,13,13,0,0,1,7.14-1.44,5.15,5.15,0,0,0,1.11,0,12.21,12.21,0,0,1,6.19,1.08A31.57,31.57,0,0,1,155.14,66.91Zm1,4.21a17.73,17.73,0,0,0-3.68-3.81,19.26,19.26,0,0,0-9.2-3.64,13.26,13.26,0,0,0-3.39,0,18.3,18.3,0,0,0-6.55,2.1,17.25,17.25,0,0,0-3.93,2.8,17.75,17.75,0,0,0-4.14,6.24c-.1.27-.22.54-.34.81a13.36,13.36,0,0,0-1,3.51,27.11,27.11,0,0,0-.18,4.68A13,13,0,0,0,125,89a19.87,19.87,0,0,0,2.49,3.86,15.69,15.69,0,0,0,2.36,2.46A18.44,18.44,0,0,0,137.71,99c1.24.26,2.5.45,3.75.66a1.75,1.75,0,0,0,.56,0c1.2-.2,2.4-.39,3.59-.62a18.67,18.67,0,0,0,5.08-1.81A17.87,17.87,0,0,0,155,94.05c.57-.74,1.42-1.76,2.18-2.84a13.79,13.79,0,0,0,2.55-8.52c0-.64,0-1.28-.05-1.91a13.7,13.7,0,0,0-.72-4.06A22,22,0,0,0,156.15,71.12Z" transform="translate(-81.95 -27.98)"/><path class="cls-7" d="M152.47,67.31a17.73,17.73,0,0,1,3.68,3.81,22,22,0,0,1,2.76,5.6,13.7,13.7,0,0,1,.72,4.06c0,.63,0,1.27.05,1.91a13.79,13.79,0,0,1-2.55,8.52c-.76,1.08-1.61,2.1-2.18,2.84a17.87,17.87,0,0,1-4.26,3.15A18.67,18.67,0,0,1,145.61,99c-1.19.23-2.39.42-3.59.62a1.75,1.75,0,0,1-.56,0c-1.25-.21-2.51-.4-3.75-.66a18.44,18.44,0,0,1-7.84-3.67,15.69,15.69,0,0,1-2.36-2.46A19.87,19.87,0,0,1,125,89a13,13,0,0,1-1.25-5.14,27.11,27.11,0,0,1,.18-4.68,13.36,13.36,0,0,1,1-3.51c.12-.27.24-.54.34-.81a17.75,17.75,0,0,1,4.14-6.24,17.25,17.25,0,0,1,3.93-2.8,18.3,18.3,0,0,1,6.55-2.1,13.26,13.26,0,0,1,3.39,0A19.26,19.26,0,0,1,152.47,67.31Zm-.23,4.62a10.21,10.21,0,0,0-5.7-3,15,15,0,0,0-4.43-.17,3.39,3.39,0,0,1-.78,0,14.67,14.67,0,0,0-5.44.4,9.42,9.42,0,0,0-4,2.17,14.25,14.25,0,0,0-2,2.25,11.78,11.78,0,0,0-2.17,4.64,16.27,16.27,0,0,0-.24,5.21,15.09,15.09,0,0,0,.4,2.11,13.73,13.73,0,0,0,3.78,6.15c.17.16.35.32.54.47a15.5,15.5,0,0,0,8,3.25,11.8,11.8,0,0,0,2.14.09,16,16,0,0,0,3.82-.68,13.78,13.78,0,0,0,7.47-5.22,8,8,0,0,0,.81-1.27A13,13,0,0,0,156,82.94c0-1,0-1.91,0-2.86A12.72,12.72,0,0,0,152.24,71.93Z" transform="translate(-81.95 -27.98)"/><path class="cls-8" d="M146.54,68.9a10.21,10.21,0,0,1,5.7,3A12.72,12.72,0,0,1,156,80.08c.05,1,.06,1.91,0,2.86a13,13,0,0,1-1.59,5.36,8,8,0,0,1-.81,1.27,13.78,13.78,0,0,1-7.47,5.22,16,16,0,0,1-3.82.68,11.8,11.8,0,0,1-2.14-.09,15.5,15.5,0,0,1-8-3.25c-.19-.15-.37-.31-.54-.47a13.73,13.73,0,0,1-3.78-6.15,15.09,15.09,0,0,1-.4-2.11,16.27,16.27,0,0,1,.24-5.21,11.78,11.78,0,0,1,2.17-4.64,14.25,14.25,0,0,1,2-2.25,9.42,9.42,0,0,1,4-2.17,14.67,14.67,0,0,1,5.44-.4,3.39,3.39,0,0,0,.78,0A15,15,0,0,1,146.54,68.9Zm5.38,5.24a12.44,12.44,0,0,0-1.87-1.83,7.92,7.92,0,0,0-4.14-2c-.65-.11-1.3-.25-2-.32a17.66,17.66,0,0,0-2.29-.18,24.19,24.19,0,0,0-4.87.66,8.53,8.53,0,0,0-1.2.42,10.69,10.69,0,0,0-2.49,1.68,9.69,9.69,0,0,0-3.33,5.19,16.54,16.54,0,0,0-.53,4.8A11.16,11.16,0,0,0,134.75,92a14,14,0,0,0,13,.52,11.22,11.22,0,0,0,6.37-8.89,17.47,17.47,0,0,0-.38-5.68A10,10,0,0,0,151.92,74.14Z" transform="translate(-81.95 -27.98)"/><path class="cls-9" d="M150.05,72.31a12.44,12.44,0,0,1,1.87,1.83A10,10,0,0,1,153.73,78a17.47,17.47,0,0,1,.38,5.68,11.22,11.22,0,0,1-6.37,8.89,14,14,0,0,1-13-.52,11.16,11.16,0,0,1-5.51-9.52,16.54,16.54,0,0,1,.53-4.8,9.69,9.69,0,0,1,3.33-5.19,10.69,10.69,0,0,1,2.49-1.68,8.53,8.53,0,0,1,1.2-.42,24.19,24.19,0,0,1,4.87-.66A17.66,17.66,0,0,1,144,70c.66.07,1.31.21,2,.32A7.92,7.92,0,0,1,150.05,72.31Z" transform="translate(-81.95 -27.98)"/><path class="cls-8" d="M153.8,108.55a5.33,5.33,0,0,1,3.84,3.69,26.74,26.74,0,0,1,1.28,8.29,14.55,14.55,0,0,1-.72,4,5.28,5.28,0,0,1-1.37,2.13,18,18,0,0,1-3.39,2.46c-.57.32-1.16.63-1.74.94a12.27,12.27,0,0,1-3,1.17c-1.24.28-2.48.55-3.73.81a4.92,4.92,0,0,1-.94.1,36.48,36.48,0,0,1-4.05,0,21.93,21.93,0,0,1-8.82-2.39,25.13,25.13,0,0,1-3.67-2.35,7,7,0,0,1-1.65-1.71,6.94,6.94,0,0,1-.64-1.35,14.2,14.2,0,0,1-.64-5.57,34.44,34.44,0,0,1,1-5.86,9.43,9.43,0,0,1,.29-.9,5.32,5.32,0,0,1,3.41-3.32,13.9,13.9,0,0,1,2.63-.59,34.27,34.27,0,0,1,7.37-.17,25.14,25.14,0,0,0,4.83,0,34.93,34.93,0,0,1,7.37.16A14.17,14.17,0,0,1,153.8,108.55Zm3.09,4.14a4.18,4.18,0,0,0-1.3-1.86,4.5,4.5,0,0,0-2.15-1,28.46,28.46,0,0,0-2.9-.4c-2.85-.21-5.71-.37-8.56-.55-.24,0-.48,0-.72,0-1,0-2,.09-3,.16-2.4.18-4.8.36-7.2.59a9.33,9.33,0,0,0-2.07.5,3.72,3.72,0,0,0-2.08,1.76,4.58,4.58,0,0,0-.45,1,16.5,16.5,0,0,0-.13,10.53,5.75,5.75,0,0,0,2,2.76,18.7,18.7,0,0,0,6.7,3.35c1.49.38,3,.71,4.47,1.1a8.37,8.37,0,0,0,4.47,0c1.2-.32,2.41-.63,3.62-.88A19,19,0,0,0,154,127c.65-.41,1.23-.91,1.85-1.37a5,5,0,0,0,1.1-1.74A16.22,16.22,0,0,0,156.89,112.69Z" transform="translate(-81.95 -27.98)"/><path class="cls-8" d="M150.31,111.7a6,6,0,0,1,2.76,1.66,5.68,5.68,0,0,1,1.59,3,19.08,19.08,0,0,1,.25,4.59,4.55,4.55,0,0,1-1.54,3.21,14,14,0,0,1-7.79,3.79l-3.63.4a1.85,1.85,0,0,1-.47,0l-3.56-.38a12.51,12.51,0,0,1-5.93-2.3,21.42,21.42,0,0,1-2-1.63,4.31,4.31,0,0,1-1.43-3,18.08,18.08,0,0,1,.23-4.59,6,6,0,0,1,4.28-4.77,10.15,10.15,0,0,1,3.05-.5c1.76,0,3.54,0,5.31,0l1,0a39,39,0,0,1,6.11.16A13.3,13.3,0,0,1,150.31,111.7Zm2.71,3.09a5.8,5.8,0,0,0-3.49-2.33,20.69,20.69,0,0,0-3.13-.44,88.56,88.56,0,0,0-9.36,0,12.24,12.24,0,0,0-3.75.63,5.34,5.34,0,0,0-3.66,3.94,14,14,0,0,0-.2,4.42,3.46,3.46,0,0,0,1.16,2.29,13.5,13.5,0,0,0,6.76,3.46l3.92.62a3.1,3.1,0,0,0,.86,0c1.36-.2,2.72-.42,4.08-.65a13.36,13.36,0,0,0,6.41-3.26,3.7,3.7,0,0,0,1.42-2.83,17.4,17.4,0,0,0-.21-3.88A4.63,4.63,0,0,0,153,114.79Z" transform="translate(-81.95 -27.98)"/><path class="cls-4" d="M149.53,112.46a5.8,5.8,0,0,1,3.49,2.33,4.63,4.63,0,0,1,.81,2,17.4,17.4,0,0,1,.21,3.88,3.7,3.7,0,0,1-1.42,2.83,13.36,13.36,0,0,1-6.41,3.26c-1.36.23-2.72.45-4.08.65a3.1,3.1,0,0,1-.86,0l-3.92-.62a13.5,13.5,0,0,1-6.76-3.46,3.46,3.46,0,0,1-1.16-2.29,14,14,0,0,1,.2-4.42,5.34,5.34,0,0,1,3.66-3.94A12.24,12.24,0,0,1,137,112a88.56,88.56,0,0,1,9.36,0A20.69,20.69,0,0,1,149.53,112.46Z" transform="translate(-81.95 -27.98)"/><path class="cls-5" d="M170.2,135.47a2.64,2.64,0,0,1,.37-.1,22.93,22.93,0,0,1-.23,4.16c-1.15.41-2.33.87-3.54,1.23a47.67,47.67,0,0,1-6.83,1.46,131.74,131.74,0,0,1-21.38,1.19c-3,0-5.92-.24-8.88-.45s-6-.67-8.89-1.17a32.67,32.67,0,0,1-6.19-1.71c-.52-.2-1-.38-1.62-.59-.09-1.34-.17-2.68-.26-4.1a3,3,0,0,1,.51.1,53.85,53.85,0,0,0,6.24,1.85c1.93.44,3.84,1,5.76,1.5.79.21,1.59.4,2.4.54,2,.34,3.91.72,5.87,1a47.77,47.77,0,0,0,7.37.36c.45,0,.9,0,1.35,0a52.76,52.76,0,0,0,11.29-.92l.47-.09a64.56,64.56,0,0,0,8.12-1.88c.58-.16,1.17-.33,1.76-.46A44.4,44.4,0,0,0,170.2,135.47Z" transform="translate(-81.95 -27.98)"/><path class="cls-7" d="M172.76,144.18a31.22,31.22,0,0,1,5.42,6c1.36,1.92,2.69,3.86,4,5.8.2.27.35.57.54.88a4.9,4.9,0,0,1-.46.41,6.34,6.34,0,0,0-1.84,2,4.75,4.75,0,0,0-.71,2.57,9.57,9.57,0,0,0,.51,3.05,15.43,15.43,0,0,0,.9,2.28c1.36,2.61,2.76,5.19,4.37,7.65a21,21,0,0,0,3,3.6,5.26,5.26,0,0,0,.86.7,3,3,0,0,0,2.66.34l.65-.23a4.58,4.58,0,0,1,.25.56c1.21,3.89,2.36,7.81,3.21,11.8.68,3.13,1.44,6.24,2,9.39A125.22,125.22,0,0,1,200,217.76a70.67,70.67,0,0,1-.16,8.73,17.2,17.2,0,0,1-1.08,4.95,10.63,10.63,0,0,1-4.37,5.19,7.93,7.93,0,0,1-.77.38,2.71,2.71,0,0,1,0-.52,30.29,30.29,0,0,0-.2-5.55,84,84,0,0,0-2.81-14.48,123.81,123.81,0,0,0-4-11.89,99.15,99.15,0,0,0-6.36-13.32q-2.07-3.75-4.23-7.45a36.58,36.58,0,0,0-2.91-4.17c-.23-.29-.46-.58-.66-.89a42.64,42.64,0,0,0-3.45-4.15c-.51-.6-1-1.19-1.58-1.78a5.74,5.74,0,0,0-.54-.46c.2-1,.53-2.07.77-3.12s.48-2.06.71-3.09.47-2.12.69-3.19.41-2.13.61-3.2.37-2.08.56-3.12.37-2.14.54-3.22.36-2.14.53-3.21.31-2.09.45-3.14.28-2.14.44-3.31C172.44,143.94,172.61,144.05,172.76,144.18Z" transform="translate(-81.95 -27.98)"/><path class="cls-3" d="M169,150.69a5.12,5.12,0,0,1-.12,1.67c0,.58-.15,1.15-.24,1.73s-.16,1.09-.24,1.66l-1,.3c-.92.26-1.85.49-2.75.79a5.06,5.06,0,0,0-3.19,3,11,11,0,0,0-.53,1.66,20.22,20.22,0,0,0-.35,2,58.74,58.74,0,0,0-.49,8.79,16.69,16.69,0,0,0,.2,2.13,2.93,2.93,0,0,0,1.33,2.09l1.15.7c.32.19.64.36,1,.57-.08.29-.15.57-.22.84a63.51,63.51,0,0,1-3.48,9c-.07.14-.14.29-.2.43-1.53,3.7-3.38,7.24-5.16,10.82-.38.76-.78,1.5-1.15,2.26a1.86,1.86,0,0,1-.68.76,10.47,10.47,0,0,1-4.07,1.71c-.59.11-1.19.19-1.8.28a1.88,1.88,0,0,1-.1-1c.07-2.54.2-5.08.22-7.62,0-2.3,0-4.61-.13-6.9s-.32-4.28-.42-6.42c-.15-2.86-.22-5.72-.33-8.58,0-.71-.05-1.43-.1-2.14A10.45,10.45,0,0,0,146,170a5.19,5.19,0,0,0-2.66-3.67c-.35-.19-.69-.4-1.17-.69l-1,0c-.46.28-.94.56-1.4.87a4.91,4.91,0,0,0-2.13,2.77,11.72,11.72,0,0,0-.44,3.06c-.1,3-.18,6-.31,9-.08,1.74-.29,3.48-.38,5.23a93.05,93.05,0,0,0-.14,11c.11,1.9.11,3.81.15,5.72,0,.18,0,.36,0,.61a11.85,11.85,0,0,1-5.77-1.84,2.64,2.64,0,0,1-1-1.12c-.31-.67-.68-1.32-1-2-1.2-2.39-2.44-4.76-3.57-7.18s-2-4.72-3.1-7a51.33,51.33,0,0,1-2.17-6c-.09-.27-.16-.55-.23-.82a2.9,2.9,0,0,1,.89-.58c.51-.32,1-.63,1.52-1a2.55,2.55,0,0,0,1-1.73,18.65,18.65,0,0,0,.24-2.37,59,59,0,0,0-.55-9.1,17.31,17.31,0,0,0-.39-2,8.31,8.31,0,0,0-.47-1.35,5,5,0,0,0-3.09-2.89c-.91-.3-1.84-.52-2.75-.79l-1-.31a27.83,27.83,0,0,1-.66-5,3.82,3.82,0,0,1,.36.13,31.69,31.69,0,0,0,7,2.54,101.25,101.25,0,0,0,11.45,2.28c1.23.18,2.45.43,3.69.53,1.42.11,2.86.08,4.29.11h1.11a33.54,33.54,0,0,0,6.33-.37c2.93-.46,5.86-.92,8.76-1.55a50.94,50.94,0,0,0,10-3C168,151.22,168.47,151,169,150.69Z" transform="translate(-81.95 -27.98)"/><path class="cls-7" d="M115.46,102.43a5.3,5.3,0,0,1,2.59,3.55,12.89,12.89,0,0,1,.31,3.16c0,1.53,0,3.07-.13,4.6a44.38,44.38,0,0,0,.22,7.38,23.88,23.88,0,0,1,.18,2.93,10.87,10.87,0,0,1-.26,2.12,4,4,0,0,1-2.09,2.76,9.38,9.38,0,0,1-3.8,1c0-1-.08-1.91-.12-2.81.28-.21.53-.4.79-.58a4.57,4.57,0,0,0,1.65-2.37,8.72,8.72,0,0,0,.37-2.59c0-2.54,0-5.08-.11-7.62a23.26,23.26,0,0,0-.75-4.7,10.24,10.24,0,0,0-2-3.87c.09-1.37.17-2.79.26-4.26a1.42,1.42,0,0,1,.36,0C113.8,101.61,114.65,102,115.46,102.43Z" transform="translate(-81.95 -27.98)"/><path class="cls-4" d="M112.36,106.9a7.08,7.08,0,0,1,.53.95,19.74,19.74,0,0,1,.71,2.26,19,19,0,0,1,.42,4.18c0,2.09-.07,4.18-.14,6.27a18.58,18.58,0,0,1-.27,2.35,2.73,2.73,0,0,1-1.33,1.87c-.16-5.88-.16-11.61,0-17.35A5.18,5.18,0,0,1,112.36,106.9Z" transform="translate(-81.95 -27.98)"/><path class="cls-10" d="M166.54,174c.47.46,1,.91,1.39,1.39s1.08,1.23,1.58,1.89c.87,1.13,1.68,2.31,2.56,3.44a90.68,90.68,0,0,1,6.52,10.33c.84,1.44,1.64,2.9,2.45,4.36a72.81,72.81,0,0,1,4.1,8.77c1.24,3.16,2.5,6.31,3.45,9.56s1.89,6.52,2.6,9.83a87.73,87.73,0,0,1,1.55,11.17,6.74,6.74,0,0,1,0,1.19c0,.39-.12.77-.19,1.19a3.2,3.2,0,0,1-2.14-1.39c0-.46,0-.94-.05-1.41-.08-.66-.15-1.32-.24-2s-.18-1.32-.31-2c-.68-3.16-1.39-6.31-2.16-9.45a83.45,83.45,0,0,0-3.81-11.2,138,138,0,0,0-5.67-12.59c-.52-1-1.16-2-1.76-2.92a2.26,2.26,0,0,0-.59-.64.65.65,0,0,0-1.07.35,5.94,5.94,0,0,0-.15.86c-.22,1.17-.41,2.34-.65,3.51a1.6,1.6,0,0,1-.66,1.15,1.11,1.11,0,0,1-.84-.21,2.65,2.65,0,0,1-.42-.33,9.12,9.12,0,0,1-1.57-1.88c-.9-1.28-1.76-2.59-2.71-3.82a31.44,31.44,0,0,0-4.39-4.69,17,17,0,0,0-1.52-1.09,2.44,2.44,0,0,1,.1-.36c.72-1.91,1.43-3.82,2.19-5.72a36.23,36.23,0,0,0,2-6.19c.08-.36.2-.72.31-1.07C166.44,174.1,166.5,174.07,166.54,174Z" transform="translate(-81.95 -27.98)"/><path class="cls-8" d="M175.84,193.63a2.26,2.26,0,0,1,.59.64c.6,1,1.24,1.91,1.76,2.92a138,138,0,0,1,5.67,12.59,83.45,83.45,0,0,1,3.81,11.2c.77,3.14,1.48,6.29,2.16,9.45.13.64.23,1.3.31,2l-.76.17a12.33,12.33,0,0,0-.24-1.48q-.84-3.89-1.76-7.75a61.24,61.24,0,0,0-2.68-8.47c-1.44-3.67-3-7.29-4.65-10.87a82.14,82.14,0,0,0-4-7.7c-.13-.23-.28-.44-.52-.82-.08.33-.12.48-.16.63-.23.82-.44,1.64-.7,2.45a4.12,4.12,0,0,1-.48,1,1.14,1.14,0,0,1-1.58.48,4.45,4.45,0,0,1-.48-.26l.29-.47a1.11,1.11,0,0,0,.84.21,1.6,1.6,0,0,0,.66-1.15c.24-1.17.43-2.34.65-3.51a5.94,5.94,0,0,1,.15-.86A.65.65,0,0,1,175.84,193.63Z" transform="translate(-81.95 -27.98)"/><path class="cls-6" d="M175.58,195.47c.24.38.39.59.52.82a82.14,82.14,0,0,1,4,7.7c1.64,3.58,3.21,7.2,4.65,10.87a61.24,61.24,0,0,1,2.68,8.47q.92,3.87,1.76,7.75a12.33,12.33,0,0,1,.24,1.48c.06.51.09,1,.11,1.53-.1-.25-.23-.5-.31-.76-.59-1.89-1.19-3.79-1.77-5.69a85.78,85.78,0,0,0-3.24-9.2,30.19,30.19,0,0,0-4.89-7.86,19.18,19.18,0,0,0-7.64-5.39,42.76,42.76,0,0,0-10.37-2.61c-1.24-.15-2.46-.35-3.7-.5-.73-.09-1.46-.13-2.24-.19a9.34,9.34,0,0,1,.66-1.76c1-2.17,2.11-4.33,3.14-6.51.67-1.44,1.3-2.9,2-4.34a4.26,4.26,0,0,1,.24-.48c.2.12.38.21.54.33a25.07,25.07,0,0,1,3.72,3.56c1.46,1.65,2.87,3.33,4.29,5a10.4,10.4,0,0,0,2,1.85l.34.22a4.45,4.45,0,0,0,.48.26,1.14,1.14,0,0,0,1.58-.48,4.12,4.12,0,0,0,.48-1c.26-.81.47-1.63.7-2.45C175.46,196,175.5,195.8,175.58,195.47Z" transform="translate(-81.95 -27.98)"/><path class="cls-7" d="M111.14,143.84a1.37,1.37,0,0,1,.21.84c.86,6.73,2,13.41,3.38,20,.47,2.2,1,4.39,1.54,6.58l.22.92-4,4.52a13.36,13.36,0,0,0-.94,1.17c-1.27,1.76-2.64,3.46-3.78,5.3-1.65,2.65-3.17,5.38-4.67,8.12a99.45,99.45,0,0,0-4.54,8.91,117.64,117.64,0,0,0-6,17,89.73,89.73,0,0,0-2,9c-.33,2.28-.56,4.57-.77,6.87-.1,1,0,2.06,0,3.09a5.22,5.22,0,0,0,.1.74,1.62,1.62,0,0,1-.93-.33,10.56,10.56,0,0,1-4.17-4.77,18,18,0,0,1-1.3-6.1,85.89,85.89,0,0,1,.38-14.52c.39-3.56.78-7.11,1.47-10.62.54-2.73,1.19-5.43,1.76-8.15.9-4.2,2.06-8.33,3.34-12.43.07-.22.16-.44.26-.75a4.22,4.22,0,0,1,.45.14,3.19,3.19,0,0,0,3.59-.75A15.72,15.72,0,0,0,96,177.33a28.41,28.41,0,0,0,3.4-4.88c.85-1.52,1.72-3,2.56-4.57a14.31,14.31,0,0,0,1.55-4.24,11.42,11.42,0,0,0,.19-1.65,4.94,4.94,0,0,0-1.09-3.25,6.4,6.4,0,0,0-1.63-1.61,1.55,1.55,0,0,1-.25-.21,2,2,0,0,1,.42-.84c1-1.46,2-2.93,3-4.37s1.94-2.79,3-4.07,2.34-2.38,3.52-3.55A2.12,2.12,0,0,1,111.14,143.84Z" transform="translate(-81.95 -27.98)"/><path class="cls-10" d="M116.58,174.19a1.77,1.77,0,0,1,.36-.27c.11.42.21.72.27,1a39.38,39.38,0,0,0,2.27,7c.69,1.69,1.31,3.41,2,5.12a3.09,3.09,0,0,1,.1.34c0,.08-.06.15-.1.17a16.49,16.49,0,0,0-3.38,2.86,47.49,47.49,0,0,0-5.19,6.71q-.45.65-1,1.26a4.86,4.86,0,0,1-.6.6,2.36,2.36,0,0,1-1,.51,1,1,0,0,1-.72-.77c-.19-.66-.38-1.32-.51-2s-.2-1.47-.31-2.2c0-.31-.14-.61-.2-.86-.65-.31-.82-.32-1.18.1a9.65,9.65,0,0,0-1.05,1.4,50.11,50.11,0,0,0-2.79,5.34c-2.18,4.68-4.17,9.44-5.92,14.3a85.72,85.72,0,0,0-3,10.78l-.27,1.24c-.28,1.24-.56,2.48-.81,3.72a23.63,23.63,0,0,0-.54,4.89,1.37,1.37,0,0,1,0,.3,3.1,3.1,0,0,1-2,1.38,2.61,2.61,0,0,1-.27-1.44c.08-1.33.17-2.65.3-4a88.16,88.16,0,0,1,2.89-14.55,114.83,114.83,0,0,1,6.7-18.15c1.07-2.3,2.33-4.51,3.59-6.72,1.57-2.76,3.17-5.5,4.85-8.2.94-1.49,2.08-2.86,3.07-4.34A61.11,61.11,0,0,1,116.58,174.19Z" transform="translate(-81.95 -27.98)"/><path class="cls-6" d="M122,188.81a2.55,2.55,0,0,1,.23.34c1.57,3.7,3.35,7.31,5.12,10.92.28.56.47,1.17.74,1.83l-.62,0c-.37,0-.75,0-1.11.06-2,.27-4,.53-6,.83a41.09,41.09,0,0,0-8.56,2.33,19.51,19.51,0,0,0-8.34,6.14,31.65,31.65,0,0,0-4.62,7.93A97.58,97.58,0,0,0,95.58,229c-.38,1.29-.79,2.58-1.2,3.86-.14.42-.35.82-.52,1.22a4.14,4.14,0,0,1,0-.61c.13-.86.23-1.73.41-2.59.27-1.26.54-2.53.82-3.8a75.83,75.83,0,0,1,3.22-11.21,160.75,160.75,0,0,1,8-17.88c.37-.7.78-1.38,1.18-2.07.06-.1.13-.2.27-.4.09.29.16.47.21.66.25.86.48,1.73.77,2.58a3.25,3.25,0,0,0,.54,1,1.06,1.06,0,0,0,1.36.33,3.13,3.13,0,0,0,.76-.42l.21-.17a10.08,10.08,0,0,0,1.33-1.19c1.37-1.54,2.66-3.16,4-4.69a30.93,30.93,0,0,1,4.59-4.49C121.72,189,121.86,188.92,122,188.81Z" transform="translate(-81.95 -27.98)"/><path class="cls-8" d="M108.55,193.7c.06.25.15.55.2.86.11.73.17,1.47.31,2.2s.32,1.34.51,2a1,1,0,0,0,.72.77,2.36,2.36,0,0,0,1-.51l.34.43-.21.17a3.13,3.13,0,0,1-.76.42,1.06,1.06,0,0,1-1.36-.33,3.25,3.25,0,0,1-.54-1c-.29-.85-.52-1.72-.77-2.58,0-.19-.12-.37-.21-.66-.14.2-.21.3-.27.4-.4.69-.81,1.37-1.18,2.07a160.75,160.75,0,0,0-8,17.88,75.83,75.83,0,0,0-3.22,11.21l-.77-.21.27-1.24a85.72,85.72,0,0,1,3-10.78c1.75-4.86,3.74-9.62,5.92-14.3a50.11,50.11,0,0,1,2.79-5.34,9.65,9.65,0,0,1,1.05-1.4C107.73,193.38,107.9,193.39,108.55,193.7Z" transform="translate(-81.95 -27.98)"/><path d="M93.86,234.07v0h0Z" transform="translate(-81.95 -27.98)"/></g><path class="cls-11" d="M117.84,93.59a133.09,133.09,0,0,0-2.6,21.79c-.57,14.22.82,28.46,2.88,42.54a150.7,150.7,0,0,0,5.11,24c2.47,7.76,6.25,14,10.69,20.66a3,3,0,0,0,.86,1c1,.6,2.36-.19,2.81-1.27a6.61,6.61,0,0,0,.09-3.45c-2.49-17.53,3.46-35.08,4.5-52.76,1.24-21.07-4.53-42-4.79-63.07a180.16,180.16,0,0,1,2.51-29.86c.42-2.73.87-5.45,1.19-8.19.2-1.77,1.39-6.93.27-8.43-2.15-2.88-7,7.81-7.8,9.44a132,132,0,0,0-7.19,16.94c-1.81,5.21-2.4,10.62-4.26,15.71A106.44,106.44,0,0,0,117.84,93.59Z" transform="translate(-81.95 -27.98)"/><path class="cls-11" d="M91.93,223.26c.12,1.2.62,2.76,1.83,2.72.85,0,1.41-.86,1.81-1.6,3.48-6.44,6.84-13.39,12.9-17.49s13.76-4.63,21.06-5A138.89,138.89,0,0,1,113,157.6c-.42-2.27-.5-4.54-.78-6.8-3.37,2.75-5.88,8.43-7.94,12.24a107.31,107.31,0,0,0-12.57,43.21A103.89,103.89,0,0,0,91.93,223.26Z" transform="translate(-81.95 -27.98)"/><path class="cls-11" d="M156.44,199.88c7.42-2.46,15.8.37,21.76,5.41s9.93,12,13.45,19c1.07-9-.29-18.13-1.72-27.1-2.07-13-4.48-26.46-12-37.27a45.38,45.38,0,0,0-4.29-5.38c-2.2-2.29-2.77-.72-3.36,1.83-1.16,4.93-2.28,9.86-3.67,14.74A242.52,242.52,0,0,1,156.44,199.88Z" transform="translate(-81.95 -27.98)"/><path class="cls-11" d="M137.33,216.44c.1,2.63.45,5.65,2.63,7.13a21.43,21.43,0,0,0,.65-4c1.16-12.05,2.33-24.18,1.52-36.29-.14-2.08.24-7.53-1-9.18-1.62-2.1-2.53.71-2.7,2.21-.69,6.2-.77,12.57-1,18.8C137.14,202.23,137.07,209.34,137.33,216.44Z" transform="translate(-81.95 -27.98)"/><path class="cls-11" d="M122.9,222.59a27.26,27.26,0,0,0-2.15,6.54,3,3,0,0,0,.1,1.65,3.07,3.07,0,0,0,1.22,1.23,25.23,25.23,0,0,0,10.44,3.51,45.51,45.51,0,0,0,27.68-5.08c-.91-1.63-3.17-1.75-5-1.66l-13.09.64c-1.78.08-3.88,0-4.91-1.43a5.11,5.11,0,0,1-.6-3.28c.17-3.27,3.46-21.9-2.09-21.62-2.64.13-5,4.31-6,6.32C126.42,213.68,124.76,218.22,122.9,222.59Z" transform="translate(-81.95 -27.98)"/><path class="cls-11" d="M161.38,140.33c-3.67.52-7.28,1.36-10.95,1.8a98,98,0,0,1-11.09.69,108.08,108.08,0,0,1-10.8-.61c-3.68-.36-7.47-.71-10.86-2.28a.58.58,0,0,0-.58,1c6.43,4,14.31,5,21.72,5.45a73.39,73.39,0,0,0,11.86-.27,47.49,47.49,0,0,0,11.65-2.32A1.8,1.8,0,0,0,161.38,140.33Z" transform="translate(-81.95 -27.98)"/><path class="cls-11" d="M149.77,137.8a118.25,118.25,0,0,1-16.93.65c-2.85-.14-5.69-.37-8.52-.77-2.65-.38-5.67-.39-7.88-2.11-.52-.41-1.25.26-.75.75,1.84,1.77,4.39,2.49,6.79,3.16a55.65,55.65,0,0,0,9.06,1.61,60.63,60.63,0,0,0,18.58-.71C151.55,140.09,151.26,137.66,149.77,137.8Z" transform="translate(-81.95 -27.98)"/><path class="cls-11" d="M149,129.32a14.85,14.85,0,0,0-2.48-.29c-.86,0-1.73.14-2.59.21a47,47,0,0,1-5.17.23,13.77,13.77,0,0,1-7.89-2.46,8.26,8.26,0,0,1-3.5-6.29c-.16-3.5,1-6.79,1.15-10.23a1.08,1.08,0,0,0-1.83-.76c-2.41,2.88-3.36,7.55-3.39,11.25a11.7,11.7,0,0,0,4.2,9.13,17.76,17.76,0,0,0,9.47,4,22,22,0,0,0,12.42-1.77C150.53,131.71,150.38,129.51,149,129.32Z" transform="translate(-81.95 -27.98)"/><path class="cls-11" d="M147.6,121.15c-2,0-13.59.66-12.36-3.44.48-1.6-1.61-2.19-2.49-1-2.45,3.2.49,6.91,3.56,8.13a20.08,20.08,0,0,0,11.88.68C150.59,124.9,150.09,121.09,147.6,121.15Z" transform="translate(-81.95 -27.98)"/><path class="cls-11" d="M146.17,85.91c-2.9-.13-7.24.48-9.28-2.16-1-1.35-1-3.08-1.07-4.69s-.36-3.26.61-4.55c.64-.84-.58-1.93-1.4-1.41A7.43,7.43,0,0,0,132,78.32c-.48,2.52-.58,5.36.68,7.69,2.72,5,9.2,5.43,14.14,4.41C149.41,89.87,148.66,86,146.17,85.91Z" transform="translate(-81.95 -27.98)"/><path class="cls-11" d="M151.13,97.41c-4.33.23-8.63,1.55-13,.69A16.92,16.92,0,0,1,125.56,76a18.84,18.84,0,0,1,2.57-4.83c1.08-1.53,2.92-2.71,3.75-4.36a.92.92,0,0,0-.79-1.37c-1.84.12-3.46,1.65-4.71,2.89a19.57,19.57,0,0,0-3.5,4.82,20.41,20.41,0,0,0-2.3,11.52,21.25,21.25,0,0,0,14.59,17.65,24.18,24.18,0,0,0,17-1.16C154,100.3,153.06,97.31,151.13,97.41Z" transform="translate(-81.95 -27.98)"/><path class="cls-11" d="M153.86,55.89c-2.59.18-5.06.75-7.61,1.13a42.06,42.06,0,0,1-7.35.43,53.6,53.6,0,0,1-7.38-.71c-2.52-.43-5.11-.81-7.58-1.43a.94.94,0,0,0-.72,1.7,29.8,29.8,0,0,0,7.33,3.23,40.44,40.44,0,0,0,8.11,1.29c5.26.31,11.38.13,16-2.56C156.05,58.18,155.53,55.77,153.86,55.89Z" transform="translate(-81.95 -27.98)"/><path class="cls-11" d="M158.51,150.72c-3.6.37-7,1.59-10.61,2.18a48.57,48.57,0,0,1-10.57.53A56.65,56.65,0,0,1,116.72,148a1.39,1.39,0,0,0-1.4,2.39,43,43,0,0,0,21.56,7.68,49.2,49.2,0,0,0,11.44-.3c3.79-.54,8-1.33,11.1-3.7C160.65,153.13,160.5,150.52,158.51,150.72Z" transform="translate(-81.95 -27.98)"/><path class="cls-11" d="M139.41,216.94q-.25-3.52-.44-7.05c-.23-4.69-.36-9.4-.39-14.1s0-9.4.09-14.11.32-9.32-.36-13.87c-.2-1.35-2.12-1.09-2.47,0-1.45,4.38-1.76,9.28-2.09,13.87s-.48,9.41-.48,14.11c0,2.57,0,5.15.11,7.72a1.49,1.49,0,0,0-1.84.9c-1.88,4.68-3.5,9.43-4.95,14.26q-1.08,3.6-2.1,7.22c-.63,2.23-1.8,4.91-.73,7.13a1.61,1.61,0,0,0,2.19.58c2-1.48,2.23-4.27,2.78-6.54q.89-3.66,1.84-7.3c1-3.86,2-7.71,3-11.59,0,.58,0,1.15.07,1.72q.17,3.53.4,7.05a26.82,26.82,0,0,0,1,7.09c.67,1.9,4,2.42,4.39,0A30.57,30.57,0,0,0,139.41,216.94Z" transform="translate(-81.95 -27.98)"/><path class="cls-11" d="M127.5,197.12c-3.44-12.62-12.13-24.15-11.93-37.62a2.12,2.12,0,0,0-1.18-2.09c0-1.06.08-2.12.11-3.17a1.21,1.21,0,0,0-2.36-.32c-.37,1.38-.69,2.77-1,4.17a2.51,2.51,0,0,0-.49,1.41c0,.4,0,.8,0,1.2a187.44,187.44,0,0,0-2.32,23.47,65.81,65.81,0,0,0-.14,7.16,7.55,7.55,0,0,0,2.53,5.78c1.7,1.35,3.8,1.59,5.87,1.91l7.82,1.19C126.24,200.49,128,199.13,127.5,197.12Zm-6.25-3.06.24.68-.47-.07A2.21,2.21,0,0,0,121.25,194.06Z" transform="translate(-81.95 -27.98)"/><path class="cls-11" d="M189.18,210.81a81.39,81.39,0,0,0-3.59-12.05,83.57,83.57,0,0,0-9.11-17.68c-.37-8.1-.81-16.19-1.24-24.29-.14-2.52-3.79-3.18-4.51-.61-1.56,5.6-3,11.21-4.4,16.86-.48,1.37-1,2.75-1.47,4.12a186.81,186.81,0,0,1-7.43,17.72,2.43,2.43,0,0,0,2.71,3.52l3.63-.75a2.3,2.3,0,0,0,3.5-.6c0-.05,0-.11.08-.16l6.23-1.34a3.82,3.82,0,0,0,3.36-4c0-.62,0-1.23,0-1.85,1.55,3.37,2.94,6.82,4.15,10.32a111.77,111.77,0,0,1,3.26,11.65c.92,4,1.42,8.08,2.78,11.95.45,1.29,2.74,1.65,3,0C190.77,219.3,190.05,215,189.18,210.81Z" transform="translate(-81.95 -27.98)"/></g></g></svg>