<svg xmlns="http://www.w3.org/2000/svg" viewBox="0 0 75.05 71.76"><defs><style>.cls-1{isolation:isolate;}.cls-2{fill:#a54e3a;}.cls-3{fill:#cc593a;}.cls-4{fill:#e2d2bc;mix-blend-mode:multiply;}.cls-5{fill:#be1e2d;}.cls-6{fill:#fff;}.cls-7{fill:#f4cd7f;}.cls-8{mix-blend-mode:hard-light;}.cls-10,.cls-100,.cls-101,.cls-102,.cls-103,.cls-104,.cls-105,.cls-106,.cls-107,.cls-108,.cls-109,.cls-11,.cls-110,.cls-111,.cls-112,.cls-113,.cls-114,.cls-115,.cls-116,.cls-117,.cls-118,.cls-119,.cls-12,.cls-120,.cls-121,.cls-122,.cls-123,.cls-124,.cls-125,.cls-126,.cls-127,.cls-128,.cls-129,.cls-13,.cls-130,.cls-131,.cls-132,.cls-133,.cls-134,.cls-135,.cls-136,.cls-137,.cls-138,.cls-139,.cls-14,.cls-140,.cls-141,.cls-142,.cls-143,.cls-144,.cls-145,.cls-146,.cls-147,.cls-148,.cls-149,.cls-15,.cls-150,.cls-151,.cls-16,.cls-17,.cls-18,.cls-19,.cls-20,.cls-21,.cls-22,.cls-23,.cls-24,.cls-25,.cls-26,.cls-27,.cls-28,.cls-29,.cls-30,.cls-31,.cls-32,.cls-33,.cls-34,.cls-35,.cls-36,.cls-37,.cls-38,.cls-39,.cls-40,.cls-41,.cls-42,.cls-43,.cls-44,.cls-45,.cls-46,.cls-47,.cls-48,.cls-49,.cls-50,.cls-51,.cls-52,.cls-53,.cls-54,.cls-55,.cls-56,.cls-57,.cls-58,.cls-59,.cls-60,.cls-61,.cls-62,.cls-63,.cls-64,.cls-65,.cls-66,.cls-67,.cls-68,.cls-69,.cls-70,.cls-71,.cls-72,.cls-73,.cls-74,.cls-75,.cls-76,.cls-77,.cls-78,.cls-79,.cls-80,.cls-81,.cls-82,.cls-83,.cls-84,.cls-85,.cls-86,.cls-87,.cls-88,.cls-89,.cls-9,.cls-90,.cls-92,.cls-93,.cls-94,.cls-95,.cls-96,.cls-97,.cls-98,.cls-99{fill:#f7941e;}.cls-9{opacity:0;}.cls-10{opacity:0.01;}.cls-11{opacity:0.02;}.cls-12{opacity:0.04;}.cls-13{opacity:0.05;}.cls-14{opacity:0.06;}.cls-15{opacity:0.07;}.cls-16{opacity:0.09;}.cls-17{opacity:0.1;}.cls-18{opacity:0.11;}.cls-19{opacity:0.12;}.cls-20{opacity:0.14;}.cls-21{opacity:0.15;}.cls-22{opacity:0.16;}.cls-23{opacity:0.17;}.cls-24{opacity:0.19;}.cls-25{opacity:0.2;}.cls-26{opacity:0.21;}.cls-27{opacity:0.22;}.cls-28{opacity:0.23;}.cls-29{opacity:0.25;}.cls-30{opacity:0.26;}.cls-31{opacity:0.27;}.cls-32{opacity:0.28;}.cls-33{opacity:0.3;}.cls-34{opacity:0.31;}.cls-35{opacity:0.32;}.cls-36{opacity:0.33;}.cls-37{opacity:0.35;}.cls-38{opacity:0.36;}.cls-39{opacity:0.37;}.cls-40{opacity:0.38;}.cls-41{opacity:0.4;}.cls-42{opacity:0.41;}.cls-43{opacity:0.42;}.cls-44{opacity:0.43;}.cls-45{opacity:0.44;}.cls-46{opacity:0.46;}.cls-47{opacity:0.47;}.cls-48{opacity:0.48;}.cls-49{opacity:0.49;}.cls-50{opacity:0.51;}.cls-51{opacity:0.52;}.cls-52{opacity:0.53;}.cls-53{opacity:0.54;}.cls-54{opacity:0.56;}.cls-55{opacity:0.57;}.cls-56{opacity:0.58;}.cls-57{opacity:0.59;}.cls-58{opacity:0.6;}.cls-59{opacity:0.62;}.cls-60{opacity:0.63;}.cls-61{opacity:0.64;}.cls-62{opacity:0.65;}.cls-63{opacity:0.67;}.cls-64{opacity:0.68;}.cls-65{opacity:0.69;}.cls-66{opacity:0.7;}.cls-67{opacity:0.72;}.cls-68{opacity:0.73;}.cls-69{opacity:0.74;}.cls-70{opacity:0.75;}.cls-71{opacity:0.77;}.cls-72{opacity:0.78;}.cls-73{opacity:0.79;}.cls-74{opacity:0.8;}.cls-75{opacity:0.81;}.cls-76{opacity:0.83;}.cls-77{opacity:0.84;}.cls-78{opacity:0.85;}.cls-79{opacity:0.86;}.cls-80{opacity:0.88;}.cls-81{opacity:0.89;}.cls-82{opacity:0.9;}.cls-83{opacity:0.91;}.cls-84{opacity:0.93;}.cls-85{opacity:0.94;}.cls-86{opacity:0.95;}.cls-87{opacity:0.96;}.cls-88{opacity:0.98;}.cls-89{opacity:0.99;}.cls-91{mix-blend-mode:color-dodge;}.cls-92{opacity:0.02;}.cls-93{opacity:0.03;}.cls-94{opacity:0.05;}.cls-95{opacity:0.07;}.cls-96{opacity:0.08;}.cls-97{opacity:0.1;}.cls-98{opacity:0.11;}.cls-99{opacity:0.13;}.cls-100{opacity:0.15;}.cls-101{opacity:0.16;}.cls-102{opacity:0.18;}.cls-103{opacity:0.2;}.cls-104{opacity:0.21;}.cls-105{opacity:0.23;}.cls-106{opacity:0.25;}.cls-107{opacity:0.26;}.cls-108{opacity:0.28;}.cls-109{opacity:0.3;}.cls-110{opacity:0.31;}.cls-111{opacity:0.33;}.cls-112{opacity:0.34;}.cls-113{opacity:0.36;}.cls-114{opacity:0.38;}.cls-115{opacity:0.39;}.cls-116{opacity:0.41;}.cls-117{opacity:0.43;}.cls-118{opacity:0.44;}.cls-119{opacity:0.46;}.cls-120{opacity:0.48;}.cls-121{opacity:0.49;}.cls-122{opacity:0.51;}.cls-123{opacity:0.52;}.cls-124{opacity:0.54;}.cls-125{opacity:0.56;}.cls-126{opacity:0.57;}.cls-127{opacity:0.59;}.cls-128{opacity:0.61;}.cls-129{opacity:0.62;}.cls-130{opacity:0.64;}.cls-131{opacity:0.66;}.cls-132{opacity:0.67;}.cls-133{opacity:0.69;}.cls-134{opacity:0.7;}.cls-135{opacity:0.72;}.cls-136{opacity:0.74;}.cls-137{opacity:0.75;}.cls-138{opacity:0.77;}.cls-139{opacity:0.79;}.cls-140{opacity:0.8;}.cls-141{opacity:0.82;}.cls-142{opacity:0.84;}.cls-143{opacity:0.85;}.cls-144{opacity:0.87;}.cls-145{opacity:0.89;}.cls-146{opacity:0.9;}.cls-147{opacity:0.92;}.cls-148{opacity:0.93;}.cls-149{opacity:0.95;}.cls-150{opacity:0.97;}.cls-151{opacity:0.98;}</style></defs><title>planeta2</title><g class="cls-1"><g id="Layer_1" data-name="Layer 1"><path class="cls-2" d="M116.58,118.58a22.22,22.22,0,0,1-40.85,12.13,22,22,0,0,1-3.5-10,20.8,20.8,0,0,1-.1-2.1A22.22,22.22,0,0,1,94.36,96.36h.74a22.2,22.2,0,0,1,21.48,22.21Z" transform="translate(-48.56 -89.63)"/><path class="cls-3" d="M90.21,136.94a5.86,5.86,0,0,0,.49,3.57,22.24,22.24,0,0,1-18.47-19.83,20.81,20.81,0,0,0,4,.2,5,5,0,0,1,3.13.82c1.13.92,1.38,2.57,2.35,3.65,1.49,1.65,4.09,1.5,6.1,2.44A6,6,0,0,1,91,134.13C90.81,135.09,90.39,136,90.21,136.94Z" transform="translate(-48.56 -89.63)"/><path class="cls-3" d="M116.43,116c-1.1.23-2,3.45-3.13,3.6-3,.37-3.46,8.43-5,11-1-3.25-5.52-14.58-8.76-15.58-2.31-.71-5.25-.92-6.22-3.13-1.08-2.46,1.29-5.72-.37-7.84-.74-1-2.23-1.56-2.15-2.77a2.59,2.59,0,0,1,.91-1.5c1.12-1.13,2.25-2.26,3.37-3.4A22.24,22.24,0,0,1,116.43,116Z" transform="translate(-48.56 -89.63)"/><path class="cls-4" d="M116.58,118.58a22.22,22.22,0,0,1-40.85,12.13c4.14,1.34,18.46,4.76,30.15-6.92a36.59,36.59,0,0,0,8.79-14.24,22.19,22.19,0,0,1,1.91,9Z" transform="translate(-48.56 -89.63)"/><polygon class="cls-5" points="12.72 48.8 12.72 46.27 17.22 47.53 12.72 48.8"/><rect class="cls-6" x="12.52" y="46.27" width="0.4" height="5.07"/><path class="cls-7" d="M69.67,148.89a8.39,8.39,0,0,1-6.86,8.26,8.49,8.49,0,0,1-3.07,0,8.25,8.25,0,0,1-3.45-1.5,8.4,8.4,0,1,1,12.54-10.42A8.3,8.3,0,0,1,69.67,148.89Z" transform="translate(-48.56 -89.63)"/><circle class="cls-3" cx="12.72" cy="54.97" r="2.1"/><path class="cls-3" d="M62.9,156.6a1.67,1.67,0,0,1-.09.55,8.49,8.49,0,0,1-3.07,0,1.68,1.68,0,0,1-.1-.55,1.63,1.63,0,1,1,3.26,0Z" transform="translate(-48.56 -89.63)"/><path class="cls-3" d="M57.91,148.89a1.37,1.37,0,1,1-1.37-1.37A1.37,1.37,0,0,1,57.91,148.89Z" transform="translate(-48.56 -89.63)"/><path class="cls-3" d="M67.64,151a.68.68,0,0,1-.68.69.69.69,0,1,1,0-1.38A.68.68,0,0,1,67.64,151Z" transform="translate(-48.56 -89.63)"/><path class="cls-3" d="M62.65,149.58a.69.69,0,0,1-1.38,0,.69.69,0,1,1,1.38,0Z" transform="translate(-48.56 -89.63)"/><path class="cls-4" d="M69.67,148.89a8.39,8.39,0,0,1-6.86,8.26,8.49,8.49,0,0,1-3.07,0,8.25,8.25,0,0,1-3.45-1.5c.43.32,2.57-.26,3.08-.35a11.2,11.2,0,0,0,3.39-1.13,13.1,13.1,0,0,0,4.32-3.86,8.59,8.59,0,0,0,1.24-2.26c.22-.6.81-2.22.51-2.82A8.3,8.3,0,0,1,69.67,148.89Z" transform="translate(-48.56 -89.63)"/><g class="cls-8"><path class="cls-9" d="M123.6,118.88a29.22,29.22,0,0,1-29.24,29.24c-.8,0-1.59,0-2.36-.09a29.1,29.1,0,0,1-18.68-8.84h0A29.08,29.08,0,0,1,65.39,123a28.78,28.78,0,0,1-.28-4.07,29.25,29.25,0,1,1,58.49,0Z" transform="translate(-48.56 -89.63)"/><path class="cls-10" d="M123.24,118.88a28.87,28.87,0,0,1-28.88,28.88c-.79,0-1.57,0-2.33-.09a29.09,29.09,0,0,1-18.45-8.73h0a28.81,28.81,0,0,1-7.82-16,28.08,28.08,0,0,1-.28-4,28.89,28.89,0,0,1,57.46-4.25A28.35,28.35,0,0,1,123.24,118.88Z" transform="translate(-48.56 -89.63)"/><path class="cls-11" d="M122.88,118.88A28.5,28.5,0,0,1,94.36,147.4q-1.17,0-2.31-.09a28.7,28.7,0,0,1-18.21-8.62h0a28.46,28.46,0,0,1-7.72-15.84,27.38,27.38,0,0,1-.28-4,28.53,28.53,0,0,1,56.74-4.2A27.68,27.68,0,0,1,122.88,118.88Z" transform="translate(-48.56 -89.63)"/><path class="cls-12" d="M122.52,118.88A28.15,28.15,0,0,1,94.36,147q-1.15,0-2.28-.09a28.37,28.37,0,0,1-18-8.51h0a28.18,28.18,0,1,1,48.43-19.56Z" transform="translate(-48.56 -89.63)"/><path class="cls-13" d="M122.16,118.88a27.81,27.81,0,0,1-27.8,27.8q-1.14,0-2.25-.09a28,28,0,0,1-17.75-8.4h0a27.75,27.75,0,0,1-7.53-15.44,27.81,27.81,0,0,1,4.61-19.6,27.8,27.8,0,0,1,50.73,15.73Z" transform="translate(-48.56 -89.63)"/><path class="cls-14" d="M121.8,118.88a27.44,27.44,0,0,1-27.44,27.44q-1.12,0-2.22-.09a27.65,27.65,0,0,1-17.52-8.29h0a27.37,27.37,0,0,1-7.43-15.24,26.84,26.84,0,0,1-.27-3.82,27.44,27.44,0,0,1,54.59-4A27,27,0,0,1,121.8,118.88Z" transform="translate(-48.56 -89.63)"/><path class="cls-15" d="M121.44,118.88A27.09,27.09,0,0,1,94.36,146q-1.11,0-2.19-.09a27.27,27.27,0,0,1-17.29-8.18h0a27,27,0,0,1-7.33-15,26,26,0,0,1-.27-3.77,27.09,27.09,0,0,1,53.88-4A27.42,27.42,0,0,1,121.44,118.88Z" transform="translate(-48.56 -89.63)"/><path class="cls-16" d="M121.08,118.88A26.74,26.74,0,0,1,94.36,145.6q-1.1,0-2.16-.09a26.94,26.94,0,0,1-17.07-8.07h0a26.66,26.66,0,0,1-7.24-14.84,26.92,26.92,0,0,1-.25-3.72,26.72,26.72,0,1,1,53.44,0Z" transform="translate(-48.56 -89.63)"/><path class="cls-17" d="M120.71,118.88a26.34,26.34,0,0,1-26.35,26.36q-1.08,0-2.13-.09a26.65,26.65,0,0,1-16.84-8h0a26.38,26.38,0,1,1,45.32-18.31Z" transform="translate(-48.56 -89.63)"/><path class="cls-18" d="M120.35,118.88a26,26,0,0,1-26,26c-.71,0-1.41,0-2.1-.08a26.25,26.25,0,0,1-16.61-7.85h0a25.93,25.93,0,0,1-7-14.43,25.39,25.39,0,0,1-.25-3.62,26,26,0,0,1,51.71-3.82A25.26,25.26,0,0,1,120.35,118.88Z" transform="translate(-48.56 -89.63)"/><path class="cls-19" d="M120,118.88a25.63,25.63,0,0,1-25.63,25.63c-.7,0-1.39,0-2.07-.08a25.86,25.86,0,0,1-16.38-7.74h0A25.52,25.52,0,0,1,69,122.45a24.8,24.8,0,0,1-.25-3.57,25.64,25.64,0,0,1,51-3.77A26,26,0,0,1,120,118.88Z" transform="translate(-48.56 -89.63)"/><path class="cls-20" d="M119.63,118.88a25.26,25.26,0,0,1-25.27,25.27c-.69,0-1.37,0-2-.08a25.44,25.44,0,0,1-16.15-7.64h0a25.22,25.22,0,0,1-6.85-14,25.59,25.59,0,0,1-.24-3.52,25.28,25.28,0,1,1,50.55,0Z" transform="translate(-48.56 -89.63)"/><path class="cls-21" d="M119.27,118.88a24.9,24.9,0,0,1-24.91,24.91c-.68,0-1.35,0-2-.08a25.11,25.11,0,0,1-15.92-7.53h0a24.91,24.91,0,1,1,42.57-21A24.44,24.44,0,0,1,119.27,118.88Z" transform="translate(-48.56 -89.63)"/><path class="cls-22" d="M118.91,118.88a24.55,24.55,0,0,1-24.55,24.55c-.67,0-1.33,0-2-.08a24.7,24.7,0,0,1-15.68-7.42h0A24.43,24.43,0,0,1,70,122.3,24.53,24.53,0,0,1,74.11,105a24.55,24.55,0,0,1,44.53,10.28A23.87,23.87,0,0,1,118.91,118.88Z" transform="translate(-48.56 -89.63)"/><path class="cls-23" d="M118.55,118.88a24.19,24.19,0,0,1-24.19,24.19c-.66,0-1.31,0-2-.08A24.37,24.37,0,0,1,77,135.68h0a24.14,24.14,0,0,1-6.55-13.43,23.45,23.45,0,0,1-.24-3.37,24.2,24.2,0,0,1,48.13-3.56A24.55,24.55,0,0,1,118.55,118.88Z" transform="translate(-48.56 -89.63)"/><path class="cls-24" d="M118.19,118.88a23.84,23.84,0,0,1-23.83,23.83c-.65,0-1.29,0-1.93-.08a24,24,0,0,1-15.22-7.2h0a23.87,23.87,0,0,1-6.46-13.23,24.36,24.36,0,0,1-.23-3.32,23.84,23.84,0,0,1,47.41-3.51A24,24,0,0,1,118.19,118.88Z" transform="translate(-48.56 -89.63)"/><path class="cls-25" d="M117.83,118.88a23.47,23.47,0,0,1-23.47,23.47c-.64,0-1.27,0-1.9-.08a23.65,23.65,0,0,1-15-7.09h0a23.47,23.47,0,1,1,40.1-19.75A23.06,23.06,0,0,1,117.83,118.88Z" transform="translate(-48.56 -89.63)"/><path class="cls-26" d="M117.46,118.88A23.1,23.1,0,0,1,94.36,142c-.63,0-1.25,0-1.87-.08a23.27,23.27,0,0,1-14.76-7h0a23.11,23.11,0,1,1,39.49-19.45A23.77,23.77,0,0,1,117.46,118.88Z" transform="translate(-48.56 -89.63)"/><path class="cls-27" d="M117.1,118.88a22.75,22.75,0,0,1-22.74,22.75c-.62,0-1.23,0-1.84-.08A22.89,22.89,0,0,1,78,134.68h0a22.7,22.7,0,0,1-6.16-12.63,22.21,22.21,0,0,1-.22-3.17,22.75,22.75,0,0,1,45.25-3.35A23.07,23.07,0,0,1,117.1,118.88Z" transform="translate(-48.56 -89.63)"/><path class="cls-28" d="M116.74,118.88a22.36,22.36,0,0,1-22.38,22.38c-.61,0-1.21,0-1.81-.07a22.5,22.5,0,0,1-14.3-6.76h0A22.26,22.26,0,0,1,72.19,122a21.42,21.42,0,0,1-.22-3.12,22.39,22.39,0,1,1,44.77,0Z" transform="translate(-48.56 -89.63)"/><path class="cls-29" d="M116.38,118.88a22,22,0,0,1-22,22c-.6,0-1.2,0-1.78-.07a22.22,22.22,0,0,1-14.07-6.65h0a22,22,0,0,1-6-12.23,22.3,22.3,0,0,1-.21-3.07,22,22,0,0,1,43.81-3.24A21.68,21.68,0,0,1,116.38,118.88Z" transform="translate(-48.56 -89.63)"/><path class="cls-30" d="M116,118.88a21.66,21.66,0,0,1-21.66,21.66c-.59,0-1.18,0-1.75-.07a21.84,21.84,0,0,1-13.84-6.54h0a21.67,21.67,0,1,1,37-18.24A22.39,22.39,0,0,1,116,118.88Z" transform="translate(-48.56 -89.63)"/><path class="cls-31" d="M115.66,118.88a21.29,21.29,0,0,1-21.3,21.3c-.58,0-1.16,0-1.72-.07A21.45,21.45,0,0,1,79,133.68h0a21.2,21.2,0,0,1-5.77-11.82,20.87,20.87,0,0,1-.21-3,21.31,21.31,0,0,1,42.38-3.13A21.45,21.45,0,0,1,115.66,118.88Z" transform="translate(-48.56 -89.63)"/><path class="cls-32" d="M115.3,118.88a20.94,20.94,0,0,1-20.94,20.94c-.57,0-1.14,0-1.69-.07a21.08,21.08,0,0,1-13.38-6.33h0a20.82,20.82,0,0,1-5.67-11.62,20.17,20.17,0,0,1-.21-2.92,20.95,20.95,0,0,1,41.89,0Z" transform="translate(-48.56 -89.63)"/><path class="cls-33" d="M114.94,118.88a20.6,20.6,0,0,1-20.58,20.58c-.56,0-1.12,0-1.66-.07a20.7,20.7,0,0,1-13.15-6.22h0A20.52,20.52,0,0,1,74,121.75a21,21,0,0,1-.2-2.87,20.59,20.59,0,0,1,41-3A21.61,21.61,0,0,1,114.94,118.88Z" transform="translate(-48.56 -89.63)"/><path class="cls-34" d="M114.58,118.88A20.23,20.23,0,0,1,94.36,139.1c-.55,0-1.1,0-1.64-.07a20.37,20.37,0,0,1-12.91-6.11h0a20.22,20.22,0,1,1,34.55-17A20.65,20.65,0,0,1,114.58,118.88Z" transform="translate(-48.56 -89.63)"/><path class="cls-35" d="M114.22,118.88a19.88,19.88,0,0,1-19.86,19.86c-.54,0-1.08,0-1.61-.07a20,20,0,0,1-12.68-6h0a19.75,19.75,0,0,1-5.38-11,19.29,19.29,0,0,1-.19-2.76A19.86,19.86,0,0,1,114,116,20.07,20.07,0,0,1,114.22,118.88Z" transform="translate(-48.56 -89.63)"/><path class="cls-36" d="M113.85,118.88a19.5,19.5,0,0,1-19.49,19.5c-.53,0-1.06,0-1.58-.07a19.63,19.63,0,0,1-12.45-5.89h0a19.37,19.37,0,0,1-5.28-10.83,18.59,18.59,0,0,1-.19-2.71,19.44,19.44,0,0,1,3.41-11,19.71,19.71,0,0,1,9.11-7.19,19.49,19.49,0,0,1,26.47,18.22Z" transform="translate(-48.56 -89.63)"/><path class="cls-37" d="M113.49,118.88A19.12,19.12,0,0,1,94.36,138c-.52,0-1,0-1.55-.06a19.24,19.24,0,0,1-12.22-5.78h0a19.1,19.1,0,0,1-5.19-10.63,19.48,19.48,0,0,1-.18-2.66,19.14,19.14,0,0,1,38.07-2.82A20.13,20.13,0,0,1,113.49,118.88Z" transform="translate(-48.56 -89.63)"/><path class="cls-38" d="M113.13,118.88a18.77,18.77,0,0,1-18.77,18.77c-.51,0-1,0-1.52-.06a18.86,18.86,0,0,1-12-5.67h0a18.78,18.78,0,1,1,32.08-15.8A19.28,19.28,0,0,1,113.13,118.88Z" transform="translate(-48.56 -89.63)"/><path class="cls-39" d="M112.77,118.88a18.42,18.42,0,0,1-18.41,18.41c-.5,0-1,0-1.49-.06a18.48,18.48,0,0,1-11.76-5.56h0a18.34,18.34,0,0,1-5-10.23,18,18,0,0,1-.18-2.56,18.41,18.41,0,0,1,36.63-2.71A18.59,18.59,0,0,1,112.77,118.88Z" transform="translate(-48.56 -89.63)"/><path class="cls-40" d="M112.41,118.88a18,18,0,0,1-18,18.05c-.49,0-1,0-1.46-.06a18.19,18.19,0,0,1-11.53-5.45h0a18,18,0,0,1-4.89-10,17.35,17.35,0,0,1-.18-2.51,18.06,18.06,0,0,1,35.92-2.66A19.48,19.48,0,0,1,112.41,118.88Z" transform="translate(-48.56 -89.63)"/><path class="cls-41" d="M112.05,118.88a17.69,17.69,0,0,1-17.69,17.69c-.48,0-1,0-1.43-.06a17.81,17.81,0,0,1-11.3-5.34h0a17.66,17.66,0,0,1-4.8-9.83,18.15,18.15,0,0,1-.17-2.46,17.7,17.7,0,0,1,35.2-2.6A18.5,18.5,0,0,1,112.05,118.88Z" transform="translate(-48.56 -89.63)"/><path class="cls-42" d="M111.69,118.88a17.32,17.32,0,0,1-17.33,17.33c-.47,0-.94,0-1.4-.06a17.43,17.43,0,0,1-11.07-5.23h0a17.33,17.33,0,1,1,29.61-14.59A17.79,17.79,0,0,1,111.69,118.88Z" transform="translate(-48.56 -89.63)"/><path class="cls-43" d="M111.33,118.88a17,17,0,0,1-17,17c-.46,0-.92,0-1.37-.06a17.1,17.1,0,0,1-10.84-5.12h0a16.91,16.91,0,0,1-4.6-9.42,16.86,16.86,0,0,1,2.81-12,17,17,0,0,1,30.78,7.1A17.21,17.21,0,0,1,111.33,118.88Z" transform="translate(-48.56 -89.63)"/><path class="cls-44" d="M111,118.88a16.63,16.63,0,0,1-16.61,16.61c-.46,0-.9,0-1.34-.06a16.67,16.67,0,0,1-10.61-5h0a16.49,16.49,0,0,1-4.5-9.22,16,16,0,0,1-.16-2.31,16.61,16.61,0,0,1,33-2.44A17.73,17.73,0,0,1,111,118.88Z" transform="translate(-48.56 -89.63)"/><path class="cls-45" d="M110.6,118.88a16.24,16.24,0,0,1-16.24,16.25c-.45,0-.88,0-1.32-.06a16.29,16.29,0,0,1-10.37-4.91h0a16.22,16.22,0,0,1-4.41-9,16.82,16.82,0,0,1-.15-2.26,16.25,16.25,0,0,1,32.32-2.39A17.13,17.13,0,0,1,110.6,118.88Z" transform="translate(-48.56 -89.63)"/><path class="cls-46" d="M110.24,118.88a15.87,15.87,0,0,1-15.88,15.88c-.44,0-.86,0-1.29,0a16,16,0,0,1-10.14-4.8h0a15.81,15.81,0,0,1-4.31-8.82,16.08,16.08,0,0,1-.15-2.21A15.86,15.86,0,0,1,88.68,104,15.7,15.7,0,0,1,94.36,103a15.88,15.88,0,0,1,15.71,13.55A15,15,0,0,1,110.24,118.88Z" transform="translate(-48.56 -89.63)"/><path class="cls-47" d="M109.88,118.88A15.52,15.52,0,0,1,94.36,134.4c-.43,0-.84,0-1.26-.05a15.62,15.62,0,0,1-9.91-4.69h0a15.53,15.53,0,0,1-1.64-19.57,15.51,15.51,0,0,1,28.33,8.79Z" transform="translate(-48.56 -89.63)"/><path class="cls-48" d="M109.52,118.88A15.15,15.15,0,0,1,94.36,134c-.42,0-.82,0-1.23,0a15.24,15.24,0,0,1-9.68-4.58h0A15.05,15.05,0,0,1,79.34,121a14.76,14.76,0,0,1-.15-2.11,15.19,15.19,0,0,1,9.74-14.17,15.18,15.18,0,0,1,20.43,11.94A14.91,14.91,0,0,1,109.52,118.88Z" transform="translate(-48.56 -89.63)"/><path class="cls-49" d="M109.16,118.88a14.8,14.8,0,0,1-14.8,14.8,11.91,11.91,0,0,1-1.2-.05,14.86,14.86,0,0,1-9.45-4.47h0a14.78,14.78,0,0,1-4-8.22,15.49,15.49,0,0,1-.14-2.06A14.81,14.81,0,0,1,109,116.7,14.25,14.25,0,0,1,109.16,118.88Z" transform="translate(-48.56 -89.63)"/><path class="cls-50" d="M108.8,118.88a14.45,14.45,0,0,1-14.44,14.44c-.4,0-.79,0-1.17,0A14.48,14.48,0,0,1,84,128.91h0a14.4,14.4,0,0,1-3.92-8,14.86,14.86,0,0,1-.14-2,14.44,14.44,0,0,1,28.73-2.13A13.7,13.7,0,0,1,108.8,118.88Z" transform="translate(-48.56 -89.63)"/><path class="cls-51" d="M108.44,118.88A14.07,14.07,0,0,1,94.36,133c-.39,0-.77,0-1.14-.05a14.14,14.14,0,0,1-9-4.25h0a14.07,14.07,0,0,1-1.49-17.75,14.22,14.22,0,0,1,6.58-5.19,14.07,14.07,0,0,1,19.12,13.16Z" transform="translate(-48.56 -89.63)"/><path class="cls-52" d="M108.08,118.88A13.72,13.72,0,0,1,94.36,132.6c-.38,0-.75,0-1.11,0a13.81,13.81,0,0,1-8.76-4.14h0a13.73,13.73,0,0,1-3.71-7.62,13.42,13.42,0,0,1-.14-1.91,13.75,13.75,0,0,1,8.82-12.82,13.74,13.74,0,0,1,18.48,10.8A13.43,13.43,0,0,1,108.08,118.88Z" transform="translate(-48.56 -89.63)"/><path class="cls-53" d="M107.72,118.88a13.39,13.39,0,0,1-13.36,13.36c-.37,0-.73,0-1.08-.05a13.43,13.43,0,0,1-8.53-4h0a13.39,13.39,0,0,1-3.62-7.42,14.29,14.29,0,0,1-.12-1.86,13.36,13.36,0,0,1,26.57-2A12.78,12.78,0,0,1,107.72,118.88Z" transform="translate(-48.56 -89.63)"/><path class="cls-54" d="M107.35,118.88a13,13,0,0,1-13,13c-.36,0-.71,0-1,0A13.14,13.14,0,0,1,85,127.91h0a13,13,0,0,1-3.52-7.22,13.53,13.53,0,0,1-.12-1.81A13,13,0,0,1,107.21,117,12,12,0,0,1,107.35,118.88Z" transform="translate(-48.56 -89.63)"/><path class="cls-55" d="M107,118.88a12.64,12.64,0,0,1-12.63,12.64c-.35,0-.69,0-1-.05a12.74,12.74,0,0,1-8.08-3.81h0a12.63,12.63,0,0,1-3.42-7,12.9,12.9,0,0,1-.12-1.76,12.64,12.64,0,1,1,25.27,0Z" transform="translate(-48.56 -89.63)"/><path class="cls-56" d="M106.63,118.88a12.25,12.25,0,0,1-12.27,12.27c-.34,0-.67,0-1,0a12.35,12.35,0,0,1-7.85-3.7h0a12.29,12.29,0,0,1-1.29-15.47,12.28,12.28,0,0,1,22.27,5.14A12,12,0,0,1,106.63,118.88Z" transform="translate(-48.56 -89.63)"/><path class="cls-57" d="M106.27,118.88a11.9,11.9,0,0,1-11.91,11.91c-.33,0-.65,0-1,0a12,12,0,0,1-7.61-3.6h0a11.84,11.84,0,0,1-3.22-6.61,11.48,11.48,0,0,1-.12-1.66,11.91,11.91,0,0,1,23.7-1.75A11.18,11.18,0,0,1,106.27,118.88Z" transform="translate(-48.56 -89.63)"/><path class="cls-58" d="M105.91,118.88a11.55,11.55,0,0,1-11.55,11.55c-.32,0-.63,0-.94,0A11.65,11.65,0,0,1,86,126.9h0a11.58,11.58,0,0,1-3.13-6.41,12.32,12.32,0,0,1-.11-1.61,11.49,11.49,0,0,1,2-6.54,11.56,11.56,0,0,1,21,4.84A11.83,11.83,0,0,1,105.91,118.88Z" transform="translate(-48.56 -89.63)"/><path class="cls-59" d="M105.55,118.88a11.18,11.18,0,0,1-11.19,11.19,9.1,9.1,0,0,1-.91,0,11.26,11.26,0,0,1-7.15-3.38h0a11.13,11.13,0,0,1-3-6.21,11.46,11.46,0,0,1-.11-1.56,11.2,11.2,0,1,1,22.39,0Z" transform="translate(-48.56 -89.63)"/><path class="cls-60" d="M105.19,118.88a10.83,10.83,0,0,1-10.83,10.83,8.51,8.51,0,0,1-.88,0,10.88,10.88,0,0,1-6.92-3.27h0a10.83,10.83,0,1,1,18.51-9.11A10.35,10.35,0,0,1,105.19,118.88Z" transform="translate(-48.56 -89.63)"/><path class="cls-61" d="M104.83,118.88a10.48,10.48,0,0,1-10.47,10.47c-.29,0-.57,0-.85,0a10.56,10.56,0,0,1-6.69-3.17h0A10.4,10.4,0,0,1,84,120.34a10.14,10.14,0,0,1-.11-1.46,10.47,10.47,0,0,1,20.83-1.54A9.7,9.7,0,0,1,104.83,118.88Z" transform="translate(-48.56 -89.63)"/><path class="cls-62" d="M104.47,118.88A10.11,10.11,0,0,1,94.36,129c-.28,0-.55,0-.82,0a10.23,10.23,0,0,1-6.46-3.06h0a10.13,10.13,0,0,1-2.74-5.61,10.89,10.89,0,0,1-.09-1.41,10.11,10.11,0,0,1,20.11-1.49A10.45,10.45,0,0,1,104.47,118.88Z" transform="translate(-48.56 -89.63)"/><path class="cls-63" d="M104.1,118.88a9.75,9.75,0,0,1-9.74,9.75c-.27,0-.53,0-.79,0a9.89,9.89,0,0,1-6.23-2.95h0a9.79,9.79,0,0,1-2.64-5.41,10.24,10.24,0,0,1-.09-1.36,9.75,9.75,0,0,1,6.26-9.11,9.72,9.72,0,0,1,13.23,9.11Z" transform="translate(-48.56 -89.63)"/><path class="cls-64" d="M103.74,118.88a9.4,9.4,0,0,1-9.38,9.39c-.26,0-.51,0-.76,0a9.51,9.51,0,0,1-6-2.84h0a9.37,9.37,0,0,1-2.54-5.21,9.5,9.5,0,0,1-.09-1.31,9.39,9.39,0,0,1,18.67-1.38A9,9,0,0,1,103.74,118.88Z" transform="translate(-48.56 -89.63)"/><path class="cls-65" d="M103.38,118.88a9,9,0,0,1-9,9l-.73,0a9.18,9.18,0,0,1-5.77-2.73h0a9,9,0,0,1-2.44-5,9,9,0,0,1,1.49-6.37,9,9,0,0,1,16.38,3.78A9.69,9.69,0,0,1,103.38,118.88Z" transform="translate(-48.56 -89.63)"/><path class="cls-66" d="M103,118.88a8.66,8.66,0,0,1-8.66,8.66l-.7,0a8.79,8.79,0,0,1-5.54-2.62h0a8.69,8.69,0,0,1-2.35-4.82,9.42,9.42,0,0,1-.08-1.2,8.67,8.67,0,0,1,17.24-1.28A9,9,0,0,1,103,118.88Z" transform="translate(-48.56 -89.63)"/><path class="cls-67" d="M102.66,118.88a8.31,8.31,0,0,1-8.3,8.3l-.67,0a8.41,8.41,0,0,1-5.31-2.51h0A8.34,8.34,0,0,1,86.13,120a8.65,8.65,0,0,1-.08-1.15,8.3,8.3,0,0,1,16.52-1.22A8,8,0,0,1,102.66,118.88Z" transform="translate(-48.56 -89.63)"/><path class="cls-68" d="M102.3,118.88a7.94,7.94,0,0,1-7.94,7.94l-.65,0a8,8,0,0,1-5.07-2.4h0A7.87,7.87,0,0,1,86.49,120a7.91,7.91,0,0,1,5-8.52,7.92,7.92,0,0,1,10.69,6.25A7.49,7.49,0,0,1,102.3,118.88Z" transform="translate(-48.56 -89.63)"/><path class="cls-69" d="M101.94,118.88a7.59,7.59,0,0,1-7.58,7.58l-.62,0a7.71,7.71,0,0,1-4.84-2.3h0a7.46,7.46,0,0,1-2.05-4.21,7.2,7.2,0,0,1-.08-1.05,7.54,7.54,0,0,1,1.33-4.29,7.55,7.55,0,0,1,6.26-3.3,7.59,7.59,0,0,1,7.5,6.47A8.32,8.32,0,0,1,101.94,118.88Z" transform="translate(-48.56 -89.63)"/><path class="cls-70" d="M101.58,118.88a7.24,7.24,0,0,1-7.22,7.22l-.59,0a7.32,7.32,0,0,1-4.61-2.19h0a7.25,7.25,0,0,1-2-4,8.26,8.26,0,0,1-.07-1,7.18,7.18,0,0,1,1.27-4.09,7.32,7.32,0,0,1,3.37-2.66,7.24,7.24,0,0,1,9.73,5.69A7.34,7.34,0,0,1,101.58,118.88Z" transform="translate(-48.56 -89.63)"/><path class="cls-71" d="M101.22,118.88a6.86,6.86,0,0,1-6.86,6.86l-.56,0a6.94,6.94,0,0,1-4.38-2.08h0a6.9,6.9,0,0,1-1.86-3.81,7.46,7.46,0,0,1-.06-1,6.87,6.87,0,0,1,4.4-6.41,6.87,6.87,0,0,1,9.24,5.4A6.66,6.66,0,0,1,101.22,118.88Z" transform="translate(-48.56 -89.63)"/><path class="cls-72" d="M100.86,118.88a6.51,6.51,0,0,1-6.5,6.5l-.53,0a6.56,6.56,0,0,1-4.15-2h0a6.43,6.43,0,0,1-1.76-3.61,6.69,6.69,0,0,1-.06-.9,6.5,6.5,0,0,1,12.93-1A7.48,7.48,0,0,1,100.86,118.88Z" transform="translate(-48.56 -89.63)"/><path class="cls-73" d="M100.49,118.88A6.13,6.13,0,0,1,94.36,125l-.5,0a6.2,6.2,0,0,1-3.92-1.86h0a6.08,6.08,0,0,1-1.66-3.41,6,6,0,0,1-.06-.85,6.07,6.07,0,0,1,1.07-3.47A6.14,6.14,0,0,1,100.43,118,6.58,6.58,0,0,1,100.49,118.88Z" transform="translate(-48.56 -89.63)"/><path class="cls-74" d="M100.13,118.88a5.77,5.77,0,0,1-5.77,5.77h-.47a5.82,5.82,0,0,1-3.69-1.75h0a5.81,5.81,0,0,1-1.57-3.21,7,7,0,0,1,0-.8,5.73,5.73,0,0,1,1-3.27,5.79,5.79,0,0,1,2.7-2.13,5.68,5.68,0,0,1,2.07-.38,5.77,5.77,0,0,1,5.71,4.93A6,6,0,0,1,100.13,118.88Z" transform="translate(-48.56 -89.63)"/><path class="cls-75" d="M99.77,118.88a5.42,5.42,0,0,1-5.41,5.41h-.44a5.48,5.48,0,0,1-3.46-1.64h0a5.36,5.36,0,0,1-1.47-3,6.16,6.16,0,0,1,0-.75,5.41,5.41,0,0,1,10.77-.8A5.29,5.29,0,0,1,99.77,118.88Z" transform="translate(-48.56 -89.63)"/><path class="cls-76" d="M99.41,118.88a5,5,0,0,1-5,5.05H94a5.1,5.1,0,0,1-3.23-1.53h0a5,5,0,0,1-1.37-2.81,5.36,5.36,0,0,1,0-.7,5,5,0,0,1,.89-2.86,5.09,5.09,0,0,1,4.17-2.2,5.05,5.05,0,0,1,5,4.31A6.16,6.16,0,0,1,99.41,118.88Z" transform="translate(-48.56 -89.63)"/><path class="cls-77" d="M99.05,118.88a4.69,4.69,0,0,1-4.69,4.69H94a4.77,4.77,0,0,1-3-1.42h0a4.7,4.7,0,0,1-1.27-2.61,4.62,4.62,0,0,1,0-.65,4.68,4.68,0,0,1,3-4.39,4.64,4.64,0,0,1,1.68-.31,4.7,4.7,0,0,1,4.64,4A5.09,5.09,0,0,1,99.05,118.88Z" transform="translate(-48.56 -89.63)"/><path class="cls-78" d="M98.69,118.88a4.34,4.34,0,0,1-4.33,4.33H94a4.39,4.39,0,0,1-2.77-1.31h0a4.37,4.37,0,0,1-1.18-2.41c0-.2,0-.4,0-.6a4.29,4.29,0,0,1,.76-2.45,4.36,4.36,0,0,1,3.58-1.89,4.34,4.34,0,0,1,4.28,3.7A4.48,4.48,0,0,1,98.69,118.88Z" transform="translate(-48.56 -89.63)"/><path class="cls-79" d="M98.33,118.88a4,4,0,0,1-4,4H94a4,4,0,0,1-2.54-1.2h0a4,4,0,0,1-1.08-2.21,4.91,4.91,0,0,1,0-.55,4,4,0,0,1,7.9-.59A3.81,3.81,0,0,1,98.33,118.88Z" transform="translate(-48.56 -89.63)"/><path class="cls-80" d="M98,118.88a3.62,3.62,0,0,1-3.61,3.61h-.3a3.72,3.72,0,0,1-2.3-1.09h0a3.64,3.64,0,0,1-1-2,4,4,0,0,1,0-.5,3.64,3.64,0,0,1,.64-2,3.54,3.54,0,0,1,3-1.56,3.61,3.61,0,0,1,3.57,3.08A4.55,4.55,0,0,1,98,118.88Z" transform="translate(-48.56 -89.63)"/><path class="cls-81" d="M97.61,118.88a3.18,3.18,0,0,1-.5,1.72,3.23,3.23,0,0,1-2.75,1.53h-.27a3.3,3.3,0,0,1-2.07-1h0a3.14,3.14,0,0,1-.88-1.8,3.4,3.4,0,0,1,0-.45,3.25,3.25,0,0,1,6.46-.48A3.88,3.88,0,0,1,97.61,118.88Z" transform="translate(-48.56 -89.63)"/><path class="cls-82" d="M97.24,118.88a3,3,0,0,1-.43,1.53,2.9,2.9,0,0,1-2.45,1.36h-.24a2.91,2.91,0,0,1-1.84-.88h0a2.83,2.83,0,0,1-.79-1.6c0-.13,0-.27,0-.4a2.86,2.86,0,0,1,1.85-2.7,3,3,0,0,1,1-.19,2.88,2.88,0,0,1,2.85,2.46A3,3,0,0,1,97.24,118.88Z" transform="translate(-48.56 -89.63)"/><path class="cls-83" d="M96.88,118.88a2.52,2.52,0,0,1-2.52,2.52h-.21a2.53,2.53,0,0,1-1.61-.77h0a2.55,2.55,0,0,1-.69-1.4c0-.12,0-.23,0-.35a2.53,2.53,0,0,1,2.53-2.53,2.53,2.53,0,0,1,2.5,2.16C96.87,118.63,96.88,118.75,96.88,118.88Z" transform="translate(-48.56 -89.63)"/><path class="cls-84" d="M96.52,118.88a2.11,2.11,0,0,1-.33,1.14,2.14,2.14,0,0,1-1.83,1h-.18a2.2,2.2,0,0,1-1.38-.66h0a2.14,2.14,0,0,1-.59-1.2c0-.1,0-.2,0-.3a2.16,2.16,0,0,1,.38-1.23,2.14,2.14,0,0,1,1.79-.94,2.17,2.17,0,0,1,2.14,1.85C96.51,118.66,96.52,118.77,96.52,118.88Z" transform="translate(-48.56 -89.63)"/><path class="cls-85" d="M96.16,118.88a1.79,1.79,0,0,1-.27,1,1.81,1.81,0,0,1-1.53.85h-.15a1.81,1.81,0,0,1-1.15-.55h0a1.76,1.76,0,0,1-.49-1,2.11,2.11,0,0,1,0-.25,1.83,1.83,0,0,1,1.16-1.69,1.75,1.75,0,0,1,.65-.12,1.81,1.81,0,0,1,1.78,1.54A2.45,2.45,0,0,1,96.16,118.88Z" transform="translate(-48.56 -89.63)"/><path class="cls-86" d="M95.8,118.88a1.41,1.41,0,0,1-.22.76,1.43,1.43,0,0,1-1.22.68h-.12a1.48,1.48,0,0,1-.92-.44h0a1.38,1.38,0,0,1-.39-.8,1.36,1.36,0,0,1,0-.2,1.43,1.43,0,0,1,.93-1.35,1.46,1.46,0,0,1,.52-.1,1.44,1.44,0,0,1,1.42,1.24A1.36,1.36,0,0,1,95.8,118.88Z" transform="translate(-48.56 -89.63)"/><path class="cls-87" d="M95.44,118.88a1.11,1.11,0,0,1-.16.57,1.1,1.1,0,0,1-.92.51h-.09a1.1,1.1,0,0,1-.69-.33h0a1.11,1.11,0,0,1-.3-.6s0-.1,0-.15a1.11,1.11,0,0,1,.19-.62,1,1,0,0,1,.51-.39,1,1,0,0,1,.39-.08,1.1,1.1,0,0,1,1.07.93S95.44,118.82,95.44,118.88Z" transform="translate(-48.56 -89.63)"/><path class="cls-88" d="M95.08,118.88a.7.7,0,0,1-.11.38.74.74,0,0,1-.61.34H94.3a.77.77,0,0,1-.46-.22h0a.7.7,0,0,1-.2-.4s0-.07,0-.1a.74.74,0,0,1,.13-.41.76.76,0,0,1,.34-.27.74.74,0,0,1,1,.57A.41.41,0,0,1,95.08,118.88Z" transform="translate(-48.56 -89.63)"/><path class="cls-89" d="M94.72,118.88a.33.33,0,0,1-.06.19.36.36,0,0,1-.3.17h0a.38.38,0,0,1-.23-.11h0a.35.35,0,0,1-.1-.2.43.43,0,0,0,0-.05.38.38,0,0,1,.07-.21.37.37,0,0,1,.17-.13.27.27,0,0,1,.13,0,.35.35,0,0,1,.35.3A.13.13,0,0,1,94.72,118.88Z" transform="translate(-48.56 -89.63)"/><polygon class="cls-90" points="45.8 29.25 45.8 29.25 45.8 29.25 45.8 29.25 45.8 29.25 45.8 29.25 45.8 29.25 45.8 29.25 45.8 29.25 45.8 29.25 45.8 29.25 45.8 29.25 45.8 29.25"/></g><g class="cls-91"><path class="cls-9" d="M74.06,148.65a12.74,12.74,0,0,1-12.75,12.74c-.35,0-.69,0-1,0a12.71,12.71,0,0,1-8.15-3.85h0a12.75,12.75,0,0,1-3.45-7.08,12.94,12.94,0,0,1-.12-1.77,12.7,12.7,0,0,1,2.23-7.22,12.87,12.87,0,0,1,6-4.7,12.78,12.78,0,0,1,17.17,10A12.9,12.9,0,0,1,74.06,148.65Z" transform="translate(-48.56 -89.63)"/><path class="cls-92" d="M73.9,148.64a12.6,12.6,0,0,1-12.59,12.6c-.35,0-.69,0-1,0a12.61,12.61,0,0,1-8-3.81h0a12.47,12.47,0,0,1-3.41-7,12.59,12.59,0,1,1,25.06-1.76Z" transform="translate(-48.56 -89.63)"/><path class="cls-93" d="M73.74,148.64a12.43,12.43,0,0,1-12.43,12.44c-.34,0-.68,0-1,0a12.52,12.52,0,0,1-7.94-3.76h0a12.43,12.43,0,0,1-1.31-15.67A12.51,12.51,0,0,1,56.86,137a12.43,12.43,0,0,1,16.74,9.79A12.08,12.08,0,0,1,73.74,148.64Z" transform="translate(-48.56 -89.63)"/><path class="cls-94" d="M73.58,148.65a12.28,12.28,0,0,1-12.27,12.27c-.34,0-.67,0-1,0a12.22,12.22,0,0,1-7.83-3.71h0a12.29,12.29,0,0,1-3.32-6.81,12.08,12.08,0,0,1-.12-1.71,12.28,12.28,0,0,1,24.42-1.81A13.41,13.41,0,0,1,73.58,148.65Z" transform="translate(-48.56 -89.63)"/><path class="cls-95" d="M73.42,148.65a12.11,12.11,0,0,1-12.11,12.11c-.33,0-.66,0-1,0a12.18,12.18,0,0,1-7.74-3.66h0a12,12,0,0,1-3.28-6.73,11.66,11.66,0,0,1-.12-1.68,12.12,12.12,0,0,1,24.1-1.79A11.79,11.79,0,0,1,73.42,148.65Z" transform="translate(-48.56 -89.63)"/><path class="cls-96" d="M73.26,148.65a12,12,0,0,1-12,11.95c-.33,0-.65,0-1,0A12.07,12.07,0,0,1,52.7,157h0a12,12,0,0,1-3.24-6.64,13,13,0,0,1-.11-1.66,12,12,0,0,1,23.78-1.76A11.3,11.3,0,0,1,73.26,148.65Z" transform="translate(-48.56 -89.63)"/><path class="cls-97" d="M73.1,148.65a11.78,11.78,0,0,1-11.79,11.79c-.33,0-.64,0-1,0a11.89,11.89,0,0,1-7.53-3.57h0a11.74,11.74,0,0,1-3.2-6.55,12.78,12.78,0,0,1-.11-1.64A11.8,11.8,0,0,1,73,146.91,12.5,12.5,0,0,1,73.1,148.65Z" transform="translate(-48.56 -89.63)"/><path class="cls-98" d="M73,148.65a11.67,11.67,0,0,1-11.64,11.64c-.32,0-.63,0-.94,0a11.73,11.73,0,0,1-7.44-3.52h0a11.55,11.55,0,0,1-3.15-6.46,10.84,10.84,0,0,1-.12-1.62,11.64,11.64,0,0,1,7.48-10.88,11.78,11.78,0,0,1,4.17-.77,11.65,11.65,0,0,1,11.51,9.93A12.1,12.1,0,0,1,73,148.65Z" transform="translate(-48.56 -89.63)"/><path class="cls-99" d="M72.79,148.65a11.49,11.49,0,0,1-11.48,11.48c-.32,0-.63,0-.93,0a11.55,11.55,0,0,1-7.33-3.47h0a11.44,11.44,0,0,1-3.12-6.38,11.9,11.9,0,0,1-.11-1.59A11.48,11.48,0,0,1,72.66,147,11.68,11.68,0,0,1,72.79,148.65Z" transform="translate(-48.56 -89.63)"/><path class="cls-100" d="M72.63,148.64A11.32,11.32,0,0,1,61.31,160c-.31,0-.62,0-.92,0a11.39,11.39,0,0,1-7.23-3.42h0a11.31,11.31,0,0,1-3.07-6.29,11.64,11.64,0,0,1-.11-1.58,11.33,11.33,0,0,1,11.33-11.32,11.3,11.3,0,0,1,11.32,11.32Z" transform="translate(-48.56 -89.63)"/><path class="cls-101" d="M72.47,148.64a11.17,11.17,0,0,1-11.16,11.17,9.1,9.1,0,0,1-.91,0,11.28,11.28,0,0,1-7.13-3.37h0a11.12,11.12,0,0,1-3-6.2,11.46,11.46,0,0,1-.11-1.56A11.17,11.17,0,0,1,72.35,147,11.21,11.21,0,0,1,72.47,148.64Z" transform="translate(-48.56 -89.63)"/><path class="cls-102" d="M72.31,148.65a11,11,0,0,1-11,11c-.3,0-.6,0-.89,0a11.05,11.05,0,0,1-7-3.33h0a10.88,10.88,0,0,1-3-6.11,11,11,0,0,1,7-11.82,11.16,11.16,0,0,1,3.94-.72A11,11,0,0,1,72.19,147,10.74,10.74,0,0,1,72.31,148.65Z" transform="translate(-48.56 -89.63)"/><path class="cls-103" d="M72.15,148.65a10.84,10.84,0,0,1-10.84,10.84c-.3,0-.59,0-.88,0a11,11,0,0,1-6.93-3.28h0A10.85,10.85,0,1,1,72,147.05,11.94,11.94,0,0,1,72.15,148.65Z" transform="translate(-48.56 -89.63)"/><path class="cls-104" d="M72,148.65a10.66,10.66,0,0,1-10.68,10.68c-.3,0-.58,0-.87,0a10.76,10.76,0,0,1-6.82-3.23h0a10.64,10.64,0,0,1-2.9-5.94,10.32,10.32,0,0,1-.1-1.48,10.65,10.65,0,0,1,1.87-6.05,10.78,10.78,0,0,1,5-3.94,10.59,10.59,0,0,1,3.83-.7,10.7,10.7,0,0,1,10.57,9.11A10.31,10.31,0,0,1,72,148.65Z" transform="translate(-48.56 -89.63)"/><path class="cls-105" d="M71.84,148.65a10.54,10.54,0,0,1-10.53,10.53c-.29,0-.57,0-.85,0A10.6,10.6,0,0,1,53.73,156h0a10.45,10.45,0,0,1-2.85-5.85,10.14,10.14,0,0,1-.11-1.46,10.53,10.53,0,0,1,20.95-1.55A9.83,9.83,0,0,1,71.84,148.65Z" transform="translate(-48.56 -89.63)"/><path class="cls-106" d="M71.68,148.65A10.38,10.38,0,0,1,61.31,159a7.63,7.63,0,0,1-.84,0,10.41,10.41,0,0,1-6.63-3.13h0A10.4,10.4,0,0,1,51,150.09a11.35,11.35,0,0,1-.1-1.44A10.37,10.37,0,0,1,57.6,139a10.15,10.15,0,0,1,3.71-.69,10.37,10.37,0,0,1,10.26,8.85A11,11,0,0,1,71.68,148.65Z" transform="translate(-48.56 -89.63)"/><path class="cls-107" d="M71.52,148.65a10.22,10.22,0,0,1-10.21,10.21c-.28,0-.56,0-.83,0A10.34,10.34,0,0,1,54,155.74h0a10.18,10.18,0,0,1-2.77-5.67,11.17,11.17,0,0,1-.1-1.42,10.15,10.15,0,0,1,1.79-5.78,10.22,10.22,0,0,1,18.53,4.27A10.62,10.62,0,0,1,71.52,148.65Z" transform="translate(-48.56 -89.63)"/><path class="cls-108" d="M71.36,148.65a10.06,10.06,0,0,1-10,10c-.28,0-.55,0-.82,0a10.13,10.13,0,0,1-6.42-3h0a10,10,0,0,1-2.72-5.58,9.32,9.32,0,0,1-.1-1.4A10,10,0,0,1,53,143a10.13,10.13,0,0,1,4.7-3.71,10.07,10.07,0,0,1,13.54,7.92A10.2,10.2,0,0,1,71.36,148.65Z" transform="translate(-48.56 -89.63)"/><path class="cls-109" d="M71.2,148.65a9.9,9.9,0,0,1-9.89,9.89c-.27,0-.54,0-.8,0a10,10,0,0,1-6.32-3h0A9.91,9.91,0,0,1,51.5,150a10.39,10.39,0,0,1-.09-1.37,9.9,9.9,0,1,1,19.79,0Z" transform="translate(-48.56 -89.63)"/><path class="cls-110" d="M71,148.65a9.72,9.72,0,0,1-9.73,9.73c-.27,0-.53,0-.79,0a9.78,9.78,0,0,1-6.22-2.94h0A9.69,9.69,0,0,1,51.66,150a10,10,0,0,1-.09-1.35,9.73,9.73,0,0,1,6.25-9.1,9.61,9.61,0,0,1,3.49-.64A9.69,9.69,0,0,1,71,148.65Z" transform="translate(-48.56 -89.63)"/><path class="cls-111" d="M70.88,148.65a9.55,9.55,0,0,1-9.57,9.57q-.39,0-.78,0a9.65,9.65,0,0,1-6.12-2.89h0A9.53,9.53,0,0,1,51.82,150a9.8,9.8,0,0,1-.09-1.33,9.58,9.58,0,0,1,19.05-1.41A9.36,9.36,0,0,1,70.88,148.65Z" transform="translate(-48.56 -89.63)"/><path class="cls-112" d="M70.73,148.65a9.43,9.43,0,0,1-9.42,9.42c-.26,0-.51,0-.76,0a9.5,9.5,0,0,1-6-2.85h0A9.38,9.38,0,0,1,52,150a9.51,9.51,0,0,1-.1-1.31,9.42,9.42,0,0,1,9.43-9.43,9.42,9.42,0,0,1,9.31,8A9,9,0,0,1,70.73,148.65Z" transform="translate(-48.56 -89.63)"/><path class="cls-113" d="M70.57,148.65a9.27,9.27,0,0,1-9.26,9.26q-.39,0-.75,0a9.39,9.39,0,0,1-5.92-2.8h0a9.24,9.24,0,0,1-2.6-6.43,9.17,9.17,0,0,1,1.63-5.24,9.26,9.26,0,0,1,16.8,3.87A10.27,10.27,0,0,1,70.57,148.65Z" transform="translate(-48.56 -89.63)"/><path class="cls-114" d="M70.41,148.65a9.11,9.11,0,0,1-9.1,9.1c-.25,0-.5,0-.74,0A9.18,9.18,0,0,1,54.76,155h0a9,9,0,0,1-2.47-5.06,8.69,8.69,0,0,1-.09-1.26,9,9,0,0,1,1.6-5.15,9.1,9.1,0,0,1,16.51,3.81A8.37,8.37,0,0,1,70.41,148.65Z" transform="translate(-48.56 -89.63)"/><path class="cls-115" d="M70.25,148.65a8.93,8.93,0,0,1-8.94,8.94c-.25,0-.49,0-.73,0a9,9,0,0,1-5.71-2.7h0a8.89,8.89,0,0,1-2.42-5,8.52,8.52,0,0,1-.09-1.24,8.94,8.94,0,0,1,17.79-1.32A8.2,8.2,0,0,1,70.25,148.65Z" transform="translate(-48.56 -89.63)"/><path class="cls-116" d="M70.09,148.65a8.79,8.79,0,0,1-8.78,8.78c-.24,0-.48,0-.71,0A8.86,8.86,0,0,1,55,154.75h0a8.83,8.83,0,0,1-2.38-4.88,9.87,9.87,0,0,1-.08-1.22,8.77,8.77,0,0,1,5.64-8.21,8.68,8.68,0,0,1,3.15-.58A8.79,8.79,0,0,1,70,147.35,9.25,9.25,0,0,1,70.09,148.65Z" transform="translate(-48.56 -89.63)"/><path class="cls-117" d="M69.93,148.65a8.55,8.55,0,0,1-1.3,4.56,8.63,8.63,0,0,1-7.32,4.06l-.7,0a8.76,8.76,0,0,1-5.51-2.61h0a8.59,8.59,0,0,1-2.34-4.79,9.67,9.67,0,0,1-.08-1.2,8.63,8.63,0,0,1,1.51-4.89,8.63,8.63,0,0,1,15.65,3.62A8.73,8.73,0,0,1,69.93,148.65Z" transform="translate(-48.56 -89.63)"/><path class="cls-118" d="M69.77,148.65a8.45,8.45,0,0,1-8.46,8.46c-.23,0-.46,0-.69,0a8.55,8.55,0,0,1-5.41-2.56h0a8.46,8.46,0,0,1-2.29-4.7,7.71,7.71,0,0,1-.08-1.18,8.47,8.47,0,0,1,16.84-1.25A8.55,8.55,0,0,1,69.77,148.65Z" transform="translate(-48.56 -89.63)"/><path class="cls-119" d="M69.62,148.65A8.22,8.22,0,0,1,68.36,153a8.31,8.31,0,0,1-7,3.92c-.23,0-.45,0-.68,0a8.39,8.39,0,0,1-5.3-2.51h0a8.35,8.35,0,0,1-2.26-4.62,8.77,8.77,0,0,1-.08-1.15,8.29,8.29,0,0,1,1.46-4.71,8.31,8.31,0,0,1,6.86-3.61,8.31,8.31,0,0,1,8.31,8.32Z" transform="translate(-48.56 -89.63)"/><path class="cls-120" d="M69.46,148.65A8,8,0,0,1,68.22,153a8.16,8.16,0,0,1-6.91,3.84q-.35,0-.66,0a8.23,8.23,0,0,1-5.21-2.46h0a8.1,8.1,0,0,1-2.21-4.53,8.47,8.47,0,0,1-.08-1.13,8.15,8.15,0,0,1,16.22-1.2A7.88,7.88,0,0,1,69.46,148.65Z" transform="translate(-48.56 -89.63)"/><path class="cls-121" d="M69.3,148.65a7.88,7.88,0,0,1-1.21,4.22,8,8,0,0,1-6.78,3.77c-.22,0-.44,0-.65,0a8.07,8.07,0,0,1-5.11-2.41h0a8,8,0,0,1-2.16-4.44,8.29,8.29,0,0,1-.08-1.11,8,8,0,0,1,15.9-1.18A7.62,7.62,0,0,1,69.3,148.65Z" transform="translate(-48.56 -89.63)"/><path class="cls-122" d="M69.14,148.65a7.82,7.82,0,0,1-7.83,7.83l-.64,0a7.92,7.92,0,0,1-5-2.37h0a7.83,7.83,0,0,1,2.83-12.76,7.71,7.71,0,0,1,2.81-.52,7.84,7.84,0,0,1,7.75,6.68A8.8,8.8,0,0,1,69.14,148.65Z" transform="translate(-48.56 -89.63)"/><path class="cls-123" d="M69,148.65a7.66,7.66,0,0,1-7.67,7.67l-.62,0A7.83,7.83,0,0,1,55.78,154h0a7.67,7.67,0,0,1-2.08-4.27,7.35,7.35,0,0,1-.07-1.06A7.64,7.64,0,0,1,55,144.3,7.64,7.64,0,0,1,61.31,141a7.68,7.68,0,0,1,7.59,6.55A8.23,8.23,0,0,1,69,148.65Z" transform="translate(-48.56 -89.63)"/><path class="cls-124" d="M68.82,148.65a7.5,7.5,0,0,1-7.51,7.51c-.21,0-.41,0-.61,0a7.55,7.55,0,0,1-4.8-2.27h0a7.49,7.49,0,0,1-2-4.18,7.17,7.17,0,0,1-.07-1,7.51,7.51,0,0,1,1.31-4.26,7.59,7.59,0,0,1,3.52-2.77,7.53,7.53,0,0,1,10.12,5.92A6.75,6.75,0,0,1,68.82,148.65Z" transform="translate(-48.56 -89.63)"/><path class="cls-125" d="M68.67,148.65A7.38,7.38,0,0,1,61.31,156q-.3,0-.6,0a7.44,7.44,0,0,1-4.7-2.22h0a7.36,7.36,0,0,1-2-4.09,6.9,6.9,0,0,1-.08-1,7.36,7.36,0,0,1,4.73-6.88,7.46,7.46,0,0,1,2.64-.49,7.37,7.37,0,0,1,7.28,6.28A7.88,7.88,0,0,1,68.67,148.65Z" transform="translate(-48.56 -89.63)"/><path class="cls-126" d="M68.51,148.65a7.21,7.21,0,0,1-7.2,7.2,5.83,5.83,0,0,1-.59,0,7.27,7.27,0,0,1-4.6-2.17h0a7.24,7.24,0,0,1-1.95-4,8.26,8.26,0,0,1-.07-1,7.2,7.2,0,0,1,14.33-1.06A7.34,7.34,0,0,1,68.51,148.65Z" transform="translate(-48.56 -89.63)"/><path class="cls-127" d="M68.35,148.65a7.06,7.06,0,0,1-7,7l-.57,0a7.13,7.13,0,0,1-4.5-2.13h0a7,7,0,0,1-1.91-3.91,7.93,7.93,0,0,1-.07-1,7,7,0,0,1,14.09,0Z" transform="translate(-48.56 -89.63)"/><path class="cls-128" d="M68.19,148.65a6.88,6.88,0,0,1-6.88,6.88l-.56,0a7,7,0,0,1-4.4-2.08h0a6.86,6.86,0,0,1-1.86-3.83,6,6,0,0,1-.07-.95,6.91,6.91,0,0,1,4.42-6.44,7,7,0,0,1,2.47-.45,6.89,6.89,0,0,1,6.81,5.87A8.45,8.45,0,0,1,68.19,148.65Z" transform="translate(-48.56 -89.63)"/><path class="cls-129" d="M68,148.65a6.73,6.73,0,0,1-6.72,6.72l-.55,0a6.81,6.81,0,0,1-4.29-2h0a6.69,6.69,0,0,1-1.83-3.74,7.14,7.14,0,0,1-.06-.93,6.64,6.64,0,0,1,1.18-3.81,6.75,6.75,0,0,1,3.14-2.48,6.87,6.87,0,0,1,2.41-.44A6.73,6.73,0,0,1,68,147.66,6.41,6.41,0,0,1,68,148.65Z" transform="translate(-48.56 -89.63)"/><path class="cls-130" d="M67.87,148.65a6.55,6.55,0,0,1-6.56,6.56,4.61,4.61,0,0,1-.53,0,6.6,6.6,0,0,1-4.2-2h0a6.6,6.6,0,0,1-1.78-3.65,6.84,6.84,0,0,1-.06-.91,6.57,6.57,0,0,1,13.06-1A6.15,6.15,0,0,1,67.87,148.65Z" transform="translate(-48.56 -89.63)"/><path class="cls-131" d="M67.71,148.65a6.4,6.4,0,0,1-6.4,6.4,4.43,4.43,0,0,1-.52,0,6.44,6.44,0,0,1-4.1-1.93h0A6.44,6.44,0,0,1,55,149.54a6.54,6.54,0,0,1-.06-.89A6.37,6.37,0,0,1,56,145a6.45,6.45,0,0,1,3-2.36,6.52,6.52,0,0,1,2.3-.42,6.42,6.42,0,0,1,6.34,5.46A7.34,7.34,0,0,1,67.71,148.65Z" transform="translate(-48.56 -89.63)"/><path class="cls-132" d="M67.56,148.65a6.27,6.27,0,0,1-6.25,6.25l-.51,0a6.36,6.36,0,0,1-4-1.89h0a6.16,6.16,0,0,1-1.69-3.47,6.38,6.38,0,0,1-.07-.87,6.26,6.26,0,0,1,4-5.84,6.15,6.15,0,0,1,2.24-.42,6.26,6.26,0,0,1,6.18,5.34A6.86,6.86,0,0,1,67.56,148.65Z" transform="translate(-48.56 -89.63)"/><path class="cls-133" d="M67.4,148.65a6.09,6.09,0,0,1-6.09,6.09l-.5,0a6.18,6.18,0,0,1-3.89-1.84h0a6.1,6.1,0,0,1-1.65-3.39,5.83,5.83,0,0,1-.06-.84,6.11,6.11,0,0,1,3.92-5.7,6.09,6.09,0,0,1,8.2,4.8A6.56,6.56,0,0,1,67.4,148.65Z" transform="translate(-48.56 -89.63)"/><path class="cls-134" d="M67.24,148.65a5.95,5.95,0,0,1-5.93,5.93l-.48,0A6,6,0,0,1,57,152.77h0a6,6,0,0,1-1.61-3.3,5.55,5.55,0,0,1-.06-.82,5.94,5.94,0,0,1,1-3.36,5.91,5.91,0,0,1,4.9-2.58,5.93,5.93,0,0,1,5.86,5.06A5.14,5.14,0,0,1,67.24,148.65Z" transform="translate(-48.56 -89.63)"/><path class="cls-135" d="M67.08,148.65a5.77,5.77,0,0,1-5.77,5.77l-.47,0a5.81,5.81,0,0,1-3.69-1.74h0a5.73,5.73,0,0,1-1.56-3.21,5.29,5.29,0,0,1-.06-.8,5.73,5.73,0,0,1,1-3.27,5.79,5.79,0,0,1,2.7-2.13,5.68,5.68,0,0,1,2.07-.38A5.77,5.77,0,0,1,67,147.8,5.87,5.87,0,0,1,67.08,148.65Z" transform="translate(-48.56 -89.63)"/><path class="cls-136" d="M66.92,148.65a5.61,5.61,0,0,1-5.61,5.61,3.46,3.46,0,0,1-.46,0,5.72,5.72,0,0,1-3.59-1.69h0a5.68,5.68,0,0,1-1.52-3.12,6.81,6.81,0,0,1-.05-.78,5.59,5.59,0,0,1,1-3.18,5.66,5.66,0,0,1,2.63-2.07,5.61,5.61,0,0,1,7.62,5.25Z" transform="translate(-48.56 -89.63)"/><path class="cls-137" d="M66.76,148.65a5.44,5.44,0,0,1-5.45,5.45h-.45a5.5,5.5,0,0,1-3.48-1.65h0a5.47,5.47,0,0,1-1.48-3,6.47,6.47,0,0,1,0-.76,5.44,5.44,0,0,1,3.5-5.1,5.33,5.33,0,0,1,2-.36,5.44,5.44,0,0,1,5.39,4.65A5.32,5.32,0,0,1,66.76,148.65Z" transform="translate(-48.56 -89.63)"/><path class="cls-138" d="M66.6,148.65a5.29,5.29,0,0,1-5.29,5.29h-.43a5.39,5.39,0,0,1-3.39-1.6h0a5.3,5.3,0,0,1-1.43-3,4.4,4.4,0,0,1-.05-.73,5.3,5.3,0,0,1,.92-3,5.24,5.24,0,0,1,4.38-2.3,5.3,5.3,0,0,1,5.24,4.52A6.53,6.53,0,0,1,66.6,148.65Z" transform="translate(-48.56 -89.63)"/><path class="cls-139" d="M66.45,148.65a5.16,5.16,0,0,1-5.14,5.14l-.42,0a5.18,5.18,0,0,1-3.28-1.55h0a5.2,5.2,0,0,1-1.4-2.86,5.52,5.52,0,0,1-.05-.71,5.14,5.14,0,0,1,10.23-.76A4.77,4.77,0,0,1,66.45,148.65Z" transform="translate(-48.56 -89.63)"/><path class="cls-140" d="M66.29,148.65a5,5,0,0,1-5,5l-.41,0a5,5,0,0,1-3.18-1.5h0a5,5,0,0,1-1.35-2.77,5.34,5.34,0,0,1,0-.69,5,5,0,0,1,.88-2.82A4.9,4.9,0,0,1,59.52,144a5.08,5.08,0,0,1,1.79-.33,5,5,0,0,1,4.92,4.25A4.52,4.52,0,0,1,66.29,148.65Z" transform="translate(-48.56 -89.63)"/><path class="cls-141" d="M66.13,148.65a4.82,4.82,0,0,1-4.82,4.82l-.39,0A4.83,4.83,0,0,1,57.84,152h0a4.81,4.81,0,0,1-1.3-2.68,5,5,0,0,1-.05-.67,4.73,4.73,0,0,1,.85-2.73,4.82,4.82,0,0,1,2.25-1.78,4.75,4.75,0,0,1,1.73-.32,4.83,4.83,0,0,1,4.77,4.12A5.39,5.39,0,0,1,66.13,148.65Z" transform="translate(-48.56 -89.63)"/><path class="cls-142" d="M66,148.65a4.59,4.59,0,0,1-.71,2.46,4.64,4.64,0,0,1-4,2.2h-.38a4.76,4.76,0,0,1-3-1.41h0a4.7,4.7,0,0,1-1.27-2.6c0-.21,0-.42,0-.64A4.67,4.67,0,0,1,61.31,144a4.66,4.66,0,0,1,4.61,4A5.09,5.09,0,0,1,66,148.65Z" transform="translate(-48.56 -89.63)"/><path class="cls-143" d="M65.81,148.65a4.5,4.5,0,0,1-4.5,4.5h-.37a4.55,4.55,0,0,1-2.88-1.36h0a4.58,4.58,0,0,1-1.22-2.51,4.21,4.21,0,0,1,0-.62,4.51,4.51,0,0,1,2.89-4.21,4.36,4.36,0,0,1,1.62-.3A4.5,4.5,0,0,1,65.76,148,3.71,3.71,0,0,1,65.81,148.65Z" transform="translate(-48.56 -89.63)"/><path class="cls-144" d="M65.65,148.65A4.32,4.32,0,0,1,61.31,153H61a4.41,4.41,0,0,1-2.77-1.31h0A4.33,4.33,0,0,1,57,149.25a4,4,0,0,1,0-.6,4.37,4.37,0,0,1,2.79-4.07,4.45,4.45,0,0,1,1.56-.28,4.35,4.35,0,0,1,4.3,3.71A4.4,4.4,0,0,1,65.65,148.65Z" transform="translate(-48.56 -89.63)"/><path class="cls-145" d="M65.49,148.65a4.18,4.18,0,0,1-4.18,4.18H61a4.25,4.25,0,0,1-2.68-1.26h0a4.11,4.11,0,0,1-1.13-2.32,3.77,3.77,0,0,1,0-.58,4.19,4.19,0,0,1,2.69-3.92,4.12,4.12,0,0,1,1.5-.27,4.15,4.15,0,0,1,4.18,4.19Z" transform="translate(-48.56 -89.63)"/><path class="cls-146" d="M65.34,148.65a4,4,0,0,1-4,4l-.33,0a4,4,0,0,1-2.57-1.22h0a4,4,0,0,1-1.1-2.23,5.27,5.27,0,0,1,0-.56,4,4,0,0,1,.71-2.29,4.05,4.05,0,0,1,3.33-1.75,4,4,0,0,1,4,3.44A3.94,3.94,0,0,1,65.34,148.65Z" transform="translate(-48.56 -89.63)"/><path class="cls-147" d="M65.18,148.65a3.89,3.89,0,0,1-3.87,3.87H61a3.88,3.88,0,0,1-2.47-1.18h0a3.84,3.84,0,0,1-1.05-2.15,4.55,4.55,0,0,1,0-.53A3.86,3.86,0,0,1,59.92,145a3.77,3.77,0,0,1,1.39-.26,3.89,3.89,0,0,1,3.83,3.31A5.1,5.1,0,0,1,65.18,148.65Z" transform="translate(-48.56 -89.63)"/><path class="cls-148" d="M65,148.65a3.71,3.71,0,0,1-3.71,3.71H61a3.79,3.79,0,0,1-2.38-1.13h0a3.68,3.68,0,0,1-1-2.06,2.92,2.92,0,0,1,0-.51,3.74,3.74,0,0,1,.65-2.11A3.77,3.77,0,0,1,60,145.18a3.66,3.66,0,0,1,1.33-.25A3.72,3.72,0,0,1,65,148.1,3.31,3.31,0,0,1,65,148.65Z" transform="translate(-48.56 -89.63)"/><path class="cls-149" d="M64.86,148.65a3.55,3.55,0,0,1-3.55,3.55H61a3.58,3.58,0,0,1-2.27-1.08h0a3.54,3.54,0,0,1-1-2,4,4,0,0,1,0-.49,3.53,3.53,0,0,1,3.56-3.56,3.55,3.55,0,0,1,3.51,3A3.08,3.08,0,0,1,64.86,148.65Z" transform="translate(-48.56 -89.63)"/><path class="cls-150" d="M64.7,148.65A3.39,3.39,0,0,1,61.31,152H61a3.4,3.4,0,0,1-2.17-1h0a3.32,3.32,0,0,1-.92-1.88,3.71,3.71,0,0,1,0-.47,3.38,3.38,0,0,1,2.18-3.18,3.52,3.52,0,0,1,1.22-.22,3.41,3.41,0,0,1,3.36,2.9A4.07,4.07,0,0,1,64.7,148.65Z" transform="translate(-48.56 -89.63)"/><path class="cls-151" d="M64.54,148.65a3.23,3.23,0,0,1-3.23,3.23H61a3.19,3.19,0,0,1-2.06-1h0a3.14,3.14,0,0,1-.88-1.79,3.4,3.4,0,0,1,0-.45,3.2,3.2,0,0,1,2.08-3,3.19,3.19,0,0,1,1.16-.21,3.24,3.24,0,0,1,3.2,2.76A3.64,3.64,0,0,1,64.54,148.65Z" transform="translate(-48.56 -89.63)"/><path class="cls-90" d="M64.38,148.65a3.09,3.09,0,0,1-.46,1.62,3,3,0,0,1-2.61,1.45h-.25a3.11,3.11,0,0,1-2-.94h0a3.12,3.12,0,0,1-.84-1.71c0-.14,0-.28,0-.42a3.09,3.09,0,0,1,.53-1.75,3.07,3.07,0,0,1,2.55-1.33,3.08,3.08,0,0,1,3,2.62A3.44,3.44,0,0,1,64.38,148.65Z" transform="translate(-48.56 -89.63)"/></g></g></g></svg>