<svg xmlns="http://www.w3.org/2000/svg" viewBox="0 0 82.55 82.55"><defs><style>.cls-1{isolation:isolate;}.cls-2{fill:#a54e3a;}.cls-3{fill:#cc593a;}.cls-4{fill:#f4cd7f;}.cls-5{fill:#e2d2bc;}.cls-5,.cls-8{mix-blend-mode:multiply;}.cls-6{fill:#752d06;}.cls-7{fill:#be1e2d;}.cls-8{fill:#bcbec0;}.cls-9{mix-blend-mode:color-dodge;}.cls-10,.cls-11,.cls-12,.cls-13,.cls-14,.cls-15,.cls-16,.cls-17,.cls-18,.cls-19,.cls-20,.cls-21,.cls-22,.cls-23,.cls-24,.cls-25,.cls-26,.cls-27,.cls-28,.cls-29,.cls-30,.cls-31,.cls-32,.cls-33,.cls-34,.cls-35,.cls-36,.cls-37,.cls-38,.cls-39,.cls-40,.cls-41,.cls-42,.cls-43,.cls-44,.cls-45,.cls-46,.cls-47,.cls-48,.cls-49,.cls-50,.cls-51,.cls-52,.cls-53,.cls-54,.cls-55,.cls-56,.cls-57,.cls-58,.cls-59,.cls-60,.cls-61,.cls-62,.cls-63,.cls-64,.cls-65,.cls-66,.cls-67,.cls-68,.cls-69,.cls-70,.cls-71{fill:#f7941e;}.cls-10{opacity:0;}.cls-11{opacity:0.02;}.cls-12{opacity:0.03;}.cls-13{opacity:0.05;}.cls-14{opacity:0.07;}.cls-15{opacity:0.08;}.cls-16{opacity:0.1;}.cls-17{opacity:0.11;}.cls-18{opacity:0.13;}.cls-19{opacity:0.15;}.cls-20{opacity:0.16;}.cls-21{opacity:0.18;}.cls-22{opacity:0.2;}.cls-23{opacity:0.21;}.cls-24{opacity:0.23;}.cls-25{opacity:0.25;}.cls-26{opacity:0.26;}.cls-27{opacity:0.28;}.cls-28{opacity:0.3;}.cls-29{opacity:0.31;}.cls-30{opacity:0.33;}.cls-31{opacity:0.34;}.cls-32{opacity:0.36;}.cls-33{opacity:0.38;}.cls-34{opacity:0.39;}.cls-35{opacity:0.41;}.cls-36{opacity:0.43;}.cls-37{opacity:0.44;}.cls-38{opacity:0.46;}.cls-39{opacity:0.48;}.cls-40{opacity:0.49;}.cls-41{opacity:0.51;}.cls-42{opacity:0.52;}.cls-43{opacity:0.54;}.cls-44{opacity:0.56;}.cls-45{opacity:0.57;}.cls-46{opacity:0.59;}.cls-47{opacity:0.61;}.cls-48{opacity:0.62;}.cls-49{opacity:0.64;}.cls-50{opacity:0.66;}.cls-51{opacity:0.67;}.cls-52{opacity:0.69;}.cls-53{opacity:0.7;}.cls-54{opacity:0.72;}.cls-55{opacity:0.74;}.cls-56{opacity:0.75;}.cls-57{opacity:0.77;}.cls-58{opacity:0.79;}.cls-59{opacity:0.8;}.cls-60{opacity:0.82;}.cls-61{opacity:0.84;}.cls-62{opacity:0.85;}.cls-63{opacity:0.87;}.cls-64{opacity:0.89;}.cls-65{opacity:0.9;}.cls-66{opacity:0.92;}.cls-67{opacity:0.93;}.cls-68{opacity:0.95;}.cls-69{opacity:0.97;}.cls-70{opacity:0.98;}</style></defs><title>planeta</title><g class="cls-1"><g id="Layer_1" data-name="Layer 1"><path class="cls-2" d="M219,133.79a20.26,20.26,0,0,1-20.27,20.26c-.55,0-1.1,0-1.64-.06a20.26,20.26,0,0,1-12.94-6.12h0a20.27,20.27,0,1,1,34.63-17.05A20.9,20.9,0,0,1,219,133.79Z" transform="translate(-157.45 -92.51)"/><path class="cls-3" d="M219,133.79a20.26,20.26,0,0,1-20.27,20.26c-.55,0-1.1,0-1.64-.06a8.84,8.84,0,0,1-.29-1.55c-.49-4.56,2.4-9.38.53-13.57-1.61-3.59-5.92-4.9-9.13-7.18a15.74,15.74,0,0,1-6.19-9.37,20.28,20.28,0,0,1,9.47-7.46A20.27,20.27,0,0,1,219,133.79Z" transform="translate(-157.45 -92.51)"/><path class="cls-4" d="M219,133.79a20.21,20.21,0,0,1-3.07,10.72,17.29,17.29,0,0,1-3.12-.56c-2.45-.72-4.79-2.38-5.57-4.81-.9-2.84.47-6.07-.62-8.84-1.59-4-7-4.52-10.58-6.92a10.61,10.61,0,0,1-4.56-8.52A20.27,20.27,0,0,1,219,133.79Z" transform="translate(-157.45 -92.51)"/><path class="cls-4" d="M184.64,147.39c-.16.16-.32.32-.49.47a20.11,20.11,0,0,1-5.49-11.25,28,28,0,0,0,3.49,1.16c2,.61,4.09,1.64,4.74,3.6C187.6,143.51,186.24,145.79,184.64,147.39Z" transform="translate(-157.45 -92.51)"/><path class="cls-5" d="M219,133.79a20.26,20.26,0,0,1-20.27,20.26c-.55,0-1.1,0-1.64-.06a20.26,20.26,0,0,1-12.94-6.12c.17.07,14.94,6.77,34.63-17.06A20.9,20.9,0,0,1,219,133.79Z" transform="translate(-157.45 -92.51)"/><path class="cls-6" d="M198.73,164.14c-.82,0-1.64,0-2.45-.1a30.38,30.38,0,0,1-27.61-26,31.53,31.53,0,0,1-.29-4.23,30.35,30.35,0,1,1,56.11,16.05,30.34,30.34,0,0,1-25.76,14.3Zm0-59.7a29.35,29.35,0,0,0-2.37,58.6c.78.07,1.58.1,2.37.1a29.35,29.35,0,1,0,0-58.7Z" transform="translate(-157.45 -92.51)"/><path class="cls-4" d="M169.44,162.75a.29.29,0,0,1-.21-.09l-.2-.2-.2-.21a.28.28,0,0,1,0-.4.29.29,0,0,1,.41,0l.19.2.2.2a.3.3,0,0,1,0,.41A.32.32,0,0,1,169.44,162.75Z" transform="translate(-157.45 -92.51)"/><path class="cls-4" d="M198.33,175.06h-.58a.28.28,0,0,1-.28-.29.29.29,0,0,1,.29-.28h.57a.29.29,0,1,1,0,.57Zm3.45-.11a.28.28,0,0,1-.29-.26.29.29,0,0,1,.27-.31l.57,0a.27.27,0,0,1,.3.26.29.29,0,0,1-.25.31l-.58,0Zm-7.47-.12h0l-.57-.07a.28.28,0,0,1-.25-.32.28.28,0,0,1,.31-.24l.57.06a.3.3,0,0,1,.26.32A.29.29,0,0,1,194.31,174.83Zm11.46-.37a.28.28,0,0,1-.05-.56l.56-.11a.3.3,0,0,1,.34.23.29.29,0,0,1-.23.34l-.57.1Zm-15.43-.25h-.06l-.57-.12a.3.3,0,0,1-.22-.34.3.3,0,0,1,.35-.22l.55.12a.29.29,0,0,1,.23.34A.3.3,0,0,1,190.34,174.21Zm19.35-.63a.28.28,0,0,1-.27-.21.29.29,0,0,1,.2-.35l.55-.16a.29.29,0,0,1,.35.2.28.28,0,0,1-.19.35l-.56.16Zm-23.25-.39h-.08l-.56-.18a.28.28,0,1,1,.18-.54l.55.17a.3.3,0,0,1,.19.36A.3.3,0,0,1,186.44,173.19Zm27.07-.87a.29.29,0,0,1-.27-.18.29.29,0,0,1,.17-.37l.53-.21a.29.29,0,0,1,.21.53l-.54.21Zm-30.84-.52-.11,0-.54-.23a.29.29,0,0,1,.24-.53l.52.23a.29.29,0,0,1-.11.55Zm34.51-1.11a.28.28,0,0,1-.25-.16.3.3,0,0,1,.12-.39l.51-.26a.3.3,0,0,1,.39.13.28.28,0,0,1-.12.38l-.52.27A.28.28,0,0,1,217.18,170.69ZM179.05,170a.32.32,0,0,1-.14,0l-.51-.29a.28.28,0,0,1,.29-.49l.5.27a.3.3,0,0,1,.11.39A.27.27,0,0,1,179.05,170Zm41.63-1.34a.28.28,0,0,1-.24-.13.29.29,0,0,1,.08-.4l.48-.31a.29.29,0,0,1,.4.09.28.28,0,0,1-.08.39l-.49.31A.3.3,0,0,1,220.68,168.7Zm-45.06-.76a.3.3,0,0,1-.16-.05l-.48-.33a.29.29,0,1,1,.33-.47l.47.32a.3.3,0,0,1,.08.4A.31.31,0,0,1,175.62,167.94ZM224,166.38a.29.29,0,0,1-.17-.51l.44-.36a.29.29,0,0,1,.41.05.3.3,0,0,1,0,.4l-.45.36A.3.3,0,0,1,224,166.38Zm-51.55-.88a.3.3,0,0,1-.18-.06l-.44-.38a.28.28,0,0,1,.37-.43l.44.37a.28.28,0,0,1,0,.4A.26.26,0,0,1,172.41,165.5Zm54.6-1.75a.27.27,0,0,1-.21-.09.28.28,0,0,1,0-.4l.41-.4a.28.28,0,0,1,.4,0,.3.3,0,0,1,0,.41l-.42.4A.27.27,0,0,1,227,163.75Zm2.77-2.92a.33.33,0,0,1-.19-.06.3.3,0,0,1,0-.41c.13-.14.25-.29.37-.43a.29.29,0,0,1,.4,0,.28.28,0,0,1,0,.4l-.38.45A.27.27,0,0,1,229.78,160.83Zm-63-1.09a.26.26,0,0,1-.22-.1,5.19,5.19,0,0,1-.36-.46.28.28,0,0,1,.05-.4.3.3,0,0,1,.4.05l.35.45a.29.29,0,0,1,0,.4A.32.32,0,0,1,166.77,159.74Zm65.48-2.08a.25.25,0,0,1-.16,0,.29.29,0,0,1-.07-.4l.33-.47a.28.28,0,0,1,.39-.07.29.29,0,0,1,.08.4l-.33.47A.3.3,0,0,1,232.25,157.66Zm-67.85-1.17a.31.31,0,0,1-.24-.13c-.1-.16-.21-.32-.31-.49a.29.29,0,0,1,.09-.39.28.28,0,0,1,.39.09c.11.16.21.32.31.48a.28.28,0,0,1-.08.39A.24.24,0,0,1,164.4,156.49Zm70-2.23a.32.32,0,0,1-.14,0,.28.28,0,0,1-.11-.39l.28-.5a.28.28,0,0,1,.39-.11.27.27,0,0,1,.11.38l-.28.51A.3.3,0,0,1,234.41,154.26Zm-72-1.24a.29.29,0,0,1-.25-.15l-.27-.52A.28.28,0,0,1,162,152a.28.28,0,0,1,.38.12l.26.51a.29.29,0,0,1-.12.39A.31.31,0,0,1,162.37,153Zm73.85-2.35-.12,0a.29.29,0,0,1-.14-.38c.08-.17.15-.35.23-.52a.27.27,0,0,1,.37-.15.28.28,0,0,1,.15.37c-.07.18-.15.36-.23.53A.28.28,0,0,1,236.22,150.67Zm-75.53-1.3a.28.28,0,0,1-.27-.18l-.21-.54a.28.28,0,0,1,.16-.37.29.29,0,0,1,.37.16l.21.53a.29.29,0,0,1-.16.38Zm77-2.45-.09,0a.28.28,0,0,1-.18-.36c.06-.18.11-.36.17-.54a.29.29,0,0,1,.36-.19.3.3,0,0,1,.19.36l-.18.55A.29.29,0,0,1,237.67,146.92Zm-78.3-1.35a.28.28,0,0,1-.27-.21c-.06-.18-.11-.37-.16-.56a.29.29,0,0,1,.2-.35.29.29,0,0,1,.35.2l.15.55a.29.29,0,0,1-.19.36ZM238.74,143h-.07a.28.28,0,0,1-.21-.34l.12-.56a.29.29,0,0,1,.56.12l-.12.56A.29.29,0,0,1,238.74,143Zm-80.3-1.38a.28.28,0,0,1-.28-.24c0-.19-.07-.38-.11-.57a.29.29,0,1,1,.57-.09c0,.18.06.37.1.56a.29.29,0,0,1-.23.33Zm81-2.59h0a.28.28,0,0,1-.24-.32l.06-.57a.29.29,0,0,1,.32-.25.29.29,0,0,1,.25.31c0,.2,0,.39-.07.58A.28.28,0,0,1,239.42,139.07Zm-81.53-1.4a.28.28,0,0,1-.28-.26c0-.19,0-.38-.05-.58a.29.29,0,0,1,.27-.3.27.27,0,0,1,.3.26c0,.19,0,.38.05.57a.29.29,0,0,1-.26.31Zm81.82-2.61h0a.3.3,0,0,1-.28-.3c0-.19,0-.38,0-.57a.28.28,0,0,1,.29-.28h0a.28.28,0,0,1,.28.29c0,.19,0,.38,0,.58A.29.29,0,0,1,239.71,135.06Zm-82-1.41h0a.29.29,0,0,1-.28-.29c0-.19,0-.39,0-.58a.29.29,0,0,1,.29-.28h0a.28.28,0,0,1,.28.29c0,.19,0,.38,0,.58A.29.29,0,0,1,157.74,133.65ZM239.61,131a.29.29,0,0,1-.29-.26c0-.19,0-.38,0-.57a.29.29,0,1,1,.57,0c0,.19,0,.38,0,.58a.27.27,0,0,1-.26.3ZM158,129.63h0a.29.29,0,0,1-.25-.32c0-.19,0-.38.07-.57a.27.27,0,0,1,.31-.25.28.28,0,0,1,.25.32l-.06.57A.29.29,0,0,1,158,129.63ZM239.12,127a.28.28,0,0,1-.28-.24c0-.18-.07-.37-.1-.56a.28.28,0,0,1,.22-.33.29.29,0,0,1,.34.23c0,.19.07.37.1.56a.29.29,0,0,1-.23.34Zm-80.52-1.38h-.06a.29.29,0,0,1-.22-.34l.12-.57a.29.29,0,0,1,.35-.21.27.27,0,0,1,.21.34l-.12.56A.3.3,0,0,1,158.6,125.66Zm79.64-2.54a.3.3,0,0,1-.28-.21l-.15-.55A.29.29,0,0,1,238,122a.3.3,0,0,1,.36.2l.15.55a.28.28,0,0,1-.19.36Zm-78.62-1.36h-.09a.3.3,0,0,1-.19-.36l.18-.55a.28.28,0,0,1,.36-.18.29.29,0,0,1,.19.36l-.18.54A.29.29,0,0,1,159.62,121.76ZM237,119.3a.28.28,0,0,1-.27-.18l-.21-.53a.29.29,0,0,1,.16-.38.3.3,0,0,1,.37.16l.21.54a.28.28,0,0,1-.16.37ZM161,118l-.11,0a.29.29,0,0,1-.15-.37c.08-.18.15-.36.23-.53a.29.29,0,0,1,.38-.15.29.29,0,0,1,.14.38l-.22.52A.3.3,0,0,1,161,118Zm74.33-2.37a.27.27,0,0,1-.25-.15l-.26-.51a.28.28,0,0,1,.12-.38.29.29,0,0,1,.39.12c.08.17.17.34.26.51a.28.28,0,0,1-.13.38A.19.19,0,0,1,235.34,115.62Zm-72.57-1.25a.22.22,0,0,1-.13,0,.28.28,0,0,1-.12-.38l.29-.51a.28.28,0,0,1,.39-.11.29.29,0,0,1,.1.39l-.28.5A.26.26,0,0,1,162.77,114.37Zm70.59-2.24a.28.28,0,0,1-.24-.13c-.11-.16-.21-.32-.31-.48a.29.29,0,0,1,.08-.4.3.3,0,0,1,.4.08c.1.17.21.33.31.49a.29.29,0,0,1-.09.39A.3.3,0,0,1,233.36,112.13Zm-68.48-1.19a.25.25,0,0,1-.16,0,.29.29,0,0,1-.07-.4l0,0,.3-.42a.28.28,0,0,1,.39-.07.29.29,0,0,1,.07.4l-.28.41,0,.06A.3.3,0,0,1,164.88,110.94Zm66.16-2.1a.27.27,0,0,1-.23-.11c-.11-.15-.23-.29-.35-.44a.28.28,0,1,1,.44-.36q.19.22.36.45a.28.28,0,0,1,0,.4A.32.32,0,0,1,231,108.84Zm-63.73-1.1a.31.31,0,0,1-.18-.07.28.28,0,0,1,0-.4c.12-.15.24-.3.37-.44a.28.28,0,1,1,.43.37c-.12.14-.24.29-.37.43A.27.27,0,0,1,167.31,107.74Zm61.1-1.94a.29.29,0,0,1-.21-.09l-.39-.41a.28.28,0,1,1,.4-.4l.41.42a.28.28,0,0,1,0,.4A.32.32,0,0,1,228.41,105.8Zm-58.36-1a.29.29,0,0,1-.21-.09.28.28,0,0,1,0-.4l.41-.41a.29.29,0,0,1,.4.42l-.41.39A.28.28,0,0,1,170.05,104.79ZM225.5,103a.32.32,0,0,1-.19-.07c-.14-.13-.29-.25-.44-.37a.3.3,0,0,1,0-.41.28.28,0,0,1,.4,0l.44.37a.29.29,0,0,1,0,.41A.28.28,0,0,1,225.5,103Zm-52.44-.92a.29.29,0,0,1-.23-.1.28.28,0,0,1,0-.4q.23-.19.45-.36a.29.29,0,0,1,.4,0,.29.29,0,0,1,0,.41l-.45.35A.27.27,0,0,1,173.06,102.11Zm49.27-1.56a.34.34,0,0,1-.17,0l-.47-.33a.29.29,0,0,1-.07-.4.28.28,0,0,1,.39-.07l.48.33a.29.29,0,0,1,.07.4A.28.28,0,0,1,222.33,100.55Zm-46-.8a.31.31,0,0,1-.24-.13.29.29,0,0,1,.08-.4l.49-.31A.29.29,0,0,1,177,99a.28.28,0,0,1-.08.39l-.48.31A.33.33,0,0,1,176.31,99.75Zm42.62-1.35a.33.33,0,0,1-.14,0l-.5-.28a.3.3,0,0,1-.12-.39.28.28,0,0,1,.39-.11l.51.28a.29.29,0,0,1,.11.39A.31.31,0,0,1,218.93,98.4Zm-39.15-.69a.28.28,0,0,1-.13-.53l.51-.27a.3.3,0,0,1,.39.13.28.28,0,0,1-.13.38l-.51.26A.31.31,0,0,1,179.78,97.71Zm35.56-1.13a.25.25,0,0,1-.12,0l-.53-.23a.29.29,0,0,1-.15-.37.29.29,0,0,1,.38-.16l.53.24a.28.28,0,0,1,.15.37A.29.29,0,0,1,215.34,96.58ZM183.43,96a.28.28,0,0,1-.26-.18.28.28,0,0,1,.16-.37l.53-.21a.28.28,0,0,1,.37.16.28.28,0,0,1-.16.37l-.53.21Zm28.15-.89-.09,0L211,95a.28.28,0,0,1-.19-.36.29.29,0,0,1,.36-.19l.55.18a.28.28,0,0,1,.18.36A.29.29,0,0,1,211.58,95.14Zm-24.35-.43a.29.29,0,0,1-.27-.2.3.3,0,0,1,.19-.36l.56-.15a.27.27,0,0,1,.35.2.28.28,0,0,1-.2.35l-.55.15Zm20.47-.64h-.06l-.56-.12a.29.29,0,0,1-.22-.34.29.29,0,0,1,.34-.22l.56.12a.29.29,0,0,1,.22.34A.3.3,0,0,1,207.7,94.07Zm-16.55-.29a.28.28,0,0,1-.28-.23.29.29,0,0,1,.22-.34l.57-.1a.29.29,0,0,1,.33.23.27.27,0,0,1-.23.33l-.56.11Zm12.59-.4h0l-.56-.06a.29.29,0,0,1-.26-.32.28.28,0,0,1,.32-.25l.57.06a.29.29,0,0,1,.25.32A.28.28,0,0,1,203.74,93.38Zm-8.61-.14a.28.28,0,0,1-.28-.27.27.27,0,0,1,.26-.3l.57,0a.29.29,0,1,1,0,.57l-.56,0Zm4.6-.15h-.58a.28.28,0,0,1-.28-.29.28.28,0,0,1,.28-.28h.58a.29.29,0,0,1,0,.57Z" transform="translate(-157.45 -92.51)"/><path class="cls-3" d="M177,120a4.69,4.69,0,0,1-8.75,2.34h0a3.35,3.35,0,0,1-.2-.37h0a4.57,4.57,0,0,1-.43-2,4.69,4.69,0,0,1,9.38,0Z" transform="translate(-157.45 -92.51)"/><path class="cls-5" d="M177,120a4.69,4.69,0,0,1-8.75,2.34h0l-.2-.37h0C168.14,122,172.05,125,177,120Z" transform="translate(-157.45 -92.51)"/><path class="cls-7" d="M215.64,96a3.3,3.3,0,0,1-6.17,1.65h0a2.1,2.1,0,0,1-.13-.26h0A3.22,3.22,0,0,1,209,96a3.31,3.31,0,0,1,6.61,0Z" transform="translate(-157.45 -92.51)"/><path class="cls-8" d="M215.64,96a3.3,3.3,0,0,1-6.17,1.65h0l-.13-.26h0S212.14,99.48,215.64,96Z" transform="translate(-157.45 -92.51)"/><g class="cls-9"><path class="cls-10" d="M228.86,133.79a30.13,30.13,0,0,1-30.13,30.13c-.82,0-1.63,0-2.43-.1a30.09,30.09,0,0,1-19.25-9.1h0A30.07,30.07,0,0,1,168.89,138a30.76,30.76,0,0,1-.29-4.2,30.13,30.13,0,0,1,59.94-4.43A30.69,30.69,0,0,1,228.86,133.79Z" transform="translate(-157.45 -92.51)"/><path class="cls-11" d="M228.54,133.79a29.8,29.8,0,0,1-29.81,29.81c-.81,0-1.61,0-2.41-.1a30,30,0,0,1-19-9h0a29.81,29.81,0,1,1,50.94-25.08A30.11,30.11,0,0,1,228.54,133.79Z" transform="translate(-157.45 -92.51)"/><path class="cls-12" d="M228.22,133.79a29.49,29.49,0,0,1-29.49,29.48c-.8,0-1.6,0-2.38-.09a29.68,29.68,0,0,1-18.83-8.91h0a29.49,29.49,0,1,1,50.7-20.48Z" transform="translate(-157.45 -92.51)"/><path class="cls-13" d="M227.89,133.79A29.14,29.14,0,0,1,198.73,163c-.79,0-1.58,0-2.35-.09a29.36,29.36,0,0,1-18.63-8.81h0a29.1,29.1,0,0,1-7.91-16.19,30.2,30.2,0,0,1-.28-4.06,29.17,29.17,0,1,1,58.33,0Z" transform="translate(-157.45 -92.51)"/><path class="cls-14" d="M227.57,133.79a28.84,28.84,0,0,1-28.84,28.84c-.78,0-1.56,0-2.33-.09A29.07,29.07,0,0,1,178,153.82h0a28.76,28.76,0,0,1-7.82-16,29.72,29.72,0,0,1-.28-4,28.71,28.71,0,0,1,5.06-16.32,28.84,28.84,0,0,1,52.32,12.08A28.21,28.21,0,0,1,227.57,133.79Z" transform="translate(-157.45 -92.51)"/><path class="cls-15" d="M227.25,133.79a28.51,28.51,0,0,1-28.52,28.52c-.78,0-1.54,0-2.3-.09a28.75,28.75,0,0,1-18.22-8.62h0a28.41,28.41,0,0,1-7.73-15.84,28.88,28.88,0,0,1-.27-4,28.52,28.52,0,0,1,56.73-4.2A27.68,27.68,0,0,1,227.25,133.79Z" transform="translate(-157.45 -92.51)"/><path class="cls-16" d="M226.93,133.79a28.21,28.21,0,0,1-28.2,28.2q-1.15,0-2.28-.09a28.51,28.51,0,0,1-18-8.52h0a28.07,28.07,0,0,1-7.64-15.65,28.4,28.4,0,0,1-.27-3.93,28.2,28.2,0,0,1,56.09-4.15A27,27,0,0,1,226.93,133.79Z" transform="translate(-157.45 -92.51)"/><path class="cls-17" d="M226.61,133.79a27.89,27.89,0,0,1-27.88,27.88c-.76,0-1.51,0-2.25-.09a28.12,28.12,0,0,1-17.81-8.43h0a27.88,27.88,0,1,1,47.64-23.46A29.2,29.2,0,0,1,226.61,133.79Z" transform="translate(-157.45 -92.51)"/><path class="cls-18" d="M226.28,133.79a27.53,27.53,0,0,1-27.55,27.55q-1.12,0-2.22-.09a27.74,27.74,0,0,1-17.6-8.32h0a27.52,27.52,0,0,1-7.46-15.3,27.12,27.12,0,0,1-.27-3.84,27.56,27.56,0,0,1,54.82-4A28.39,28.39,0,0,1,226.28,133.79Z" transform="translate(-157.45 -92.51)"/><path class="cls-19" d="M226,133.79A27.23,27.23,0,0,1,198.73,161c-.74,0-1.47,0-2.2-.09a27.38,27.38,0,0,1-17.39-8.23h0a27.06,27.06,0,0,1-7.38-15.12,26.42,26.42,0,0,1-.27-3.79,27.24,27.24,0,0,1,54.18-4A27.94,27.94,0,0,1,226,133.79Z" transform="translate(-157.45 -92.51)"/><path class="cls-20" d="M225.64,133.79a26.91,26.91,0,0,1-26.91,26.91c-.73,0-1.46,0-2.17-.09a27.06,27.06,0,0,1-17.19-8.13h0a26.78,26.78,0,0,1-7.29-14.94,25.87,25.87,0,0,1-.26-3.75,26.91,26.91,0,0,1,53.53-4A27.14,27.14,0,0,1,225.64,133.79Z" transform="translate(-157.45 -92.51)"/><path class="cls-21" d="M225.32,133.79a26.59,26.59,0,0,1-26.59,26.59c-.72,0-1.44,0-2.15-.09a26.81,26.81,0,0,1-17-8h0a26.58,26.58,0,0,1-7.21-14.77,28.27,28.27,0,0,1-.25-3.7,26.59,26.59,0,0,1,53.18,0Z" transform="translate(-157.45 -92.51)"/><path class="cls-22" d="M225,133.79a26.29,26.29,0,0,1-26.27,26.27c-.71,0-1.42,0-2.12-.09A26.43,26.43,0,0,1,179.83,152h0a26.21,26.21,0,0,1-7.12-14.58,27.66,27.66,0,0,1-.25-3.66,26.27,26.27,0,0,1,52.25-3.86A25.89,25.89,0,0,1,225,133.79Z" transform="translate(-157.45 -92.51)"/><path class="cls-23" d="M224.68,133.79a26,26,0,0,1-26,25.94c-.71,0-1.4,0-2.1-.08a26.16,26.16,0,0,1-16.57-7.84h0a25.89,25.89,0,0,1-7-14.41,26.91,26.91,0,0,1-.25-3.61A26,26,0,0,1,224.4,130,26.73,26.73,0,0,1,224.68,133.79Z" transform="translate(-157.45 -92.51)"/><path class="cls-24" d="M224.35,133.79a25.61,25.61,0,0,1-25.62,25.62c-.7,0-1.39,0-2.07-.08a25.84,25.84,0,0,1-16.37-7.74h0a25.62,25.62,0,0,1-6.94-14.23,26.32,26.32,0,0,1-.25-3.57,25.63,25.63,0,0,1,51-3.77A26,26,0,0,1,224.35,133.79Z" transform="translate(-157.45 -92.51)"/><path class="cls-25" d="M224,133.79a25.31,25.31,0,0,1-25.3,25.3c-.69,0-1.37,0-2-.08a25.5,25.5,0,0,1-16.16-7.65h0a25.13,25.13,0,0,1-6.86-14.05,25.58,25.58,0,0,1-.25-3.52,25.31,25.31,0,1,1,50.61,0Z" transform="translate(-157.45 -92.51)"/><path class="cls-26" d="M223.71,133.79a25,25,0,0,1-25,25c-.68,0-1.35,0-2-.08a25.13,25.13,0,0,1-16-7.55h0a25,25,0,1,1,42.68-21A24.58,24.58,0,0,1,223.71,133.79Z" transform="translate(-157.45 -92.51)"/><path class="cls-27" d="M223.39,133.79a24.66,24.66,0,0,1-24.66,24.66c-.67,0-1.34,0-2-.08A24.89,24.89,0,0,1,181,150.92h0a24.66,24.66,0,1,1,42.13-20.76A24.24,24.24,0,0,1,223.39,133.79Z" transform="translate(-157.45 -92.51)"/><path class="cls-28" d="M223.07,133.79a24.35,24.35,0,0,1-24.34,24.33c-.66,0-1.32,0-2-.07a24.55,24.55,0,0,1-15.54-7.36h0a24.2,24.2,0,0,1-6.59-13.51,23.73,23.73,0,0,1-.24-3.39,24.34,24.34,0,0,1,48.41-3.58A23.48,23.48,0,0,1,223.07,133.79Z" transform="translate(-157.45 -92.51)"/><path class="cls-29" d="M222.74,133.79a24,24,0,0,1-24,24c-.65,0-1.3,0-1.94-.07a24.21,24.21,0,0,1-15.34-7.26h0a24,24,0,0,1-6.51-13.34,24.54,24.54,0,0,1-.23-3.34,24,24,0,1,1,48,0Z" transform="translate(-157.45 -92.51)"/><path class="cls-30" d="M222.42,133.79a23.68,23.68,0,0,1-23.69,23.69c-.64,0-1.28,0-1.91-.07a24,24,0,0,1-15.14-7.16h0a23.62,23.62,0,0,1-6.42-13.15,24,24,0,0,1-.23-3.3,23.7,23.7,0,1,1,47.39,0Z" transform="translate(-157.45 -92.51)"/><path class="cls-31" d="M222.1,133.79a23.38,23.38,0,0,1-23.37,23.37c-.64,0-1.27,0-1.89-.08A23.47,23.47,0,0,1,181.92,150h0a23.38,23.38,0,1,1,39.94-19.67A22.93,22.93,0,0,1,222.1,133.79Z" transform="translate(-157.45 -92.51)"/><path class="cls-32" d="M221.78,133.79a23.06,23.06,0,0,1-23.05,23.05c-.63,0-1.25,0-1.86-.08a23.2,23.2,0,0,1-14.72-7h0A23,23,0,0,1,175.9,137a22.67,22.67,0,0,1-.22-3.21,23.05,23.05,0,0,1,45.85-3.39A23.62,23.62,0,0,1,221.78,133.79Z" transform="translate(-157.45 -92.51)"/><path class="cls-33" d="M221.46,133.79a22.73,22.73,0,0,1-22.73,22.73c-.62,0-1.23,0-1.84-.08a22.86,22.86,0,0,1-14.51-6.87h0A22.64,22.64,0,0,1,176.22,137a22,22,0,0,1-.22-3.16,22.73,22.73,0,0,1,45.21-3.34A22.93,22.93,0,0,1,221.46,133.79Z" transform="translate(-157.45 -92.51)"/><path class="cls-34" d="M221.13,133.79a22.38,22.38,0,0,1-22.4,22.4c-.61,0-1.21,0-1.81-.07a22.61,22.61,0,0,1-14.31-6.77h0a22.33,22.33,0,0,1-6.07-12.44,22.91,22.91,0,0,1-.22-3.12,22.41,22.41,0,1,1,44.81,0Z" transform="translate(-157.45 -92.51)"/><path class="cls-35" d="M220.81,133.79a22.07,22.07,0,0,1-22.08,22.08c-.6,0-1.2,0-1.78-.07a22.27,22.27,0,0,1-14.11-6.67h0a22.09,22.09,0,1,1,37.74-18.59A23.13,23.13,0,0,1,220.81,133.79Z" transform="translate(-157.45 -92.51)"/><path class="cls-36" d="M220.49,133.79a21.75,21.75,0,0,1-21.76,21.76c-.59,0-1.18,0-1.76-.07a21.88,21.88,0,0,1-13.9-6.58h0a21.77,21.77,0,1,1,37.19-18.31A22.42,22.42,0,0,1,220.49,133.79Z" transform="translate(-157.45 -92.51)"/><path class="cls-37" d="M220.17,133.79a21.43,21.43,0,0,1-21.44,21.44c-.58,0-1.16,0-1.73-.07a21.61,21.61,0,0,1-13.7-6.48h0a21.38,21.38,0,0,1-5.81-11.91,22.48,22.48,0,0,1-.2-3,21.44,21.44,0,0,1,42.65-3.15A21.73,21.73,0,0,1,220.17,133.79Z" transform="translate(-157.45 -92.51)"/><path class="cls-38" d="M219.85,133.79a21.13,21.13,0,0,1-21.12,21.12c-.57,0-1.14,0-1.71-.07a21.27,21.27,0,0,1-13.48-6.38h0a21.1,21.1,0,0,1-5.72-11.73,21.88,21.88,0,0,1-.2-2.94,21.12,21.12,0,0,1,42-3.11A21.28,21.28,0,0,1,219.85,133.79Z" transform="translate(-157.45 -92.51)"/><path class="cls-39" d="M219.53,133.79a20.79,20.79,0,0,1-20.8,20.79q-.85,0-1.68-.06a21,21,0,0,1-13.28-6.29h0a20.71,20.71,0,0,1-5.64-11.55,21.14,21.14,0,0,1-.2-2.89,20.8,20.8,0,0,1,41.6,0Z" transform="translate(-157.45 -92.51)"/><path class="cls-40" d="M219.2,133.79a20.45,20.45,0,0,1-20.47,20.47q-.84,0-1.65-.06A20.59,20.59,0,0,1,184,148h0a20.37,20.37,0,0,1-5.55-11.37,20.67,20.67,0,0,1-.2-2.85,20.48,20.48,0,0,1,40.73-3A19.84,19.84,0,0,1,219.2,133.79Z" transform="translate(-157.45 -92.51)"/><path class="cls-41" d="M218.88,133.79a20.15,20.15,0,0,1-20.15,20.15c-.55,0-1.09,0-1.63-.06a20.34,20.34,0,0,1-12.87-6.09h0a20.16,20.16,0,1,1,34.44-17A20.77,20.77,0,0,1,218.88,133.79Z" transform="translate(-157.45 -92.51)"/><path class="cls-42" d="M218.56,133.79a19.83,19.83,0,0,1-19.83,19.83c-.54,0-1.07,0-1.6-.06a20,20,0,0,1-12.67-6h0a19.75,19.75,0,0,1-5.37-11,19.39,19.39,0,0,1-.19-2.76,19.83,19.83,0,0,1,39.45-2.92A20.07,20.07,0,0,1,218.56,133.79Z" transform="translate(-157.45 -92.51)"/><path class="cls-43" d="M218.24,133.79a19.5,19.5,0,0,1-19.51,19.51c-.53,0-1.06,0-1.58-.07a19.67,19.67,0,0,1-12.46-5.89h0a19.47,19.47,0,0,1-5.28-10.83,18.83,18.83,0,0,1-.19-2.72,19.4,19.4,0,0,1,3.42-11A19.51,19.51,0,0,1,218,130.92,19.39,19.39,0,0,1,218.24,133.79Z" transform="translate(-157.45 -92.51)"/><path class="cls-44" d="M217.92,133.79A19.2,19.2,0,0,1,198.73,153c-.52,0-1,0-1.55-.07a19.33,19.33,0,0,1-12.25-5.79h0a19.06,19.06,0,0,1-5.19-10.65,18.14,18.14,0,0,1-.19-2.67A19.19,19.19,0,0,1,217.71,131,18.72,18.72,0,0,1,217.92,133.79Z" transform="translate(-157.45 -92.51)"/><path class="cls-45" d="M217.59,133.79a18.84,18.84,0,0,1-18.86,18.86c-.51,0-1,0-1.52-.06a19,19,0,0,1-12.05-5.7h0A18.81,18.81,0,0,1,180,136.42a19,19,0,0,1-.18-2.63A18.87,18.87,0,0,1,217.39,131,18.2,18.2,0,0,1,217.59,133.79Z" transform="translate(-157.45 -92.51)"/><path class="cls-46" d="M217.27,133.79a18.52,18.52,0,0,1-18.54,18.54c-.51,0-1,0-1.5-.06a18.65,18.65,0,0,1-11.84-5.6h0a18.54,18.54,0,1,1,31.68-15.61A17.55,17.55,0,0,1,217.27,133.79Z" transform="translate(-157.45 -92.51)"/><path class="cls-47" d="M217,133.79A18.22,18.22,0,0,1,198.73,152q-.75,0-1.47-.06a18.35,18.35,0,0,1-11.64-5.5h0a18.19,18.19,0,0,1-4.94-10.11,19.35,19.35,0,0,1-.17-2.54,18.09,18.09,0,0,1,3.19-10.31,18.23,18.23,0,0,1,33.06,7.63A19.66,19.66,0,0,1,217,133.79Z" transform="translate(-157.45 -92.51)"/><path class="cls-48" d="M216.63,133.79a17.9,17.9,0,0,1-17.9,17.9c-.49,0-1,0-1.45-.06a18.07,18.07,0,0,1-11.43-5.41h0a17.85,17.85,0,0,1-4.85-9.94,18.59,18.59,0,0,1-.17-2.49,17.86,17.86,0,0,1,11.5-16.72,17.66,17.66,0,0,1,6.4-1.18,17.91,17.91,0,0,1,17.71,15.27A18.82,18.82,0,0,1,216.63,133.79Z" transform="translate(-157.45 -92.51)"/><path class="cls-49" d="M216.31,133.79a17.58,17.58,0,0,1-17.58,17.58c-.48,0-.95,0-1.42-.06A17.75,17.75,0,0,1,186.08,146h0a17.51,17.51,0,0,1-4.76-9.76,18,18,0,0,1-.17-2.45,17.58,17.58,0,0,1,35-2.59A18.47,18.47,0,0,1,216.31,133.79Z" transform="translate(-157.45 -92.51)"/><path class="cls-50" d="M216,133.79A17.26,17.26,0,0,1,198.73,151c-.47,0-.93,0-1.39,0a17.41,17.41,0,0,1-11-5.22h0a17.26,17.26,0,1,1,29.49-14.52A17.76,17.76,0,0,1,216,133.79Z" transform="translate(-157.45 -92.51)"/><path class="cls-51" d="M215.66,133.79a16.92,16.92,0,0,1-16.93,16.93c-.46,0-.92,0-1.37-.05a17,17,0,0,1-10.81-5.12h0a16.95,16.95,0,1,1,29.12-11.76Z" transform="translate(-157.45 -92.51)"/><path class="cls-52" d="M215.34,133.79a16.6,16.6,0,0,1-16.61,16.61c-.45,0-.9,0-1.34-.05a16.72,16.72,0,0,1-10.61-5h0a16.55,16.55,0,0,1-4.5-9.23,16,16,0,0,1-.17-2.31,16.61,16.61,0,0,1,33-2.44A16.29,16.29,0,0,1,215.34,133.79Z" transform="translate(-157.45 -92.51)"/><path class="cls-53" d="M215,133.79a16.27,16.27,0,0,1-16.29,16.29c-.44,0-.88,0-1.32-.05A16.44,16.44,0,0,1,187,145.1h0a16.2,16.2,0,0,1-4.42-9,17,17,0,0,1-.15-2.27,16.29,16.29,0,0,1,32.4-2.4A15.76,15.76,0,0,1,215,133.79Z" transform="translate(-157.45 -92.51)"/><path class="cls-54" d="M214.7,133.79a16,16,0,0,1-16,16c-.44,0-.87,0-1.29,0a16.07,16.07,0,0,1-10.2-4.83h0a16,16,0,0,1-4.33-8.87,16.23,16.23,0,0,1-.15-2.22,16,16,0,0,1,31.77-2.35A16.56,16.56,0,0,1,214.7,133.79Z" transform="translate(-157.45 -92.51)"/><path class="cls-55" d="M214.38,133.79a15.66,15.66,0,0,1-15.65,15.65c-.43,0-.85,0-1.26-.05a15.82,15.82,0,0,1-10-4.73h0a15.65,15.65,0,1,1,26.74-13.17A15.86,15.86,0,0,1,214.38,133.79Z" transform="translate(-157.45 -92.51)"/><path class="cls-56" d="M214.05,133.79a15.31,15.31,0,0,1-15.32,15.32c-.42,0-.83,0-1.24-.05a15.4,15.4,0,0,1-9.79-4.63h0a15.3,15.3,0,0,1-4.15-8.51,15,15,0,0,1-.15-2.13,15.2,15.2,0,0,1,2.69-8.67,15.31,15.31,0,0,1,28,8.67Z" transform="translate(-157.45 -92.51)"/><path class="cls-57" d="M213.73,133.79a15,15,0,0,1-15,15c-.41,0-.81,0-1.21,0a15.13,15.13,0,0,1-9.59-4.53h0a15,15,0,0,1-4.06-8.33,14.48,14.48,0,0,1-.15-2.09,15,15,0,0,1,29.85-2.21A14.65,14.65,0,0,1,213.73,133.79Z" transform="translate(-157.45 -92.51)"/><path class="cls-58" d="M213.41,133.79a14.68,14.68,0,0,1-14.68,14.68c-.4,0-.8,0-1.19-.05a14.78,14.78,0,0,1-9.37-4.43h0a14.62,14.62,0,0,1-4-8.16,13.8,13.8,0,0,1-.14-2,14.68,14.68,0,0,1,29.2-2.16A13.9,13.9,0,0,1,213.41,133.79Z" transform="translate(-157.45 -92.51)"/><path class="cls-59" d="M213.09,133.79a14.36,14.36,0,0,1-14.36,14.36c-.39,0-.78,0-1.16-.05a14.45,14.45,0,0,1-9.17-4.34h0a14.22,14.22,0,0,1-3.89-8,13.26,13.26,0,0,1-.14-2,14.36,14.36,0,0,1,28.56-2.11A13.26,13.26,0,0,1,213.09,133.79Z" transform="translate(-157.45 -92.51)"/><path class="cls-60" d="M212.77,133.79a14.06,14.06,0,0,1-14,14c-.38,0-.76,0-1.13-.05a14.13,14.13,0,0,1-9-4.24h0a14,14,0,0,1-1.48-17.69,14,14,0,0,1,25.62,7.94Z" transform="translate(-157.45 -92.51)"/><path class="cls-61" d="M212.45,133.79a13.72,13.72,0,0,1-13.72,13.71c-.37,0-.74,0-1.11,0a13.83,13.83,0,0,1-8.76-4.14h0a13.61,13.61,0,0,1-3.72-7.61,15.06,15.06,0,0,1-.13-1.91A13.76,13.76,0,0,1,193.82,121a13.74,13.74,0,0,1,18.48,10.8A13.43,13.43,0,0,1,212.45,133.79Z" transform="translate(-157.45 -92.51)"/><path class="cls-62" d="M212.12,133.79a13.38,13.38,0,0,1-13.39,13.39c-.37,0-.73,0-1.08,0a13.52,13.52,0,0,1-8.56-4h0a13.37,13.37,0,0,1-3.63-7.44,14.29,14.29,0,0,1-.13-1.86,13.4,13.4,0,0,1,26.65-2A14.16,14.16,0,0,1,212.12,133.79Z" transform="translate(-157.45 -92.51)"/><path class="cls-63" d="M211.8,133.79a13.08,13.08,0,0,1-13.07,13.07c-.36,0-.71,0-1.06,0a13.2,13.2,0,0,1-8.35-3.95h0a13.06,13.06,0,0,1-3.54-7.26,13.68,13.68,0,0,1-.13-1.82,13.12,13.12,0,0,1,8.4-12.22,13.22,13.22,0,0,1,4.68-.86,13.08,13.08,0,0,1,12.93,11.16A13.35,13.35,0,0,1,211.8,133.79Z" transform="translate(-157.45 -92.51)"/><path class="cls-64" d="M211.48,133.79a12.76,12.76,0,0,1-12.75,12.75c-.35,0-.69,0-1,0a12.82,12.82,0,0,1-8.14-3.86h0a12.72,12.72,0,0,1-3.45-7.08,12.94,12.94,0,0,1-.12-1.77,12.72,12.72,0,0,1,8.19-11.91,12.52,12.52,0,0,1,4.56-.84,12.75,12.75,0,0,1,12.61,10.87A12.9,12.9,0,0,1,211.48,133.79Z" transform="translate(-157.45 -92.51)"/><path class="cls-65" d="M211.16,133.79a12.43,12.43,0,0,1-12.43,12.43c-.34,0-.67,0-1,0a12.52,12.52,0,0,1-7.94-3.76h0a12.42,12.42,0,1,1,21.37-8.63Z" transform="translate(-157.45 -92.51)"/><path class="cls-66" d="M210.84,133.79a12.12,12.12,0,0,1-12.11,12.1c-.33,0-.66,0-1,0A12.25,12.25,0,0,1,190,142.2h0a12,12,0,0,1-3.28-6.73,11.66,11.66,0,0,1-.12-1.68A12.11,12.11,0,0,1,210.71,132,13,13,0,0,1,210.84,133.79Z" transform="translate(-157.45 -92.51)"/><path class="cls-67" d="M210.51,133.79a11.78,11.78,0,0,1-11.78,11.78c-.32,0-.64,0-.95,0a11.89,11.89,0,0,1-7.53-3.57h0a11.73,11.73,0,0,1-3.19-6.54,11.21,11.21,0,0,1-.12-1.64,11.79,11.79,0,0,1,23.45-1.74A12.5,12.5,0,0,1,210.51,133.79Z" transform="translate(-157.45 -92.51)"/><path class="cls-68" d="M210.19,133.79a11.45,11.45,0,0,1-11.46,11.46c-.31,0-.62,0-.93,0a11.54,11.54,0,0,1-7.32-3.46h0a11.5,11.5,0,0,1-3.11-6.37,11.9,11.9,0,0,1-.11-1.59,11.45,11.45,0,0,1,7.37-10.71,11.36,11.36,0,0,1,4.1-.76,11.47,11.47,0,0,1,11.34,9.78A11.69,11.69,0,0,1,210.19,133.79Z" transform="translate(-157.45 -92.51)"/><path class="cls-69" d="M209.87,133.79a11.13,11.13,0,0,1-11.14,11.14c-.3,0-.6,0-.9,0a11.22,11.22,0,0,1-7.12-3.36h0a11.22,11.22,0,0,1-3-6.19,11.42,11.42,0,0,1-.1-1.55,11.13,11.13,0,0,1,7.15-10.41,11,11,0,0,1,4-.74,11.14,11.14,0,0,1,11,9.51A11,11,0,0,1,209.87,133.79Z" transform="translate(-157.45 -92.51)"/><path class="cls-70" d="M209.55,133.79a10.83,10.83,0,0,1-10.82,10.82,8.19,8.19,0,0,1-.87,0,10.88,10.88,0,0,1-6.92-3.27h0a10.82,10.82,0,0,1-2.93-6,10.6,10.6,0,0,1-.1-1.5,10.82,10.82,0,0,1,21.52-1.59A10.44,10.44,0,0,1,209.55,133.79Z" transform="translate(-157.45 -92.51)"/><path class="cls-71" d="M209.23,133.79a10.51,10.51,0,0,1-10.5,10.5c-.29,0-.57,0-.85,0a10.42,10.42,0,0,1-6.7-3.17h0a10.42,10.42,0,0,1-2.85-5.83,10.14,10.14,0,0,1-.1-1.46,10.45,10.45,0,0,1,1.84-5.94A10.57,10.57,0,0,1,195,124a10.51,10.51,0,0,1,14.14,8.26A9.92,9.92,0,0,1,209.23,133.79Z" transform="translate(-157.45 -92.51)"/></g></g></g></svg>