<?xml version="1.0" encoding="utf-8"?>
<!-- Generator: Adobe Illustrator 22.0.0, SVG Export Plug-In . SVG Version: 6.00 Build 0)  -->
<svg version="1.1" id="Layer_1" xmlns="http://www.w3.org/2000/svg" xmlns:xlink="http://www.w3.org/1999/xlink" x="0px" y="0px"
	 viewBox="0 0 897 897" style="enable-background:new 0 0 897 897;" xml:space="preserve">
<style type="text/css">
	.st0{fill:url(#SVGID_1_);}
	.st1{opacity:0.26;clip-path:url(#SVGID_3_);fill:url(#SVGID_4_);}
	.st2{opacity:0.21;clip-path:url(#SVGID_3_);fill:url(#SVGID_5_);}
	.st3{fill:url(#SVGID_6_);}
	.st4{fill:url(#SVGID_7_);}
	.st5{fill:url(#SVGID_8_);}
	.st6{fill:url(#SVGID_9_);}
	.st7{fill:url(#SVGID_10_);}
	.st8{fill:url(#SVGID_11_);}
	.st9{fill:#3EFEFF;}
	.st10{fill:url(#SVGID_12_);}
	.st11{fill:url(#SVGID_13_);}
	.st12{fill:url(#SVGID_14_);}
	.st13{fill:url(#SVGID_15_);}
	.st14{fill:url(#SVGID_16_);}
	.st15{fill:url(#SVGID_17_);}
	.st16{fill:url(#SVGID_18_);}
	.st17{fill:url(#SVGID_19_);}
	.st18{fill:url(#SVGID_20_);}
	.st19{fill:url(#SVGID_21_);}
	.st20{fill:url(#SVGID_22_);}
	.st21{fill:url(#SVGID_23_);}
</style>
<radialGradient id="SVGID_1_" cx="447.2046" cy="449.2917" r="446.2627" gradientUnits="userSpaceOnUse">
	<stop  offset="0" style="stop-color:#0F1B47"/>
	<stop  offset="0.2492" style="stop-color:#0E214F"/>
	<stop  offset="0.4499" style="stop-color:#0A5A94;stop-opacity:0.547"/>
	<stop  offset="0.5885" style="stop-color:#077DBF;stop-opacity:0.2338"/>
	<stop  offset="0.6181" style="stop-color:#0782C5;stop-opacity:0.2171"/>
	<stop  offset="0.7641" style="stop-color:#0597DF;stop-opacity:0.1341"/>
	<stop  offset="0.8959" style="stop-color:#03A4EF;stop-opacity:5.918533e-02"/>
	<stop  offset="1" style="stop-color:#03A9F4;stop-opacity:0"/>
</radialGradient>
<circle class="st0" cx="447.2" cy="449.3" r="446.3"/>
<g>
	<defs>
		<rect id="SVGID_2_" x="-97" y="85" width="1088.5" height="725.7"/>
	</defs>
	<clipPath id="SVGID_3_">
		<use xlink:href="#SVGID_2_"  style="overflow:visible;"/>
	</clipPath>
	<radialGradient id="SVGID_4_" cx="447.2045" cy="449.2917" r="97.9588" gradientUnits="userSpaceOnUse">
		<stop  offset="0" style="stop-color:#FFA726"/>
		<stop  offset="1" style="stop-color:#DD427E"/>
	</radialGradient>
	<circle class="st1" cx="447.2" cy="449.3" r="98"/>
	<radialGradient id="SVGID_5_" cx="447.2045" cy="449.2917" r="83.6877" gradientUnits="userSpaceOnUse">
		<stop  offset="0" style="stop-color:#FFA726"/>
		<stop  offset="1" style="stop-color:#DD427E"/>
	</radialGradient>
	<circle class="st2" cx="447.2" cy="449.3" r="83.7"/>
</g>
<g>
	<g>
		<radialGradient id="SVGID_6_" cx="838.0763" cy="834.2423" r="18.3495" gradientUnits="userSpaceOnUse">
			<stop  offset="0" style="stop-color:#FFA726"/>
			<stop  offset="1" style="stop-color:#DD427E"/>
		</radialGradient>
		<circle class="st3" cx="838.9" cy="838.9" r="14.1"/>
		<linearGradient id="SVGID_7_" gradientUnits="userSpaceOnUse" x1="849.8821" y1="849.0837" x2="843.7891" y2="843.7437">
			<stop  offset="0" style="stop-color:#FFA726;stop-opacity:0"/>
			<stop  offset="0.2396" style="stop-color:#FEA429;stop-opacity:0.2396"/>
			<stop  offset="0.431" style="stop-color:#FB9A31;stop-opacity:0.431"/>
			<stop  offset="0.6057" style="stop-color:#F58940;stop-opacity:0.6057"/>
			<stop  offset="0.7704" style="stop-color:#ED7155;stop-opacity:0.7704"/>
			<stop  offset="0.9268" style="stop-color:#E3536F;stop-opacity:0.9268"/>
			<stop  offset="1" style="stop-color:#DD427E"/>
		</linearGradient>
		<path class="st4" d="M851.6,845c-0.8-1.3-2.2-2.1-3.8-2.1c-2.4,0-4.4,2-4.4,4.4c0,1.7,1,3.2,2.4,3.9
			C848.3,849.8,850.4,847.6,851.6,845z"/>
		<linearGradient id="SVGID_8_" gradientUnits="userSpaceOnUse" x1="842.2941" y1="824.1468" x2="839.4188" y2="832.7729">
			<stop  offset="0" style="stop-color:#FFA726;stop-opacity:0"/>
			<stop  offset="0.2396" style="stop-color:#FEA429;stop-opacity:0.2396"/>
			<stop  offset="0.431" style="stop-color:#FB9A31;stop-opacity:0.431"/>
			<stop  offset="0.6057" style="stop-color:#F58940;stop-opacity:0.6057"/>
			<stop  offset="0.7704" style="stop-color:#ED7155;stop-opacity:0.7704"/>
			<stop  offset="0.9268" style="stop-color:#E3536F;stop-opacity:0.9268"/>
			<stop  offset="1" style="stop-color:#DD427E"/>
		</linearGradient>
		<path class="st5" d="M838.9,824.8c-0.5,0-1,0-1.5,0.1c-0.1,0.4-0.2,0.8-0.2,1.2c0,2.4,2,4.4,4.4,4.4c2.2,0,4.1-1.7,4.4-3.8
			C843.9,825.5,841.5,824.8,838.9,824.8z"/>
		<linearGradient id="SVGID_9_" gradientUnits="userSpaceOnUse" x1="833.2848" y1="838.2587" x2="838.8514" y2="838.2587">
			<stop  offset="0" style="stop-color:#FFA726;stop-opacity:0"/>
			<stop  offset="0.2396" style="stop-color:#FEA429;stop-opacity:0.2396"/>
			<stop  offset="0.431" style="stop-color:#FB9A31;stop-opacity:0.431"/>
			<stop  offset="0.6057" style="stop-color:#F58940;stop-opacity:0.6057"/>
			<stop  offset="0.7704" style="stop-color:#ED7155;stop-opacity:0.7704"/>
			<stop  offset="0.9268" style="stop-color:#E3536F;stop-opacity:0.9268"/>
			<stop  offset="1" style="stop-color:#DD427E"/>
		</linearGradient>
		<circle class="st6" cx="836.1" cy="838.3" r="2.8"/>
		<linearGradient id="SVGID_10_" gradientUnits="userSpaceOnUse" x1="827.4973" y1="830.3746" x2="829.2088" y2="832.2916">
			<stop  offset="0" style="stop-color:#FFA726;stop-opacity:0"/>
			<stop  offset="0.2396" style="stop-color:#FEA429;stop-opacity:0.2396"/>
			<stop  offset="0.431" style="stop-color:#FB9A31;stop-opacity:0.431"/>
			<stop  offset="0.6057" style="stop-color:#F58940;stop-opacity:0.6057"/>
			<stop  offset="0.7704" style="stop-color:#ED7155;stop-opacity:0.7704"/>
			<stop  offset="0.9268" style="stop-color:#E3536F;stop-opacity:0.9268"/>
			<stop  offset="1" style="stop-color:#DD427E"/>
		</linearGradient>
		<path class="st7" d="M828.6,829.3c-0.8,0.8-1.4,1.7-2,2.7c0.3,0.3,0.7,0.5,1.2,0.5c0.9,0,1.7-0.8,1.7-1.7
			C829.5,830.1,829.2,829.5,828.6,829.3z"/>
		<linearGradient id="SVGID_11_" gradientUnits="userSpaceOnUse" x1="826.9338" y1="847.5182" x2="830.083" y2="845.1221">
			<stop  offset="0" style="stop-color:#FFA726;stop-opacity:0"/>
			<stop  offset="0.2396" style="stop-color:#FEA429;stop-opacity:0.2396"/>
			<stop  offset="0.431" style="stop-color:#FB9A31;stop-opacity:0.431"/>
			<stop  offset="0.6057" style="stop-color:#F58940;stop-opacity:0.6057"/>
			<stop  offset="0.7704" style="stop-color:#ED7155;stop-opacity:0.7704"/>
			<stop  offset="0.9268" style="stop-color:#E3536F;stop-opacity:0.9268"/>
			<stop  offset="1" style="stop-color:#DD427E"/>
		</linearGradient>
		<path class="st8" d="M827.9,844c-0.7,0-1.4,0.3-1.9,0.7c0.8,1.7,1.9,3.2,3.2,4.5c0.9-0.5,1.5-1.4,1.5-2.4
			C830.7,845.2,829.5,844,827.9,844z"/>
	</g>
	<g>
		<g>
			<path class="st9" d="M313,472.6h-23l-5.8,29.4h-31.6l6-29.4h-75.4l4.2-21.8l82.4-88.8h35.4l-76.8,84.2h36.8l5.2-26.2h30.2
				l-5.2,26.2h23L313,472.6z"/>
		</g>
		<g>
			<path class="st9" d="M697.7,472.6h-23l-5.8,29.4h-31.6l6-29.4h-75.4l4.2-21.8l82.4-88.8h35.4l-76.8,84.2h36.8l5.2-26.2h30.2
				l-5.2,26.2h23L697.7,472.6z"/>
		</g>
	</g>
	<g>
		<linearGradient id="SVGID_12_" gradientUnits="userSpaceOnUse" x1="513.8054" y1="225.6851" x2="568" y2="225.6851">
			<stop  offset="0" style="stop-color:#B3E5FC"/>
			<stop  offset="1" style="stop-color:#29B6F6"/>
		</linearGradient>
		<circle class="st10" cx="540.9" cy="225.7" r="27.1"/>
		<linearGradient id="SVGID_13_" gradientUnits="userSpaceOnUse" x1="562.0089" y1="245.2574" x2="550.3013" y2="234.9968">
			<stop  offset="0" style="stop-color:#FFA726;stop-opacity:0"/>
			<stop  offset="0.1814" style="stop-color:#FCA729;stop-opacity:0.1814"/>
			<stop  offset="0.3264" style="stop-color:#F2A631;stop-opacity:0.3264"/>
			<stop  offset="0.4587" style="stop-color:#E1A43F;stop-opacity:0.4587"/>
			<stop  offset="0.5836" style="stop-color:#C9A152;stop-opacity:0.5836"/>
			<stop  offset="0.7032" style="stop-color:#AB9E6C;stop-opacity:0.7032"/>
			<stop  offset="0.8189" style="stop-color:#859A8A;stop-opacity:0.8189"/>
			<stop  offset="0.9293" style="stop-color:#5995AE;stop-opacity:0.9293"/>
			<stop  offset="1" style="stop-color:#3992C9"/>
		</linearGradient>
		<path class="st11" d="M565.3,237.4c-1.5-2.4-4.2-4.1-7.3-4.1c-4.7,0-8.5,3.8-8.5,8.5c0,3.3,1.8,6.1,4.5,7.5
			C559,246.6,562.9,242.4,565.3,237.4z"/>
		<linearGradient id="SVGID_14_" gradientUnits="userSpaceOnUse" x1="547.4287" y1="197.3414" x2="541.9037" y2="213.9165">
			<stop  offset="0" style="stop-color:#FFA726;stop-opacity:0"/>
			<stop  offset="0.1814" style="stop-color:#FCA729;stop-opacity:0.1814"/>
			<stop  offset="0.3264" style="stop-color:#F2A631;stop-opacity:0.3264"/>
			<stop  offset="0.4587" style="stop-color:#E1A43F;stop-opacity:0.4587"/>
			<stop  offset="0.5836" style="stop-color:#C9A152;stop-opacity:0.5836"/>
			<stop  offset="0.7032" style="stop-color:#AB9E6C;stop-opacity:0.7032"/>
			<stop  offset="0.8189" style="stop-color:#859A8A;stop-opacity:0.8189"/>
			<stop  offset="0.9293" style="stop-color:#5995AE;stop-opacity:0.9293"/>
			<stop  offset="1" style="stop-color:#3992C9"/>
		</linearGradient>
		<path class="st12" d="M540.9,198.6c-1,0-1.9,0.1-2.9,0.2c-0.2,0.8-0.3,1.6-0.3,2.4c0,4.7,3.8,8.5,8.5,8.5c4.3,0,7.8-3.2,8.4-7.3
			C550.6,199.9,545.9,198.6,540.9,198.6z"/>
		<linearGradient id="SVGID_15_" gradientUnits="userSpaceOnUse" x1="530.1172" y1="224.4573" x2="540.8134" y2="224.4573">
			<stop  offset="0" style="stop-color:#FFA726;stop-opacity:0"/>
			<stop  offset="0.1814" style="stop-color:#FCA729;stop-opacity:0.1814"/>
			<stop  offset="0.3264" style="stop-color:#F2A631;stop-opacity:0.3264"/>
			<stop  offset="0.4587" style="stop-color:#E1A43F;stop-opacity:0.4587"/>
			<stop  offset="0.5836" style="stop-color:#C9A152;stop-opacity:0.5836"/>
			<stop  offset="0.7032" style="stop-color:#AB9E6C;stop-opacity:0.7032"/>
			<stop  offset="0.8189" style="stop-color:#859A8A;stop-opacity:0.8189"/>
			<stop  offset="0.9293" style="stop-color:#5995AE;stop-opacity:0.9293"/>
			<stop  offset="1" style="stop-color:#3992C9"/>
		</linearGradient>
		<circle class="st13" cx="535.5" cy="224.5" r="5.3"/>
		<linearGradient id="SVGID_16_" gradientUnits="userSpaceOnUse" x1="518.9967" y1="209.3081" x2="522.2854" y2="212.9914">
			<stop  offset="0" style="stop-color:#FFA726;stop-opacity:0"/>
			<stop  offset="0.1814" style="stop-color:#FCA729;stop-opacity:0.1814"/>
			<stop  offset="0.3264" style="stop-color:#F2A631;stop-opacity:0.3264"/>
			<stop  offset="0.4587" style="stop-color:#E1A43F;stop-opacity:0.4587"/>
			<stop  offset="0.5836" style="stop-color:#C9A152;stop-opacity:0.5836"/>
			<stop  offset="0.7032" style="stop-color:#AB9E6C;stop-opacity:0.7032"/>
			<stop  offset="0.8189" style="stop-color:#859A8A;stop-opacity:0.8189"/>
			<stop  offset="0.9293" style="stop-color:#5995AE;stop-opacity:0.9293"/>
			<stop  offset="1" style="stop-color:#3992C9"/>
		</linearGradient>
		<path class="st14" d="M521.1,207.2c-1.5,1.6-2.7,3.3-3.8,5.1c0.6,0.6,1.4,1,2.3,1c1.8,0,3.2-1.5,3.2-3.2
			C522.9,208.8,522.2,207.7,521.1,207.2z"/>
		<linearGradient id="SVGID_17_" gradientUnits="userSpaceOnUse" x1="517.914" y1="242.2495" x2="523.9651" y2="237.6454">
			<stop  offset="0" style="stop-color:#FFA726;stop-opacity:0"/>
			<stop  offset="0.1814" style="stop-color:#FCA729;stop-opacity:0.1814"/>
			<stop  offset="0.3264" style="stop-color:#F2A631;stop-opacity:0.3264"/>
			<stop  offset="0.4587" style="stop-color:#E1A43F;stop-opacity:0.4587"/>
			<stop  offset="0.5836" style="stop-color:#C9A152;stop-opacity:0.5836"/>
			<stop  offset="0.7032" style="stop-color:#AB9E6C;stop-opacity:0.7032"/>
			<stop  offset="0.8189" style="stop-color:#859A8A;stop-opacity:0.8189"/>
			<stop  offset="0.9293" style="stop-color:#5995AE;stop-opacity:0.9293"/>
			<stop  offset="1" style="stop-color:#3992C9"/>
		</linearGradient>
		<path class="st15" d="M519.9,235.4c-1.4,0-2.7,0.5-3.6,1.4c1.5,3.3,3.6,6.2,6.2,8.6c1.7-0.9,2.8-2.7,2.8-4.7
			C525.2,237.8,522.8,235.4,519.9,235.4z"/>
	</g>
	<g>
		<linearGradient id="SVGID_18_" gradientUnits="userSpaceOnUse" x1="49.6145" y1="160.2493" x2="71.3774" y2="160.2493">
			<stop  offset="0" style="stop-color:#F0F4C3"/>
			<stop  offset="1" style="stop-color:#EFF1CA"/>
		</linearGradient>
		<circle class="st16" cx="60.5" cy="160.2" r="10.9"/>
		<linearGradient id="SVGID_19_" gradientUnits="userSpaceOnUse" x1="68.9716" y1="168.109" x2="64.2701" y2="163.9886">
			<stop  offset="0" style="stop-color:#FFA726;stop-opacity:0"/>
			<stop  offset="0.2172" style="stop-color:#FCA727;stop-opacity:0.2172"/>
			<stop  offset="0.3908" style="stop-color:#F2A829;stop-opacity:0.3908"/>
			<stop  offset="0.5492" style="stop-color:#E1AA2D;stop-opacity:0.5492"/>
			<stop  offset="0.6986" style="stop-color:#C9AC32;stop-opacity:0.6986"/>
			<stop  offset="0.8417" style="stop-color:#ABAF39;stop-opacity:0.8417"/>
			<stop  offset="0.9783" style="stop-color:#86B241;stop-opacity:0.9783"/>
			<stop  offset="1" style="stop-color:#7FB343"/>
		</linearGradient>
		<path class="st17" d="M70.3,165c-0.6-1-1.7-1.6-2.9-1.6c-1.9,0-3.4,1.5-3.4,3.4c0,1.3,0.7,2.4,1.8,3C67.8,168.7,69.3,167,70.3,165
			z"/>
		<linearGradient id="SVGID_20_" gradientUnits="userSpaceOnUse" x1="63.1166" y1="148.8674" x2="60.898" y2="155.5234">
			<stop  offset="0" style="stop-color:#FFA726;stop-opacity:0"/>
			<stop  offset="0.2172" style="stop-color:#FCA727;stop-opacity:0.2172"/>
			<stop  offset="0.3908" style="stop-color:#F2A829;stop-opacity:0.3908"/>
			<stop  offset="0.5492" style="stop-color:#E1AA2D;stop-opacity:0.5492"/>
			<stop  offset="0.6986" style="stop-color:#C9AC32;stop-opacity:0.6986"/>
			<stop  offset="0.8417" style="stop-color:#ABAF39;stop-opacity:0.8417"/>
			<stop  offset="0.9783" style="stop-color:#86B241;stop-opacity:0.9783"/>
			<stop  offset="1" style="stop-color:#7FB343"/>
		</linearGradient>
		<path class="st18" d="M60.5,149.4c-0.4,0-0.8,0-1.2,0.1c-0.1,0.3-0.1,0.6-0.1,1c0,1.9,1.5,3.4,3.4,3.4c1.7,0,3.2-1.3,3.4-2.9
			C64.4,149.9,62.5,149.4,60.5,149.4z"/>
		<linearGradient id="SVGID_21_" gradientUnits="userSpaceOnUse" x1="56.1649" y1="159.7563" x2="60.4602" y2="159.7563">
			<stop  offset="0" style="stop-color:#FFA726;stop-opacity:0"/>
			<stop  offset="0.2172" style="stop-color:#FCA727;stop-opacity:0.2172"/>
			<stop  offset="0.3908" style="stop-color:#F2A829;stop-opacity:0.3908"/>
			<stop  offset="0.5492" style="stop-color:#E1AA2D;stop-opacity:0.5492"/>
			<stop  offset="0.6986" style="stop-color:#C9AC32;stop-opacity:0.6986"/>
			<stop  offset="0.8417" style="stop-color:#ABAF39;stop-opacity:0.8417"/>
			<stop  offset="0.9783" style="stop-color:#86B241;stop-opacity:0.9783"/>
			<stop  offset="1" style="stop-color:#7FB343"/>
		</linearGradient>
		<path class="st19" d="M60.5,159.8c0,1.2-1,2.1-2.1,2.1c-1.2,0-2.1-1-2.1-2.1c0-1.2,1-2.1,2.1-2.1
			C59.5,157.6,60.5,158.6,60.5,159.8z"/>
		<linearGradient id="SVGID_22_" gradientUnits="userSpaceOnUse" x1="51.6992" y1="153.6729" x2="53.0198" y2="155.1519">
			<stop  offset="0" style="stop-color:#FFA726;stop-opacity:0"/>
			<stop  offset="0.2172" style="stop-color:#FCA727;stop-opacity:0.2172"/>
			<stop  offset="0.3908" style="stop-color:#F2A829;stop-opacity:0.3908"/>
			<stop  offset="0.5492" style="stop-color:#E1AA2D;stop-opacity:0.5492"/>
			<stop  offset="0.6986" style="stop-color:#C9AC32;stop-opacity:0.6986"/>
			<stop  offset="0.8417" style="stop-color:#ABAF39;stop-opacity:0.8417"/>
			<stop  offset="0.9783" style="stop-color:#86B241;stop-opacity:0.9783"/>
			<stop  offset="1" style="stop-color:#7FB343"/>
		</linearGradient>
		<path class="st20" d="M52.6,152.8c-0.6,0.6-1.1,1.3-1.5,2.1c0.2,0.2,0.6,0.4,0.9,0.4c0.7,0,1.3-0.6,1.3-1.3
			C53.3,153.5,53,153,52.6,152.8z"/>
		<linearGradient id="SVGID_23_" gradientUnits="userSpaceOnUse" x1="51.2644" y1="166.901" x2="53.6943" y2="165.0522">
			<stop  offset="0" style="stop-color:#FFA726;stop-opacity:0"/>
			<stop  offset="0.2172" style="stop-color:#FCA727;stop-opacity:0.2172"/>
			<stop  offset="0.3908" style="stop-color:#F2A829;stop-opacity:0.3908"/>
			<stop  offset="0.5492" style="stop-color:#E1AA2D;stop-opacity:0.5492"/>
			<stop  offset="0.6986" style="stop-color:#C9AC32;stop-opacity:0.6986"/>
			<stop  offset="0.8417" style="stop-color:#ABAF39;stop-opacity:0.8417"/>
			<stop  offset="0.9783" style="stop-color:#86B241;stop-opacity:0.9783"/>
			<stop  offset="1" style="stop-color:#7FB343"/>
		</linearGradient>
		<path class="st21" d="M52,164.2c-0.6,0-1.1,0.2-1.5,0.6c0.6,1.3,1.4,2.5,2.5,3.5c0.7-0.4,1.1-1.1,1.1-1.9
			C54.2,165.1,53.2,164.2,52,164.2z"/>
	</g>
</g>
</svg>
