<?xml version="1.0" encoding="utf-8"?>
<!-- Generator: Adobe Illustrator 21.0.2, SVG Export Plug-In . SVG Version: 6.00 Build 0)  -->
<svg version="1.1" id="Capa_1" xmlns="http://www.w3.org/2000/svg" xmlns:xlink="http://www.w3.org/1999/xlink" x="0px" y="0px"
	 viewBox="0 0 512 513" style="enable-background:new 0 0 512 513;" xml:space="preserve">
<style type="text/css">
	.st0{fill:#EC4847;}
</style>
<g id="Outline">
	<path class="st0" d="M136,208h176v168h16V200c0-4.4-3.6-8-8-8H128c-4.4,0-8,3.6-8,8v136h16V208z"/>
	<path class="st0" d="M280,296h-16v-24c0-4.4-3.6-8-8-8h-24v-24c0-4.4-3.6-8-8-8h-32c-4.4,0-8,3.6-8,8v56h-16v16h112V296z M248,280
		v16h-16v-16H248z M200,248h16v48h-16V248z"/>
	<path class="st0" d="M358,384.9c-7.2-3-15.3-3-22.4,0l-51.7,22c1.6-15.4-9.6-29.1-25-30.7c-0.9-0.1-1.9-0.1-2.9-0.1h-62.1
		c-6.3,0-12.5-1.5-18.1-4.3c-26-12.9-54.6-19.7-83.6-19.7H72c0-4.4-3.6-8-8-8H16v16h40v96H16v16h48c4.4,0,8-3.6,8-8v-3l59.7,24.8
		c32.6,13.3,69,13.7,101.8,1.1l123.6-47.1c7.3-2.8,13.2-8.4,16.3-15.6c3.2-7.3,3.4-15.6,0.5-23C371.1,393.8,365.3,387.9,358,384.9z
		 M358.8,417.7c-1.4,3.3-4.1,5.8-7.4,7.1l-123.6,47.1c-29,11.1-61.2,10.8-90-1L72,443.6V368h20.3c26.5,0,52.7,6.2,76.4,18
		c7.8,3.9,16.5,5.9,25.2,6H256c6.6,0,12,5.4,12,12c0,6.4-5.1,11.7-11.5,12c-0.3,0-0.6,0-1,0H160v16h95.5c0.2,0,0.3,0,0.5,0l0,0
		c0.6,0,1.1,0,1.7-0.1c5.9-0.2,11.8-1.6,17.3-3.9l66.9-28.4c3.2-1.4,6.8-1.4,10,0c3.3,1.4,5.9,4.1,7.2,7.4
		C360.4,410.5,360.3,414.3,358.8,417.7z"/>
	<path class="st0" d="M485.6,196.8l-53.6-87V82.7l22.4-29.9c1-1.4,1.6-3.1,1.6-4.8c0-18.1-14.7-32.7-32.7-32.7
		c-5.1,0-10.1,1.2-14.6,3.5L384,31.1l-24.6-12.3c-16.2-8.1-35.8-1.5-43.9,14.6C313.2,37.9,312,43,312,48c0,1.7,0.6,3.4,1.6,4.8
		L336,82.7v27.1l-38.8,63.1l13.6,8.4l37.7-61.2h71.1l52.4,85.2c15.7,25.6,7.8,59-17.8,74.8c-8.6,5.3-18.4,8.1-28.5,8.1H344v16h81.6
		c38.9,0,70.4-31.5,70.4-70.4C496,220.6,492.4,207.9,485.6,196.8L485.6,196.8z M335.9,33.8c4.9-3.1,11.1-3.3,16.3-0.7l28.2,14.1
		c2.3,1.1,4.9,1.1,7.2,0L415.8,33c8.3-4.1,18.3-0.8,22.4,7.5c0.8,1.6,1.3,3.3,1.6,5L420,72h-72l-19.8-26.4
		C328.9,40.7,331.7,36.4,335.9,33.8L335.9,33.8z M416,104h-64V88h64V104z"/>
	<path class="st0" d="M360,224v1.2c0,10,6.5,18.8,16,21.8v9h16v-9c12-3.8,18.7-16.6,15-28.6c-1.9-5.9-6-10.8-11.6-13.6l-15.6-7.8
		c-3.4-1.7-4.7-5.8-3.1-9.2c1.2-2.3,3.5-3.8,6.1-3.8h2.3c3.8,0,6.8,3.1,6.8,6.8v1.2h16v-1.2c0-10-6.5-18.8-16-21.8v-9h-16v9
		c-12,3.8-18.7,16.6-15,28.6c1.9,5.9,6,10.8,11.6,13.6l15.6,7.8c3.4,1.7,4.7,5.8,3.1,9.2c-1.2,2.3-3.5,3.8-6.1,3.8h-2.3
		c-3.8,0-6.8-3.1-6.8-6.8V224H360z"/>
	<rect x="424" y="200" class="st0" width="16" height="16"/>
	<rect x="160" y="336" class="st0" width="16" height="16"/>
	<rect x="192" y="336" class="st0" width="96" height="16"/>
	<path class="st0" d="M275,60.7l-9.8,29.4l15.2,5.1l15.2-45.5c1.4-4.2-0.9-8.7-5.1-10.1l0,0L245,24.4l-5.1,15.2l24.8,8.3
		c-39.7,18.8-70.6,52.2-86.2,93.3l15,5.6C208.1,108.3,237.4,77.3,275,60.7z"/>
	<path class="st0" d="M188.8,162l-15.5-4c-1.4,5.5-2.6,11.1-3.4,16.8l15.8,2.4C186.5,172.1,187.5,167,188.8,162z"/>
	<path class="st0" d="M342.4,349l3.2,15.7c28.8-5.9,55.5-19.2,77.5-38.6l-10.6-12C392.6,331.6,368.4,343.6,342.4,349z"/>
</g>
</svg>
