<?xml version="1.0" encoding="utf-8"?>
<!-- Generator: Adobe Illustrator 21.0.2, SVG Export Plug-In . SVG Version: 6.00 Build 0)  -->
<svg version="1.1" id="Capa_1" xmlns="http://www.w3.org/2000/svg" xmlns:xlink="http://www.w3.org/1999/xlink" x="0px" y="0px"
	 viewBox="0 0 476 402" style="enable-background:new 0 0 476 402;" xml:space="preserve">
<style type="text/css">
	.st0{fill:#B9F3FF;}
	.st1{fill:#797C99;}
	.st2{fill:#495375;}
	.st3{fill:#96E4FF;}
	.st4{fill:#6BC5FF;}
	.st5{fill:#422C4F;}
	.st6{fill:#DF8D6D;}
	.st7{fill:#BD6C67;}
	.st8{fill:#A64F5A;}
	.st9{fill:#EBA58E;}
	.st10{fill:#F2C9AD;}
	.st11{fill:#D53873;}
	.st12{fill:#F0BF6C;}
	.st13{fill:#EBA25D;}
	.st14{opacity:0.3;fill:#422C4F;}
	.st15{fill:#FF7094;}
	.st16{fill:#992D72;}
	.st17{fill:#7F2062;}
	.st18{fill:#6A3649;}
	.st19{fill:#FFFFFF;}
	.st20{fill:#EBA7AC;}
</style>
<g>
	<g>
		<path class="st0" d="M33.9,196.5c10.6,18.8,30.8,34.3,31,57.5c0,2.8-0.4,5.9-2.7,7.6c-2.2,1.6-5.3,1.1-7.7-0.1
			c-2.4-1.2-4.6-2.9-7.2-3.8c-9.6-3.2-12.4,7.3-11.5,14.5c1.3,10.7,5.8,20.9,12.8,29.1c45.3,53.1,94.8,81.5,164.4,86.3
			c56.4,3.9,115.2-10.7,159-46.4c43.8-35.8,62.7-99.7,60.4-156.2c-2.6-64.6-49.5-122.5-108.8-148.2C264.3,11,195.2,14.5,134.2,35.9
			C100.2,47.9,67,66,45.4,94.9C23.8,123.8,16.2,165,33.9,196.5z M323.5,51.5c7.3,1.3,14.2,6.6,17.4,13.2c1.2,2.4,2,5.4,0.8,7.8
			c-1.3,2.5-4.4,3.7-7.2,3.4c-2.8-0.3-5.4-1.7-7.8-3.2c-3.6-2.2-7.1-4.7-9.3-8.3C314,58.6,315.6,50.1,323.5,51.5z M294.8,45.4
			c5.2-3.7,12.5,0.5,11,7c-0.7,2.9-3.4,5.3-6.4,5.5c-3,0.2-6-1.7-7.1-4.5C291.3,50.6,292.3,47.2,294.8,45.4z M91.5,323
			c2-9,12.2,2.5,14.1,6.7c0.7,1.6,0.8,3.7-0.4,4.9C99.7,340.6,90.1,329,91.5,323z"/>
		<path class="st0" d="M6.5,211.6c2.4-2.4,6.3-2.2,9.6-1.2c6.3,2,11.6,7.1,13.8,13.3c1.8,4.8,2.8,14.7-2.5,17.9
			c-4.9,3-12.6-1.2-15.9-4.9c-3.6-4-5.4-9.2-6.5-14.5C4.2,218.5,3.8,214.2,6.5,211.6z"/>
	</g>
	<g>
		<g>
			<path class="st1" d="M34.8,83.4L34.8,83.4l0.1-0.1c0.4-0.9,0.8-1.7,1.3-2.5l9.7-17.7l3.6,8.9l132.7-44.3c12-4,26.7,3,32.8,15.6
				l133.5,275.4l13.2,1.2l-11,20.1l0,0c-2.1,5-6.1,9.1-11.7,10.9l-135.8,45.3c-12,4-26.6-3-32.7-15.6L35.6,103.1
				C32.3,96.2,32.2,89.1,34.8,83.4z"/>
			<g>
				<path class="st2" d="M193.5,6.7L57.6,52c-12,4-16.7,17.5-10.6,30.1l134.5,277.5c6.1,12.6,20.8,19.6,32.7,15.6l135.8-45.3
					c12-4,16.7-17.5,10.6-30.1L226.2,22.3C220.1,9.7,205.5,2.7,193.5,6.7z"/>
				<path class="st3" d="M207.2,368.1c1.6,0,3.1-0.2,4.5-0.7l135.8-45.3c3.1-1,5.5-3.2,6.7-6.1c1.5-3.7,1.2-8.2-0.9-12.6L218.8,25.9
					c-3.4-7.1-11-12.1-18.3-12.1c-1.6,0-3.1,0.2-4.5,0.7L60.2,59.9c-3.1,1-5.5,3.2-6.7,6.1c-1.5,3.7-1.2,8.2,0.9,12.6L188.9,356
					C192.4,363.1,199.9,368.1,207.2,368.1z"/>
				<path class="st4" d="M98.5,99.1c8.7,1.2,17.8,4.4,25.9,1c7.7-3.3,11.8-11.5,16.8-18.2c13-17.2,36.2-25.9,57.3-21.5
					c21.1,4.4,38.9,21.7,43.9,42.6c3.9,16.4,0.6,34.6,8.3,49.6c5.4,10.7,15.6,18.1,24.6,26c9.1,7.9,17.8,17.7,18.7,29.7
					c1.5,19.3-17.8,38.3-9.6,55.8c2.9,6.2,8.8,10.5,13,15.9c11.9,15.1,9.5,37.8-0.5,54.3c-1.2,2-2.6,4-4,5.9l-81.2,27.1
					c-1.4,0.5-2.9,0.7-4.5,0.7c-7.3,0-14.8-5-18.3-12.1L67.1,104.6C76.8,99.8,87.7,97.6,98.5,99.1z"/>
			</g>
		</g>
		<g>
			<g>
				<g>
					<path class="st5" d="M413.3,150.2c1.1,0,2.1-0.9,2.1-2.1v-56c0-1-0.8-1.9-1.8-2c-1-0.1-2,0.5-2.3,1.5l-14.5,55.2
						c-0.3,1.1,0.4,2.2,1.5,2.5c1.1,0.3,2.2-0.4,2.5-1.5l10.4-39.7v40C411.2,149.3,412.1,150.2,413.3,150.2z"/>
				</g>
				<g>
					<polygon class="st6" points="471,295 459.3,134.5 416.7,134.5 428.5,295 					"/>
					<g>
						<polygon class="st7" points="379.9,295 428.5,295 416.7,134.5 391.7,134.5 						"/>
						<path class="st8" d="M404.2,134.5v145.4l-0.3-2.9C398.7,229.7,398.8,181.9,404.2,134.5L404.2,134.5z"/>
						<polygon class="st8" points="428.5,295 404.2,279.9 379.9,295 						"/>
					</g>
				</g>
				<g>
					<path class="st5" d="M452,151.2c0.2,0,0.4,0,0.6-0.1c1.1-0.3,1.7-1.4,1.4-2.5l-4.1-14.6c-0.1-0.3-0.2-0.5-0.4-0.7l-34.7-42.4
						c-0.6-0.8-1.7-1-2.6-0.5c-0.9,0.5-1.3,1.5-0.9,2.5l15.1,42.2l2.5,14.5c0.2,1.1,1.3,1.9,2.4,1.7c1.1-0.2,1.9-1.3,1.7-2.4
						l-2.5-14.6c0-0.1-0.1-0.2-0.1-0.4l-11.2-31.1l26.8,32.8l4,14.2C450.3,150.6,451.1,151.2,452,151.2z"/>
				</g>
			</g>
			<g>
				<path class="st9" d="M432,75.8l2.9,3.9c2.5,3.3,2.5,7.9,0,11.2l-11.4,14.9l-1-1.6c-3.7-6-3.1-13.8,1.6-19.1L432,75.8z"/>
				<g>
					<path class="st10" d="M303.8,175.2l28.8,17.4l27.9-105.2c4.1-15.5,16.1-27.7,31.5-32l14.9-4.2c3.7-1,7.7,0.2,10.1,3.2
						l15.5,19.3c3.1,3.8,2.7,9.4-0.8,12.8l-13.4,13.1l-1.6-2.4c-3.1-4.6-2.7-10.6,1-14.7l1.9-2.1l-11.8-10.8l-11.7,11.7l12.8,6.8
						c1.7,0.9,3.2,2.3,4.3,3.9l0,0c2.8,4.1,1.4,9.6-3,11.9l-2.6,1.4l-3.5-4.1c-2.6-3.1-6.3-5-10.3-5.3l-4.2-0.3l-15.6,101.8
						c-4.6,29.8-37.1,46.2-63.8,32.1L280.8,214L303.8,175.2z"/>
					<path class="st5" d="M303.8,175.2l6,3.6c1.9,15.5-3.1,31.7-13.3,43.5l-15.7-8.3L303.8,175.2z"/>
				</g>
				<path class="st9" d="M419.6,80.6l-3-0.7c-3.1-0.7-6.3-0.4-9.1,1l-6.4,3.1l-4.9-2.6l11.7-11.7L419.6,80.6z"/>
			</g>
			<g>
				<path class="st11" d="M195.4,139.2l36.6-4.1c11.7-1.3,23.5,1.7,33.2,8.5l42.3,29.9v0c-1.9,19-10,36.8-23,50.7l-1,1l-30.9-21.9
					c-4.1,79.6-63.7,152.7-63.7,152.7L83.3,138l49.1-25.3c11.8-6.1,26-4.5,36.2,4L195.4,139.2z"/>
				<g>
					<path class="st12" d="M169.5,143.6c0.3-3.7,1-7.3,2.6-10.6c1.6-3.3,4.1-6.3,7.3-7.9c2.9-1.4,6.1-1.8,9.3-1.9
						c-1.1,0.4-2.2,0.8-3.3,1.3c-3.2,1.6-6,4-7.4,7.3c-1.5,3.8-0.8,8.1,0.4,11.9c2.2,6.9,6.1,13.2,11.1,18.4l-14,13.2
						C170.6,165.6,168.5,154.4,169.5,143.6z"/>
					<path class="st12" d="M218.3,140.3c0.3-3.6-0.4-7.2-1.7-10.6c0.8,0.7,1.5,1.4,2,2.3c2.9,4.9,4.3,10.7,3.8,16.3
						c-0.5,6.1-3.1,11.9-6.6,16.9c-3.4,5.1-7.7,9.5-11.9,13.9l-6.7-15.6c4.6-1.7,9.1-3.6,12.8-6.7
						C214.7,152.7,217.8,146.6,218.3,140.3z"/>
					<path class="st13" d="M178.1,131.7c1.3-3.3,4.2-5.8,7.4-7.3c1.1-0.5,2.1-0.9,3.3-1.3c0.8,0,1.5,0,2.3,0c4.7,0,9.4,0.2,13.9,1.4
						c3.6,0.9,8.5,2.6,11.6,5.3c1.3,3.3,2,7,1.7,10.6c-0.4,6.3-3.5,12.4-8.4,16.5c-3.7,3.1-8.2,5-12.8,6.7l-2.6-6.1l-4.9,4.6
						c-5.1-5.1-9-11.5-11.1-18.4C177.3,139.8,176.6,135.5,178.1,131.7z"/>
				</g>
				<path class="st12" d="M161.4,299.1c3.9-1.1,6.2-6.1,7.3-9.9c1.1-3.9,1.7-8.1,4.3-11.2c2.8-3.4,7.6-5,9.4-9
					c2.6-5.9-3-12.5-1.8-18.8c0.8-4.2,4.2-7.2,6.4-10.8c2.6-4.2,3.8-9.9,2.9-15c-0.6-3.2-0.1-6.5,1.5-9.4c2.4-4.2,3.4-9.2,3.5-14.1
					c0.1-6.7-1.3-13.3-1.9-20c-0.6-6.7-0.5-14.7,2.8-20.5l-1.3-3c0,0-2.1,2-2.1,2c-1.9,1.8-2.3,8.5-2.6,11.1
					c-0.5,4.1-0.6,8.3-0.2,12.5c0.7,7.5,3.1,16.7,1,24.2c-1.4,5-3.7,7.2-4.3,12.3c-0.5,3.9,0,8-0.6,11.9c-0.5,3.4-1.7,6.8-4.2,9.2
					c-2.3,2.3-4.7,5-5.1,8.4c-0.5,4.8,2.5,9.2,2.7,14c0.1,2.6-0.6,5.4-2.5,7.4c-2,2.1-4.9,2.7-7,4.7c-2.7,2.6-3.3,6.6-4.2,10.2
					c-1,3.6-3,7.6-6.7,8.2"/>
				
					<ellipse transform="matrix(0.2283 -0.9736 0.9736 0.2283 -51.4783 327.1867)" class="st12" cx="180.7" cy="196.1" rx="6.1" ry="4.5"/>
				
					<ellipse transform="matrix(0.2284 -0.9736 0.9736 0.2284 -91.1827 345.8651)" class="st12" cx="172.6" cy="230.5" rx="6.1" ry="4.5"/>
				
					<ellipse transform="matrix(0.2284 -0.9736 0.9736 0.2284 -128.7942 363.0809)" class="st12" cx="164.7" cy="262.8" rx="6.1" ry="4.5"/>
				<path class="st12" d="M294.8,164.6c-0.5,30.9-15.3,43.6-25.2,50.9l-4.4-3.1c21.3-10.6,26.9-41.9,25.1-50.9L294.8,164.6z"/>
				<path class="st14" d="M252.6,203.4c1.6-24.2-5-52.3-5-52.3c12.9,7.5,21.9,23,24,37.8c0.5,3.6,0.7,7.4,2,10.8
					c1.4,3.6,4,6.5,5.8,9.9c1.7,3.4,2.5,9.9,0.1,12.9L252.6,203.4z"/>
				<path class="st14" d="M107.8,171.5c19.6-6.8,34.6-25.3,37.3-45.9c3,8.7,1.6,18.8-3,26.8c-2.5,4.4-6.1,8.3-7.5,13.2
					c-1.4,4.6-0.6,9.5-0.4,14.3c0.2,4.8-0.2,10-3.3,13.6C124.6,185.7,115.8,177.5,107.8,171.5z"/>
				<path class="st14" d="M215.6,316.1c-14,24.4-26.6,39.9-26.6,39.9l-76.6-158.1l24.6-1.9C140.9,239,175.2,293.4,215.6,316.1z"/>
				<path class="st12" d="M206.2,194.9c14,0.2,27.9-0.5,41.8-2.3c0.6,2,0.3,4.1-0.4,6.1c-13.3,3.2-27.8,4.6-41.4,3.3
					C206.3,200.1,206,196.8,206.2,194.9z"/>
				<path class="st15" d="M205.7,209c14.1,1.5,28.5,0.4,42.2-3.2c0.4,10.7-1.6,21.4-5.3,31.4c-0.7,1.9-2.2,3.4-4.1,4.1
					c-3.8,1.4-7.7,2.9-11.5,4.3c-2.2,0.8-4.5,0.9-6.7,0.3c-4.4-1.2-8.8-2.3-13.2-3.4c-3.7-0.9-5.9-4.7-4.9-8.3
					C204.3,226,205.3,217,205.7,209z"/>
			</g>
			<g>
				<path class="st10" d="M228.1,122.4l-11.9,18.7c-9.5,10.3-21.2,13.2-21.2,13.2c-15.8-18.2-12.5-24.3-12.5-24.3l13.3-28.1
					L228.1,122.4z"/>
				<path class="st5" d="M209.9,132.4c-6.3-3-11-9.1-12.7-15.8c-1.2-4.5-1.1-9.3,0-13.8l30.8,19.7l-7.7,12.1
					C216.8,134.7,213.2,133.9,209.9,132.4z"/>
			</g>
			<g>
				<g>
					<path class="st16" d="M265.6,22.6c-1.4-4.4-6.1-7.1-10.8-7.6c-4.6-0.5-9.2,0.9-13.7,2.3c-3.2,1-6.5,2.1-9.7,3.2
						c2.1-4.6,4.8-9.8,9-11.8c4.6-2.2,8.9-4,14-4.5c5.1-0.5,10.4,0.4,14.8,3s7.7,7.2,8.2,12.3c0.4,3.7-0.7,7.4-1.8,11
						c-1,3.2-2,6.5-2.9,9.7c-0.4,1.4-0.9,2.9-1.8,4.1c-2.1,2.8-6.1,3.4-9.6,3.3c-0.2,0-0.4,0-0.6,0c1.4-4.8,2.7-9.7,4.1-14.5
						C265.8,29.7,266.7,26,265.6,22.6z"/>
					<path class="st17" d="M231.5,20.5c3.2-1.1,6.4-2.2,9.7-3.2c4.4-1.4,9-2.7,13.7-2.3c4.6,0.5,9.3,3.2,10.8,7.6
						c1.1,3.4,0.2,7.1-0.8,10.6c-1.4,4.8-2.7,9.7-4.1,14.5c-9.9-0.4-19.7-4.1-27.3-10.5c-2-1.7-4-3.7-4.6-6.3
						c-0.6-2.6,0.4-5.3,1.5-7.8C230.7,22.3,231.1,21.4,231.5,20.5z"/>
				</g>
				<path class="st10" d="M228.1,127L228.1,127c21,0,38.1-17,38.1-38.1V68.7c0-21-17-38.1-38.1-38.1l0,0c-21,0-38.1,17-38.1,38.1V89
					C190,110,207,127,228.1,127z"/>
				<path class="st9" d="M227.8,55.5c-7.6-5-13.6-12.2-17.4-20.5c5.3-2.8,11.3-4.4,17.7-4.4l0,0c18.8,0,34.4,13.7,37.5,31.6
					C252.8,65.2,238.8,62.7,227.8,55.5z"/>
				<g>
					<g>
						<path class="st18" d="M224.4,59.8c4.7-0.5,9.1,1.3,12.1,4.5l-23,2.5C215.8,63,219.8,60.3,224.4,59.8z"/>
					</g>
					<g>
						<path class="st18" d="M258.4,59.1c-3.4-0.4-6.7,1.6-9,4.8l16.7,1.8C264.6,62.1,261.8,59.5,258.4,59.1z"/>
					</g>
					<ellipse class="st5" cx="227.6" cy="79.6" rx="3.2" ry="3.9"/>
					<ellipse class="st5" cx="257.8" cy="79.6" rx="3.2" ry="3.9"/>
					<path class="st9" d="M238.1,95.4c4,0.2,8.1,0.3,12.1,0.5c-1.1,1.7-2.2,3.8-4.2,4.4c-1.5,0.4-3.1,0.1-4.4-0.8
						C240.3,98.6,238.9,96.8,238.1,95.4z"/>
					<path class="st19" d="M216.6,99.8c8.7,4.8,18.1,8.2,27.8,10.1c-3.9,4.6-9.7,8.3-15.6,7.8c-3.9-0.4-7.6-2.5-9.8-5.8
						C216.7,108.6,215.5,103.5,216.6,99.8z"/>
					<circle class="st20" cx="209.6" cy="90.7" r="8"/>
					
						<ellipse transform="matrix(0.1518 -0.9884 0.9884 0.1518 124.7712 339.3498)" class="st20" cx="260.1" cy="97" rx="8" ry="2.8"/>
				</g>
				<g>
					<path class="st18" d="M190,90.4l4.8,3c2.8-2.8,4.4-6.6,4.4-10.6v-8.4c0-1.9,1-3.7,2.6-4.8l5.9-3.9c2.6-1.7,4.2-4.7,4.2-7.8
						V43.1c8.5,7.3,19,11.7,30.1,13.3c11,1.6,22.5,0,32.7-4.6c2.4-1.1,4.9-2.4,6.3-4.7c1.5-2.2,1.5-5.6-0.5-7.3
						c-3.5-2.9-9,0.9-13.3-0.5c-3.5-1.2-4.9-5.4-6.8-8.6c-3.9-6.6-12.4-10.1-19.9-8.3c-4.1,1-7.7,3.4-11.9,3.9
						c-6.2,0.7-12-3.1-18.1-3.7c-7.4-0.7-14.7,3.6-19.1,9.6c-4.4,6-6.4,13.5-7.1,20.9c-1.3,12.4,0.5,25.2,5.1,36.8
						C189.3,89.4,190,90.9,190,90.4z"/>
					<path class="st5" d="M210.5,22.6c6.2,0.6,12,4.3,18.1,3.7c4.2-0.4,7.9-2.9,11.9-3.9c4.2-1.1,8.8-0.4,12.7,1.6
						c-1.4-0.3-2.9-0.5-4.3-0.5c-3.3,0.1-6.8,1.6-8.4,4.5c-1,1.9-1.1,4.2-1.6,6.3c-0.9,4.4-3.5,8.4-7,11.1
						c-3.1,2.4-6.9,3.7-10.7,3.9c-3.3-1.8-6.4-3.9-9.3-6.4v6.5c-3.3-0.5-6.6-1-9.8-1.9c-3.7-1-7.4-2.3-10.6-4.4c-1.6-1-3-2-4.4-3
						c1.1-2.9,2.4-5.6,4.3-8.1C195.8,26.2,203,21.9,210.5,22.6z"/>
				</g>
				<g>
					<g>
						<path class="st12" d="M169.3,25.9c0.2-0.4,0.4-0.7,0.7-1c4.2-5.6,11.1-12.4,18.4-17.5c1.7-1.2,3.6-1.8,5.6-1.9
							c4.1-0.1,11.6-0.2,17.4,0.7c1.6,0.3,3.1,0.9,4.4,1.9l12.7,9.2l-34.2,28.5c0,0-1.2,1.3-2.7,4.6
							C182.3,44.2,174.6,35.7,169.3,25.9z"/>
						<path class="st11" d="M168.7,27.1c0.2-0.4,0.4-0.9,0.6-1.3c5.3,9.8,13,18.3,22.3,24.5c-2.2,4.9-5,14.5-5,31.3
							c0,0-9.6-5.4-16.5-10.9c-3.3-2.6-5.3-6.5-5.6-10.7C164.1,52.4,164.2,38.6,168.7,27.1z"/>
					</g>
					<path class="st11" d="M240.5,8.7c-7.9,7.4-4.9,21.8-12.8,29.2c-4.3,4-10.5,4.7-16.4,4.9c-5.8,0.2-12,0.1-17,3
						c2.9-9.6,8.7-17.7,16.8-23.6C219.9,17.5,240.5,8.7,240.5,8.7z"/>
				</g>
				<g>
					<circle class="st10" cx="182.5" cy="92.3" r="13.3"/>
					<circle class="st9" cx="182.5" cy="92.3" r="8.5"/>
				</g>
			</g>
			<path class="st10" d="M94.4,160.9l15,3.1c15.3,3.2,26.6,16.3,27.5,31.9l1.3,23.4c0.2,4-0.4,8.1-1.9,11.8
				c-3.5,8.2-9.7,15.6-17,20.4c-1.4,0.9-3.1,0.8-4.5-0.1c0,0,0,0-0.1,0c-2.2-1.5-2.3-4.6-0.3-6.3c4.3-3.7,7.7-8.8,9.1-14.2
				c-4.9,4.9-11.8,7.9-18.8,7.8c-9-0.2-14.8-9.9-18-19.6c-1.1-3.4,1.3-6.9,4.9-6.9c2.3,0,4.6-0.5,6.7-1.4l-0.2-7.3
				c-0.2-8.1,1.7-16.1,5.5-23.3l0,0L94.4,160.9z"/>
		</g>
	</g>
</g>
</svg>
