<?xml version="1.0" encoding="utf-8"?>
<!-- Generator: Adobe Illustrator 25.4.1, SVG Export Plug-In . SVG Version: 6.00 Build 0)  -->
<svg version="1.1" id="Capa_1" xmlns="http://www.w3.org/2000/svg" xmlns:xlink="http://www.w3.org/1999/xlink" x="0px" y="0px"
	 viewBox="0 0 369 199.9" style="enable-background:new 0 0 369 199.9;" xml:space="preserve">
<style type="text/css">
	.st0{fill:#FFFFFF;}
</style>
<g>
	<g>
		<path class="st0" d="M44.9,128.8c2.8,1.3,5,3.1,6.6,5.5c1.5,2.4,2.3,5.2,2.3,8.4c0,3.2-0.8,6-2.3,8.4c-1.5,2.4-3.7,4.2-6.6,5.5
			c-2.8,1.3-6.2,1.9-10,1.9h-8.8v12H16v-43.5h18.8C38.7,126.9,42,127.5,44.9,128.8z M41.2,148.2c1.6-1.3,2.4-3.2,2.4-5.6
			c0-2.4-0.8-4.3-2.4-5.6c-1.6-1.3-3.9-2-6.9-2h-8.2v15.1h8.2C37.3,150.2,39.6,149.5,41.2,148.2z"/>
		<path class="st0" d="M88.6,170.4l-8.4-12.1h-0.5h-8.8v12.1H60.9v-43.5h18.8c3.9,0,7.2,0.6,10,1.9c2.8,1.3,5,3.1,6.6,5.5
			c1.5,2.4,2.3,5.2,2.3,8.4s-0.8,6-2.3,8.4c-1.6,2.3-3.8,4.1-6.6,5.4l9.8,14H88.6z M86.1,137c-1.6-1.3-3.9-2-6.9-2h-8.2v15.2h8.2
			c3,0,5.3-0.7,6.9-2c1.6-1.3,2.4-3.2,2.4-5.6C88.4,140.2,87.6,138.3,86.1,137z"/>
		<path class="st0" d="M115.4,168.2c-3.6-1.9-6.5-4.6-8.5-8c-2.1-3.4-3.1-7.3-3.1-11.5c0-4.3,1-8.1,3.1-11.5c2.1-3.4,4.9-6.1,8.5-8
			c3.6-1.9,7.7-2.9,12.2-2.9c4.5,0,8.6,1,12.2,2.9c3.6,1.9,6.4,4.6,8.5,8c2.1,3.4,3.1,7.3,3.1,11.5c0,4.3-1,8.1-3.1,11.5
			c-2.1,3.4-4.9,6.1-8.5,8c-3.6,1.9-7.7,2.9-12.2,2.9C123.1,171.1,119,170.1,115.4,168.2z M134.6,160.8c2.1-1.2,3.7-2.8,4.9-4.9
			c1.2-2.1,1.8-4.5,1.8-7.2c0-2.7-0.6-5.1-1.8-7.2c-1.2-2.1-2.8-3.8-4.9-4.9c-2.1-1.2-4.4-1.8-7-1.8s-4.9,0.6-7,1.8
			c-2.1,1.2-3.7,2.8-4.9,4.9c-1.2,2.1-1.8,4.5-1.8,7.2c0,2.7,0.6,5.1,1.8,7.2c1.2,2.1,2.8,3.8,4.9,4.9c2.1,1.2,4.4,1.8,7,1.8
			S132.5,162,134.6,160.8z"/>
		<path class="st0" d="M159,126.9h10.1v35.3h21.8v8.2H159V126.9z"/>
		<path class="st0" d="M204.7,168.2c-3.6-1.9-6.5-4.6-8.5-8c-2.1-3.4-3.1-7.3-3.1-11.5c0-4.3,1-8.1,3.1-11.5c2.1-3.4,4.9-6.1,8.5-8
			c3.6-1.9,7.7-2.9,12.2-2.9c4.5,0,8.6,1,12.2,2.9c3.6,1.9,6.4,4.6,8.5,8c2.1,3.4,3.1,7.3,3.1,11.5c0,4.3-1,8.1-3.1,11.5
			c-2.1,3.4-4.9,6.1-8.5,8c-3.6,1.9-7.7,2.9-12.2,2.9C212.4,171.1,208.3,170.1,204.7,168.2z M223.9,160.8c2.1-1.2,3.7-2.8,4.9-4.9
			c1.2-2.1,1.8-4.5,1.8-7.2c0-2.7-0.6-5.1-1.8-7.2c-1.2-2.1-2.8-3.8-4.9-4.9c-2.1-1.2-4.4-1.8-7-1.8c-2.6,0-4.9,0.6-7,1.8
			c-2.1,1.2-3.7,2.8-4.9,4.9c-1.2,2.1-1.8,4.5-1.8,7.2c0,2.7,0.6,5.1,1.8,7.2c1.2,2.1,2.8,3.8,4.9,4.9c2.1,1.2,4.4,1.8,7,1.8
			C219.5,162.5,221.8,162,223.9,160.8z"/>
		<path class="st0" d="M277.7,147.9h9.2v17.7c-2.4,1.8-5.1,3.1-8.2,4.1c-3.1,1-6.2,1.4-9.4,1.4c-4.5,0-8.6-1-12.2-2.9
			c-3.6-1.9-6.4-4.6-8.5-8c-2.1-3.4-3.1-7.3-3.1-11.6c0-4.3,1-8.2,3.1-11.6c2.1-3.4,4.9-6.1,8.5-8c3.6-1.9,7.7-2.9,12.3-2.9
			c3.8,0,7.3,0.6,10.4,1.9c3.1,1.3,5.7,3.1,7.8,5.6l-6.5,6c-3.1-3.3-6.9-4.9-11.3-4.9c-2.8,0-5.2,0.6-7.4,1.7
			c-2.2,1.2-3.8,2.8-5,4.9s-1.8,4.5-1.8,7.3c0,2.7,0.6,5.1,1.8,7.2s2.9,3.8,5,4.9c2.1,1.2,4.6,1.8,7.3,1.8c2.9,0,5.5-0.6,7.8-1.9
			V147.9z"/>
		<path class="st0" d="M296.2,126.9h10.1v43.5h-10.1V126.9z"/>
		<path class="st0" d="M346,147.9h9.2v17.7c-2.4,1.8-5.1,3.1-8.2,4.1c-3.1,1-6.2,1.4-9.4,1.4c-4.5,0-8.6-1-12.2-2.9
			c-3.6-1.9-6.4-4.6-8.5-8c-2.1-3.4-3.1-7.3-3.1-11.6c0-4.3,1-8.2,3.1-11.6c2.1-3.4,4.9-6.1,8.5-8c3.6-1.9,7.7-2.9,12.3-2.9
			c3.8,0,7.3,0.6,10.4,1.9c3.1,1.3,5.7,3.1,7.8,5.6l-6.5,6c-3.1-3.3-6.9-4.9-11.3-4.9c-2.8,0-5.2,0.6-7.4,1.7
			c-2.2,1.2-3.8,2.8-5,4.9s-1.8,4.5-1.8,7.3c0,2.7,0.6,5.1,1.8,7.2s2.9,3.8,5,4.9c2.1,1.2,4.6,1.8,7.3,1.8c2.9,0,5.5-0.6,7.8-1.9
			V147.9z"/>
	</g>
</g>
<g>
	<g>
		<path class="st0" d="M80.3,70.1L80.3,70.1c-8,4-13,12.2-13,21.1v28.6l114.9-68h0.2C149.4,35.6,126.2,46.6,80.3,70.1z"/>
		<g>
			<path class="st0" d="M186.4,8.9c-2.4-0.5-4.9-0.7-7.3-0.4C181.5,8.3,183.9,8.4,186.4,8.9z"/>
		</g>
		<path class="st0" d="M266.6,68.5l-1.4,4.2l-0.1,0.1L256.5,99l-1.2,3.5l-72.7-52.7l-0.3-0.3c0,0-0.7-0.6-1-0.7
			c-31.1-19.3-56.2-5.1-102,18.4l92-56.3c1.4-0.7,2.8-1.3,4.3-1.6c0.9-0.2,1.8-0.4,2.5-0.6c0.3,0,0.6-0.1,0.9-0.1
			c2.4-0.2,4.9-0.1,7.3,0.4c0.2,0.1,0.5,0.1,0.7,0.2c0.3,0.1,0.6,0.2,0.9,0.2c0.3,0.1,0.6,0.2,0.9,0.3h0.1c0.9,0.3,1.8,0.7,2.5,1.1
			L266.6,68.5z"/>
	</g>
</g>
<path class="st0" d="M313.9,28.8c0,0-12.9,39.2-22.2,68.3c-1.4,4.7-4.8,8.4-8.9,10.6c-3.6,1.8-7.6,2.5-11.8,1.6l-2.2-0.6l-10.9-3.9
	l0.8-2.3l1.2-3.5l8.6-26.2l0.1-0.1l1.4-4.2l2.1-6.3c3.1-9.4,4.2-16.9,13.2-20.9L313.9,28.8z"/>
</svg>
