<?xml version="1.0" encoding="utf-8"?>
<!-- Generator: Adobe Illustrator 25.4.1, SVG Export Plug-In . SVG Version: 6.00 Build 0)  -->
<svg version="1.1" id="Capa_1" xmlns="http://www.w3.org/2000/svg" xmlns:xlink="http://www.w3.org/1999/xlink" x="0px" y="0px"
	 viewBox="0 0 500 246.9" style="enable-background:new 0 0 500 246.9;" xml:space="preserve">
<style type="text/css">
	.st0{fill:#0EC4CB;}
</style>
<g>
	<g>
		<path class="st0" d="M40.2,182.2c3.8,1.7,6.7,4.1,8.7,7.3c2.1,3.2,3,6.9,3,11.2c0,4.2-1.1,8.1-3,11.2c-2.1,3.2-5,5.7-8.7,7.3
			c-3.8,1.7-8.3,2.5-13.5,2.5H14.9v16H1.4v-58.4h25.3C31.8,179.6,36.3,180.5,40.2,182.2z M35.1,208.3c2.1-1.7,3.2-4.2,3.2-7.4
			c0-3.3-1.1-5.8-3.2-7.5s-5.2-2.6-9.3-2.6h-11V211h11C30,210.9,33,210,35.1,208.3z"/>
		<path class="st0" d="M98.6,237.9l-11.2-16.3h-0.7H74.9v16.3H61.5v-58.4h25.2c5.2,0,9.7,0.9,13.5,2.6c3.8,1.7,6.7,4.1,8.7,7.3
			c2.1,3.2,3,6.9,3,11.2s-1.1,8.1-3.2,11.2c-2.1,3.2-5,5.6-8.9,7.1l13.1,18.8L98.6,237.9L98.6,237.9z M95.3,193.2
			c-2.1-1.7-5.2-2.6-9.3-2.6H75V211h11c4.1,0,7.1-0.9,9.3-2.6c2.1-1.7,3.2-4.2,3.2-7.5C98.5,197.6,97.5,195.1,95.3,193.2z"/>
		<path class="st0" d="M134.6,235c-4.9-2.6-8.6-6.2-11.4-10.9c-2.8-4.6-4.1-9.8-4.1-15.5s1.3-10.9,4.1-15.5s6.6-8.2,11.4-10.9
			c4.9-2.6,10.3-4,16.4-4c6.1,0,11.5,1.3,16.3,4c4.9,2.6,8.6,6.2,11.4,10.9c2.8,4.6,4.1,9.8,4.1,15.5s-1.3,10.9-4.1,15.5
			s-6.6,8.2-11.4,10.9c-4.9,2.6-10.3,4-16.3,4C145,239,139.5,237.7,134.6,235z M160.3,225.1c2.8-1.6,4.9-3.8,6.5-6.6
			s2.4-6.1,2.4-9.7s-0.8-6.9-2.4-9.7c-1.6-2.8-3.7-5-6.5-6.6s-5.8-2.4-9.3-2.4c-3.4,0-6.6,0.8-9.3,2.4c-2.8,1.6-4.9,3.8-6.5,6.6
			s-2.4,6.1-2.4,9.7s0.8,6.9,2.4,9.7s3.7,5,6.5,6.6s5.8,2.4,9.3,2.4S157.5,226.7,160.3,225.1z"/>
		<path class="st0" d="M256.5,197.4c3.4,3.3,5.2,8.3,5.2,14.8v25.7h-13v-23.7c0-3.6-0.8-6.2-2.4-7.9s-3.8-2.6-6.7-2.6
			c-3.3,0-5.8,1.1-7.8,3s-2.9,5-2.9,9v22.1h-13V176h13v21.7c1.7-1.7,3.8-3,6.2-4c2.4-0.9,5.2-1.3,7.9-1.3
			C248.5,192.4,253,194.1,256.5,197.4z"/>
		<path class="st0" d="M282.5,235.7c-3.7-2-6.6-4.8-8.7-8.2s-3.2-7.4-3.2-11.9s1.1-8.5,3.2-11.9s5-6.2,8.7-8.2s7.9-2.9,12.7-2.9
			c4.8,0,9,0.9,12.7,2.9s6.6,4.8,8.7,8.2s3.2,7.4,3.2,11.9s-1.1,8.5-3.2,11.9s-5,6.2-8.7,8.2s-7.9,2.9-12.7,2.9
			C290.5,238.6,286.2,237.7,282.5,235.7z M303.5,224.6c2.1-2.2,3.2-5.3,3.2-9c0-3.8-1.1-6.7-3.2-9c-2.1-2.2-4.9-3.3-8.2-3.3
			c-3.3,0-6.1,1.1-8.2,3.3s-3.3,5.3-3.3,9c0,3.8,1.1,6.7,3.3,9c2.2,2.2,4.9,3.3,8.2,3.3C298.5,227.9,301.1,226.8,303.5,224.6z"/>
		<path class="st0" d="M357.2,235.8c-1.3,0.9-2.9,1.6-4.8,2.1s-3.8,0.7-5.8,0.7c-5.3,0-9.4-1.3-12.3-4.1s-4.4-6.7-4.4-12v-18.4h-6.9
			V194h6.9v-10.9h13V194h11.1v10.1H343v18.3c0,1.9,0.5,3.3,1.5,4.4c0.9,1.1,2.4,1.6,4.1,1.6c2.1,0,3.8-0.5,5.3-1.7L357.2,235.8z"/>
		<path class="st0" d="M407,219.1h-33.9c0.7,2.8,2.1,5,4.4,6.6s5.2,2.4,8.5,2.4c2.4,0,4.4-0.4,6.2-1.1c1.9-0.7,3.4-1.9,5-3.3
			l6.9,7.5c-4.2,4.9-10.3,7.3-18.5,7.3c-5,0-9.5-0.9-13.4-2.9s-6.9-4.8-9-8.2s-3.2-7.4-3.2-11.9c0-4.4,1.1-8.3,3.2-11.9
			c2.1-3.6,4.9-6.2,8.6-8.2s7.7-2.9,12.2-2.9c4.4,0,8.3,0.9,11.9,2.8c3.6,1.9,6.4,4.6,8.3,8.1c2,3.6,3,7.7,3,12.3
			C407,215.8,407,217,407,219.1z M376.5,204.9c-2,1.7-3.2,4-3.7,6.9h22.1c-0.4-2.8-1.7-5-3.7-6.7s-4.5-2.5-7.3-2.5
			C381,202.3,378.5,203.1,376.5,204.9z"/>
		<path class="st0" d="M415.8,176.1h13v61.8h-13V176.1z"/>
	</g>
</g>
<g>
	<g>
		<path class="st0" d="M70.2,92.4L70.2,92.4c-10.8,5.4-17.6,16.5-17.6,28.6v38.8l155.9-92.2h0.3C163.9,45.5,132.4,60.5,70.2,92.4z"
			/>
		<g>
			<polygon class="st0" points="344.5,150.5 345,150.6 355.4,132.2 354.4,133.8 			"/>
		</g>
		<g>
			<path class="st0" d="M214,9.4c-3.3-0.7-6.6-0.9-9.9-0.5C207.4,8.5,210.7,8.7,214,9.4z"/>
		</g>
		<path class="st0" d="M338,101.8l-0.1,0.1l-21.3,30.7l-4.8,6.7L209,64.7l-0.4-0.4c0,0-0.9-0.8-1.3-0.9
			C165.1,37.2,131.1,56.5,69,88.3l124.8-76.4c1.9-0.9,3.8-1.7,5.8-2.2c1.2-0.3,2.4-0.5,3.4-0.8c0.4,0,0.8-0.1,1.2-0.1
			c3.3-0.3,6.6-0.1,9.9,0.5c0.3,0.1,0.7,0.1,0.9,0.3c0.4,0.1,0.8,0.3,1.2,0.3l0,0c0.4,0.1,0.8,0.3,1.2,0.4h0.1
			c1.2,0.4,2.4,0.9,3.4,1.5L338,101.8z"/>
	</g>
</g>
<path class="st0" d="M416.9,65c0,0-32,45.9-55.4,80.2c-3.7,5.6-9.5,9.1-15.7,10.3c-5.3,0.9-10.9,0.3-15.9-2.5l-2.6-1.7l-12.7-9.3
	l4.8-6.7l21.3-30.7l0.1-0.1l8.7-12.4c7.7-11,12-20.4,25.3-22L416.9,65z"/>
</svg>
