<?xml version="1.0" encoding="utf-8"?>
<!-- Generator: Adobe Illustrator 21.0.2, SVG Export Plug-In . SVG Version: 6.00 Build 0)  -->
<svg version="1.1" id="Capa_1" xmlns="http://www.w3.org/2000/svg" xmlns:xlink="http://www.w3.org/1999/xlink" x="0px" y="0px"
	 viewBox="0 0 509 421" style="enable-background:new 0 0 509 421;" xml:space="preserve">
<style type="text/css">
	.st0{fill:#FFFFFF;}
</style>
<path class="st0" d="M127.9,189.6c23.2-27.7,47.3-47.2,73.8-59.3c29.8-13.7,63.3-20.1,102.5-19.7c23.1,0.2,46.2,2.4,68.6,4.7
	c-14.6-15.3-30.1-32.1-43.4-50.2c-5.2-7.1-5.5-15.9-0.8-22.8c5.3-7.8,15.8-11.6,24.9-9.2c4.9,1.3,9.1,4.2,12.2,8.4
	c12.5,17.1,27.8,32.9,42.7,48.3c1.9,1.9,3.7,3.9,5.6,5.8l2.6,2.7c15.8,16.4,32.1,33.4,49.7,47.4c6.6,5.2,9,13.1,6.6,21.1
	c-2.7,9.1-11,15.9-20.1,16.7c-5.3,0.4-14.3,5.1-20.2,8.2l-0.5,0.3c-11,5.6-22.4,12.4-36,21.2l-2.7,1.7
	c-18.3,11.9-37.2,24.1-51.3,39.5c-5.4,5.9-12.8,8.1-20.2,6.2c-7.5-2-13.8-8.1-16-15.7c-2.1-7.3-0.3-14.8,5-20.6
	c18.2-19.8,42.7-35.3,64.2-49.1l0.8-0.5c1.7-1.1,3.5-2.2,5.2-3.4c5-3.3,10.3-6.7,15.8-10.1c-6.7-0.7-13.3-1.4-19.8-2.1
	c-47.4-5.2-96.4-10.6-141.1,4.1c-44.2,14.6-82.1,52.1-115.8,114.9c-11,20.5-26,51.4-29.1,83.1c-0.6,6.7-4,12.4-9.4,16.2
	c-5.6,3.9-12.9,5.2-19.4,3.5c0,0,0,0,0,0c-9.7-2.5-15.5-11.1-14.6-21.3C55.1,286.5,101.1,221.7,127.9,189.6z"/>
</svg>
