<?xml version="1.0" encoding="utf-8"?>
<!-- Generator: Adobe Illustrator 21.0.2, SVG Export Plug-In . SVG Version: 6.00 Build 0)  -->
<svg version="1.1" id="Capa_1" xmlns="http://www.w3.org/2000/svg" xmlns:xlink="http://www.w3.org/1999/xlink" x="0px" y="0px"
	 viewBox="0 0 476 402" style="enable-background:new 0 0 476 402;" xml:space="preserve">
<path d="M162.8,260L162.8,260C162.9,260,162.9,260,162.8,260l214,0c5.3,0,9.9-3.5,11.3-8.6l47.2-165.2c1-3.6,0.3-7.4-1.9-10.3
	c-2.2-3-5.7-4.7-9.4-4.7H135.6l-8.4-38c-1.2-5.4-6-9.2-11.5-9.2H44.9c-6.5,0-11.8,5.3-11.8,11.8s5.3,11.8,11.8,11.8h61.3
	c1.5,6.7,40.4,181.7,42.6,191.7c-12.5,5.5-21.3,18-21.3,32.5c0,19.5,15.9,35.4,35.4,35.4h214c6.5,0,11.8-5.3,11.8-11.8
	c0-6.5-5.3-11.8-11.8-11.8h-214c-6.5,0-11.8-5.3-11.8-11.8C151.1,265.3,156.3,260,162.8,260z M408.4,94.8l-40.5,141.6H172.3
	L140.8,94.8H408.4z"/>
<path d="M151.1,342.6c0,19.5,15.9,35.4,35.4,35.4s35.4-15.9,35.4-35.4s-15.9-35.4-35.4-35.4S151.1,323.1,151.1,342.6z M186.5,330.8
	c6.5,0,11.8,5.3,11.8,11.8s-5.3,11.8-11.8,11.8s-11.8-5.3-11.8-11.8S179.9,330.8,186.5,330.8z"/>
<path d="M317.8,342.6c0,19.5,15.9,35.4,35.4,35.4s35.4-15.9,35.4-35.4s-15.9-35.4-35.4-35.4S317.8,323.1,317.8,342.6z M353.2,330.8
	c6.5,0,11.8,5.3,11.8,11.8s-5.3,11.8-11.8,11.8s-11.8-5.3-11.8-11.8S346.7,330.8,353.2,330.8z"/>
</svg>
