<?xml version="1.0" encoding="utf-8"?>
<!-- Generator: Adobe Illustrator 21.0.2, SVG Export Plug-In . SVG Version: 6.00 Build 0)  -->
<svg version="1.1" id="Capa_1" xmlns="http://www.w3.org/2000/svg" xmlns:xlink="http://www.w3.org/1999/xlink" x="0px" y="0px"
	 viewBox="0 0 512 513" style="enable-background:new 0 0 512 513;" xml:space="preserve">
<style type="text/css">
	.st0{fill:#FFFFFF;}
	.st1{fill:#C4302B;}
	.st2{fill:#F7B838;}
	.st3{font-family:'Montserrat-Regular';}
	.st4{font-size:37.4781px;}
</style>
<path class="st0" d="M393.1,329.1H121.6c-6.6,0-12-5.4-12-12v-284c0-6.6,5.4-12,12-12h271.5c6.6,0,12,5.4,12,12v284
	C405.1,323.7,399.7,329.1,393.1,329.1z"/>
<path class="st1" d="M-86,146.5h-136c-6.6,0-12-5.4-12-12v-59c0-6.6,5.4-12,12-12h136c6.6,0,12,5.4,12,12v59
	C-74,141.1-79.4,146.5-86,146.5z"/>
<g>
	<path class="st2" d="M484.8,454.2H25.2c-6.7,0-12.2-5.5-12.2-12.2V323.1c0-6.7,5.5-12.2,12.2-12.2h459.6c6.7,0,12.2,5.5,12.2,12.2
		V442C497,448.7,491.5,454.2,484.8,454.2z"/>
	<g id="Shopping_Bag-Hands-Bag-Purchase-Buy_1_">
		<path class="st2" d="M299.6,103h-15.1V91.7c0-14.6-11.9-26.5-26.5-26.5c-14.6,0-26.5,11.9-26.5,26.5V103h-15.1
			c-2.1,0-3.8,1.7-3.8,3.8v83.1c0,6.2,5.1,11.3,11.3,11.3h49.1v-7.6H224c-2.1,0-3.8-1.7-3.8-3.8v-3.8h52.9v-7.6h-52.9v-68h11.3v11.3
			h7.6v-11.3h37.8v11.3h7.6v-11.3h11.3v11.3h7.6v-15.1C303.3,104.7,301.6,103,299.6,103z M276.9,103h-37.8V91.7
			c0-10.4,8.5-18.9,18.9-18.9c10.4,0,18.9,8.5,18.9,18.9V103z"/>
		<path class="st2" d="M352.5,129.4h-68c-2.1,0-3.8,1.7-3.8,3.8v56.7c0,6.2,5.1,11.3,11.3,11.3h52.9c6.2,0,11.3-5.1,11.3-11.3v-56.7
			C356.2,131.1,354.5,129.4,352.5,129.4z M348.7,189.9c0,2.1-1.7,3.8-3.8,3.8H292c-2.1,0-3.8-1.7-3.8-3.8v-3.8h60.5V189.9z
			 M348.7,178.6h-60.5V137h60.5V178.6z"/>
		<path class="st2" d="M318.5,171c10.4,0,18.9-8.5,18.9-18.9v-7.6h-7.6v7.6c0,6.3-5.1,11.3-11.3,11.3s-11.3-5.1-11.3-11.3v-7.6h-7.6
			v7.6C299.6,162.6,308,171,318.5,171z"/>
		<path class="st2" d="M372.6,226c-3.5-7.3-12-10.7-19.6-7.8l-33.7,12.3c-1.5-5.8-6.1-10.2-12-11.2l-45.6-8
			c-9.8-1.7-19.9-0.9-29.2,2.6l-5.9,2.2c-5.5,2-10.7,4.8-15.5,8.2l-0.9-2.3c-0.7-2-2.9-3-4.8-2.3l0,0l-42.6,15.5
			c-2,0.7-3,2.9-2.3,4.8l0,0l-17.8,6.5l2.6,7.1l17.8-6.5l15.4,42.4l7.1-2.6l-16.7-45.9l35.5-12.9l19.4,53.3l-9.1,3.3l2.6,7.1
			l12.6-4.6c2-0.7,3-2.9,2.3-4.8l0,0l-1.3-3.5l8.7-3.2c5.5-2,11.3-2.8,17.1-2.4l17.9,1.2c6.8,0.5,13.7-0.5,20.2-2.8l69.1-25.1
			c7.8-2.8,11.9-11.5,9-19.4C372.9,226.7,372.8,226.3,372.6,226L372.6,226z M365.7,235.4c-0.9,1.8-2.4,3.2-4.3,3.9l-69.1,25.1
			c-5.5,2-11.3,2.8-17.1,2.4l-17.9-1.2c-6.8-0.5-13.7,0.5-20.2,2.8l-8.7,3.2l-14.5-40c4.6-3.6,9.8-6.5,15.4-8.5l5.9-2.1
			c8.1-2.9,16.9-3.7,25.3-2.2l45.6,8c4.1,0.7,6.9,4.5,6.2,8.7s-4.5,6.9-8.7,6.2c0,0-0.1,0-0.2,0l-41-7.2l-1.3,7.5l41,7.2
			c7.5,1.3,14.8-3.2,17-10.5l36.6-13.3c3.8-1.5,8.2,0.1,10.1,3.8C366.6,231.1,366.6,233.4,365.7,235.4z"/>
	</g>
	<text transform="matrix(1 0 0 1 78.7192 371.6778)"><tspan x="0" y="0" class="st0 st3 st4">¿Tienes algo para</tspan><tspan x="87.4" y="45" class="st0 st3 st4">vender?</tspan></text>
</g>
</svg>
