<?xml version="1.0" encoding="utf-8"?>
<!-- Generator: Adobe Illustrator 21.0.2, SVG Export Plug-In . SVG Version: 6.00 Build 0)  -->
<svg version="1.1" id="Capa_1" xmlns="http://www.w3.org/2000/svg" xmlns:xlink="http://www.w3.org/1999/xlink" x="0px" y="0px"
	 viewBox="0 0 476 402" style="enable-background:new 0 0 476 402;" xml:space="preserve">
<style type="text/css">
	.st0{fill:#030104;}
</style>
<g>
	<path class="st0" d="M344.2,283.8v45.9c0,7.3-6,13.3-13.3,13.3H144.9c-7.3,0-13.3-6-13.3-13.3V63.9c0-7.3,6-13.3,13.3-13.3h186.1
		c7.3,0,13.3,6,13.3,13.3v45.9l26.6,23V63.9c0-22-17.9-39.9-39.9-39.9H144.9c-22,0-39.9,17.9-39.9,39.9v265.8
		c0,22,17.9,39.9,39.9,39.9h186.1c22,0,39.9-17.9,39.9-39.9v-68.9L344.2,283.8z"/>
	<g>
		<path class="st0" d="M291.1,283.2c0,0-13.3,3.7-13.3-13.3c0-3.9,0-16.7,0-33.2H198c-7.3,0-13.3-6-13.3-13.3v-53.2
			c0-7.3,6-13.3,13.3-13.3h79.7c0-15.9,0-28.6,0-33.6c0-17.9,13.3-12.9,13.3-12.9l99.7,86.4L291.1,283.2z"/>
	</g>
</g>
</svg>
