<?xml version="1.0" encoding="utf-8"?>
<!-- Generator: Adobe Illustrator 21.0.2, SVG Export Plug-In . SVG Version: 6.00 Build 0)  -->
<svg version="1.1" id="Capa_1" xmlns="http://www.w3.org/2000/svg" xmlns:xlink="http://www.w3.org/1999/xlink" x="0px" y="0px"
	 viewBox="0 0 476 402" style="enable-background:new 0 0 476 402;" xml:space="preserve">
<path d="M282.1,198.5c27.8-17.8,46.3-48.9,46.3-84.4c0-55.3-45-100.3-100.3-100.3s-100.3,45-100.3,100.3c0,35.4,18.5,66.5,46.3,84.4
	c-56.8,21.8-97.3,76.9-97.3,141.3c0,27.2,22.1,49.2,49.2,49.2h204.1c27.2,0,49.2-22.1,49.2-49.2C379.4,275.4,339,220.3,282.1,198.5z
	 M153.8,114.1c0-41,33.4-74.4,74.4-74.4s74.4,33.4,74.4,74.4c0,41-33.4,74.4-74.4,74.4S153.8,155.1,153.8,114.1z M330.2,363.1H126.1
	c-12.9,0-23.4-10.5-23.4-23.4c0-69.1,56.2-125.4,125.4-125.4c69.1,0,125.4,56.2,125.4,125.4C353.5,352.6,343.1,363.1,330.2,363.1z"
	/>
</svg>
